%TF.GenerationSoftware,KiCad,Pcbnew,10.0.4*%
%TF.CreationDate,2026-06-25T23:00:17+12:00*%
%TF.ProjectId,MainPCB,4d61696e-5043-4422-9e6b-696361645f70,rev?*%
%TF.SameCoordinates,Original*%
%TF.FileFunction,Paste,Top*%
%TF.FilePolarity,Positive*%
%FSLAX46Y46*%
G04 Gerber Fmt 4.6, Leading zero omitted, Abs format (unit mm)*
G04 Created by KiCad (PCBNEW 10.0.4) date 2026-06-25 23:00:17*
%MOMM*%
%LPD*%
G01*
G04 APERTURE LIST*
G04 Aperture macros list*
%AMRoundRect*
0 Rectangle with rounded corners*
0 $1 Rounding radius*
0 $2 $3 $4 $5 $6 $7 $8 $9 X,Y pos of 4 corners*
0 Add a 4 corners polygon primitive as box body*
4,1,4,$2,$3,$4,$5,$6,$7,$8,$9,$2,$3,0*
0 Add four circle primitives for the rounded corners*
1,1,$1+$1,$2,$3*
1,1,$1+$1,$4,$5*
1,1,$1+$1,$6,$7*
1,1,$1+$1,$8,$9*
0 Add four rect primitives between the rounded corners*
20,1,$1+$1,$2,$3,$4,$5,0*
20,1,$1+$1,$4,$5,$6,$7,0*
20,1,$1+$1,$6,$7,$8,$9,0*
20,1,$1+$1,$8,$9,$2,$3,0*%
G04 Aperture macros list end*
%ADD10RoundRect,0.250000X0.262500X0.450000X-0.262500X0.450000X-0.262500X-0.450000X0.262500X-0.450000X0*%
%ADD11RoundRect,0.250000X0.450000X-0.262500X0.450000X0.262500X-0.450000X0.262500X-0.450000X-0.262500X0*%
%ADD12RoundRect,0.250000X-0.262500X-0.450000X0.262500X-0.450000X0.262500X0.450000X-0.262500X0.450000X0*%
%ADD13R,0.533400X0.304800*%
%ADD14R,0.304800X0.533400*%
%ADD15RoundRect,0.250000X-0.475000X0.250000X-0.475000X-0.250000X0.475000X-0.250000X0.475000X0.250000X0*%
%ADD16RoundRect,0.250000X-0.450000X0.262500X-0.450000X-0.262500X0.450000X-0.262500X0.450000X0.262500X0*%
%ADD17RoundRect,0.243750X-0.243750X-0.456250X0.243750X-0.456250X0.243750X0.456250X-0.243750X0.456250X0*%
%ADD18RoundRect,0.243750X0.243750X0.456250X-0.243750X0.456250X-0.243750X-0.456250X0.243750X-0.456250X0*%
%ADD19RoundRect,0.250000X-0.250000X-0.475000X0.250000X-0.475000X0.250000X0.475000X-0.250000X0.475000X0*%
%ADD20R,1.200000X0.700000*%
%ADD21R,1.200000X0.760000*%
%ADD22R,1.200000X0.800000*%
G04 APERTURE END LIST*
D10*
%TO.C,R16*%
X120461750Y-86564350D03*
X118636750Y-86564350D03*
%TD*%
D11*
%TO.C,R8*%
X72500000Y-91075000D03*
X72500000Y-89250000D03*
%TD*%
D12*
%TO.C,R10*%
X112337500Y-52750000D03*
X114162500Y-52750000D03*
%TD*%
D13*
%TO.C,U3*%
X65818900Y-91676911D03*
X65818900Y-92177037D03*
X65818900Y-92677163D03*
X65818900Y-93177289D03*
D14*
X66499874Y-93354200D03*
X67000000Y-93354200D03*
X67500126Y-93354200D03*
D13*
X68181100Y-93177289D03*
X68181100Y-92677163D03*
X68181100Y-92177037D03*
X68181100Y-91676911D03*
D14*
X67500126Y-91500000D03*
X67000000Y-91500000D03*
X66499874Y-91500000D03*
%TD*%
D15*
%TO.C,C3*%
X70750000Y-94300000D03*
X70750000Y-96200000D03*
%TD*%
D11*
%TO.C,R6*%
X61250000Y-91412500D03*
X61250000Y-89587500D03*
%TD*%
D16*
%TO.C,R13*%
X100750000Y-106160000D03*
X100750000Y-107985000D03*
%TD*%
D10*
%TO.C,R1*%
X77662500Y-53750000D03*
X75837500Y-53750000D03*
%TD*%
D11*
%TO.C,R9*%
X70500000Y-91075000D03*
X70500000Y-89250000D03*
%TD*%
D10*
%TO.C,R15*%
X120461750Y-88564350D03*
X118636750Y-88564350D03*
%TD*%
%TO.C,R12*%
X123961750Y-88564350D03*
X122136750Y-88564350D03*
%TD*%
D16*
%TO.C,R5*%
X137500000Y-105547500D03*
X137500000Y-107372500D03*
%TD*%
%TO.C,R4*%
X65295000Y-106102500D03*
X65295000Y-107927500D03*
%TD*%
%TO.C,R2*%
X62795000Y-106102500D03*
X62795000Y-107927500D03*
%TD*%
D10*
%TO.C,R11*%
X123961750Y-86564350D03*
X122136750Y-86564350D03*
%TD*%
D17*
%TO.C,D1*%
X92312500Y-52750000D03*
X94187500Y-52750000D03*
%TD*%
D18*
%TO.C,D10*%
X106687500Y-52750000D03*
X104812500Y-52750000D03*
%TD*%
D16*
%TO.C,R14*%
X69295000Y-106000000D03*
X69295000Y-107825000D03*
%TD*%
D19*
%TO.C,C1*%
X66050000Y-96250000D03*
X67950000Y-96250000D03*
%TD*%
D20*
%TO.C,J4*%
X57000000Y-106250000D03*
D21*
X57000000Y-108270000D03*
D22*
X57000000Y-109500000D03*
D20*
X57000000Y-107250000D03*
D21*
X57000000Y-105230000D03*
D22*
X57000000Y-104000000D03*
%TD*%
D12*
%TO.C,R3*%
X98587500Y-52750000D03*
X100412500Y-52750000D03*
%TD*%
D11*
%TO.C,R7*%
X63250000Y-91412500D03*
X63250000Y-89587500D03*
%TD*%
M02*
