M48
; DRILL file KiCad 10.0.4 date 2026-06-26T01:34:56
; FORMAT={-:-/ absolute / metric / decimal}
; #@! TF.CreationDate,2026-06-26T01:34:56+12:00
; #@! TF.GenerationSoftware,Kicad,Pcbnew,10.0.4
; #@! TF.FileFunction,Plated,1,2,PTH
FMAT,2
METRIC
; #@! TA.AperFunction,Plated,PTH,ViaDrill
T1C0.300
; #@! TA.AperFunction,Plated,PTH,ComponentDrill
T2C0.500
; #@! TA.AperFunction,Plated,PTH,ComponentDrill
T3C0.600
; #@! TA.AperFunction,Plated,PTH,ComponentDrill
T4C0.800
; #@! TA.AperFunction,Plated,PTH,ComponentDrill
T5C0.900
; #@! TA.AperFunction,Plated,PTH,ComponentDrill
T6C1.000
; #@! TA.AperFunction,Plated,PTH,ComponentDrill
T7C1.143
%
G90
G05
T1
X55.5Y-68.25
X56.75Y-62.75
X57.5Y-61.982
X59.837Y-94.0
X59.967Y-89.75
X60.0Y-69.5
X61.959Y-61.982
X62.75Y-64.5
X63.75Y-65.5
X64.75Y-70.5
X68.5Y-66.919
X68.75Y-69.5
X69.0Y-68.0
X70.75Y-69.5
X71.5Y-62.5
X72.5Y-70.0
X73.0Y-61.25
X74.5Y-63.25
X74.5Y-66.919
X76.0Y-84.5
X77.5Y-65.5
X79.632Y-96.0
X81.25Y-68.75
X82.25Y-77.5
X85.918Y-65.979
X90.3Y-65.4
X108.75Y-57.0
X127.0Y-58.5
X127.0Y-62.75
X131.0Y-60.5
X132.25Y-66.75
X134.959Y-64.85
X136.25Y-63.75
X138.0Y-65.5
X141.0Y-61.0
X142.25Y-70.5
T2
X56.634Y-80.494
X56.634Y-81.494
X56.634Y-82.494
X60.959Y-81.494
X61.959Y-81.494
X82.209Y-82.994
X83.209Y-82.994
X100.5Y-77.25
X101.5Y-77.25
X102.5Y-77.25
X103.5Y-77.25
X104.5Y-77.25
X134.588Y-91.96
X134.588Y-92.96
T4
X127.059Y-53.314
X127.059Y-76.174
X129.599Y-53.314
X129.599Y-76.174
X132.139Y-53.314
X132.139Y-76.174
X134.679Y-53.314
X134.679Y-76.174
X137.219Y-53.314
X137.219Y-76.174
X139.759Y-53.314
X139.759Y-76.174
X142.299Y-53.314
X142.299Y-76.174
X144.839Y-53.314
X144.839Y-76.174
T5
X76.132Y-91.485
X76.132Y-94.025
X108.087Y-91.735
X108.087Y-94.275
X145.588Y-90.96
X145.588Y-93.5
T6
X56.115Y-54.348
X56.115Y-72.128
X58.655Y-54.348
X58.655Y-72.128
X61.195Y-54.348
X61.195Y-72.128
X63.735Y-54.348
X63.735Y-72.128
X66.275Y-54.348
X66.275Y-72.128
X68.815Y-54.348
X68.815Y-72.128
X71.355Y-54.348
X71.355Y-72.128
X73.895Y-54.348
X73.895Y-72.128
X76.435Y-54.348
X76.435Y-72.128
X78.975Y-54.348
X78.975Y-72.128
X81.515Y-54.348
X81.515Y-72.128
X84.055Y-54.348
X84.055Y-72.128
X86.595Y-54.348
X86.595Y-72.128
X89.135Y-54.348
X89.135Y-72.128
X91.675Y-54.348
X91.675Y-72.128
X94.215Y-54.348
X94.215Y-72.128
X96.755Y-54.348
X96.755Y-72.128
X99.295Y-54.348
X99.295Y-72.128
X101.835Y-54.348
X101.835Y-72.128
X104.375Y-54.348
X104.375Y-72.128
T7
X68.17Y-78.0
X70.71Y-78.0
X73.25Y-78.0
T3
G00X54.258Y-88.18
M15
G01X53.657Y-88.18
M16
G05
G00X54.258Y-96.82
M15
G01X53.657Y-96.82
M16
G05
G00X58.057Y-88.18
M15
G01X57.457Y-88.18
M16
G05
G00X58.057Y-96.82
M15
G01X57.457Y-96.82
M16
G05
M30
