%TF.GenerationSoftware,KiCad,Pcbnew,10.0.4*%
%TF.CreationDate,2026-06-25T22:58:44+12:00*%
%TF.ProjectId,MainPCB,4d61696e-5043-4422-9e6b-696361645f70,rev?*%
%TF.SameCoordinates,Original*%
%TF.FileFunction,Soldermask,Bot*%
%TF.FilePolarity,Negative*%
%FSLAX46Y46*%
G04 Gerber Fmt 4.6, Leading zero omitted, Abs format (unit mm)*
G04 Created by KiCad (PCBNEW 10.0.4) date 2026-06-25 22:58:44*
%MOMM*%
%LPD*%
G01*
G04 APERTURE LIST*
G04 Aperture macros list*
%AMRoundRect*
0 Rectangle with rounded corners*
0 $1 Rounding radius*
0 $2 $3 $4 $5 $6 $7 $8 $9 X,Y pos of 4 corners*
0 Add a 4 corners polygon primitive as box body*
4,1,4,$2,$3,$4,$5,$6,$7,$8,$9,$2,$3,0*
0 Add four circle primitives for the rounded corners*
1,1,$1+$1,$2,$3*
1,1,$1+$1,$4,$5*
1,1,$1+$1,$6,$7*
1,1,$1+$1,$8,$9*
0 Add four rect primitives between the rounded corners*
20,1,$1+$1,$2,$3,$4,$5,0*
20,1,$1+$1,$4,$5,$6,$7,0*
20,1,$1+$1,$6,$7,$8,$9,0*
20,1,$1+$1,$8,$9,$2,$3,0*%
G04 Aperture macros list end*
%ADD10C,0.010000*%
%ADD11R,0.850000X0.850000*%
%ADD12C,0.850000*%
%ADD13R,1.651000X1.651000*%
%ADD14C,1.651000*%
%ADD15RoundRect,0.102000X0.754000X-0.754000X0.754000X0.754000X-0.754000X0.754000X-0.754000X-0.754000X0*%
%ADD16R,1.800000X1.800000*%
%ADD17C,1.800000*%
%ADD18C,2.134400*%
%ADD19R,1.500000X1.500000*%
G04 APERTURE END LIST*
D10*
%TO.C,J4*%
X53420000Y-101780000D02*
X52820000Y-101780000D01*
X52786000Y-101781000D01*
X52752000Y-101784000D01*
X52718000Y-101788000D01*
X52685000Y-101794000D01*
X52652000Y-101802000D01*
X52619000Y-101812000D01*
X52587000Y-101823000D01*
X52556000Y-101836000D01*
X52525000Y-101851000D01*
X52495000Y-101867000D01*
X52466000Y-101885000D01*
X52438000Y-101904000D01*
X52411000Y-101925000D01*
X52385000Y-101947000D01*
X52360000Y-101970000D01*
X52337000Y-101995000D01*
X52315000Y-102021000D01*
X52294000Y-102048000D01*
X52275000Y-102076000D01*
X52257000Y-102105000D01*
X52241000Y-102135000D01*
X52226000Y-102166000D01*
X52213000Y-102197000D01*
X52202000Y-102229000D01*
X52192000Y-102262000D01*
X52184000Y-102295000D01*
X52178000Y-102328000D01*
X52174000Y-102362000D01*
X52171000Y-102396000D01*
X52170000Y-102430000D01*
X52171000Y-102464000D01*
X52174000Y-102498000D01*
X52178000Y-102532000D01*
X52184000Y-102565000D01*
X52192000Y-102598000D01*
X52202000Y-102631000D01*
X52213000Y-102663000D01*
X52226000Y-102694000D01*
X52241000Y-102725000D01*
X52257000Y-102755000D01*
X52275000Y-102784000D01*
X52294000Y-102812000D01*
X52315000Y-102839000D01*
X52337000Y-102865000D01*
X52360000Y-102890000D01*
X52385000Y-102913000D01*
X52411000Y-102935000D01*
X52438000Y-102956000D01*
X52466000Y-102975000D01*
X52495000Y-102993000D01*
X52525000Y-103009000D01*
X52556000Y-103024000D01*
X52587000Y-103037000D01*
X52619000Y-103048000D01*
X52652000Y-103058000D01*
X52685000Y-103066000D01*
X52718000Y-103072000D01*
X52752000Y-103076000D01*
X52786000Y-103079000D01*
X52820000Y-103080000D01*
X53420000Y-103080000D01*
X53454000Y-103079000D01*
X53488000Y-103076000D01*
X53522000Y-103072000D01*
X53555000Y-103066000D01*
X53588000Y-103058000D01*
X53621000Y-103048000D01*
X53653000Y-103037000D01*
X53684000Y-103024000D01*
X53715000Y-103009000D01*
X53745000Y-102993000D01*
X53774000Y-102975000D01*
X53802000Y-102956000D01*
X53829000Y-102935000D01*
X53855000Y-102913000D01*
X53880000Y-102890000D01*
X53903000Y-102865000D01*
X53925000Y-102839000D01*
X53946000Y-102812000D01*
X53965000Y-102784000D01*
X53983000Y-102755000D01*
X53999000Y-102725000D01*
X54014000Y-102694000D01*
X54027000Y-102663000D01*
X54038000Y-102631000D01*
X54048000Y-102598000D01*
X54056000Y-102565000D01*
X54062000Y-102532000D01*
X54066000Y-102498000D01*
X54069000Y-102464000D01*
X54070000Y-102430000D01*
X54069000Y-102396000D01*
X54066000Y-102362000D01*
X54062000Y-102328000D01*
X54056000Y-102295000D01*
X54048000Y-102262000D01*
X54038000Y-102229000D01*
X54027000Y-102197000D01*
X54014000Y-102166000D01*
X53999000Y-102135000D01*
X53983000Y-102105000D01*
X53965000Y-102076000D01*
X53946000Y-102048000D01*
X53925000Y-102021000D01*
X53903000Y-101995000D01*
X53880000Y-101970000D01*
X53855000Y-101947000D01*
X53829000Y-101925000D01*
X53802000Y-101904000D01*
X53774000Y-101885000D01*
X53745000Y-101867000D01*
X53715000Y-101851000D01*
X53684000Y-101836000D01*
X53653000Y-101823000D01*
X53621000Y-101812000D01*
X53588000Y-101802000D01*
X53555000Y-101794000D01*
X53522000Y-101788000D01*
X53488000Y-101784000D01*
X53454000Y-101781000D01*
X53420000Y-101780000D01*
G36*
X53454000Y-101781000D02*
G01*
X53488000Y-101784000D01*
X53522000Y-101788000D01*
X53555000Y-101794000D01*
X53588000Y-101802000D01*
X53621000Y-101812000D01*
X53653000Y-101823000D01*
X53684000Y-101836000D01*
X53715000Y-101851000D01*
X53745000Y-101867000D01*
X53774000Y-101885000D01*
X53802000Y-101904000D01*
X53829000Y-101925000D01*
X53855000Y-101947000D01*
X53880000Y-101970000D01*
X53903000Y-101995000D01*
X53925000Y-102021000D01*
X53946000Y-102048000D01*
X53965000Y-102076000D01*
X53983000Y-102105000D01*
X53999000Y-102135000D01*
X54014000Y-102166000D01*
X54027000Y-102197000D01*
X54038000Y-102229000D01*
X54048000Y-102262000D01*
X54056000Y-102295000D01*
X54062000Y-102328000D01*
X54066000Y-102362000D01*
X54069000Y-102396000D01*
X54070000Y-102430000D01*
X54069000Y-102464000D01*
X54066000Y-102498000D01*
X54062000Y-102532000D01*
X54056000Y-102565000D01*
X54048000Y-102598000D01*
X54038000Y-102631000D01*
X54027000Y-102663000D01*
X54014000Y-102694000D01*
X53999000Y-102725000D01*
X53983000Y-102755000D01*
X53965000Y-102784000D01*
X53946000Y-102812000D01*
X53925000Y-102839000D01*
X53903000Y-102865000D01*
X53880000Y-102890000D01*
X53855000Y-102913000D01*
X53829000Y-102935000D01*
X53802000Y-102956000D01*
X53774000Y-102975000D01*
X53745000Y-102993000D01*
X53715000Y-103009000D01*
X53684000Y-103024000D01*
X53653000Y-103037000D01*
X53621000Y-103048000D01*
X53588000Y-103058000D01*
X53555000Y-103066000D01*
X53522000Y-103072000D01*
X53488000Y-103076000D01*
X53454000Y-103079000D01*
X53420000Y-103080000D01*
X52820000Y-103080000D01*
X52786000Y-103079000D01*
X52752000Y-103076000D01*
X52718000Y-103072000D01*
X52685000Y-103066000D01*
X52652000Y-103058000D01*
X52619000Y-103048000D01*
X52587000Y-103037000D01*
X52556000Y-103024000D01*
X52525000Y-103009000D01*
X52495000Y-102993000D01*
X52466000Y-102975000D01*
X52438000Y-102956000D01*
X52411000Y-102935000D01*
X52385000Y-102913000D01*
X52360000Y-102890000D01*
X52337000Y-102865000D01*
X52315000Y-102839000D01*
X52294000Y-102812000D01*
X52275000Y-102784000D01*
X52257000Y-102755000D01*
X52241000Y-102725000D01*
X52226000Y-102694000D01*
X52213000Y-102663000D01*
X52202000Y-102631000D01*
X52192000Y-102598000D01*
X52184000Y-102565000D01*
X52178000Y-102532000D01*
X52174000Y-102498000D01*
X52171000Y-102464000D01*
X52170000Y-102430000D01*
X52171000Y-102396000D01*
X52174000Y-102362000D01*
X52178000Y-102328000D01*
X52184000Y-102295000D01*
X52192000Y-102262000D01*
X52202000Y-102229000D01*
X52213000Y-102197000D01*
X52226000Y-102166000D01*
X52241000Y-102135000D01*
X52257000Y-102105000D01*
X52275000Y-102076000D01*
X52294000Y-102048000D01*
X52315000Y-102021000D01*
X52337000Y-101995000D01*
X52360000Y-101970000D01*
X52385000Y-101947000D01*
X52411000Y-101925000D01*
X52438000Y-101904000D01*
X52466000Y-101885000D01*
X52495000Y-101867000D01*
X52525000Y-101851000D01*
X52556000Y-101836000D01*
X52587000Y-101823000D01*
X52619000Y-101812000D01*
X52652000Y-101802000D01*
X52685000Y-101794000D01*
X52718000Y-101788000D01*
X52752000Y-101784000D01*
X52786000Y-101781000D01*
X52820000Y-101780000D01*
X53420000Y-101780000D01*
X53454000Y-101781000D01*
G37*
X53420000Y-110420000D02*
X52820000Y-110420000D01*
X52786000Y-110421000D01*
X52752000Y-110424000D01*
X52718000Y-110428000D01*
X52685000Y-110434000D01*
X52652000Y-110442000D01*
X52619000Y-110452000D01*
X52587000Y-110463000D01*
X52556000Y-110476000D01*
X52525000Y-110491000D01*
X52495000Y-110507000D01*
X52466000Y-110525000D01*
X52438000Y-110544000D01*
X52411000Y-110565000D01*
X52385000Y-110587000D01*
X52360000Y-110610000D01*
X52337000Y-110635000D01*
X52315000Y-110661000D01*
X52294000Y-110688000D01*
X52275000Y-110716000D01*
X52257000Y-110745000D01*
X52241000Y-110775000D01*
X52226000Y-110806000D01*
X52213000Y-110837000D01*
X52202000Y-110869000D01*
X52192000Y-110902000D01*
X52184000Y-110935000D01*
X52178000Y-110968000D01*
X52174000Y-111002000D01*
X52171000Y-111036000D01*
X52170000Y-111070000D01*
X52171000Y-111104000D01*
X52174000Y-111138000D01*
X52178000Y-111172000D01*
X52184000Y-111205000D01*
X52192000Y-111238000D01*
X52202000Y-111271000D01*
X52213000Y-111303000D01*
X52226000Y-111334000D01*
X52241000Y-111365000D01*
X52257000Y-111395000D01*
X52275000Y-111424000D01*
X52294000Y-111452000D01*
X52315000Y-111479000D01*
X52337000Y-111505000D01*
X52360000Y-111530000D01*
X52385000Y-111553000D01*
X52411000Y-111575000D01*
X52438000Y-111596000D01*
X52466000Y-111615000D01*
X52495000Y-111633000D01*
X52525000Y-111649000D01*
X52556000Y-111664000D01*
X52587000Y-111677000D01*
X52619000Y-111688000D01*
X52652000Y-111698000D01*
X52685000Y-111706000D01*
X52718000Y-111712000D01*
X52752000Y-111716000D01*
X52786000Y-111719000D01*
X52820000Y-111720000D01*
X53420000Y-111720000D01*
X53454000Y-111719000D01*
X53488000Y-111716000D01*
X53522000Y-111712000D01*
X53555000Y-111706000D01*
X53588000Y-111698000D01*
X53621000Y-111688000D01*
X53653000Y-111677000D01*
X53684000Y-111664000D01*
X53715000Y-111649000D01*
X53745000Y-111633000D01*
X53774000Y-111615000D01*
X53802000Y-111596000D01*
X53829000Y-111575000D01*
X53855000Y-111553000D01*
X53880000Y-111530000D01*
X53903000Y-111505000D01*
X53925000Y-111479000D01*
X53946000Y-111452000D01*
X53965000Y-111424000D01*
X53983000Y-111395000D01*
X53999000Y-111365000D01*
X54014000Y-111334000D01*
X54027000Y-111303000D01*
X54038000Y-111271000D01*
X54048000Y-111238000D01*
X54056000Y-111205000D01*
X54062000Y-111172000D01*
X54066000Y-111138000D01*
X54069000Y-111104000D01*
X54070000Y-111070000D01*
X54069000Y-111036000D01*
X54066000Y-111002000D01*
X54062000Y-110968000D01*
X54056000Y-110935000D01*
X54048000Y-110902000D01*
X54038000Y-110869000D01*
X54027000Y-110837000D01*
X54014000Y-110806000D01*
X53999000Y-110775000D01*
X53983000Y-110745000D01*
X53965000Y-110716000D01*
X53946000Y-110688000D01*
X53925000Y-110661000D01*
X53903000Y-110635000D01*
X53880000Y-110610000D01*
X53855000Y-110587000D01*
X53829000Y-110565000D01*
X53802000Y-110544000D01*
X53774000Y-110525000D01*
X53745000Y-110507000D01*
X53715000Y-110491000D01*
X53684000Y-110476000D01*
X53653000Y-110463000D01*
X53621000Y-110452000D01*
X53588000Y-110442000D01*
X53555000Y-110434000D01*
X53522000Y-110428000D01*
X53488000Y-110424000D01*
X53454000Y-110421000D01*
X53420000Y-110420000D01*
G36*
X53454000Y-110421000D02*
G01*
X53488000Y-110424000D01*
X53522000Y-110428000D01*
X53555000Y-110434000D01*
X53588000Y-110442000D01*
X53621000Y-110452000D01*
X53653000Y-110463000D01*
X53684000Y-110476000D01*
X53715000Y-110491000D01*
X53745000Y-110507000D01*
X53774000Y-110525000D01*
X53802000Y-110544000D01*
X53829000Y-110565000D01*
X53855000Y-110587000D01*
X53880000Y-110610000D01*
X53903000Y-110635000D01*
X53925000Y-110661000D01*
X53946000Y-110688000D01*
X53965000Y-110716000D01*
X53983000Y-110745000D01*
X53999000Y-110775000D01*
X54014000Y-110806000D01*
X54027000Y-110837000D01*
X54038000Y-110869000D01*
X54048000Y-110902000D01*
X54056000Y-110935000D01*
X54062000Y-110968000D01*
X54066000Y-111002000D01*
X54069000Y-111036000D01*
X54070000Y-111070000D01*
X54069000Y-111104000D01*
X54066000Y-111138000D01*
X54062000Y-111172000D01*
X54056000Y-111205000D01*
X54048000Y-111238000D01*
X54038000Y-111271000D01*
X54027000Y-111303000D01*
X54014000Y-111334000D01*
X53999000Y-111365000D01*
X53983000Y-111395000D01*
X53965000Y-111424000D01*
X53946000Y-111452000D01*
X53925000Y-111479000D01*
X53903000Y-111505000D01*
X53880000Y-111530000D01*
X53855000Y-111553000D01*
X53829000Y-111575000D01*
X53802000Y-111596000D01*
X53774000Y-111615000D01*
X53745000Y-111633000D01*
X53715000Y-111649000D01*
X53684000Y-111664000D01*
X53653000Y-111677000D01*
X53621000Y-111688000D01*
X53588000Y-111698000D01*
X53555000Y-111706000D01*
X53522000Y-111712000D01*
X53488000Y-111716000D01*
X53454000Y-111719000D01*
X53420000Y-111720000D01*
X52820000Y-111720000D01*
X52786000Y-111719000D01*
X52752000Y-111716000D01*
X52718000Y-111712000D01*
X52685000Y-111706000D01*
X52652000Y-111698000D01*
X52619000Y-111688000D01*
X52587000Y-111677000D01*
X52556000Y-111664000D01*
X52525000Y-111649000D01*
X52495000Y-111633000D01*
X52466000Y-111615000D01*
X52438000Y-111596000D01*
X52411000Y-111575000D01*
X52385000Y-111553000D01*
X52360000Y-111530000D01*
X52337000Y-111505000D01*
X52315000Y-111479000D01*
X52294000Y-111452000D01*
X52275000Y-111424000D01*
X52257000Y-111395000D01*
X52241000Y-111365000D01*
X52226000Y-111334000D01*
X52213000Y-111303000D01*
X52202000Y-111271000D01*
X52192000Y-111238000D01*
X52184000Y-111205000D01*
X52178000Y-111172000D01*
X52174000Y-111138000D01*
X52171000Y-111104000D01*
X52170000Y-111070000D01*
X52171000Y-111036000D01*
X52174000Y-111002000D01*
X52178000Y-110968000D01*
X52184000Y-110935000D01*
X52192000Y-110902000D01*
X52202000Y-110869000D01*
X52213000Y-110837000D01*
X52226000Y-110806000D01*
X52241000Y-110775000D01*
X52257000Y-110745000D01*
X52275000Y-110716000D01*
X52294000Y-110688000D01*
X52315000Y-110661000D01*
X52337000Y-110635000D01*
X52360000Y-110610000D01*
X52385000Y-110587000D01*
X52411000Y-110565000D01*
X52438000Y-110544000D01*
X52466000Y-110525000D01*
X52495000Y-110507000D01*
X52525000Y-110491000D01*
X52556000Y-110476000D01*
X52587000Y-110463000D01*
X52619000Y-110452000D01*
X52652000Y-110442000D01*
X52685000Y-110434000D01*
X52718000Y-110428000D01*
X52752000Y-110424000D01*
X52786000Y-110421000D01*
X52820000Y-110420000D01*
X53420000Y-110420000D01*
X53454000Y-110421000D01*
G37*
X57220000Y-101780000D02*
X56620000Y-101780000D01*
X56586000Y-101781000D01*
X56552000Y-101784000D01*
X56518000Y-101788000D01*
X56485000Y-101794000D01*
X56452000Y-101802000D01*
X56419000Y-101812000D01*
X56387000Y-101823000D01*
X56356000Y-101836000D01*
X56325000Y-101851000D01*
X56295000Y-101867000D01*
X56266000Y-101885000D01*
X56238000Y-101904000D01*
X56211000Y-101925000D01*
X56185000Y-101947000D01*
X56160000Y-101970000D01*
X56137000Y-101995000D01*
X56115000Y-102021000D01*
X56094000Y-102048000D01*
X56075000Y-102076000D01*
X56057000Y-102105000D01*
X56041000Y-102135000D01*
X56026000Y-102166000D01*
X56013000Y-102197000D01*
X56002000Y-102229000D01*
X55992000Y-102262000D01*
X55984000Y-102295000D01*
X55978000Y-102328000D01*
X55974000Y-102362000D01*
X55971000Y-102396000D01*
X55970000Y-102430000D01*
X55971000Y-102464000D01*
X55974000Y-102498000D01*
X55978000Y-102532000D01*
X55984000Y-102565000D01*
X55992000Y-102598000D01*
X56002000Y-102631000D01*
X56013000Y-102663000D01*
X56026000Y-102694000D01*
X56041000Y-102725000D01*
X56057000Y-102755000D01*
X56075000Y-102784000D01*
X56094000Y-102812000D01*
X56115000Y-102839000D01*
X56137000Y-102865000D01*
X56160000Y-102890000D01*
X56185000Y-102913000D01*
X56211000Y-102935000D01*
X56238000Y-102956000D01*
X56266000Y-102975000D01*
X56295000Y-102993000D01*
X56325000Y-103009000D01*
X56356000Y-103024000D01*
X56387000Y-103037000D01*
X56419000Y-103048000D01*
X56452000Y-103058000D01*
X56485000Y-103066000D01*
X56518000Y-103072000D01*
X56552000Y-103076000D01*
X56586000Y-103079000D01*
X56620000Y-103080000D01*
X57220000Y-103080000D01*
X57254000Y-103079000D01*
X57288000Y-103076000D01*
X57322000Y-103072000D01*
X57355000Y-103066000D01*
X57388000Y-103058000D01*
X57421000Y-103048000D01*
X57453000Y-103037000D01*
X57484000Y-103024000D01*
X57515000Y-103009000D01*
X57545000Y-102993000D01*
X57574000Y-102975000D01*
X57602000Y-102956000D01*
X57629000Y-102935000D01*
X57655000Y-102913000D01*
X57680000Y-102890000D01*
X57703000Y-102865000D01*
X57725000Y-102839000D01*
X57746000Y-102812000D01*
X57765000Y-102784000D01*
X57783000Y-102755000D01*
X57799000Y-102725000D01*
X57814000Y-102694000D01*
X57827000Y-102663000D01*
X57838000Y-102631000D01*
X57848000Y-102598000D01*
X57856000Y-102565000D01*
X57862000Y-102532000D01*
X57866000Y-102498000D01*
X57869000Y-102464000D01*
X57870000Y-102430000D01*
X57869000Y-102396000D01*
X57866000Y-102362000D01*
X57862000Y-102328000D01*
X57856000Y-102295000D01*
X57848000Y-102262000D01*
X57838000Y-102229000D01*
X57827000Y-102197000D01*
X57814000Y-102166000D01*
X57799000Y-102135000D01*
X57783000Y-102105000D01*
X57765000Y-102076000D01*
X57746000Y-102048000D01*
X57725000Y-102021000D01*
X57703000Y-101995000D01*
X57680000Y-101970000D01*
X57655000Y-101947000D01*
X57629000Y-101925000D01*
X57602000Y-101904000D01*
X57574000Y-101885000D01*
X57545000Y-101867000D01*
X57515000Y-101851000D01*
X57484000Y-101836000D01*
X57453000Y-101823000D01*
X57421000Y-101812000D01*
X57388000Y-101802000D01*
X57355000Y-101794000D01*
X57322000Y-101788000D01*
X57288000Y-101784000D01*
X57254000Y-101781000D01*
X57220000Y-101780000D01*
G36*
X57254000Y-101781000D02*
G01*
X57288000Y-101784000D01*
X57322000Y-101788000D01*
X57355000Y-101794000D01*
X57388000Y-101802000D01*
X57421000Y-101812000D01*
X57453000Y-101823000D01*
X57484000Y-101836000D01*
X57515000Y-101851000D01*
X57545000Y-101867000D01*
X57574000Y-101885000D01*
X57602000Y-101904000D01*
X57629000Y-101925000D01*
X57655000Y-101947000D01*
X57680000Y-101970000D01*
X57703000Y-101995000D01*
X57725000Y-102021000D01*
X57746000Y-102048000D01*
X57765000Y-102076000D01*
X57783000Y-102105000D01*
X57799000Y-102135000D01*
X57814000Y-102166000D01*
X57827000Y-102197000D01*
X57838000Y-102229000D01*
X57848000Y-102262000D01*
X57856000Y-102295000D01*
X57862000Y-102328000D01*
X57866000Y-102362000D01*
X57869000Y-102396000D01*
X57870000Y-102430000D01*
X57869000Y-102464000D01*
X57866000Y-102498000D01*
X57862000Y-102532000D01*
X57856000Y-102565000D01*
X57848000Y-102598000D01*
X57838000Y-102631000D01*
X57827000Y-102663000D01*
X57814000Y-102694000D01*
X57799000Y-102725000D01*
X57783000Y-102755000D01*
X57765000Y-102784000D01*
X57746000Y-102812000D01*
X57725000Y-102839000D01*
X57703000Y-102865000D01*
X57680000Y-102890000D01*
X57655000Y-102913000D01*
X57629000Y-102935000D01*
X57602000Y-102956000D01*
X57574000Y-102975000D01*
X57545000Y-102993000D01*
X57515000Y-103009000D01*
X57484000Y-103024000D01*
X57453000Y-103037000D01*
X57421000Y-103048000D01*
X57388000Y-103058000D01*
X57355000Y-103066000D01*
X57322000Y-103072000D01*
X57288000Y-103076000D01*
X57254000Y-103079000D01*
X57220000Y-103080000D01*
X56620000Y-103080000D01*
X56586000Y-103079000D01*
X56552000Y-103076000D01*
X56518000Y-103072000D01*
X56485000Y-103066000D01*
X56452000Y-103058000D01*
X56419000Y-103048000D01*
X56387000Y-103037000D01*
X56356000Y-103024000D01*
X56325000Y-103009000D01*
X56295000Y-102993000D01*
X56266000Y-102975000D01*
X56238000Y-102956000D01*
X56211000Y-102935000D01*
X56185000Y-102913000D01*
X56160000Y-102890000D01*
X56137000Y-102865000D01*
X56115000Y-102839000D01*
X56094000Y-102812000D01*
X56075000Y-102784000D01*
X56057000Y-102755000D01*
X56041000Y-102725000D01*
X56026000Y-102694000D01*
X56013000Y-102663000D01*
X56002000Y-102631000D01*
X55992000Y-102598000D01*
X55984000Y-102565000D01*
X55978000Y-102532000D01*
X55974000Y-102498000D01*
X55971000Y-102464000D01*
X55970000Y-102430000D01*
X55971000Y-102396000D01*
X55974000Y-102362000D01*
X55978000Y-102328000D01*
X55984000Y-102295000D01*
X55992000Y-102262000D01*
X56002000Y-102229000D01*
X56013000Y-102197000D01*
X56026000Y-102166000D01*
X56041000Y-102135000D01*
X56057000Y-102105000D01*
X56075000Y-102076000D01*
X56094000Y-102048000D01*
X56115000Y-102021000D01*
X56137000Y-101995000D01*
X56160000Y-101970000D01*
X56185000Y-101947000D01*
X56211000Y-101925000D01*
X56238000Y-101904000D01*
X56266000Y-101885000D01*
X56295000Y-101867000D01*
X56325000Y-101851000D01*
X56356000Y-101836000D01*
X56387000Y-101823000D01*
X56419000Y-101812000D01*
X56452000Y-101802000D01*
X56485000Y-101794000D01*
X56518000Y-101788000D01*
X56552000Y-101784000D01*
X56586000Y-101781000D01*
X56620000Y-101780000D01*
X57220000Y-101780000D01*
X57254000Y-101781000D01*
G37*
X57220000Y-110420000D02*
X56620000Y-110420000D01*
X56586000Y-110421000D01*
X56552000Y-110424000D01*
X56518000Y-110428000D01*
X56485000Y-110434000D01*
X56452000Y-110442000D01*
X56419000Y-110452000D01*
X56387000Y-110463000D01*
X56356000Y-110476000D01*
X56325000Y-110491000D01*
X56295000Y-110507000D01*
X56266000Y-110525000D01*
X56238000Y-110544000D01*
X56211000Y-110565000D01*
X56185000Y-110587000D01*
X56160000Y-110610000D01*
X56137000Y-110635000D01*
X56115000Y-110661000D01*
X56094000Y-110688000D01*
X56075000Y-110716000D01*
X56057000Y-110745000D01*
X56041000Y-110775000D01*
X56026000Y-110806000D01*
X56013000Y-110837000D01*
X56002000Y-110869000D01*
X55992000Y-110902000D01*
X55984000Y-110935000D01*
X55978000Y-110968000D01*
X55974000Y-111002000D01*
X55971000Y-111036000D01*
X55970000Y-111070000D01*
X55971000Y-111104000D01*
X55974000Y-111138000D01*
X55978000Y-111172000D01*
X55984000Y-111205000D01*
X55992000Y-111238000D01*
X56002000Y-111271000D01*
X56013000Y-111303000D01*
X56026000Y-111334000D01*
X56041000Y-111365000D01*
X56057000Y-111395000D01*
X56075000Y-111424000D01*
X56094000Y-111452000D01*
X56115000Y-111479000D01*
X56137000Y-111505000D01*
X56160000Y-111530000D01*
X56185000Y-111553000D01*
X56211000Y-111575000D01*
X56238000Y-111596000D01*
X56266000Y-111615000D01*
X56295000Y-111633000D01*
X56325000Y-111649000D01*
X56356000Y-111664000D01*
X56387000Y-111677000D01*
X56419000Y-111688000D01*
X56452000Y-111698000D01*
X56485000Y-111706000D01*
X56518000Y-111712000D01*
X56552000Y-111716000D01*
X56586000Y-111719000D01*
X56620000Y-111720000D01*
X57220000Y-111720000D01*
X57254000Y-111719000D01*
X57288000Y-111716000D01*
X57322000Y-111712000D01*
X57355000Y-111706000D01*
X57388000Y-111698000D01*
X57421000Y-111688000D01*
X57453000Y-111677000D01*
X57484000Y-111664000D01*
X57515000Y-111649000D01*
X57545000Y-111633000D01*
X57574000Y-111615000D01*
X57602000Y-111596000D01*
X57629000Y-111575000D01*
X57655000Y-111553000D01*
X57680000Y-111530000D01*
X57703000Y-111505000D01*
X57725000Y-111479000D01*
X57746000Y-111452000D01*
X57765000Y-111424000D01*
X57783000Y-111395000D01*
X57799000Y-111365000D01*
X57814000Y-111334000D01*
X57827000Y-111303000D01*
X57838000Y-111271000D01*
X57848000Y-111238000D01*
X57856000Y-111205000D01*
X57862000Y-111172000D01*
X57866000Y-111138000D01*
X57869000Y-111104000D01*
X57870000Y-111070000D01*
X57869000Y-111036000D01*
X57866000Y-111002000D01*
X57862000Y-110968000D01*
X57856000Y-110935000D01*
X57848000Y-110902000D01*
X57838000Y-110869000D01*
X57827000Y-110837000D01*
X57814000Y-110806000D01*
X57799000Y-110775000D01*
X57783000Y-110745000D01*
X57765000Y-110716000D01*
X57746000Y-110688000D01*
X57725000Y-110661000D01*
X57703000Y-110635000D01*
X57680000Y-110610000D01*
X57655000Y-110587000D01*
X57629000Y-110565000D01*
X57602000Y-110544000D01*
X57574000Y-110525000D01*
X57545000Y-110507000D01*
X57515000Y-110491000D01*
X57484000Y-110476000D01*
X57453000Y-110463000D01*
X57421000Y-110452000D01*
X57388000Y-110442000D01*
X57355000Y-110434000D01*
X57322000Y-110428000D01*
X57288000Y-110424000D01*
X57254000Y-110421000D01*
X57220000Y-110420000D01*
G36*
X57254000Y-110421000D02*
G01*
X57288000Y-110424000D01*
X57322000Y-110428000D01*
X57355000Y-110434000D01*
X57388000Y-110442000D01*
X57421000Y-110452000D01*
X57453000Y-110463000D01*
X57484000Y-110476000D01*
X57515000Y-110491000D01*
X57545000Y-110507000D01*
X57574000Y-110525000D01*
X57602000Y-110544000D01*
X57629000Y-110565000D01*
X57655000Y-110587000D01*
X57680000Y-110610000D01*
X57703000Y-110635000D01*
X57725000Y-110661000D01*
X57746000Y-110688000D01*
X57765000Y-110716000D01*
X57783000Y-110745000D01*
X57799000Y-110775000D01*
X57814000Y-110806000D01*
X57827000Y-110837000D01*
X57838000Y-110869000D01*
X57848000Y-110902000D01*
X57856000Y-110935000D01*
X57862000Y-110968000D01*
X57866000Y-111002000D01*
X57869000Y-111036000D01*
X57870000Y-111070000D01*
X57869000Y-111104000D01*
X57866000Y-111138000D01*
X57862000Y-111172000D01*
X57856000Y-111205000D01*
X57848000Y-111238000D01*
X57838000Y-111271000D01*
X57827000Y-111303000D01*
X57814000Y-111334000D01*
X57799000Y-111365000D01*
X57783000Y-111395000D01*
X57765000Y-111424000D01*
X57746000Y-111452000D01*
X57725000Y-111479000D01*
X57703000Y-111505000D01*
X57680000Y-111530000D01*
X57655000Y-111553000D01*
X57629000Y-111575000D01*
X57602000Y-111596000D01*
X57574000Y-111615000D01*
X57545000Y-111633000D01*
X57515000Y-111649000D01*
X57484000Y-111664000D01*
X57453000Y-111677000D01*
X57421000Y-111688000D01*
X57388000Y-111698000D01*
X57355000Y-111706000D01*
X57322000Y-111712000D01*
X57288000Y-111716000D01*
X57254000Y-111719000D01*
X57220000Y-111720000D01*
X56620000Y-111720000D01*
X56586000Y-111719000D01*
X56552000Y-111716000D01*
X56518000Y-111712000D01*
X56485000Y-111706000D01*
X56452000Y-111698000D01*
X56419000Y-111688000D01*
X56387000Y-111677000D01*
X56356000Y-111664000D01*
X56325000Y-111649000D01*
X56295000Y-111633000D01*
X56266000Y-111615000D01*
X56238000Y-111596000D01*
X56211000Y-111575000D01*
X56185000Y-111553000D01*
X56160000Y-111530000D01*
X56137000Y-111505000D01*
X56115000Y-111479000D01*
X56094000Y-111452000D01*
X56075000Y-111424000D01*
X56057000Y-111395000D01*
X56041000Y-111365000D01*
X56026000Y-111334000D01*
X56013000Y-111303000D01*
X56002000Y-111271000D01*
X55992000Y-111238000D01*
X55984000Y-111205000D01*
X55978000Y-111172000D01*
X55974000Y-111138000D01*
X55971000Y-111104000D01*
X55970000Y-111070000D01*
X55971000Y-111036000D01*
X55974000Y-111002000D01*
X55978000Y-110968000D01*
X55984000Y-110935000D01*
X55992000Y-110902000D01*
X56002000Y-110869000D01*
X56013000Y-110837000D01*
X56026000Y-110806000D01*
X56041000Y-110775000D01*
X56057000Y-110745000D01*
X56075000Y-110716000D01*
X56094000Y-110688000D01*
X56115000Y-110661000D01*
X56137000Y-110635000D01*
X56160000Y-110610000D01*
X56185000Y-110587000D01*
X56211000Y-110565000D01*
X56238000Y-110544000D01*
X56266000Y-110525000D01*
X56295000Y-110507000D01*
X56325000Y-110491000D01*
X56356000Y-110476000D01*
X56387000Y-110463000D01*
X56419000Y-110452000D01*
X56452000Y-110442000D01*
X56485000Y-110434000D01*
X56518000Y-110428000D01*
X56552000Y-110424000D01*
X56586000Y-110421000D01*
X56620000Y-110420000D01*
X57220000Y-110420000D01*
X57254000Y-110421000D01*
G37*
%TD*%
D11*
%TO.C,J3*%
X54549250Y-57064350D03*
D12*
X55549250Y-57064350D03*
X56549250Y-57064350D03*
%TD*%
D13*
%TO.C,Q1*%
X68612900Y-52818200D03*
D14*
X66072900Y-52818200D03*
X63532900Y-52818200D03*
%TD*%
D11*
%TO.C,J1*%
X91500000Y-95250000D03*
D12*
X92500000Y-95250000D03*
X93500000Y-95250000D03*
X94500000Y-95250000D03*
X95500000Y-95250000D03*
%TD*%
D15*
%TO.C,U2*%
X63189250Y-62284350D03*
X60649250Y-62284350D03*
X65729250Y-62284350D03*
X70809250Y-62284350D03*
X58109250Y-62284350D03*
X83509250Y-62284350D03*
X96209250Y-62284350D03*
X58109250Y-80064350D03*
X70809250Y-80064350D03*
X83509250Y-80064350D03*
X96209250Y-80064350D03*
X53029250Y-80064350D03*
X55569250Y-80064350D03*
X60649250Y-80064350D03*
X63189250Y-80064350D03*
X65729250Y-80064350D03*
X68269250Y-80064350D03*
X73349250Y-80064350D03*
X75889250Y-80064350D03*
X78429250Y-80064350D03*
X80969250Y-80064350D03*
X86049250Y-80064350D03*
X88589250Y-80064350D03*
X91129250Y-80064350D03*
X93669250Y-80064350D03*
X98749250Y-80064350D03*
X101289250Y-80064350D03*
X101289250Y-62284350D03*
X98749250Y-62284350D03*
X93669250Y-62284350D03*
X91129250Y-62284350D03*
X88589250Y-62284350D03*
X86049250Y-62284350D03*
X80969250Y-62284350D03*
X75889250Y-62284350D03*
X73349250Y-62284350D03*
X68269250Y-62284350D03*
X78429250Y-62284350D03*
X53029250Y-62284350D03*
X55569250Y-62284350D03*
%TD*%
D16*
%TO.C,D8*%
X107250000Y-108525000D03*
D17*
X107250000Y-105985000D03*
%TD*%
D11*
%TO.C,SW2*%
X99000000Y-56750000D03*
D12*
X100000000Y-56750000D03*
%TD*%
D11*
%TO.C,J2*%
X133750000Y-106210000D03*
D12*
X133750000Y-107210000D03*
%TD*%
D16*
%TO.C,D7*%
X75295000Y-108275000D03*
D17*
X75295000Y-105735000D03*
%TD*%
D18*
%TO.C,U1*%
X115460000Y-59140000D03*
X115460000Y-82000000D03*
X123080000Y-59140000D03*
X133240000Y-59140000D03*
X118000000Y-82000000D03*
X120540000Y-59140000D03*
X130700000Y-82000000D03*
X133240000Y-82000000D03*
X120540000Y-82000000D03*
X123080000Y-82000000D03*
X128160000Y-82000000D03*
X125620000Y-82000000D03*
X118000000Y-59140000D03*
X128160000Y-59140000D03*
X130700000Y-59140000D03*
X125620000Y-59140000D03*
%TD*%
D11*
%TO.C,L1*%
X92750000Y-56750000D03*
D12*
X93750000Y-56750000D03*
%TD*%
D16*
%TO.C,D9*%
X144750000Y-107750000D03*
D17*
X144750000Y-105210000D03*
%TD*%
D19*
%TO.C,TP11*%
X75250000Y-95500000D03*
%TD*%
%TO.C,TP6*%
X75250000Y-92000000D03*
%TD*%
%TO.C,TP16*%
X80295000Y-109250000D03*
%TD*%
%TO.C,TP12*%
X58750000Y-94250000D03*
%TD*%
%TO.C,TP15*%
X80295000Y-105000000D03*
%TD*%
%TO.C,TP2*%
X76000000Y-57500000D03*
%TD*%
%TO.C,TP4*%
X63500000Y-89000000D03*
%TD*%
%TO.C,TP3*%
X103500000Y-55000000D03*
%TD*%
%TO.C,TP5*%
X60500000Y-89000000D03*
%TD*%
%TO.C,TP13*%
X63500000Y-92750000D03*
%TD*%
%TO.C,TP14*%
X103500000Y-58750000D03*
%TD*%
%TO.C,TP9*%
X128500000Y-87500000D03*
%TD*%
%TO.C,TP10*%
X96250000Y-55750000D03*
%TD*%
%TO.C,TP8*%
X125250000Y-87500000D03*
%TD*%
%TO.C,TP7*%
X72500000Y-87250000D03*
%TD*%
M02*
