%TF.GenerationSoftware,KiCad,Pcbnew,10.0.4*%
%TF.CreationDate,2026-06-26T01:34:49+12:00*%
%TF.ProjectId,MainPCB,4d61696e-5043-4422-9e6b-696361645f70,rev?*%
%TF.SameCoordinates,Original*%
%TF.FileFunction,Paste,Top*%
%TF.FilePolarity,Positive*%
%FSLAX46Y46*%
G04 Gerber Fmt 4.6, Leading zero omitted, Abs format (unit mm)*
G04 Created by KiCad (PCBNEW 10.0.4) date 2026-06-26 01:34:49*
%MOMM*%
%LPD*%
G01*
G04 APERTURE LIST*
G04 Aperture macros list*
%AMRoundRect*
0 Rectangle with rounded corners*
0 $1 Rounding radius*
0 $2 $3 $4 $5 $6 $7 $8 $9 X,Y pos of 4 corners*
0 Add a 4 corners polygon primitive as box body*
4,1,4,$2,$3,$4,$5,$6,$7,$8,$9,$2,$3,0*
0 Add four circle primitives for the rounded corners*
1,1,$1+$1,$2,$3*
1,1,$1+$1,$4,$5*
1,1,$1+$1,$6,$7*
1,1,$1+$1,$8,$9*
0 Add four rect primitives between the rounded corners*
20,1,$1+$1,$2,$3,$4,$5,0*
20,1,$1+$1,$4,$5,$6,$7,0*
20,1,$1+$1,$6,$7,$8,$9,0*
20,1,$1+$1,$8,$9,$2,$3,0*%
G04 Aperture macros list end*
%ADD10RoundRect,0.250000X-0.450000X0.262500X-0.450000X-0.262500X0.450000X-0.262500X0.450000X0.262500X0*%
%ADD11RoundRect,0.250000X0.450000X-0.262500X0.450000X0.262500X-0.450000X0.262500X-0.450000X-0.262500X0*%
%ADD12RoundRect,0.243750X0.243750X0.456250X-0.243750X0.456250X-0.243750X-0.456250X0.243750X-0.456250X0*%
%ADD13RoundRect,0.250000X-0.262500X-0.450000X0.262500X-0.450000X0.262500X0.450000X-0.262500X0.450000X0*%
%ADD14R,0.304800X0.533400*%
%ADD15R,0.533400X0.304800*%
%ADD16RoundRect,0.250000X0.475000X-0.250000X0.475000X0.250000X-0.475000X0.250000X-0.475000X-0.250000X0*%
%ADD17RoundRect,0.250000X-0.250000X-0.475000X0.250000X-0.475000X0.250000X0.475000X-0.250000X0.475000X0*%
%ADD18R,1.200000X0.700000*%
%ADD19R,1.200000X0.760000*%
%ADD20R,1.200000X0.800000*%
G04 APERTURE END LIST*
D10*
%TO.C,R15*%
X141709250Y-57244350D03*
X141709250Y-59069350D03*
%TD*%
D11*
%TO.C,R1*%
X79750000Y-79162500D03*
X79750000Y-77337500D03*
%TD*%
D10*
%TO.C,R11*%
X136959250Y-57244350D03*
X136959250Y-59069350D03*
%TD*%
%TO.C,R8*%
X78959250Y-66919350D03*
X78959250Y-68744350D03*
%TD*%
D12*
%TO.C,D10*%
X72709250Y-82994350D03*
X70834250Y-82994350D03*
%TD*%
D10*
%TO.C,R16*%
X139709250Y-57244350D03*
X139709250Y-59069350D03*
%TD*%
%TO.C,R7*%
X66209250Y-66919350D03*
X66209250Y-68744350D03*
%TD*%
%TO.C,R13*%
X101587500Y-91910000D03*
X101587500Y-93735000D03*
%TD*%
D13*
%TO.C,R10*%
X76884250Y-82994350D03*
X78709250Y-82994350D03*
%TD*%
D12*
%TO.C,D1*%
X62209250Y-77744350D03*
X60334250Y-77744350D03*
%TD*%
D10*
%TO.C,R12*%
X134959250Y-57244350D03*
X134959250Y-59069350D03*
%TD*%
%TO.C,R5*%
X138337500Y-91297500D03*
X138337500Y-93122500D03*
%TD*%
%TO.C,R4*%
X66132500Y-91852500D03*
X66132500Y-93677500D03*
%TD*%
D14*
%TO.C,U3*%
X59031961Y-63263076D03*
X59532087Y-63263076D03*
X60032213Y-63263076D03*
X60532339Y-63263076D03*
D15*
X60709250Y-62582102D03*
X60709250Y-62081976D03*
X60709250Y-61581850D03*
D14*
X60532339Y-60900876D03*
X60032213Y-60900876D03*
X59532087Y-60900876D03*
X59031961Y-60900876D03*
D15*
X58855050Y-61581850D03*
X58855050Y-62081976D03*
X58855050Y-62582102D03*
%TD*%
D10*
%TO.C,R2*%
X63632500Y-91852500D03*
X63632500Y-93677500D03*
%TD*%
D16*
%TO.C,C3*%
X63709250Y-62281850D03*
X63709250Y-60381850D03*
%TD*%
D10*
%TO.C,R14*%
X70132500Y-91750000D03*
X70132500Y-93575000D03*
%TD*%
D17*
%TO.C,C1*%
X60509250Y-58331850D03*
X62409250Y-58331850D03*
%TD*%
D18*
%TO.C,J4*%
X57837500Y-92000000D03*
D19*
X57837500Y-94020000D03*
D20*
X57837500Y-95250000D03*
D18*
X57837500Y-93000000D03*
D19*
X57837500Y-90980000D03*
D20*
X57837500Y-89750000D03*
%TD*%
D13*
%TO.C,R3*%
X65134250Y-82994350D03*
X66959250Y-82994350D03*
%TD*%
D10*
%TO.C,R6*%
X76459250Y-66919350D03*
X76459250Y-68744350D03*
%TD*%
%TO.C,R9*%
X63709250Y-66919350D03*
X63709250Y-68744350D03*
%TD*%
M02*
