M48
; DRILL file KiCad 10.0.4 date 2026-06-25T23:00:53
; FORMAT={-:-/ absolute / metric / decimal}
; #@! TF.CreationDate,2026-06-25T23:00:53+12:00
; #@! TF.GenerationSoftware,Kicad,Pcbnew,10.0.4
; #@! TF.FileFunction,Plated,1,2,PTH
FMAT,2
METRIC
; #@! TA.AperFunction,Plated,PTH,ViaDrill
T1C0.300
; #@! TA.AperFunction,Plated,PTH,ComponentDrill
T2C0.500
; #@! TA.AperFunction,Plated,PTH,ComponentDrill
T3C0.600
; #@! TA.AperFunction,Plated,PTH,ComponentDrill
T4C0.800
; #@! TA.AperFunction,Plated,PTH,ComponentDrill
T5C0.900
; #@! TA.AperFunction,Plated,PTH,ComponentDrill
T6C1.000
; #@! TA.AperFunction,Plated,PTH,ComponentDrill
T7C1.143
%
G90
G05
T1
X55.549Y-85.564
X59.0Y-108.25
X59.13Y-104.0
X60.75Y-84.25
X61.0Y-94.75
X61.25Y-86.75
X63.189Y-87.5
X64.75Y-91.25
X66.049Y-88.564
X66.132Y-90.047
X66.875Y-89.75
X67.5Y-87.5
X68.75Y-84.5
X69.0Y-89.75
X69.0Y-94.75
X69.25Y-96.25
X70.0Y-86.5
X74.5Y-89.25
X75.75Y-55.75
X78.25Y-70.75
X78.549Y-89.564
X78.795Y-110.25
X81.549Y-86.564
X89.0Y-58.25
X92.5Y-72.0
X95.75Y-93.5
X98.5Y-54.75
X99.5Y-58.25
X115.5Y-73.0
X116.049Y-86.564
X116.049Y-88.564
X118.0Y-68.25
X120.125Y-77.75
X122.049Y-85.564
X122.049Y-89.564
X122.25Y-76.75
X130.25Y-92.0
T2
X54.549Y-57.064
X55.549Y-57.064
X56.549Y-57.064
X91.5Y-95.25
X92.5Y-95.25
X92.75Y-56.75
X93.5Y-95.25
X93.75Y-56.75
X94.5Y-95.25
X95.5Y-95.25
X99.0Y-56.75
X100.0Y-56.75
X133.75Y-106.21
X133.75Y-107.21
T4
X115.46Y-59.14
X115.46Y-82.0
X118.0Y-59.14
X118.0Y-82.0
X120.54Y-59.14
X120.54Y-82.0
X123.08Y-59.14
X123.08Y-82.0
X125.62Y-59.14
X125.62Y-82.0
X128.16Y-59.14
X128.16Y-82.0
X130.7Y-59.14
X130.7Y-82.0
X133.24Y-59.14
X133.24Y-82.0
T5
X75.295Y-105.735
X75.295Y-108.275
X107.25Y-105.985
X107.25Y-108.525
X144.75Y-105.21
X144.75Y-107.75
T6
X53.029Y-62.284
X53.029Y-80.064
X55.569Y-62.284
X55.569Y-80.064
X58.109Y-62.284
X58.109Y-80.064
X60.649Y-62.284
X60.649Y-80.064
X63.189Y-62.284
X63.189Y-80.064
X65.729Y-62.284
X65.729Y-80.064
X68.269Y-62.284
X68.269Y-80.064
X70.809Y-62.284
X70.809Y-80.064
X73.349Y-62.284
X73.349Y-80.064
X75.889Y-62.284
X75.889Y-80.064
X78.429Y-62.284
X78.429Y-80.064
X80.969Y-62.284
X80.969Y-80.064
X83.509Y-62.284
X83.509Y-80.064
X86.049Y-62.284
X86.049Y-80.064
X88.589Y-62.284
X88.589Y-80.064
X91.129Y-62.284
X91.129Y-80.064
X93.669Y-62.284
X93.669Y-80.064
X96.209Y-62.284
X96.209Y-80.064
X98.749Y-62.284
X98.749Y-80.064
X101.289Y-62.284
X101.289Y-80.064
T7
X63.533Y-52.818
X66.073Y-52.818
X68.613Y-52.818
T3
G00X53.42Y-102.43
M15
G01X52.82Y-102.43
M16
G05
G00X53.42Y-111.07
M15
G01X52.82Y-111.07
M16
G05
G00X57.22Y-102.43
M15
G01X56.62Y-102.43
M16
G05
G00X57.22Y-111.07
M15
G01X56.62Y-111.07
M16
G05
M30
