%TF.GenerationSoftware,KiCad,Pcbnew,10.0.4*%
%TF.CreationDate,2026-06-26T01:34:49+12:00*%
%TF.ProjectId,MainPCB,4d61696e-5043-4422-9e6b-696361645f70,rev?*%
%TF.SameCoordinates,Original*%
%TF.FileFunction,Legend,Bot*%
%TF.FilePolarity,Positive*%
%FSLAX46Y46*%
G04 Gerber Fmt 4.6, Leading zero omitted, Abs format (unit mm)*
G04 Created by KiCad (PCBNEW 10.0.4) date 2026-06-26 01:34:49*
%MOMM*%
%LPD*%
G01*
G04 APERTURE LIST*
%ADD10C,0.150000*%
%ADD11C,0.120000*%
G04 APERTURE END LIST*
D10*
X68738094Y-80806819D02*
X68166666Y-80806819D01*
X68452380Y-81806819D02*
X68452380Y-80806819D01*
X67833332Y-81806819D02*
X67833332Y-80806819D01*
X67833332Y-80806819D02*
X67452380Y-80806819D01*
X67452380Y-80806819D02*
X67357142Y-80854438D01*
X67357142Y-80854438D02*
X67309523Y-80902057D01*
X67309523Y-80902057D02*
X67261904Y-80997295D01*
X67261904Y-80997295D02*
X67261904Y-81140152D01*
X67261904Y-81140152D02*
X67309523Y-81235390D01*
X67309523Y-81235390D02*
X67357142Y-81283009D01*
X67357142Y-81283009D02*
X67452380Y-81330628D01*
X67452380Y-81330628D02*
X67833332Y-81330628D01*
X66309523Y-81806819D02*
X66880951Y-81806819D01*
X66595237Y-81806819D02*
X66595237Y-80806819D01*
X66595237Y-80806819D02*
X66690475Y-80949676D01*
X66690475Y-80949676D02*
X66785713Y-81044914D01*
X66785713Y-81044914D02*
X66880951Y-81092533D01*
X65690475Y-80806819D02*
X65595237Y-80806819D01*
X65595237Y-80806819D02*
X65499999Y-80854438D01*
X65499999Y-80854438D02*
X65452380Y-80902057D01*
X65452380Y-80902057D02*
X65404761Y-80997295D01*
X65404761Y-80997295D02*
X65357142Y-81187771D01*
X65357142Y-81187771D02*
X65357142Y-81425866D01*
X65357142Y-81425866D02*
X65404761Y-81616342D01*
X65404761Y-81616342D02*
X65452380Y-81711580D01*
X65452380Y-81711580D02*
X65499999Y-81759200D01*
X65499999Y-81759200D02*
X65595237Y-81806819D01*
X65595237Y-81806819D02*
X65690475Y-81806819D01*
X65690475Y-81806819D02*
X65785713Y-81759200D01*
X65785713Y-81759200D02*
X65833332Y-81711580D01*
X65833332Y-81711580D02*
X65880951Y-81616342D01*
X65880951Y-81616342D02*
X65928570Y-81425866D01*
X65928570Y-81425866D02*
X65928570Y-81187771D01*
X65928570Y-81187771D02*
X65880951Y-80997295D01*
X65880951Y-80997295D02*
X65833332Y-80902057D01*
X65833332Y-80902057D02*
X65785713Y-80854438D01*
X65785713Y-80854438D02*
X65690475Y-80806819D01*
X61261904Y-75306819D02*
X60690476Y-75306819D01*
X60976190Y-76306819D02*
X60976190Y-75306819D01*
X60357142Y-76306819D02*
X60357142Y-75306819D01*
X60357142Y-75306819D02*
X59976190Y-75306819D01*
X59976190Y-75306819D02*
X59880952Y-75354438D01*
X59880952Y-75354438D02*
X59833333Y-75402057D01*
X59833333Y-75402057D02*
X59785714Y-75497295D01*
X59785714Y-75497295D02*
X59785714Y-75640152D01*
X59785714Y-75640152D02*
X59833333Y-75735390D01*
X59833333Y-75735390D02*
X59880952Y-75783009D01*
X59880952Y-75783009D02*
X59976190Y-75830628D01*
X59976190Y-75830628D02*
X60357142Y-75830628D01*
X59452380Y-75306819D02*
X58833333Y-75306819D01*
X58833333Y-75306819D02*
X59166666Y-75687771D01*
X59166666Y-75687771D02*
X59023809Y-75687771D01*
X59023809Y-75687771D02*
X58928571Y-75735390D01*
X58928571Y-75735390D02*
X58880952Y-75783009D01*
X58880952Y-75783009D02*
X58833333Y-75878247D01*
X58833333Y-75878247D02*
X58833333Y-76116342D01*
X58833333Y-76116342D02*
X58880952Y-76211580D01*
X58880952Y-76211580D02*
X58928571Y-76259200D01*
X58928571Y-76259200D02*
X59023809Y-76306819D01*
X59023809Y-76306819D02*
X59309523Y-76306819D01*
X59309523Y-76306819D02*
X59404761Y-76259200D01*
X59404761Y-76259200D02*
X59452380Y-76211580D01*
X77738094Y-80806819D02*
X77166666Y-80806819D01*
X77452380Y-81806819D02*
X77452380Y-80806819D01*
X76833332Y-81806819D02*
X76833332Y-80806819D01*
X76833332Y-80806819D02*
X76452380Y-80806819D01*
X76452380Y-80806819D02*
X76357142Y-80854438D01*
X76357142Y-80854438D02*
X76309523Y-80902057D01*
X76309523Y-80902057D02*
X76261904Y-80997295D01*
X76261904Y-80997295D02*
X76261904Y-81140152D01*
X76261904Y-81140152D02*
X76309523Y-81235390D01*
X76309523Y-81235390D02*
X76357142Y-81283009D01*
X76357142Y-81283009D02*
X76452380Y-81330628D01*
X76452380Y-81330628D02*
X76833332Y-81330628D01*
X75309523Y-81806819D02*
X75880951Y-81806819D01*
X75595237Y-81806819D02*
X75595237Y-80806819D01*
X75595237Y-80806819D02*
X75690475Y-80949676D01*
X75690475Y-80949676D02*
X75785713Y-81044914D01*
X75785713Y-81044914D02*
X75880951Y-81092533D01*
X74452380Y-81140152D02*
X74452380Y-81806819D01*
X74690475Y-80759200D02*
X74928570Y-81473485D01*
X74928570Y-81473485D02*
X74309523Y-81473485D01*
X146738094Y-67806819D02*
X146166666Y-67806819D01*
X146452380Y-68806819D02*
X146452380Y-67806819D01*
X145833332Y-68806819D02*
X145833332Y-67806819D01*
X145833332Y-67806819D02*
X145452380Y-67806819D01*
X145452380Y-67806819D02*
X145357142Y-67854438D01*
X145357142Y-67854438D02*
X145309523Y-67902057D01*
X145309523Y-67902057D02*
X145261904Y-67997295D01*
X145261904Y-67997295D02*
X145261904Y-68140152D01*
X145261904Y-68140152D02*
X145309523Y-68235390D01*
X145309523Y-68235390D02*
X145357142Y-68283009D01*
X145357142Y-68283009D02*
X145452380Y-68330628D01*
X145452380Y-68330628D02*
X145833332Y-68330628D01*
X144309523Y-68806819D02*
X144880951Y-68806819D01*
X144595237Y-68806819D02*
X144595237Y-67806819D01*
X144595237Y-67806819D02*
X144690475Y-67949676D01*
X144690475Y-67949676D02*
X144785713Y-68044914D01*
X144785713Y-68044914D02*
X144880951Y-68092533D01*
X143976189Y-67806819D02*
X143357142Y-67806819D01*
X143357142Y-67806819D02*
X143690475Y-68187771D01*
X143690475Y-68187771D02*
X143547618Y-68187771D01*
X143547618Y-68187771D02*
X143452380Y-68235390D01*
X143452380Y-68235390D02*
X143404761Y-68283009D01*
X143404761Y-68283009D02*
X143357142Y-68378247D01*
X143357142Y-68378247D02*
X143357142Y-68616342D01*
X143357142Y-68616342D02*
X143404761Y-68711580D01*
X143404761Y-68711580D02*
X143452380Y-68759200D01*
X143452380Y-68759200D02*
X143547618Y-68806819D01*
X143547618Y-68806819D02*
X143833332Y-68806819D01*
X143833332Y-68806819D02*
X143928570Y-68759200D01*
X143928570Y-68759200D02*
X143976189Y-68711580D01*
X54488094Y-75306819D02*
X53916666Y-75306819D01*
X54202380Y-76306819D02*
X54202380Y-75306819D01*
X53583332Y-76306819D02*
X53583332Y-75306819D01*
X53583332Y-75306819D02*
X53202380Y-75306819D01*
X53202380Y-75306819D02*
X53107142Y-75354438D01*
X53107142Y-75354438D02*
X53059523Y-75402057D01*
X53059523Y-75402057D02*
X53011904Y-75497295D01*
X53011904Y-75497295D02*
X53011904Y-75640152D01*
X53011904Y-75640152D02*
X53059523Y-75735390D01*
X53059523Y-75735390D02*
X53107142Y-75783009D01*
X53107142Y-75783009D02*
X53202380Y-75830628D01*
X53202380Y-75830628D02*
X53583332Y-75830628D01*
X52059523Y-76306819D02*
X52630951Y-76306819D01*
X52345237Y-76306819D02*
X52345237Y-75306819D01*
X52345237Y-75306819D02*
X52440475Y-75449676D01*
X52440475Y-75449676D02*
X52535713Y-75544914D01*
X52535713Y-75544914D02*
X52630951Y-75592533D01*
X51678570Y-75402057D02*
X51630951Y-75354438D01*
X51630951Y-75354438D02*
X51535713Y-75306819D01*
X51535713Y-75306819D02*
X51297618Y-75306819D01*
X51297618Y-75306819D02*
X51202380Y-75354438D01*
X51202380Y-75354438D02*
X51154761Y-75402057D01*
X51154761Y-75402057D02*
X51107142Y-75497295D01*
X51107142Y-75497295D02*
X51107142Y-75592533D01*
X51107142Y-75592533D02*
X51154761Y-75735390D01*
X51154761Y-75735390D02*
X51726189Y-76306819D01*
X51726189Y-76306819D02*
X51107142Y-76306819D01*
X72738094Y-56806819D02*
X72166666Y-56806819D01*
X72452380Y-57806819D02*
X72452380Y-56806819D01*
X71833332Y-57806819D02*
X71833332Y-56806819D01*
X71833332Y-56806819D02*
X71452380Y-56806819D01*
X71452380Y-56806819D02*
X71357142Y-56854438D01*
X71357142Y-56854438D02*
X71309523Y-56902057D01*
X71309523Y-56902057D02*
X71261904Y-56997295D01*
X71261904Y-56997295D02*
X71261904Y-57140152D01*
X71261904Y-57140152D02*
X71309523Y-57235390D01*
X71309523Y-57235390D02*
X71357142Y-57283009D01*
X71357142Y-57283009D02*
X71452380Y-57330628D01*
X71452380Y-57330628D02*
X71833332Y-57330628D01*
X70309523Y-57806819D02*
X70880951Y-57806819D01*
X70595237Y-57806819D02*
X70595237Y-56806819D01*
X70595237Y-56806819D02*
X70690475Y-56949676D01*
X70690475Y-56949676D02*
X70785713Y-57044914D01*
X70785713Y-57044914D02*
X70880951Y-57092533D01*
X69357142Y-57806819D02*
X69928570Y-57806819D01*
X69642856Y-57806819D02*
X69642856Y-56806819D01*
X69642856Y-56806819D02*
X69738094Y-56949676D01*
X69738094Y-56949676D02*
X69833332Y-57044914D01*
X69833332Y-57044914D02*
X69928570Y-57092533D01*
X130511904Y-56556819D02*
X129940476Y-56556819D01*
X130226190Y-57556819D02*
X130226190Y-56556819D01*
X129607142Y-57556819D02*
X129607142Y-56556819D01*
X129607142Y-56556819D02*
X129226190Y-56556819D01*
X129226190Y-56556819D02*
X129130952Y-56604438D01*
X129130952Y-56604438D02*
X129083333Y-56652057D01*
X129083333Y-56652057D02*
X129035714Y-56747295D01*
X129035714Y-56747295D02*
X129035714Y-56890152D01*
X129035714Y-56890152D02*
X129083333Y-56985390D01*
X129083333Y-56985390D02*
X129130952Y-57033009D01*
X129130952Y-57033009D02*
X129226190Y-57080628D01*
X129226190Y-57080628D02*
X129607142Y-57080628D01*
X128559523Y-57556819D02*
X128369047Y-57556819D01*
X128369047Y-57556819D02*
X128273809Y-57509200D01*
X128273809Y-57509200D02*
X128226190Y-57461580D01*
X128226190Y-57461580D02*
X128130952Y-57318723D01*
X128130952Y-57318723D02*
X128083333Y-57128247D01*
X128083333Y-57128247D02*
X128083333Y-56747295D01*
X128083333Y-56747295D02*
X128130952Y-56652057D01*
X128130952Y-56652057D02*
X128178571Y-56604438D01*
X128178571Y-56604438D02*
X128273809Y-56556819D01*
X128273809Y-56556819D02*
X128464285Y-56556819D01*
X128464285Y-56556819D02*
X128559523Y-56604438D01*
X128559523Y-56604438D02*
X128607142Y-56652057D01*
X128607142Y-56652057D02*
X128654761Y-56747295D01*
X128654761Y-56747295D02*
X128654761Y-56985390D01*
X128654761Y-56985390D02*
X128607142Y-57080628D01*
X128607142Y-57080628D02*
X128559523Y-57128247D01*
X128559523Y-57128247D02*
X128464285Y-57175866D01*
X128464285Y-57175866D02*
X128273809Y-57175866D01*
X128273809Y-57175866D02*
X128178571Y-57128247D01*
X128178571Y-57128247D02*
X128130952Y-57080628D01*
X128130952Y-57080628D02*
X128083333Y-56985390D01*
X146261904Y-64056819D02*
X145690476Y-64056819D01*
X145976190Y-65056819D02*
X145976190Y-64056819D01*
X145357142Y-65056819D02*
X145357142Y-64056819D01*
X145357142Y-64056819D02*
X144976190Y-64056819D01*
X144976190Y-64056819D02*
X144880952Y-64104438D01*
X144880952Y-64104438D02*
X144833333Y-64152057D01*
X144833333Y-64152057D02*
X144785714Y-64247295D01*
X144785714Y-64247295D02*
X144785714Y-64390152D01*
X144785714Y-64390152D02*
X144833333Y-64485390D01*
X144833333Y-64485390D02*
X144880952Y-64533009D01*
X144880952Y-64533009D02*
X144976190Y-64580628D01*
X144976190Y-64580628D02*
X145357142Y-64580628D01*
X144214285Y-64485390D02*
X144309523Y-64437771D01*
X144309523Y-64437771D02*
X144357142Y-64390152D01*
X144357142Y-64390152D02*
X144404761Y-64294914D01*
X144404761Y-64294914D02*
X144404761Y-64247295D01*
X144404761Y-64247295D02*
X144357142Y-64152057D01*
X144357142Y-64152057D02*
X144309523Y-64104438D01*
X144309523Y-64104438D02*
X144214285Y-64056819D01*
X144214285Y-64056819D02*
X144023809Y-64056819D01*
X144023809Y-64056819D02*
X143928571Y-64104438D01*
X143928571Y-64104438D02*
X143880952Y-64152057D01*
X143880952Y-64152057D02*
X143833333Y-64247295D01*
X143833333Y-64247295D02*
X143833333Y-64294914D01*
X143833333Y-64294914D02*
X143880952Y-64390152D01*
X143880952Y-64390152D02*
X143928571Y-64437771D01*
X143928571Y-64437771D02*
X144023809Y-64485390D01*
X144023809Y-64485390D02*
X144214285Y-64485390D01*
X144214285Y-64485390D02*
X144309523Y-64533009D01*
X144309523Y-64533009D02*
X144357142Y-64580628D01*
X144357142Y-64580628D02*
X144404761Y-64675866D01*
X144404761Y-64675866D02*
X144404761Y-64866342D01*
X144404761Y-64866342D02*
X144357142Y-64961580D01*
X144357142Y-64961580D02*
X144309523Y-65009200D01*
X144309523Y-65009200D02*
X144214285Y-65056819D01*
X144214285Y-65056819D02*
X144023809Y-65056819D01*
X144023809Y-65056819D02*
X143928571Y-65009200D01*
X143928571Y-65009200D02*
X143880952Y-64961580D01*
X143880952Y-64961580D02*
X143833333Y-64866342D01*
X143833333Y-64866342D02*
X143833333Y-64675866D01*
X143833333Y-64675866D02*
X143880952Y-64580628D01*
X143880952Y-64580628D02*
X143928571Y-64533009D01*
X143928571Y-64533009D02*
X144023809Y-64485390D01*
X54511904Y-66056819D02*
X53940476Y-66056819D01*
X54226190Y-67056819D02*
X54226190Y-66056819D01*
X53607142Y-67056819D02*
X53607142Y-66056819D01*
X53607142Y-66056819D02*
X53226190Y-66056819D01*
X53226190Y-66056819D02*
X53130952Y-66104438D01*
X53130952Y-66104438D02*
X53083333Y-66152057D01*
X53083333Y-66152057D02*
X53035714Y-66247295D01*
X53035714Y-66247295D02*
X53035714Y-66390152D01*
X53035714Y-66390152D02*
X53083333Y-66485390D01*
X53083333Y-66485390D02*
X53130952Y-66533009D01*
X53130952Y-66533009D02*
X53226190Y-66580628D01*
X53226190Y-66580628D02*
X53607142Y-66580628D01*
X52702380Y-66056819D02*
X52035714Y-66056819D01*
X52035714Y-66056819D02*
X52464285Y-67056819D01*
X80761904Y-66806819D02*
X80190476Y-66806819D01*
X80476190Y-67806819D02*
X80476190Y-66806819D01*
X79857142Y-67806819D02*
X79857142Y-66806819D01*
X79857142Y-66806819D02*
X79476190Y-66806819D01*
X79476190Y-66806819D02*
X79380952Y-66854438D01*
X79380952Y-66854438D02*
X79333333Y-66902057D01*
X79333333Y-66902057D02*
X79285714Y-66997295D01*
X79285714Y-66997295D02*
X79285714Y-67140152D01*
X79285714Y-67140152D02*
X79333333Y-67235390D01*
X79333333Y-67235390D02*
X79380952Y-67283009D01*
X79380952Y-67283009D02*
X79476190Y-67330628D01*
X79476190Y-67330628D02*
X79857142Y-67330628D01*
X78428571Y-66806819D02*
X78619047Y-66806819D01*
X78619047Y-66806819D02*
X78714285Y-66854438D01*
X78714285Y-66854438D02*
X78761904Y-66902057D01*
X78761904Y-66902057D02*
X78857142Y-67044914D01*
X78857142Y-67044914D02*
X78904761Y-67235390D01*
X78904761Y-67235390D02*
X78904761Y-67616342D01*
X78904761Y-67616342D02*
X78857142Y-67711580D01*
X78857142Y-67711580D02*
X78809523Y-67759200D01*
X78809523Y-67759200D02*
X78714285Y-67806819D01*
X78714285Y-67806819D02*
X78523809Y-67806819D01*
X78523809Y-67806819D02*
X78428571Y-67759200D01*
X78428571Y-67759200D02*
X78380952Y-67711580D01*
X78380952Y-67711580D02*
X78333333Y-67616342D01*
X78333333Y-67616342D02*
X78333333Y-67378247D01*
X78333333Y-67378247D02*
X78380952Y-67283009D01*
X78380952Y-67283009D02*
X78428571Y-67235390D01*
X78428571Y-67235390D02*
X78523809Y-67187771D01*
X78523809Y-67187771D02*
X78714285Y-67187771D01*
X78714285Y-67187771D02*
X78809523Y-67235390D01*
X78809523Y-67235390D02*
X78857142Y-67283009D01*
X78857142Y-67283009D02*
X78904761Y-67378247D01*
X125761904Y-56556819D02*
X125190476Y-56556819D01*
X125476190Y-57556819D02*
X125476190Y-56556819D01*
X124857142Y-57556819D02*
X124857142Y-56556819D01*
X124857142Y-56556819D02*
X124476190Y-56556819D01*
X124476190Y-56556819D02*
X124380952Y-56604438D01*
X124380952Y-56604438D02*
X124333333Y-56652057D01*
X124333333Y-56652057D02*
X124285714Y-56747295D01*
X124285714Y-56747295D02*
X124285714Y-56890152D01*
X124285714Y-56890152D02*
X124333333Y-56985390D01*
X124333333Y-56985390D02*
X124380952Y-57033009D01*
X124380952Y-57033009D02*
X124476190Y-57080628D01*
X124476190Y-57080628D02*
X124857142Y-57080628D01*
X123380952Y-56556819D02*
X123857142Y-56556819D01*
X123857142Y-56556819D02*
X123904761Y-57033009D01*
X123904761Y-57033009D02*
X123857142Y-56985390D01*
X123857142Y-56985390D02*
X123761904Y-56937771D01*
X123761904Y-56937771D02*
X123523809Y-56937771D01*
X123523809Y-56937771D02*
X123428571Y-56985390D01*
X123428571Y-56985390D02*
X123380952Y-57033009D01*
X123380952Y-57033009D02*
X123333333Y-57128247D01*
X123333333Y-57128247D02*
X123333333Y-57366342D01*
X123333333Y-57366342D02*
X123380952Y-57461580D01*
X123380952Y-57461580D02*
X123428571Y-57509200D01*
X123428571Y-57509200D02*
X123523809Y-57556819D01*
X123523809Y-57556819D02*
X123761904Y-57556819D01*
X123761904Y-57556819D02*
X123857142Y-57509200D01*
X123857142Y-57509200D02*
X123904761Y-57461580D01*
X146261904Y-60306819D02*
X145690476Y-60306819D01*
X145976190Y-61306819D02*
X145976190Y-60306819D01*
X145357142Y-61306819D02*
X145357142Y-60306819D01*
X145357142Y-60306819D02*
X144976190Y-60306819D01*
X144976190Y-60306819D02*
X144880952Y-60354438D01*
X144880952Y-60354438D02*
X144833333Y-60402057D01*
X144833333Y-60402057D02*
X144785714Y-60497295D01*
X144785714Y-60497295D02*
X144785714Y-60640152D01*
X144785714Y-60640152D02*
X144833333Y-60735390D01*
X144833333Y-60735390D02*
X144880952Y-60783009D01*
X144880952Y-60783009D02*
X144976190Y-60830628D01*
X144976190Y-60830628D02*
X145357142Y-60830628D01*
X143928571Y-60640152D02*
X143928571Y-61306819D01*
X144166666Y-60259200D02*
X144404761Y-60973485D01*
X144404761Y-60973485D02*
X143785714Y-60973485D01*
X88761904Y-75306819D02*
X88190476Y-75306819D01*
X88476190Y-76306819D02*
X88476190Y-75306819D01*
X87857142Y-76306819D02*
X87857142Y-75306819D01*
X87857142Y-75306819D02*
X87476190Y-75306819D01*
X87476190Y-75306819D02*
X87380952Y-75354438D01*
X87380952Y-75354438D02*
X87333333Y-75402057D01*
X87333333Y-75402057D02*
X87285714Y-75497295D01*
X87285714Y-75497295D02*
X87285714Y-75640152D01*
X87285714Y-75640152D02*
X87333333Y-75735390D01*
X87333333Y-75735390D02*
X87380952Y-75783009D01*
X87380952Y-75783009D02*
X87476190Y-75830628D01*
X87476190Y-75830628D02*
X87857142Y-75830628D01*
X86904761Y-75402057D02*
X86857142Y-75354438D01*
X86857142Y-75354438D02*
X86761904Y-75306819D01*
X86761904Y-75306819D02*
X86523809Y-75306819D01*
X86523809Y-75306819D02*
X86428571Y-75354438D01*
X86428571Y-75354438D02*
X86380952Y-75402057D01*
X86380952Y-75402057D02*
X86333333Y-75497295D01*
X86333333Y-75497295D02*
X86333333Y-75592533D01*
X86333333Y-75592533D02*
X86380952Y-75735390D01*
X86380952Y-75735390D02*
X86952380Y-76306819D01*
X86952380Y-76306819D02*
X86333333Y-76306819D01*
X82870594Y-92806819D02*
X82299166Y-92806819D01*
X82584880Y-93806819D02*
X82584880Y-92806819D01*
X81965832Y-93806819D02*
X81965832Y-92806819D01*
X81965832Y-92806819D02*
X81584880Y-92806819D01*
X81584880Y-92806819D02*
X81489642Y-92854438D01*
X81489642Y-92854438D02*
X81442023Y-92902057D01*
X81442023Y-92902057D02*
X81394404Y-92997295D01*
X81394404Y-92997295D02*
X81394404Y-93140152D01*
X81394404Y-93140152D02*
X81442023Y-93235390D01*
X81442023Y-93235390D02*
X81489642Y-93283009D01*
X81489642Y-93283009D02*
X81584880Y-93330628D01*
X81584880Y-93330628D02*
X81965832Y-93330628D01*
X80442023Y-93806819D02*
X81013451Y-93806819D01*
X80727737Y-93806819D02*
X80727737Y-92806819D01*
X80727737Y-92806819D02*
X80822975Y-92949676D01*
X80822975Y-92949676D02*
X80918213Y-93044914D01*
X80918213Y-93044914D02*
X81013451Y-93092533D01*
X79584880Y-92806819D02*
X79775356Y-92806819D01*
X79775356Y-92806819D02*
X79870594Y-92854438D01*
X79870594Y-92854438D02*
X79918213Y-92902057D01*
X79918213Y-92902057D02*
X80013451Y-93044914D01*
X80013451Y-93044914D02*
X80061070Y-93235390D01*
X80061070Y-93235390D02*
X80061070Y-93616342D01*
X80061070Y-93616342D02*
X80013451Y-93711580D01*
X80013451Y-93711580D02*
X79965832Y-93759200D01*
X79965832Y-93759200D02*
X79870594Y-93806819D01*
X79870594Y-93806819D02*
X79680118Y-93806819D01*
X79680118Y-93806819D02*
X79584880Y-93759200D01*
X79584880Y-93759200D02*
X79537261Y-93711580D01*
X79537261Y-93711580D02*
X79489642Y-93616342D01*
X79489642Y-93616342D02*
X79489642Y-93378247D01*
X79489642Y-93378247D02*
X79537261Y-93283009D01*
X79537261Y-93283009D02*
X79584880Y-93235390D01*
X79584880Y-93235390D02*
X79680118Y-93187771D01*
X79680118Y-93187771D02*
X79870594Y-93187771D01*
X79870594Y-93187771D02*
X79965832Y-93235390D01*
X79965832Y-93235390D02*
X80013451Y-93283009D01*
X80013451Y-93283009D02*
X80061070Y-93378247D01*
X82870594Y-88556819D02*
X82299166Y-88556819D01*
X82584880Y-89556819D02*
X82584880Y-88556819D01*
X81965832Y-89556819D02*
X81965832Y-88556819D01*
X81965832Y-88556819D02*
X81584880Y-88556819D01*
X81584880Y-88556819D02*
X81489642Y-88604438D01*
X81489642Y-88604438D02*
X81442023Y-88652057D01*
X81442023Y-88652057D02*
X81394404Y-88747295D01*
X81394404Y-88747295D02*
X81394404Y-88890152D01*
X81394404Y-88890152D02*
X81442023Y-88985390D01*
X81442023Y-88985390D02*
X81489642Y-89033009D01*
X81489642Y-89033009D02*
X81584880Y-89080628D01*
X81584880Y-89080628D02*
X81965832Y-89080628D01*
X80442023Y-89556819D02*
X81013451Y-89556819D01*
X80727737Y-89556819D02*
X80727737Y-88556819D01*
X80727737Y-88556819D02*
X80822975Y-88699676D01*
X80822975Y-88699676D02*
X80918213Y-88794914D01*
X80918213Y-88794914D02*
X81013451Y-88842533D01*
X79537261Y-88556819D02*
X80013451Y-88556819D01*
X80013451Y-88556819D02*
X80061070Y-89033009D01*
X80061070Y-89033009D02*
X80013451Y-88985390D01*
X80013451Y-88985390D02*
X79918213Y-88937771D01*
X79918213Y-88937771D02*
X79680118Y-88937771D01*
X79680118Y-88937771D02*
X79584880Y-88985390D01*
X79584880Y-88985390D02*
X79537261Y-89033009D01*
X79537261Y-89033009D02*
X79489642Y-89128247D01*
X79489642Y-89128247D02*
X79489642Y-89366342D01*
X79489642Y-89366342D02*
X79537261Y-89461580D01*
X79537261Y-89461580D02*
X79584880Y-89509200D01*
X79584880Y-89509200D02*
X79680118Y-89556819D01*
X79680118Y-89556819D02*
X79918213Y-89556819D01*
X79918213Y-89556819D02*
X80013451Y-89509200D01*
X80013451Y-89509200D02*
X80061070Y-89461580D01*
%TO.C,TP10*%
D11*
X66050000Y-83950000D02*
X67950000Y-83950000D01*
X66050000Y-82050000D02*
X66050000Y-83950000D01*
X67950000Y-83950000D02*
X67950000Y-82050000D01*
X67950000Y-82050000D02*
X66050000Y-82050000D01*
%TO.C,TP3*%
X60950000Y-76550000D02*
X59050000Y-76550000D01*
X60950000Y-78450000D02*
X60950000Y-76550000D01*
X59050000Y-76550000D02*
X59050000Y-78450000D01*
X59050000Y-78450000D02*
X60950000Y-78450000D01*
%TO.C,TP14*%
X76950000Y-82050000D02*
X75050000Y-82050000D01*
X76950000Y-83950000D02*
X76950000Y-82050000D01*
X75050000Y-82050000D02*
X75050000Y-83950000D01*
X75050000Y-83950000D02*
X76950000Y-83950000D01*
%TO.C,TP13*%
X145950000Y-69050000D02*
X144050000Y-69050000D01*
X145950000Y-70950000D02*
X145950000Y-69050000D01*
X144050000Y-69050000D02*
X144050000Y-70950000D01*
X144050000Y-70950000D02*
X145950000Y-70950000D01*
%TO.C,TP12*%
X53700000Y-76550000D02*
X51800000Y-76550000D01*
X53700000Y-78450000D02*
X53700000Y-76550000D01*
X51800000Y-76550000D02*
X51800000Y-78450000D01*
X51800000Y-78450000D02*
X53700000Y-78450000D01*
%TO.C,TP11*%
X70050000Y-59950000D02*
X71950000Y-59950000D01*
X70050000Y-58050000D02*
X70050000Y-59950000D01*
X71950000Y-59950000D02*
X71950000Y-58050000D01*
X71950000Y-58050000D02*
X70050000Y-58050000D01*
%TO.C,TP9*%
X130200000Y-57800000D02*
X128300000Y-57800000D01*
X130200000Y-59700000D02*
X130200000Y-57800000D01*
X128300000Y-57800000D02*
X128300000Y-59700000D01*
X128300000Y-59700000D02*
X130200000Y-59700000D01*
%TO.C,TP8*%
X145950000Y-65300000D02*
X144050000Y-65300000D01*
X145950000Y-67200000D02*
X145950000Y-65300000D01*
X144050000Y-65300000D02*
X144050000Y-67200000D01*
X144050000Y-67200000D02*
X145950000Y-67200000D01*
%TO.C,TP7*%
X54200000Y-67300000D02*
X52300000Y-67300000D01*
X54200000Y-69200000D02*
X54200000Y-67300000D01*
X52300000Y-67300000D02*
X52300000Y-69200000D01*
X52300000Y-69200000D02*
X54200000Y-69200000D01*
%TO.C,TP6*%
X78550000Y-69950000D02*
X80450000Y-69950000D01*
X78550000Y-68050000D02*
X78550000Y-69950000D01*
X80450000Y-69950000D02*
X80450000Y-68050000D01*
X80450000Y-68050000D02*
X78550000Y-68050000D01*
%TO.C,TP5*%
X123550000Y-59700000D02*
X125450000Y-59700000D01*
X123550000Y-57800000D02*
X123550000Y-59700000D01*
X125450000Y-59700000D02*
X125450000Y-57800000D01*
X125450000Y-57800000D02*
X123550000Y-57800000D01*
%TO.C,TP4*%
X145950000Y-61550000D02*
X144050000Y-61550000D01*
X145950000Y-63450000D02*
X145950000Y-61550000D01*
X144050000Y-61550000D02*
X144050000Y-63450000D01*
X144050000Y-63450000D02*
X145950000Y-63450000D01*
%TO.C,TP2*%
X88450000Y-76550000D02*
X86550000Y-76550000D01*
X88450000Y-78450000D02*
X88450000Y-76550000D01*
X86550000Y-76550000D02*
X86550000Y-78450000D01*
X86550000Y-78450000D02*
X88450000Y-78450000D01*
%TO.C,TP16*%
X80182500Y-94050000D02*
X80182500Y-95950000D01*
X80182500Y-95950000D02*
X82082500Y-95950000D01*
X82082500Y-94050000D02*
X80182500Y-94050000D01*
X82082500Y-95950000D02*
X82082500Y-94050000D01*
%TO.C,TP15*%
X80182500Y-89800000D02*
X80182500Y-91700000D01*
X80182500Y-91700000D02*
X82082500Y-91700000D01*
X82082500Y-89800000D02*
X80182500Y-89800000D01*
X82082500Y-91700000D02*
X82082500Y-89800000D01*
%TD*%
M02*
