%TF.GenerationSoftware,KiCad,Pcbnew,10.0.4*%
%TF.CreationDate,2026-06-26T01:34:49+12:00*%
%TF.ProjectId,MainPCB,4d61696e-5043-4422-9e6b-696361645f70,rev?*%
%TF.SameCoordinates,Original*%
%TF.FileFunction,Legend,Top*%
%TF.FilePolarity,Positive*%
%FSLAX46Y46*%
G04 Gerber Fmt 4.6, Leading zero omitted, Abs format (unit mm)*
G04 Created by KiCad (PCBNEW 10.0.4) date 2026-06-26 01:34:49*
%MOMM*%
%LPD*%
G01*
G04 APERTURE LIST*
%ADD10C,0.150000*%
%ADD11C,0.152400*%
%ADD12C,0.120000*%
%ADD13C,0.000000*%
%ADD14C,0.200000*%
G04 APERTURE END LIST*
D10*
X70805238Y-77881742D02*
X70900476Y-77929361D01*
X70900476Y-77929361D02*
X70995714Y-78024600D01*
X70995714Y-78024600D02*
X71138571Y-78167457D01*
X71138571Y-78167457D02*
X71233809Y-78215076D01*
X71233809Y-78215076D02*
X71329047Y-78215076D01*
X71281428Y-77976980D02*
X71376666Y-78024600D01*
X71376666Y-78024600D02*
X71471904Y-78119838D01*
X71471904Y-78119838D02*
X71519523Y-78310314D01*
X71519523Y-78310314D02*
X71519523Y-78643647D01*
X71519523Y-78643647D02*
X71471904Y-78834123D01*
X71471904Y-78834123D02*
X71376666Y-78929361D01*
X71376666Y-78929361D02*
X71281428Y-78976980D01*
X71281428Y-78976980D02*
X71090952Y-78976980D01*
X71090952Y-78976980D02*
X70995714Y-78929361D01*
X70995714Y-78929361D02*
X70900476Y-78834123D01*
X70900476Y-78834123D02*
X70852857Y-78643647D01*
X70852857Y-78643647D02*
X70852857Y-78310314D01*
X70852857Y-78310314D02*
X70900476Y-78119838D01*
X70900476Y-78119838D02*
X70995714Y-78024600D01*
X70995714Y-78024600D02*
X71090952Y-77976980D01*
X71090952Y-77976980D02*
X71281428Y-77976980D01*
X69900476Y-77976980D02*
X70471904Y-77976980D01*
X70186190Y-77976980D02*
X70186190Y-78976980D01*
X70186190Y-78976980D02*
X70281428Y-78834123D01*
X70281428Y-78834123D02*
X70376666Y-78738885D01*
X70376666Y-78738885D02*
X70471904Y-78691266D01*
X120278315Y-65344275D02*
X120915736Y-65344275D01*
X120915736Y-65344275D02*
X120990726Y-65306780D01*
X120990726Y-65306780D02*
X121028222Y-65269284D01*
X121028222Y-65269284D02*
X121065717Y-65194294D01*
X121065717Y-65194294D02*
X121065717Y-65044312D01*
X121065717Y-65044312D02*
X121028222Y-64969322D01*
X121028222Y-64969322D02*
X120990726Y-64931826D01*
X120990726Y-64931826D02*
X120915736Y-64894331D01*
X120915736Y-64894331D02*
X120278315Y-64894331D01*
X121065717Y-64106929D02*
X121065717Y-64556873D01*
X121065717Y-64331901D02*
X120278315Y-64331901D01*
X120278315Y-64331901D02*
X120390801Y-64406892D01*
X120390801Y-64406892D02*
X120465792Y-64481883D01*
X120465792Y-64481883D02*
X120503287Y-64556873D01*
X142214069Y-62212207D02*
X141737878Y-62545540D01*
X142214069Y-62783635D02*
X141214069Y-62783635D01*
X141214069Y-62783635D02*
X141214069Y-62402683D01*
X141214069Y-62402683D02*
X141261688Y-62307445D01*
X141261688Y-62307445D02*
X141309307Y-62259826D01*
X141309307Y-62259826D02*
X141404545Y-62212207D01*
X141404545Y-62212207D02*
X141547402Y-62212207D01*
X141547402Y-62212207D02*
X141642640Y-62259826D01*
X141642640Y-62259826D02*
X141690259Y-62307445D01*
X141690259Y-62307445D02*
X141737878Y-62402683D01*
X141737878Y-62402683D02*
X141737878Y-62783635D01*
X142214069Y-61259826D02*
X142214069Y-61831254D01*
X142214069Y-61545540D02*
X141214069Y-61545540D01*
X141214069Y-61545540D02*
X141356926Y-61640778D01*
X141356926Y-61640778D02*
X141452164Y-61736016D01*
X141452164Y-61736016D02*
X141499783Y-61831254D01*
X141214069Y-60355064D02*
X141214069Y-60831254D01*
X141214069Y-60831254D02*
X141690259Y-60878873D01*
X141690259Y-60878873D02*
X141642640Y-60831254D01*
X141642640Y-60831254D02*
X141595021Y-60736016D01*
X141595021Y-60736016D02*
X141595021Y-60497921D01*
X141595021Y-60497921D02*
X141642640Y-60402683D01*
X141642640Y-60402683D02*
X141690259Y-60355064D01*
X141690259Y-60355064D02*
X141785497Y-60307445D01*
X141785497Y-60307445D02*
X142023592Y-60307445D01*
X142023592Y-60307445D02*
X142118830Y-60355064D01*
X142118830Y-60355064D02*
X142166450Y-60402683D01*
X142166450Y-60402683D02*
X142214069Y-60497921D01*
X142214069Y-60497921D02*
X142214069Y-60736016D01*
X142214069Y-60736016D02*
X142166450Y-60831254D01*
X142166450Y-60831254D02*
X142118830Y-60878873D01*
X81954819Y-78329166D02*
X81478628Y-78662499D01*
X81954819Y-78900594D02*
X80954819Y-78900594D01*
X80954819Y-78900594D02*
X80954819Y-78519642D01*
X80954819Y-78519642D02*
X81002438Y-78424404D01*
X81002438Y-78424404D02*
X81050057Y-78376785D01*
X81050057Y-78376785D02*
X81145295Y-78329166D01*
X81145295Y-78329166D02*
X81288152Y-78329166D01*
X81288152Y-78329166D02*
X81383390Y-78376785D01*
X81383390Y-78376785D02*
X81431009Y-78424404D01*
X81431009Y-78424404D02*
X81478628Y-78519642D01*
X81478628Y-78519642D02*
X81478628Y-78900594D01*
X81954819Y-77376785D02*
X81954819Y-77948213D01*
X81954819Y-77662499D02*
X80954819Y-77662499D01*
X80954819Y-77662499D02*
X81097676Y-77757737D01*
X81097676Y-77757737D02*
X81192914Y-77852975D01*
X81192914Y-77852975D02*
X81240533Y-77948213D01*
X137464069Y-62212207D02*
X136987878Y-62545540D01*
X137464069Y-62783635D02*
X136464069Y-62783635D01*
X136464069Y-62783635D02*
X136464069Y-62402683D01*
X136464069Y-62402683D02*
X136511688Y-62307445D01*
X136511688Y-62307445D02*
X136559307Y-62259826D01*
X136559307Y-62259826D02*
X136654545Y-62212207D01*
X136654545Y-62212207D02*
X136797402Y-62212207D01*
X136797402Y-62212207D02*
X136892640Y-62259826D01*
X136892640Y-62259826D02*
X136940259Y-62307445D01*
X136940259Y-62307445D02*
X136987878Y-62402683D01*
X136987878Y-62402683D02*
X136987878Y-62783635D01*
X137464069Y-61259826D02*
X137464069Y-61831254D01*
X137464069Y-61545540D02*
X136464069Y-61545540D01*
X136464069Y-61545540D02*
X136606926Y-61640778D01*
X136606926Y-61640778D02*
X136702164Y-61736016D01*
X136702164Y-61736016D02*
X136749783Y-61831254D01*
X137464069Y-60307445D02*
X137464069Y-60878873D01*
X137464069Y-60593159D02*
X136464069Y-60593159D01*
X136464069Y-60593159D02*
X136606926Y-60688397D01*
X136606926Y-60688397D02*
X136702164Y-60783635D01*
X136702164Y-60783635D02*
X136749783Y-60878873D01*
X79414069Y-65161016D02*
X78937878Y-65494349D01*
X79414069Y-65732444D02*
X78414069Y-65732444D01*
X78414069Y-65732444D02*
X78414069Y-65351492D01*
X78414069Y-65351492D02*
X78461688Y-65256254D01*
X78461688Y-65256254D02*
X78509307Y-65208635D01*
X78509307Y-65208635D02*
X78604545Y-65161016D01*
X78604545Y-65161016D02*
X78747402Y-65161016D01*
X78747402Y-65161016D02*
X78842640Y-65208635D01*
X78842640Y-65208635D02*
X78890259Y-65256254D01*
X78890259Y-65256254D02*
X78937878Y-65351492D01*
X78937878Y-65351492D02*
X78937878Y-65732444D01*
X78842640Y-64589587D02*
X78795021Y-64684825D01*
X78795021Y-64684825D02*
X78747402Y-64732444D01*
X78747402Y-64732444D02*
X78652164Y-64780063D01*
X78652164Y-64780063D02*
X78604545Y-64780063D01*
X78604545Y-64780063D02*
X78509307Y-64732444D01*
X78509307Y-64732444D02*
X78461688Y-64684825D01*
X78461688Y-64684825D02*
X78414069Y-64589587D01*
X78414069Y-64589587D02*
X78414069Y-64399111D01*
X78414069Y-64399111D02*
X78461688Y-64303873D01*
X78461688Y-64303873D02*
X78509307Y-64256254D01*
X78509307Y-64256254D02*
X78604545Y-64208635D01*
X78604545Y-64208635D02*
X78652164Y-64208635D01*
X78652164Y-64208635D02*
X78747402Y-64256254D01*
X78747402Y-64256254D02*
X78795021Y-64303873D01*
X78795021Y-64303873D02*
X78842640Y-64399111D01*
X78842640Y-64399111D02*
X78842640Y-64589587D01*
X78842640Y-64589587D02*
X78890259Y-64684825D01*
X78890259Y-64684825D02*
X78937878Y-64732444D01*
X78937878Y-64732444D02*
X79033116Y-64780063D01*
X79033116Y-64780063D02*
X79223592Y-64780063D01*
X79223592Y-64780063D02*
X79318830Y-64732444D01*
X79318830Y-64732444D02*
X79366450Y-64684825D01*
X79366450Y-64684825D02*
X79414069Y-64589587D01*
X79414069Y-64589587D02*
X79414069Y-64399111D01*
X79414069Y-64399111D02*
X79366450Y-64303873D01*
X79366450Y-64303873D02*
X79318830Y-64256254D01*
X79318830Y-64256254D02*
X79223592Y-64208635D01*
X79223592Y-64208635D02*
X79033116Y-64208635D01*
X79033116Y-64208635D02*
X78937878Y-64256254D01*
X78937878Y-64256254D02*
X78890259Y-64303873D01*
X78890259Y-64303873D02*
X78842640Y-64399111D01*
X70557464Y-85199169D02*
X70557464Y-84199169D01*
X70557464Y-84199169D02*
X70795559Y-84199169D01*
X70795559Y-84199169D02*
X70938416Y-84246788D01*
X70938416Y-84246788D02*
X71033654Y-84342026D01*
X71033654Y-84342026D02*
X71081273Y-84437264D01*
X71081273Y-84437264D02*
X71128892Y-84627740D01*
X71128892Y-84627740D02*
X71128892Y-84770597D01*
X71128892Y-84770597D02*
X71081273Y-84961073D01*
X71081273Y-84961073D02*
X71033654Y-85056311D01*
X71033654Y-85056311D02*
X70938416Y-85151550D01*
X70938416Y-85151550D02*
X70795559Y-85199169D01*
X70795559Y-85199169D02*
X70557464Y-85199169D01*
X72081273Y-85199169D02*
X71509845Y-85199169D01*
X71795559Y-85199169D02*
X71795559Y-84199169D01*
X71795559Y-84199169D02*
X71700321Y-84342026D01*
X71700321Y-84342026D02*
X71605083Y-84437264D01*
X71605083Y-84437264D02*
X71509845Y-84484883D01*
X72700321Y-84199169D02*
X72795559Y-84199169D01*
X72795559Y-84199169D02*
X72890797Y-84246788D01*
X72890797Y-84246788D02*
X72938416Y-84294407D01*
X72938416Y-84294407D02*
X72986035Y-84389645D01*
X72986035Y-84389645D02*
X73033654Y-84580121D01*
X73033654Y-84580121D02*
X73033654Y-84818216D01*
X73033654Y-84818216D02*
X72986035Y-85008692D01*
X72986035Y-85008692D02*
X72938416Y-85103930D01*
X72938416Y-85103930D02*
X72890797Y-85151550D01*
X72890797Y-85151550D02*
X72795559Y-85199169D01*
X72795559Y-85199169D02*
X72700321Y-85199169D01*
X72700321Y-85199169D02*
X72605083Y-85151550D01*
X72605083Y-85151550D02*
X72557464Y-85103930D01*
X72557464Y-85103930D02*
X72509845Y-85008692D01*
X72509845Y-85008692D02*
X72462226Y-84818216D01*
X72462226Y-84818216D02*
X72462226Y-84580121D01*
X72462226Y-84580121D02*
X72509845Y-84389645D01*
X72509845Y-84389645D02*
X72557464Y-84294407D01*
X72557464Y-84294407D02*
X72605083Y-84246788D01*
X72605083Y-84246788D02*
X72700321Y-84199169D01*
X140164069Y-62212207D02*
X139687878Y-62545540D01*
X140164069Y-62783635D02*
X139164069Y-62783635D01*
X139164069Y-62783635D02*
X139164069Y-62402683D01*
X139164069Y-62402683D02*
X139211688Y-62307445D01*
X139211688Y-62307445D02*
X139259307Y-62259826D01*
X139259307Y-62259826D02*
X139354545Y-62212207D01*
X139354545Y-62212207D02*
X139497402Y-62212207D01*
X139497402Y-62212207D02*
X139592640Y-62259826D01*
X139592640Y-62259826D02*
X139640259Y-62307445D01*
X139640259Y-62307445D02*
X139687878Y-62402683D01*
X139687878Y-62402683D02*
X139687878Y-62783635D01*
X140164069Y-61259826D02*
X140164069Y-61831254D01*
X140164069Y-61545540D02*
X139164069Y-61545540D01*
X139164069Y-61545540D02*
X139306926Y-61640778D01*
X139306926Y-61640778D02*
X139402164Y-61736016D01*
X139402164Y-61736016D02*
X139449783Y-61831254D01*
X139164069Y-60402683D02*
X139164069Y-60593159D01*
X139164069Y-60593159D02*
X139211688Y-60688397D01*
X139211688Y-60688397D02*
X139259307Y-60736016D01*
X139259307Y-60736016D02*
X139402164Y-60831254D01*
X139402164Y-60831254D02*
X139592640Y-60878873D01*
X139592640Y-60878873D02*
X139973592Y-60878873D01*
X139973592Y-60878873D02*
X140068830Y-60831254D01*
X140068830Y-60831254D02*
X140116450Y-60783635D01*
X140116450Y-60783635D02*
X140164069Y-60688397D01*
X140164069Y-60688397D02*
X140164069Y-60497921D01*
X140164069Y-60497921D02*
X140116450Y-60402683D01*
X140116450Y-60402683D02*
X140068830Y-60355064D01*
X140068830Y-60355064D02*
X139973592Y-60307445D01*
X139973592Y-60307445D02*
X139735497Y-60307445D01*
X139735497Y-60307445D02*
X139640259Y-60355064D01*
X139640259Y-60355064D02*
X139592640Y-60402683D01*
X139592640Y-60402683D02*
X139545021Y-60497921D01*
X139545021Y-60497921D02*
X139545021Y-60688397D01*
X139545021Y-60688397D02*
X139592640Y-60783635D01*
X139592640Y-60783635D02*
X139640259Y-60831254D01*
X139640259Y-60831254D02*
X139735497Y-60878873D01*
X66664069Y-65161016D02*
X66187878Y-65494349D01*
X66664069Y-65732444D02*
X65664069Y-65732444D01*
X65664069Y-65732444D02*
X65664069Y-65351492D01*
X65664069Y-65351492D02*
X65711688Y-65256254D01*
X65711688Y-65256254D02*
X65759307Y-65208635D01*
X65759307Y-65208635D02*
X65854545Y-65161016D01*
X65854545Y-65161016D02*
X65997402Y-65161016D01*
X65997402Y-65161016D02*
X66092640Y-65208635D01*
X66092640Y-65208635D02*
X66140259Y-65256254D01*
X66140259Y-65256254D02*
X66187878Y-65351492D01*
X66187878Y-65351492D02*
X66187878Y-65732444D01*
X65664069Y-64827682D02*
X65664069Y-64161016D01*
X65664069Y-64161016D02*
X66664069Y-64589587D01*
X100204819Y-93392857D02*
X99728628Y-93726190D01*
X100204819Y-93964285D02*
X99204819Y-93964285D01*
X99204819Y-93964285D02*
X99204819Y-93583333D01*
X99204819Y-93583333D02*
X99252438Y-93488095D01*
X99252438Y-93488095D02*
X99300057Y-93440476D01*
X99300057Y-93440476D02*
X99395295Y-93392857D01*
X99395295Y-93392857D02*
X99538152Y-93392857D01*
X99538152Y-93392857D02*
X99633390Y-93440476D01*
X99633390Y-93440476D02*
X99681009Y-93488095D01*
X99681009Y-93488095D02*
X99728628Y-93583333D01*
X99728628Y-93583333D02*
X99728628Y-93964285D01*
X100204819Y-92440476D02*
X100204819Y-93011904D01*
X100204819Y-92726190D02*
X99204819Y-92726190D01*
X99204819Y-92726190D02*
X99347676Y-92821428D01*
X99347676Y-92821428D02*
X99442914Y-92916666D01*
X99442914Y-92916666D02*
X99490533Y-93011904D01*
X99204819Y-92107142D02*
X99204819Y-91488095D01*
X99204819Y-91488095D02*
X99585771Y-91821428D01*
X99585771Y-91821428D02*
X99585771Y-91678571D01*
X99585771Y-91678571D02*
X99633390Y-91583333D01*
X99633390Y-91583333D02*
X99681009Y-91535714D01*
X99681009Y-91535714D02*
X99776247Y-91488095D01*
X99776247Y-91488095D02*
X100014342Y-91488095D01*
X100014342Y-91488095D02*
X100109580Y-91535714D01*
X100109580Y-91535714D02*
X100157200Y-91583333D01*
X100157200Y-91583333D02*
X100204819Y-91678571D01*
X100204819Y-91678571D02*
X100204819Y-91964285D01*
X100204819Y-91964285D02*
X100157200Y-92059523D01*
X100157200Y-92059523D02*
X100109580Y-92107142D01*
X98344819Y-77583333D02*
X99059104Y-77583333D01*
X99059104Y-77583333D02*
X99201961Y-77630952D01*
X99201961Y-77630952D02*
X99297200Y-77726190D01*
X99297200Y-77726190D02*
X99344819Y-77869047D01*
X99344819Y-77869047D02*
X99344819Y-77964285D01*
X99344819Y-76583333D02*
X99344819Y-77154761D01*
X99344819Y-76869047D02*
X98344819Y-76869047D01*
X98344819Y-76869047D02*
X98487676Y-76964285D01*
X98487676Y-76964285D02*
X98582914Y-77059523D01*
X98582914Y-77059523D02*
X98630533Y-77154761D01*
X56300916Y-78339169D02*
X56300916Y-79053454D01*
X56300916Y-79053454D02*
X56253297Y-79196311D01*
X56253297Y-79196311D02*
X56158059Y-79291550D01*
X56158059Y-79291550D02*
X56015202Y-79339169D01*
X56015202Y-79339169D02*
X55919964Y-79339169D01*
X56681869Y-78339169D02*
X57300916Y-78339169D01*
X57300916Y-78339169D02*
X56967583Y-78720121D01*
X56967583Y-78720121D02*
X57110440Y-78720121D01*
X57110440Y-78720121D02*
X57205678Y-78767740D01*
X57205678Y-78767740D02*
X57253297Y-78815359D01*
X57253297Y-78815359D02*
X57300916Y-78910597D01*
X57300916Y-78910597D02*
X57300916Y-79148692D01*
X57300916Y-79148692D02*
X57253297Y-79243930D01*
X57253297Y-79243930D02*
X57205678Y-79291550D01*
X57205678Y-79291550D02*
X57110440Y-79339169D01*
X57110440Y-79339169D02*
X56824726Y-79339169D01*
X56824726Y-79339169D02*
X56729488Y-79291550D01*
X56729488Y-79291550D02*
X56681869Y-79243930D01*
X77153892Y-85299169D02*
X76820559Y-84822978D01*
X76582464Y-85299169D02*
X76582464Y-84299169D01*
X76582464Y-84299169D02*
X76963416Y-84299169D01*
X76963416Y-84299169D02*
X77058654Y-84346788D01*
X77058654Y-84346788D02*
X77106273Y-84394407D01*
X77106273Y-84394407D02*
X77153892Y-84489645D01*
X77153892Y-84489645D02*
X77153892Y-84632502D01*
X77153892Y-84632502D02*
X77106273Y-84727740D01*
X77106273Y-84727740D02*
X77058654Y-84775359D01*
X77058654Y-84775359D02*
X76963416Y-84822978D01*
X76963416Y-84822978D02*
X76582464Y-84822978D01*
X78106273Y-85299169D02*
X77534845Y-85299169D01*
X77820559Y-85299169D02*
X77820559Y-84299169D01*
X77820559Y-84299169D02*
X77725321Y-84442026D01*
X77725321Y-84442026D02*
X77630083Y-84537264D01*
X77630083Y-84537264D02*
X77534845Y-84584883D01*
X78725321Y-84299169D02*
X78820559Y-84299169D01*
X78820559Y-84299169D02*
X78915797Y-84346788D01*
X78915797Y-84346788D02*
X78963416Y-84394407D01*
X78963416Y-84394407D02*
X79011035Y-84489645D01*
X79011035Y-84489645D02*
X79058654Y-84680121D01*
X79058654Y-84680121D02*
X79058654Y-84918216D01*
X79058654Y-84918216D02*
X79011035Y-85108692D01*
X79011035Y-85108692D02*
X78963416Y-85203930D01*
X78963416Y-85203930D02*
X78915797Y-85251550D01*
X78915797Y-85251550D02*
X78820559Y-85299169D01*
X78820559Y-85299169D02*
X78725321Y-85299169D01*
X78725321Y-85299169D02*
X78630083Y-85251550D01*
X78630083Y-85251550D02*
X78582464Y-85203930D01*
X78582464Y-85203930D02*
X78534845Y-85108692D01*
X78534845Y-85108692D02*
X78487226Y-84918216D01*
X78487226Y-84918216D02*
X78487226Y-84680121D01*
X78487226Y-84680121D02*
X78534845Y-84489645D01*
X78534845Y-84489645D02*
X78582464Y-84394407D01*
X78582464Y-84394407D02*
X78630083Y-84346788D01*
X78630083Y-84346788D02*
X78725321Y-84299169D01*
X104582319Y-93743094D02*
X103582319Y-93743094D01*
X103582319Y-93743094D02*
X103582319Y-93504999D01*
X103582319Y-93504999D02*
X103629938Y-93362142D01*
X103629938Y-93362142D02*
X103725176Y-93266904D01*
X103725176Y-93266904D02*
X103820414Y-93219285D01*
X103820414Y-93219285D02*
X104010890Y-93171666D01*
X104010890Y-93171666D02*
X104153747Y-93171666D01*
X104153747Y-93171666D02*
X104344223Y-93219285D01*
X104344223Y-93219285D02*
X104439461Y-93266904D01*
X104439461Y-93266904D02*
X104534700Y-93362142D01*
X104534700Y-93362142D02*
X104582319Y-93504999D01*
X104582319Y-93504999D02*
X104582319Y-93743094D01*
X104010890Y-92600237D02*
X103963271Y-92695475D01*
X103963271Y-92695475D02*
X103915652Y-92743094D01*
X103915652Y-92743094D02*
X103820414Y-92790713D01*
X103820414Y-92790713D02*
X103772795Y-92790713D01*
X103772795Y-92790713D02*
X103677557Y-92743094D01*
X103677557Y-92743094D02*
X103629938Y-92695475D01*
X103629938Y-92695475D02*
X103582319Y-92600237D01*
X103582319Y-92600237D02*
X103582319Y-92409761D01*
X103582319Y-92409761D02*
X103629938Y-92314523D01*
X103629938Y-92314523D02*
X103677557Y-92266904D01*
X103677557Y-92266904D02*
X103772795Y-92219285D01*
X103772795Y-92219285D02*
X103820414Y-92219285D01*
X103820414Y-92219285D02*
X103915652Y-92266904D01*
X103915652Y-92266904D02*
X103963271Y-92314523D01*
X103963271Y-92314523D02*
X104010890Y-92409761D01*
X104010890Y-92409761D02*
X104010890Y-92600237D01*
X104010890Y-92600237D02*
X104058509Y-92695475D01*
X104058509Y-92695475D02*
X104106128Y-92743094D01*
X104106128Y-92743094D02*
X104201366Y-92790713D01*
X104201366Y-92790713D02*
X104391842Y-92790713D01*
X104391842Y-92790713D02*
X104487080Y-92743094D01*
X104487080Y-92743094D02*
X104534700Y-92695475D01*
X104534700Y-92695475D02*
X104582319Y-92600237D01*
X104582319Y-92600237D02*
X104582319Y-92409761D01*
X104582319Y-92409761D02*
X104534700Y-92314523D01*
X104534700Y-92314523D02*
X104487080Y-92266904D01*
X104487080Y-92266904D02*
X104391842Y-92219285D01*
X104391842Y-92219285D02*
X104201366Y-92219285D01*
X104201366Y-92219285D02*
X104106128Y-92266904D01*
X104106128Y-92266904D02*
X104058509Y-92314523D01*
X104058509Y-92314523D02*
X104010890Y-92409761D01*
X60533655Y-79949169D02*
X60533655Y-78949169D01*
X60533655Y-78949169D02*
X60771750Y-78949169D01*
X60771750Y-78949169D02*
X60914607Y-78996788D01*
X60914607Y-78996788D02*
X61009845Y-79092026D01*
X61009845Y-79092026D02*
X61057464Y-79187264D01*
X61057464Y-79187264D02*
X61105083Y-79377740D01*
X61105083Y-79377740D02*
X61105083Y-79520597D01*
X61105083Y-79520597D02*
X61057464Y-79711073D01*
X61057464Y-79711073D02*
X61009845Y-79806311D01*
X61009845Y-79806311D02*
X60914607Y-79901550D01*
X60914607Y-79901550D02*
X60771750Y-79949169D01*
X60771750Y-79949169D02*
X60533655Y-79949169D01*
X62057464Y-79949169D02*
X61486036Y-79949169D01*
X61771750Y-79949169D02*
X61771750Y-78949169D01*
X61771750Y-78949169D02*
X61676512Y-79092026D01*
X61676512Y-79092026D02*
X61581274Y-79187264D01*
X61581274Y-79187264D02*
X61486036Y-79234883D01*
X135414069Y-62212207D02*
X134937878Y-62545540D01*
X135414069Y-62783635D02*
X134414069Y-62783635D01*
X134414069Y-62783635D02*
X134414069Y-62402683D01*
X134414069Y-62402683D02*
X134461688Y-62307445D01*
X134461688Y-62307445D02*
X134509307Y-62259826D01*
X134509307Y-62259826D02*
X134604545Y-62212207D01*
X134604545Y-62212207D02*
X134747402Y-62212207D01*
X134747402Y-62212207D02*
X134842640Y-62259826D01*
X134842640Y-62259826D02*
X134890259Y-62307445D01*
X134890259Y-62307445D02*
X134937878Y-62402683D01*
X134937878Y-62402683D02*
X134937878Y-62783635D01*
X135414069Y-61259826D02*
X135414069Y-61831254D01*
X135414069Y-61545540D02*
X134414069Y-61545540D01*
X134414069Y-61545540D02*
X134556926Y-61640778D01*
X134556926Y-61640778D02*
X134652164Y-61736016D01*
X134652164Y-61736016D02*
X134699783Y-61831254D01*
X134509307Y-60878873D02*
X134461688Y-60831254D01*
X134461688Y-60831254D02*
X134414069Y-60736016D01*
X134414069Y-60736016D02*
X134414069Y-60497921D01*
X134414069Y-60497921D02*
X134461688Y-60402683D01*
X134461688Y-60402683D02*
X134509307Y-60355064D01*
X134509307Y-60355064D02*
X134604545Y-60307445D01*
X134604545Y-60307445D02*
X134699783Y-60307445D01*
X134699783Y-60307445D02*
X134842640Y-60355064D01*
X134842640Y-60355064D02*
X135414069Y-60926492D01*
X135414069Y-60926492D02*
X135414069Y-60307445D01*
X140442319Y-92376666D02*
X139966128Y-92709999D01*
X140442319Y-92948094D02*
X139442319Y-92948094D01*
X139442319Y-92948094D02*
X139442319Y-92567142D01*
X139442319Y-92567142D02*
X139489938Y-92471904D01*
X139489938Y-92471904D02*
X139537557Y-92424285D01*
X139537557Y-92424285D02*
X139632795Y-92376666D01*
X139632795Y-92376666D02*
X139775652Y-92376666D01*
X139775652Y-92376666D02*
X139870890Y-92424285D01*
X139870890Y-92424285D02*
X139918509Y-92471904D01*
X139918509Y-92471904D02*
X139966128Y-92567142D01*
X139966128Y-92567142D02*
X139966128Y-92948094D01*
X139442319Y-91471904D02*
X139442319Y-91948094D01*
X139442319Y-91948094D02*
X139918509Y-91995713D01*
X139918509Y-91995713D02*
X139870890Y-91948094D01*
X139870890Y-91948094D02*
X139823271Y-91852856D01*
X139823271Y-91852856D02*
X139823271Y-91614761D01*
X139823271Y-91614761D02*
X139870890Y-91519523D01*
X139870890Y-91519523D02*
X139918509Y-91471904D01*
X139918509Y-91471904D02*
X140013747Y-91424285D01*
X140013747Y-91424285D02*
X140251842Y-91424285D01*
X140251842Y-91424285D02*
X140347080Y-91471904D01*
X140347080Y-91471904D02*
X140394700Y-91519523D01*
X140394700Y-91519523D02*
X140442319Y-91614761D01*
X140442319Y-91614761D02*
X140442319Y-91852856D01*
X140442319Y-91852856D02*
X140394700Y-91948094D01*
X140394700Y-91948094D02*
X140347080Y-91995713D01*
X68204819Y-92916666D02*
X67728628Y-93249999D01*
X68204819Y-93488094D02*
X67204819Y-93488094D01*
X67204819Y-93488094D02*
X67204819Y-93107142D01*
X67204819Y-93107142D02*
X67252438Y-93011904D01*
X67252438Y-93011904D02*
X67300057Y-92964285D01*
X67300057Y-92964285D02*
X67395295Y-92916666D01*
X67395295Y-92916666D02*
X67538152Y-92916666D01*
X67538152Y-92916666D02*
X67633390Y-92964285D01*
X67633390Y-92964285D02*
X67681009Y-93011904D01*
X67681009Y-93011904D02*
X67728628Y-93107142D01*
X67728628Y-93107142D02*
X67728628Y-93488094D01*
X67538152Y-92059523D02*
X68204819Y-92059523D01*
X67157200Y-92297618D02*
X67871485Y-92535713D01*
X67871485Y-92535713D02*
X67871485Y-91916666D01*
X59236969Y-62843880D02*
X60046492Y-62843880D01*
X60046492Y-62843880D02*
X60141730Y-62796261D01*
X60141730Y-62796261D02*
X60189350Y-62748642D01*
X60189350Y-62748642D02*
X60236969Y-62653404D01*
X60236969Y-62653404D02*
X60236969Y-62462928D01*
X60236969Y-62462928D02*
X60189350Y-62367690D01*
X60189350Y-62367690D02*
X60141730Y-62320071D01*
X60141730Y-62320071D02*
X60046492Y-62272452D01*
X60046492Y-62272452D02*
X59236969Y-62272452D01*
X59236969Y-61891499D02*
X59236969Y-61272452D01*
X59236969Y-61272452D02*
X59617921Y-61605785D01*
X59617921Y-61605785D02*
X59617921Y-61462928D01*
X59617921Y-61462928D02*
X59665540Y-61367690D01*
X59665540Y-61367690D02*
X59713159Y-61320071D01*
X59713159Y-61320071D02*
X59808397Y-61272452D01*
X59808397Y-61272452D02*
X60046492Y-61272452D01*
X60046492Y-61272452D02*
X60141730Y-61320071D01*
X60141730Y-61320071D02*
X60189350Y-61367690D01*
X60189350Y-61367690D02*
X60236969Y-61462928D01*
X60236969Y-61462928D02*
X60236969Y-61748642D01*
X60236969Y-61748642D02*
X60189350Y-61843880D01*
X60189350Y-61843880D02*
X60141730Y-61891499D01*
X58236717Y-64164775D02*
X58474812Y-64164775D01*
X58379574Y-64402870D02*
X58474812Y-64164775D01*
X58474812Y-64164775D02*
X58379574Y-63926680D01*
X58665288Y-64307632D02*
X58474812Y-64164775D01*
X58474812Y-64164775D02*
X58665288Y-64021918D01*
X58236717Y-64164775D02*
X58474812Y-64164775D01*
X58379574Y-64402870D02*
X58474812Y-64164775D01*
X58474812Y-64164775D02*
X58379574Y-63926680D01*
X58665288Y-64307632D02*
X58474812Y-64164775D01*
X58474812Y-64164775D02*
X58665288Y-64021918D01*
X134254166Y-89804819D02*
X134254166Y-90519104D01*
X134254166Y-90519104D02*
X134206547Y-90661961D01*
X134206547Y-90661961D02*
X134111309Y-90757200D01*
X134111309Y-90757200D02*
X133968452Y-90804819D01*
X133968452Y-90804819D02*
X133873214Y-90804819D01*
X134682738Y-89900057D02*
X134730357Y-89852438D01*
X134730357Y-89852438D02*
X134825595Y-89804819D01*
X134825595Y-89804819D02*
X135063690Y-89804819D01*
X135063690Y-89804819D02*
X135158928Y-89852438D01*
X135158928Y-89852438D02*
X135206547Y-89900057D01*
X135206547Y-89900057D02*
X135254166Y-89995295D01*
X135254166Y-89995295D02*
X135254166Y-90090533D01*
X135254166Y-90090533D02*
X135206547Y-90233390D01*
X135206547Y-90233390D02*
X134635119Y-90804819D01*
X134635119Y-90804819D02*
X135254166Y-90804819D01*
X62454819Y-93166666D02*
X61978628Y-93499999D01*
X62454819Y-93738094D02*
X61454819Y-93738094D01*
X61454819Y-93738094D02*
X61454819Y-93357142D01*
X61454819Y-93357142D02*
X61502438Y-93261904D01*
X61502438Y-93261904D02*
X61550057Y-93214285D01*
X61550057Y-93214285D02*
X61645295Y-93166666D01*
X61645295Y-93166666D02*
X61788152Y-93166666D01*
X61788152Y-93166666D02*
X61883390Y-93214285D01*
X61883390Y-93214285D02*
X61931009Y-93261904D01*
X61931009Y-93261904D02*
X61978628Y-93357142D01*
X61978628Y-93357142D02*
X61978628Y-93738094D01*
X61550057Y-92785713D02*
X61502438Y-92738094D01*
X61502438Y-92738094D02*
X61454819Y-92642856D01*
X61454819Y-92642856D02*
X61454819Y-92404761D01*
X61454819Y-92404761D02*
X61502438Y-92309523D01*
X61502438Y-92309523D02*
X61550057Y-92261904D01*
X61550057Y-92261904D02*
X61645295Y-92214285D01*
X61645295Y-92214285D02*
X61740533Y-92214285D01*
X61740533Y-92214285D02*
X61883390Y-92261904D01*
X61883390Y-92261904D02*
X62454819Y-92833332D01*
X62454819Y-92833332D02*
X62454819Y-92214285D01*
X85954819Y-79033333D02*
X86669104Y-79033333D01*
X86669104Y-79033333D02*
X86811961Y-79080952D01*
X86811961Y-79080952D02*
X86907200Y-79176190D01*
X86907200Y-79176190D02*
X86954819Y-79319047D01*
X86954819Y-79319047D02*
X86954819Y-79414285D01*
X86954819Y-78557142D02*
X85954819Y-78557142D01*
X85954819Y-78557142D02*
X85954819Y-78176190D01*
X85954819Y-78176190D02*
X86002438Y-78080952D01*
X86002438Y-78080952D02*
X86050057Y-78033333D01*
X86050057Y-78033333D02*
X86145295Y-77985714D01*
X86145295Y-77985714D02*
X86288152Y-77985714D01*
X86288152Y-77985714D02*
X86383390Y-78033333D01*
X86383390Y-78033333D02*
X86431009Y-78080952D01*
X86431009Y-78080952D02*
X86478628Y-78176190D01*
X86478628Y-78176190D02*
X86478628Y-78557142D01*
X86954819Y-77033333D02*
X86954819Y-77604761D01*
X86954819Y-77319047D02*
X85954819Y-77319047D01*
X85954819Y-77319047D02*
X86097676Y-77414285D01*
X86097676Y-77414285D02*
X86192914Y-77509523D01*
X86192914Y-77509523D02*
X86240533Y-77604761D01*
X83704819Y-75933332D02*
X83704819Y-75314285D01*
X83704819Y-75314285D02*
X84085771Y-75647618D01*
X84085771Y-75647618D02*
X84085771Y-75504761D01*
X84085771Y-75504761D02*
X84133390Y-75409523D01*
X84133390Y-75409523D02*
X84181009Y-75361904D01*
X84181009Y-75361904D02*
X84276247Y-75314285D01*
X84276247Y-75314285D02*
X84514342Y-75314285D01*
X84514342Y-75314285D02*
X84609580Y-75361904D01*
X84609580Y-75361904D02*
X84657200Y-75409523D01*
X84657200Y-75409523D02*
X84704819Y-75504761D01*
X84704819Y-75504761D02*
X84704819Y-75790475D01*
X84704819Y-75790475D02*
X84657200Y-75885713D01*
X84657200Y-75885713D02*
X84609580Y-75933332D01*
X84704819Y-80514285D02*
X84704819Y-81085713D01*
X84704819Y-80799999D02*
X83704819Y-80799999D01*
X83704819Y-80799999D02*
X83847676Y-80895237D01*
X83847676Y-80895237D02*
X83942914Y-80990475D01*
X83942914Y-80990475D02*
X83990533Y-81085713D01*
X65818830Y-61498516D02*
X65866450Y-61546135D01*
X65866450Y-61546135D02*
X65914069Y-61688992D01*
X65914069Y-61688992D02*
X65914069Y-61784230D01*
X65914069Y-61784230D02*
X65866450Y-61927087D01*
X65866450Y-61927087D02*
X65771211Y-62022325D01*
X65771211Y-62022325D02*
X65675973Y-62069944D01*
X65675973Y-62069944D02*
X65485497Y-62117563D01*
X65485497Y-62117563D02*
X65342640Y-62117563D01*
X65342640Y-62117563D02*
X65152164Y-62069944D01*
X65152164Y-62069944D02*
X65056926Y-62022325D01*
X65056926Y-62022325D02*
X64961688Y-61927087D01*
X64961688Y-61927087D02*
X64914069Y-61784230D01*
X64914069Y-61784230D02*
X64914069Y-61688992D01*
X64914069Y-61688992D02*
X64961688Y-61546135D01*
X64961688Y-61546135D02*
X65009307Y-61498516D01*
X64914069Y-61165182D02*
X64914069Y-60546135D01*
X64914069Y-60546135D02*
X65295021Y-60879468D01*
X65295021Y-60879468D02*
X65295021Y-60736611D01*
X65295021Y-60736611D02*
X65342640Y-60641373D01*
X65342640Y-60641373D02*
X65390259Y-60593754D01*
X65390259Y-60593754D02*
X65485497Y-60546135D01*
X65485497Y-60546135D02*
X65723592Y-60546135D01*
X65723592Y-60546135D02*
X65818830Y-60593754D01*
X65818830Y-60593754D02*
X65866450Y-60641373D01*
X65866450Y-60641373D02*
X65914069Y-60736611D01*
X65914069Y-60736611D02*
X65914069Y-61022325D01*
X65914069Y-61022325D02*
X65866450Y-61117563D01*
X65866450Y-61117563D02*
X65818830Y-61165182D01*
X54359324Y-75313415D02*
X54359324Y-75950836D01*
X54359324Y-75950836D02*
X54396820Y-76025826D01*
X54396820Y-76025826D02*
X54434315Y-76063322D01*
X54434315Y-76063322D02*
X54509306Y-76100817D01*
X54509306Y-76100817D02*
X54659287Y-76100817D01*
X54659287Y-76100817D02*
X54734278Y-76063322D01*
X54734278Y-76063322D02*
X54771773Y-76025826D01*
X54771773Y-76025826D02*
X54809268Y-75950836D01*
X54809268Y-75950836D02*
X54809268Y-75313415D01*
X55146726Y-75388406D02*
X55184221Y-75350910D01*
X55184221Y-75350910D02*
X55259212Y-75313415D01*
X55259212Y-75313415D02*
X55446689Y-75313415D01*
X55446689Y-75313415D02*
X55521679Y-75350910D01*
X55521679Y-75350910D02*
X55559175Y-75388406D01*
X55559175Y-75388406D02*
X55596670Y-75463396D01*
X55596670Y-75463396D02*
X55596670Y-75538387D01*
X55596670Y-75538387D02*
X55559175Y-75650873D01*
X55559175Y-75650873D02*
X55109231Y-76100817D01*
X55109231Y-76100817D02*
X55596670Y-76100817D01*
X81583332Y-60417438D02*
X81583332Y-59084104D01*
X81583332Y-59465057D02*
X81678570Y-59274580D01*
X81678570Y-59274580D02*
X81773808Y-59179342D01*
X81773808Y-59179342D02*
X81964284Y-59084104D01*
X81964284Y-59084104D02*
X82154761Y-59084104D01*
X83678570Y-60417438D02*
X83678570Y-59369819D01*
X83678570Y-59369819D02*
X83583332Y-59179342D01*
X83583332Y-59179342D02*
X83392856Y-59084104D01*
X83392856Y-59084104D02*
X83011903Y-59084104D01*
X83011903Y-59084104D02*
X82821427Y-59179342D01*
X83678570Y-60322200D02*
X83488094Y-60417438D01*
X83488094Y-60417438D02*
X83011903Y-60417438D01*
X83011903Y-60417438D02*
X82821427Y-60322200D01*
X82821427Y-60322200D02*
X82726189Y-60131723D01*
X82726189Y-60131723D02*
X82726189Y-59941247D01*
X82726189Y-59941247D02*
X82821427Y-59750771D01*
X82821427Y-59750771D02*
X83011903Y-59655533D01*
X83011903Y-59655533D02*
X83488094Y-59655533D01*
X83488094Y-59655533D02*
X83678570Y-59560295D01*
X84535713Y-60322200D02*
X84726189Y-60417438D01*
X84726189Y-60417438D02*
X85107141Y-60417438D01*
X85107141Y-60417438D02*
X85297618Y-60322200D01*
X85297618Y-60322200D02*
X85392856Y-60131723D01*
X85392856Y-60131723D02*
X85392856Y-60036485D01*
X85392856Y-60036485D02*
X85297618Y-59846009D01*
X85297618Y-59846009D02*
X85107141Y-59750771D01*
X85107141Y-59750771D02*
X84821427Y-59750771D01*
X84821427Y-59750771D02*
X84630951Y-59655533D01*
X84630951Y-59655533D02*
X84535713Y-59465057D01*
X84535713Y-59465057D02*
X84535713Y-59369819D01*
X84535713Y-59369819D02*
X84630951Y-59179342D01*
X84630951Y-59179342D02*
X84821427Y-59084104D01*
X84821427Y-59084104D02*
X85107141Y-59084104D01*
X85107141Y-59084104D02*
X85297618Y-59179342D01*
X86249999Y-60417438D02*
X86249999Y-58417438D01*
X86249999Y-59179342D02*
X86440475Y-59084104D01*
X86440475Y-59084104D02*
X86821428Y-59084104D01*
X86821428Y-59084104D02*
X87011904Y-59179342D01*
X87011904Y-59179342D02*
X87107142Y-59274580D01*
X87107142Y-59274580D02*
X87202380Y-59465057D01*
X87202380Y-59465057D02*
X87202380Y-60036485D01*
X87202380Y-60036485D02*
X87107142Y-60226961D01*
X87107142Y-60226961D02*
X87011904Y-60322200D01*
X87011904Y-60322200D02*
X86821428Y-60417438D01*
X86821428Y-60417438D02*
X86440475Y-60417438D01*
X86440475Y-60417438D02*
X86249999Y-60322200D01*
X88821428Y-60322200D02*
X88630952Y-60417438D01*
X88630952Y-60417438D02*
X88249999Y-60417438D01*
X88249999Y-60417438D02*
X88059523Y-60322200D01*
X88059523Y-60322200D02*
X87964285Y-60131723D01*
X87964285Y-60131723D02*
X87964285Y-59369819D01*
X87964285Y-59369819D02*
X88059523Y-59179342D01*
X88059523Y-59179342D02*
X88249999Y-59084104D01*
X88249999Y-59084104D02*
X88630952Y-59084104D01*
X88630952Y-59084104D02*
X88821428Y-59179342D01*
X88821428Y-59179342D02*
X88916666Y-59369819D01*
X88916666Y-59369819D02*
X88916666Y-59560295D01*
X88916666Y-59560295D02*
X87964285Y-59750771D01*
X89773809Y-60417438D02*
X89773809Y-59084104D01*
X89773809Y-59465057D02*
X89869047Y-59274580D01*
X89869047Y-59274580D02*
X89964285Y-59179342D01*
X89964285Y-59179342D02*
X90154761Y-59084104D01*
X90154761Y-59084104D02*
X90345238Y-59084104D01*
X91011904Y-60417438D02*
X91011904Y-59084104D01*
X91011904Y-59465057D02*
X91107142Y-59274580D01*
X91107142Y-59274580D02*
X91202380Y-59179342D01*
X91202380Y-59179342D02*
X91392856Y-59084104D01*
X91392856Y-59084104D02*
X91583333Y-59084104D01*
X92059523Y-59084104D02*
X92535713Y-60417438D01*
X93011904Y-59084104D02*
X92535713Y-60417438D01*
X92535713Y-60417438D02*
X92345237Y-60893628D01*
X92345237Y-60893628D02*
X92249999Y-60988866D01*
X92249999Y-60988866D02*
X92059523Y-61084104D01*
X95297619Y-59084104D02*
X95297619Y-61084104D01*
X95297619Y-59179342D02*
X95488095Y-59084104D01*
X95488095Y-59084104D02*
X95869048Y-59084104D01*
X95869048Y-59084104D02*
X96059524Y-59179342D01*
X96059524Y-59179342D02*
X96154762Y-59274580D01*
X96154762Y-59274580D02*
X96250000Y-59465057D01*
X96250000Y-59465057D02*
X96250000Y-60036485D01*
X96250000Y-60036485D02*
X96154762Y-60226961D01*
X96154762Y-60226961D02*
X96059524Y-60322200D01*
X96059524Y-60322200D02*
X95869048Y-60417438D01*
X95869048Y-60417438D02*
X95488095Y-60417438D01*
X95488095Y-60417438D02*
X95297619Y-60322200D01*
X97107143Y-60417438D02*
X97107143Y-59084104D01*
X97107143Y-58417438D02*
X97011905Y-58512676D01*
X97011905Y-58512676D02*
X97107143Y-58607914D01*
X97107143Y-58607914D02*
X97202381Y-58512676D01*
X97202381Y-58512676D02*
X97107143Y-58417438D01*
X97107143Y-58417438D02*
X97107143Y-58607914D01*
X99583334Y-59084104D02*
X99583334Y-61084104D01*
X99583334Y-59179342D02*
X99773810Y-59084104D01*
X99773810Y-59084104D02*
X100154763Y-59084104D01*
X100154763Y-59084104D02*
X100345239Y-59179342D01*
X100345239Y-59179342D02*
X100440477Y-59274580D01*
X100440477Y-59274580D02*
X100535715Y-59465057D01*
X100535715Y-59465057D02*
X100535715Y-60036485D01*
X100535715Y-60036485D02*
X100440477Y-60226961D01*
X100440477Y-60226961D02*
X100345239Y-60322200D01*
X100345239Y-60322200D02*
X100154763Y-60417438D01*
X100154763Y-60417438D02*
X99773810Y-60417438D01*
X99773810Y-60417438D02*
X99583334Y-60322200D01*
X101392858Y-60417438D02*
X101392858Y-59084104D01*
X101392858Y-58417438D02*
X101297620Y-58512676D01*
X101297620Y-58512676D02*
X101392858Y-58607914D01*
X101392858Y-58607914D02*
X101488096Y-58512676D01*
X101488096Y-58512676D02*
X101392858Y-58417438D01*
X101392858Y-58417438D02*
X101392858Y-58607914D01*
X103202382Y-60322200D02*
X103011906Y-60417438D01*
X103011906Y-60417438D02*
X102630953Y-60417438D01*
X102630953Y-60417438D02*
X102440477Y-60322200D01*
X102440477Y-60322200D02*
X102345239Y-60226961D01*
X102345239Y-60226961D02*
X102250001Y-60036485D01*
X102250001Y-60036485D02*
X102250001Y-59465057D01*
X102250001Y-59465057D02*
X102345239Y-59274580D01*
X102345239Y-59274580D02*
X102440477Y-59179342D01*
X102440477Y-59179342D02*
X102630953Y-59084104D01*
X102630953Y-59084104D02*
X103011906Y-59084104D01*
X103011906Y-59084104D02*
X103202382Y-59179342D01*
X104345239Y-60417438D02*
X104154763Y-60322200D01*
X104154763Y-60322200D02*
X104059525Y-60226961D01*
X104059525Y-60226961D02*
X103964287Y-60036485D01*
X103964287Y-60036485D02*
X103964287Y-59465057D01*
X103964287Y-59465057D02*
X104059525Y-59274580D01*
X104059525Y-59274580D02*
X104154763Y-59179342D01*
X104154763Y-59179342D02*
X104345239Y-59084104D01*
X104345239Y-59084104D02*
X104630954Y-59084104D01*
X104630954Y-59084104D02*
X104821430Y-59179342D01*
X104821430Y-59179342D02*
X104916668Y-59274580D01*
X104916668Y-59274580D02*
X105011906Y-59465057D01*
X105011906Y-59465057D02*
X105011906Y-60036485D01*
X105011906Y-60036485D02*
X104916668Y-60226961D01*
X104916668Y-60226961D02*
X104821430Y-60322200D01*
X104821430Y-60322200D02*
X104630954Y-60417438D01*
X104630954Y-60417438D02*
X104345239Y-60417438D01*
X105229554Y-73794340D02*
X105800983Y-72270531D01*
X105800983Y-72270531D02*
X106372411Y-73794340D01*
X106562888Y-71318150D02*
X104562888Y-71318150D01*
X104562888Y-71318150D02*
X106562888Y-70175293D01*
X106562888Y-70175293D02*
X104562888Y-70175293D01*
X105991459Y-69318150D02*
X105991459Y-68365769D01*
X106562888Y-69508626D02*
X104562888Y-68841960D01*
X104562888Y-68841960D02*
X106562888Y-68175293D01*
X106562888Y-67508626D02*
X104562888Y-67508626D01*
X104562888Y-67508626D02*
X105991459Y-66841959D01*
X105991459Y-66841959D02*
X104562888Y-66175293D01*
X104562888Y-66175293D02*
X106562888Y-66175293D01*
X105515269Y-65222912D02*
X105515269Y-64556245D01*
X106562888Y-64270531D02*
X106562888Y-65222912D01*
X106562888Y-65222912D02*
X104562888Y-65222912D01*
X104562888Y-65222912D02*
X104562888Y-64270531D01*
X69357142Y-95704819D02*
X69023809Y-95228628D01*
X68785714Y-95704819D02*
X68785714Y-94704819D01*
X68785714Y-94704819D02*
X69166666Y-94704819D01*
X69166666Y-94704819D02*
X69261904Y-94752438D01*
X69261904Y-94752438D02*
X69309523Y-94800057D01*
X69309523Y-94800057D02*
X69357142Y-94895295D01*
X69357142Y-94895295D02*
X69357142Y-95038152D01*
X69357142Y-95038152D02*
X69309523Y-95133390D01*
X69309523Y-95133390D02*
X69261904Y-95181009D01*
X69261904Y-95181009D02*
X69166666Y-95228628D01*
X69166666Y-95228628D02*
X68785714Y-95228628D01*
X70309523Y-95704819D02*
X69738095Y-95704819D01*
X70023809Y-95704819D02*
X70023809Y-94704819D01*
X70023809Y-94704819D02*
X69928571Y-94847676D01*
X69928571Y-94847676D02*
X69833333Y-94942914D01*
X69833333Y-94942914D02*
X69738095Y-94990533D01*
X71166666Y-95038152D02*
X71166666Y-95704819D01*
X70928571Y-94657200D02*
X70690476Y-95371485D01*
X70690476Y-95371485D02*
X71309523Y-95371485D01*
X61555083Y-83699169D02*
X61078893Y-83699169D01*
X61078893Y-83699169D02*
X61078893Y-82699169D01*
X62412226Y-83699169D02*
X61840798Y-83699169D01*
X62126512Y-83699169D02*
X62126512Y-82699169D01*
X62126512Y-82699169D02*
X62031274Y-82842026D01*
X62031274Y-82842026D02*
X61936036Y-82937264D01*
X61936036Y-82937264D02*
X61840798Y-82984883D01*
X61292583Y-57011430D02*
X61244964Y-57059050D01*
X61244964Y-57059050D02*
X61102107Y-57106669D01*
X61102107Y-57106669D02*
X61006869Y-57106669D01*
X61006869Y-57106669D02*
X60864012Y-57059050D01*
X60864012Y-57059050D02*
X60768774Y-56963811D01*
X60768774Y-56963811D02*
X60721155Y-56868573D01*
X60721155Y-56868573D02*
X60673536Y-56678097D01*
X60673536Y-56678097D02*
X60673536Y-56535240D01*
X60673536Y-56535240D02*
X60721155Y-56344764D01*
X60721155Y-56344764D02*
X60768774Y-56249526D01*
X60768774Y-56249526D02*
X60864012Y-56154288D01*
X60864012Y-56154288D02*
X61006869Y-56106669D01*
X61006869Y-56106669D02*
X61102107Y-56106669D01*
X61102107Y-56106669D02*
X61244964Y-56154288D01*
X61244964Y-56154288D02*
X61292583Y-56201907D01*
X62244964Y-57106669D02*
X61673536Y-57106669D01*
X61959250Y-57106669D02*
X61959250Y-56106669D01*
X61959250Y-56106669D02*
X61864012Y-56249526D01*
X61864012Y-56249526D02*
X61768774Y-56344764D01*
X61768774Y-56344764D02*
X61673536Y-56392383D01*
X72954819Y-93493094D02*
X71954819Y-93493094D01*
X71954819Y-93493094D02*
X71954819Y-93254999D01*
X71954819Y-93254999D02*
X72002438Y-93112142D01*
X72002438Y-93112142D02*
X72097676Y-93016904D01*
X72097676Y-93016904D02*
X72192914Y-92969285D01*
X72192914Y-92969285D02*
X72383390Y-92921666D01*
X72383390Y-92921666D02*
X72526247Y-92921666D01*
X72526247Y-92921666D02*
X72716723Y-92969285D01*
X72716723Y-92969285D02*
X72811961Y-93016904D01*
X72811961Y-93016904D02*
X72907200Y-93112142D01*
X72907200Y-93112142D02*
X72954819Y-93254999D01*
X72954819Y-93254999D02*
X72954819Y-93493094D01*
X71954819Y-92588332D02*
X71954819Y-91921666D01*
X71954819Y-91921666D02*
X72954819Y-92350237D01*
X51916666Y-86704819D02*
X51916666Y-87419104D01*
X51916666Y-87419104D02*
X51869047Y-87561961D01*
X51869047Y-87561961D02*
X51773809Y-87657200D01*
X51773809Y-87657200D02*
X51630952Y-87704819D01*
X51630952Y-87704819D02*
X51535714Y-87704819D01*
X52821428Y-87038152D02*
X52821428Y-87704819D01*
X52583333Y-86657200D02*
X52345238Y-87371485D01*
X52345238Y-87371485D02*
X52964285Y-87371485D01*
X81450917Y-85151550D02*
X81593774Y-85199169D01*
X81593774Y-85199169D02*
X81831869Y-85199169D01*
X81831869Y-85199169D02*
X81927107Y-85151550D01*
X81927107Y-85151550D02*
X81974726Y-85103930D01*
X81974726Y-85103930D02*
X82022345Y-85008692D01*
X82022345Y-85008692D02*
X82022345Y-84913454D01*
X82022345Y-84913454D02*
X81974726Y-84818216D01*
X81974726Y-84818216D02*
X81927107Y-84770597D01*
X81927107Y-84770597D02*
X81831869Y-84722978D01*
X81831869Y-84722978D02*
X81641393Y-84675359D01*
X81641393Y-84675359D02*
X81546155Y-84627740D01*
X81546155Y-84627740D02*
X81498536Y-84580121D01*
X81498536Y-84580121D02*
X81450917Y-84484883D01*
X81450917Y-84484883D02*
X81450917Y-84389645D01*
X81450917Y-84389645D02*
X81498536Y-84294407D01*
X81498536Y-84294407D02*
X81546155Y-84246788D01*
X81546155Y-84246788D02*
X81641393Y-84199169D01*
X81641393Y-84199169D02*
X81879488Y-84199169D01*
X81879488Y-84199169D02*
X82022345Y-84246788D01*
X82355679Y-84199169D02*
X82593774Y-85199169D01*
X82593774Y-85199169D02*
X82784250Y-84484883D01*
X82784250Y-84484883D02*
X82974726Y-85199169D01*
X82974726Y-85199169D02*
X83212822Y-84199169D01*
X83546155Y-84294407D02*
X83593774Y-84246788D01*
X83593774Y-84246788D02*
X83689012Y-84199169D01*
X83689012Y-84199169D02*
X83927107Y-84199169D01*
X83927107Y-84199169D02*
X84022345Y-84246788D01*
X84022345Y-84246788D02*
X84069964Y-84294407D01*
X84069964Y-84294407D02*
X84117583Y-84389645D01*
X84117583Y-84389645D02*
X84117583Y-84484883D01*
X84117583Y-84484883D02*
X84069964Y-84627740D01*
X84069964Y-84627740D02*
X83498536Y-85199169D01*
X83498536Y-85199169D02*
X84117583Y-85199169D01*
X65880083Y-85299169D02*
X65546750Y-84822978D01*
X65308655Y-85299169D02*
X65308655Y-84299169D01*
X65308655Y-84299169D02*
X65689607Y-84299169D01*
X65689607Y-84299169D02*
X65784845Y-84346788D01*
X65784845Y-84346788D02*
X65832464Y-84394407D01*
X65832464Y-84394407D02*
X65880083Y-84489645D01*
X65880083Y-84489645D02*
X65880083Y-84632502D01*
X65880083Y-84632502D02*
X65832464Y-84727740D01*
X65832464Y-84727740D02*
X65784845Y-84775359D01*
X65784845Y-84775359D02*
X65689607Y-84822978D01*
X65689607Y-84822978D02*
X65308655Y-84822978D01*
X66213417Y-84299169D02*
X66832464Y-84299169D01*
X66832464Y-84299169D02*
X66499131Y-84680121D01*
X66499131Y-84680121D02*
X66641988Y-84680121D01*
X66641988Y-84680121D02*
X66737226Y-84727740D01*
X66737226Y-84727740D02*
X66784845Y-84775359D01*
X66784845Y-84775359D02*
X66832464Y-84870597D01*
X66832464Y-84870597D02*
X66832464Y-85108692D01*
X66832464Y-85108692D02*
X66784845Y-85203930D01*
X66784845Y-85203930D02*
X66737226Y-85251550D01*
X66737226Y-85251550D02*
X66641988Y-85299169D01*
X66641988Y-85299169D02*
X66356274Y-85299169D01*
X66356274Y-85299169D02*
X66261036Y-85251550D01*
X66261036Y-85251550D02*
X66213417Y-85203930D01*
X76914069Y-65161016D02*
X76437878Y-65494349D01*
X76914069Y-65732444D02*
X75914069Y-65732444D01*
X75914069Y-65732444D02*
X75914069Y-65351492D01*
X75914069Y-65351492D02*
X75961688Y-65256254D01*
X75961688Y-65256254D02*
X76009307Y-65208635D01*
X76009307Y-65208635D02*
X76104545Y-65161016D01*
X76104545Y-65161016D02*
X76247402Y-65161016D01*
X76247402Y-65161016D02*
X76342640Y-65208635D01*
X76342640Y-65208635D02*
X76390259Y-65256254D01*
X76390259Y-65256254D02*
X76437878Y-65351492D01*
X76437878Y-65351492D02*
X76437878Y-65732444D01*
X75914069Y-64303873D02*
X75914069Y-64494349D01*
X75914069Y-64494349D02*
X75961688Y-64589587D01*
X75961688Y-64589587D02*
X76009307Y-64637206D01*
X76009307Y-64637206D02*
X76152164Y-64732444D01*
X76152164Y-64732444D02*
X76342640Y-64780063D01*
X76342640Y-64780063D02*
X76723592Y-64780063D01*
X76723592Y-64780063D02*
X76818830Y-64732444D01*
X76818830Y-64732444D02*
X76866450Y-64684825D01*
X76866450Y-64684825D02*
X76914069Y-64589587D01*
X76914069Y-64589587D02*
X76914069Y-64399111D01*
X76914069Y-64399111D02*
X76866450Y-64303873D01*
X76866450Y-64303873D02*
X76818830Y-64256254D01*
X76818830Y-64256254D02*
X76723592Y-64208635D01*
X76723592Y-64208635D02*
X76485497Y-64208635D01*
X76485497Y-64208635D02*
X76390259Y-64256254D01*
X76390259Y-64256254D02*
X76342640Y-64303873D01*
X76342640Y-64303873D02*
X76295021Y-64399111D01*
X76295021Y-64399111D02*
X76295021Y-64589587D01*
X76295021Y-64589587D02*
X76342640Y-64684825D01*
X76342640Y-64684825D02*
X76390259Y-64732444D01*
X76390259Y-64732444D02*
X76485497Y-64780063D01*
X142082319Y-92968094D02*
X141082319Y-92968094D01*
X141082319Y-92968094D02*
X141082319Y-92729999D01*
X141082319Y-92729999D02*
X141129938Y-92587142D01*
X141129938Y-92587142D02*
X141225176Y-92491904D01*
X141225176Y-92491904D02*
X141320414Y-92444285D01*
X141320414Y-92444285D02*
X141510890Y-92396666D01*
X141510890Y-92396666D02*
X141653747Y-92396666D01*
X141653747Y-92396666D02*
X141844223Y-92444285D01*
X141844223Y-92444285D02*
X141939461Y-92491904D01*
X141939461Y-92491904D02*
X142034700Y-92587142D01*
X142034700Y-92587142D02*
X142082319Y-92729999D01*
X142082319Y-92729999D02*
X142082319Y-92968094D01*
X142082319Y-91920475D02*
X142082319Y-91729999D01*
X142082319Y-91729999D02*
X142034700Y-91634761D01*
X142034700Y-91634761D02*
X141987080Y-91587142D01*
X141987080Y-91587142D02*
X141844223Y-91491904D01*
X141844223Y-91491904D02*
X141653747Y-91444285D01*
X141653747Y-91444285D02*
X141272795Y-91444285D01*
X141272795Y-91444285D02*
X141177557Y-91491904D01*
X141177557Y-91491904D02*
X141129938Y-91539523D01*
X141129938Y-91539523D02*
X141082319Y-91634761D01*
X141082319Y-91634761D02*
X141082319Y-91825237D01*
X141082319Y-91825237D02*
X141129938Y-91920475D01*
X141129938Y-91920475D02*
X141177557Y-91968094D01*
X141177557Y-91968094D02*
X141272795Y-92015713D01*
X141272795Y-92015713D02*
X141510890Y-92015713D01*
X141510890Y-92015713D02*
X141606128Y-91968094D01*
X141606128Y-91968094D02*
X141653747Y-91920475D01*
X141653747Y-91920475D02*
X141701366Y-91825237D01*
X141701366Y-91825237D02*
X141701366Y-91634761D01*
X141701366Y-91634761D02*
X141653747Y-91539523D01*
X141653747Y-91539523D02*
X141606128Y-91491904D01*
X141606128Y-91491904D02*
X141510890Y-91444285D01*
X64164069Y-65248516D02*
X63687878Y-65581849D01*
X64164069Y-65819944D02*
X63164069Y-65819944D01*
X63164069Y-65819944D02*
X63164069Y-65438992D01*
X63164069Y-65438992D02*
X63211688Y-65343754D01*
X63211688Y-65343754D02*
X63259307Y-65296135D01*
X63259307Y-65296135D02*
X63354545Y-65248516D01*
X63354545Y-65248516D02*
X63497402Y-65248516D01*
X63497402Y-65248516D02*
X63592640Y-65296135D01*
X63592640Y-65296135D02*
X63640259Y-65343754D01*
X63640259Y-65343754D02*
X63687878Y-65438992D01*
X63687878Y-65438992D02*
X63687878Y-65819944D01*
X64164069Y-64772325D02*
X64164069Y-64581849D01*
X64164069Y-64581849D02*
X64116450Y-64486611D01*
X64116450Y-64486611D02*
X64068830Y-64438992D01*
X64068830Y-64438992D02*
X63925973Y-64343754D01*
X63925973Y-64343754D02*
X63735497Y-64296135D01*
X63735497Y-64296135D02*
X63354545Y-64296135D01*
X63354545Y-64296135D02*
X63259307Y-64343754D01*
X63259307Y-64343754D02*
X63211688Y-64391373D01*
X63211688Y-64391373D02*
X63164069Y-64486611D01*
X63164069Y-64486611D02*
X63164069Y-64677087D01*
X63164069Y-64677087D02*
X63211688Y-64772325D01*
X63211688Y-64772325D02*
X63259307Y-64819944D01*
X63259307Y-64819944D02*
X63354545Y-64867563D01*
X63354545Y-64867563D02*
X63592640Y-64867563D01*
X63592640Y-64867563D02*
X63687878Y-64819944D01*
X63687878Y-64819944D02*
X63735497Y-64772325D01*
X63735497Y-64772325D02*
X63783116Y-64677087D01*
X63783116Y-64677087D02*
X63783116Y-64486611D01*
X63783116Y-64486611D02*
X63735497Y-64391373D01*
X63735497Y-64391373D02*
X63687878Y-64343754D01*
X63687878Y-64343754D02*
X63592640Y-64296135D01*
%TO.C,Q1*%
D11*
X65376000Y-76006100D02*
X65376000Y-80857500D01*
X65376000Y-80857500D02*
X76044000Y-80857500D01*
X76044000Y-76006100D02*
X65376000Y-76006100D01*
X76044000Y-80857500D02*
X76044000Y-76006100D01*
X78025200Y-78000000D02*
G75*
G02*
X77618800Y-78000000I-203200J0D01*
G01*
X77618800Y-78000000D02*
G75*
G02*
X78025200Y-78000000I203200J0D01*
G01*
%TO.C,R15*%
D12*
X140974250Y-57929786D02*
X140974250Y-58383914D01*
X142444250Y-57929786D02*
X142444250Y-58383914D01*
%TO.C,R1*%
X79015000Y-78477064D02*
X79015000Y-78022936D01*
X80485000Y-78477064D02*
X80485000Y-78022936D01*
%TO.C,R11*%
X136224250Y-57929786D02*
X136224250Y-58383914D01*
X137694250Y-57929786D02*
X137694250Y-58383914D01*
%TO.C,R8*%
X78224250Y-67604786D02*
X78224250Y-68058914D01*
X79694250Y-67604786D02*
X79694250Y-68058914D01*
%TO.C,D10*%
X70771750Y-83954350D02*
X73456750Y-83954350D01*
X73456750Y-82034350D02*
X70771750Y-82034350D01*
X73456750Y-83954350D02*
X73456750Y-82034350D01*
%TO.C,R16*%
X138974250Y-57929786D02*
X138974250Y-58383914D01*
X140444250Y-57929786D02*
X140444250Y-58383914D01*
%TO.C,R7*%
X65474250Y-67604786D02*
X65474250Y-68058914D01*
X66944250Y-67604786D02*
X66944250Y-68058914D01*
%TO.C,R13*%
X100852500Y-92595436D02*
X100852500Y-93049564D01*
X102322500Y-92595436D02*
X102322500Y-93049564D01*
%TO.C,J1*%
X99765000Y-77995000D02*
X99765000Y-77250000D01*
X100500000Y-77995000D02*
X99765000Y-77995000D01*
X101235000Y-76505000D02*
X105110000Y-76505000D01*
X101235000Y-76564435D02*
X101235000Y-76505000D01*
X101235000Y-77995000D02*
X101235000Y-77935565D01*
X101235000Y-77995000D02*
X105110000Y-77995000D01*
X105110000Y-76839970D02*
X105110000Y-76505000D01*
X105110000Y-77995000D02*
X105110000Y-77660030D01*
%TO.C,J3*%
X55889250Y-79759350D02*
X56634250Y-79759350D01*
X55889250Y-80494350D02*
X55889250Y-79759350D01*
X55889250Y-81229350D02*
X55889250Y-83104350D01*
X55889250Y-81229350D02*
X55948685Y-81229350D01*
X55889250Y-83104350D02*
X56224220Y-83104350D01*
X57044280Y-83104350D02*
X57379250Y-83104350D01*
X57319815Y-81229350D02*
X57379250Y-81229350D01*
X57379250Y-81229350D02*
X57379250Y-83104350D01*
%TO.C,R10*%
X77569686Y-82259350D02*
X78023814Y-82259350D01*
X77569686Y-83729350D02*
X78023814Y-83729350D01*
%TO.C,D8*%
X106542500Y-95565000D02*
X109632500Y-95565000D01*
X106542670Y-95565000D02*
G75*
G02*
X108087500Y-90015000I1544830J2560000D01*
G01*
X108087500Y-90015000D02*
G75*
G02*
X109632330Y-95565000I0J-2990000D01*
G01*
X110587500Y-93005000D02*
G75*
G02*
X105587500Y-93005000I-2500000J0D01*
G01*
X105587500Y-93005000D02*
G75*
G02*
X110587500Y-93005000I2500000J0D01*
G01*
%TO.C,D1*%
X60271750Y-78704350D02*
X62956750Y-78704350D01*
X62956750Y-76784350D02*
X60271750Y-76784350D01*
X62956750Y-78704350D02*
X62956750Y-76784350D01*
%TO.C,R12*%
X134224250Y-57929786D02*
X134224250Y-58383914D01*
X135694250Y-57929786D02*
X135694250Y-58383914D01*
%TO.C,R5*%
X137602500Y-91982936D02*
X137602500Y-92437064D01*
X139072500Y-91982936D02*
X139072500Y-92437064D01*
%TO.C,R4*%
X65397500Y-92537936D02*
X65397500Y-92992064D01*
X66867500Y-92537936D02*
X66867500Y-92992064D01*
%TO.C,U3*%
D11*
X58359750Y-60405576D02*
X58359750Y-61187669D01*
X58359750Y-62976283D02*
X58359750Y-63758376D01*
X58359750Y-63758376D02*
X58637780Y-63758376D01*
X58637780Y-60405576D02*
X58359750Y-60405576D01*
X60926520Y-63758376D02*
X61204550Y-63758376D01*
X61204550Y-60405576D02*
X60926520Y-60405576D01*
X61204550Y-61187669D02*
X61204550Y-60405576D01*
X61204550Y-63758376D02*
X61204550Y-62976283D01*
D13*
G36*
X59722587Y-60380176D02*
G01*
X59341587Y-60380176D01*
X59341587Y-60126176D01*
X59722587Y-60126176D01*
X59722587Y-60380176D01*
G37*
%TO.C,J2*%
D12*
X133842500Y-91225000D02*
X134587500Y-91225000D01*
X133842500Y-91960000D02*
X133842500Y-91225000D01*
X133842500Y-92695000D02*
X133842500Y-93570000D01*
X133842500Y-92695000D02*
X133901935Y-92695000D01*
X133842500Y-93570000D02*
X134177470Y-93570000D01*
X134997530Y-93570000D02*
X135332500Y-93570000D01*
X135273065Y-92695000D02*
X135332500Y-92695000D01*
X135332500Y-92695000D02*
X135332500Y-93570000D01*
%TO.C,R2*%
X62897500Y-92537936D02*
X62897500Y-92992064D01*
X64367500Y-92537936D02*
X64367500Y-92992064D01*
%TO.C,JP1*%
X83250000Y-76150000D02*
X85250000Y-76150000D01*
X83250000Y-80250000D02*
X83250000Y-76150000D01*
X85250000Y-76150000D02*
X85250000Y-80250000D01*
X85250000Y-80250000D02*
X83250000Y-80250000D01*
%TO.C,C3*%
X62974250Y-61593102D02*
X62974250Y-61070598D01*
X64444250Y-61593102D02*
X64444250Y-61070598D01*
%TO.C,U2*%
D11*
X51035450Y-59428150D02*
X51035450Y-67131460D01*
X51035450Y-67131460D02*
X56115450Y-67131460D01*
X53575450Y-51808150D02*
X53575450Y-74668150D01*
X53575450Y-74668150D02*
X106915450Y-74668150D01*
X56115450Y-59428150D02*
X51035450Y-59428150D01*
X56115450Y-67131460D02*
X56115450Y-59428150D01*
X106915450Y-51808150D02*
X53575450Y-51808150D01*
X106915450Y-74668150D02*
X106915450Y-51808150D01*
%TO.C,R14*%
D12*
X69397500Y-92435436D02*
X69397500Y-92889564D01*
X70867500Y-92435436D02*
X70867500Y-92889564D01*
%TO.C,L1*%
X60349250Y-80749350D02*
X60349250Y-81084320D01*
X60349250Y-81904380D02*
X60349250Y-82239350D01*
X61224250Y-80749350D02*
X60349250Y-80749350D01*
X61224250Y-80749350D02*
X61224250Y-80808785D01*
X61224250Y-82179915D02*
X61224250Y-82239350D01*
X61224250Y-82239350D02*
X60349250Y-82239350D01*
X61959250Y-80749350D02*
X62694250Y-80749350D01*
X62694250Y-80749350D02*
X62694250Y-81494350D01*
%TO.C,C1*%
X61197998Y-57596850D02*
X61720502Y-57596850D01*
X61197998Y-59066850D02*
X61720502Y-59066850D01*
%TO.C,D7*%
X74587500Y-95315000D02*
X77677500Y-95315000D01*
X74587670Y-95315000D02*
G75*
G02*
X76132500Y-89765000I1544830J2560000D01*
G01*
X76132500Y-89765000D02*
G75*
G02*
X77677330Y-95315000I0J-2990000D01*
G01*
X78632500Y-92755000D02*
G75*
G02*
X73632500Y-92755000I-2500000J0D01*
G01*
X73632500Y-92755000D02*
G75*
G02*
X78632500Y-92755000I2500000J0D01*
G01*
%TO.C,J4*%
D14*
X51357500Y-88030000D02*
X51357500Y-96970000D01*
X51357500Y-96970000D02*
X52507500Y-96970000D01*
X52507500Y-88030000D02*
X51357500Y-88030000D01*
%TO.C,SW2*%
D12*
X81474250Y-83739350D02*
X81474250Y-82994350D01*
X82209250Y-83739350D02*
X81474250Y-83739350D01*
X82944250Y-82249350D02*
X83819250Y-82249350D01*
X82944250Y-82308785D02*
X82944250Y-82249350D01*
X82944250Y-83739350D02*
X82944250Y-83679915D01*
X82944250Y-83739350D02*
X83819250Y-83739350D01*
X83819250Y-82584320D02*
X83819250Y-82249350D01*
X83819250Y-83739350D02*
X83819250Y-83404380D01*
%TO.C,R3*%
X65819686Y-82259350D02*
X66273814Y-82259350D01*
X65819686Y-83729350D02*
X66273814Y-83729350D01*
%TO.C,R6*%
X75724250Y-67604786D02*
X75724250Y-68058914D01*
X77194250Y-67604786D02*
X77194250Y-68058914D01*
%TO.C,D9*%
X144042500Y-94790000D02*
X147132500Y-94790000D01*
X144042670Y-94790000D02*
G75*
G02*
X145587500Y-89240000I1544830J2560000D01*
G01*
X145587500Y-89240000D02*
G75*
G02*
X147132330Y-94790000I0J-2990000D01*
G01*
X148087500Y-92230000D02*
G75*
G02*
X143087500Y-92230000I-2500000J0D01*
G01*
X143087500Y-92230000D02*
G75*
G02*
X148087500Y-92230000I2500000J0D01*
G01*
%TO.C,R9*%
X62974250Y-67604786D02*
X62974250Y-68058914D01*
X64444250Y-67604786D02*
X64444250Y-68058914D01*
%TD*%
M02*
