%TF.GenerationSoftware,KiCad,Pcbnew,10.0.4*%
%TF.CreationDate,2026-06-26T01:34:49+12:00*%
%TF.ProjectId,MainPCB,4d61696e-5043-4422-9e6b-696361645f70,rev?*%
%TF.SameCoordinates,Original*%
%TF.FileFunction,Soldermask,Bot*%
%TF.FilePolarity,Negative*%
%FSLAX46Y46*%
G04 Gerber Fmt 4.6, Leading zero omitted, Abs format (unit mm)*
G04 Created by KiCad (PCBNEW 10.0.4) date 2026-06-26 01:34:49*
%MOMM*%
%LPD*%
G01*
G04 APERTURE LIST*
G04 Aperture macros list*
%AMRoundRect*
0 Rectangle with rounded corners*
0 $1 Rounding radius*
0 $2 $3 $4 $5 $6 $7 $8 $9 X,Y pos of 4 corners*
0 Add a 4 corners polygon primitive as box body*
4,1,4,$2,$3,$4,$5,$6,$7,$8,$9,$2,$3,0*
0 Add four circle primitives for the rounded corners*
1,1,$1+$1,$2,$3*
1,1,$1+$1,$4,$5*
1,1,$1+$1,$6,$7*
1,1,$1+$1,$8,$9*
0 Add four rect primitives between the rounded corners*
20,1,$1+$1,$2,$3,$4,$5,0*
20,1,$1+$1,$4,$5,$6,$7,0*
20,1,$1+$1,$6,$7,$8,$9,0*
20,1,$1+$1,$8,$9,$2,$3,0*%
G04 Aperture macros list end*
%ADD10C,0.010000*%
%ADD11R,1.500000X1.500000*%
%ADD12R,1.651000X1.651000*%
%ADD13C,1.651000*%
%ADD14C,2.134400*%
%ADD15R,0.850000X0.850000*%
%ADD16C,0.850000*%
%ADD17R,1.800000X1.800000*%
%ADD18C,1.800000*%
%ADD19RoundRect,0.102000X0.754000X-0.754000X0.754000X0.754000X-0.754000X0.754000X-0.754000X-0.754000X0*%
G04 APERTURE END LIST*
D10*
%TO.C,J4*%
X54257500Y-87530000D02*
X53657500Y-87530000D01*
X53623500Y-87531000D01*
X53589500Y-87534000D01*
X53555500Y-87538000D01*
X53522500Y-87544000D01*
X53489500Y-87552000D01*
X53456500Y-87562000D01*
X53424500Y-87573000D01*
X53393500Y-87586000D01*
X53362500Y-87601000D01*
X53332500Y-87617000D01*
X53303500Y-87635000D01*
X53275500Y-87654000D01*
X53248500Y-87675000D01*
X53222500Y-87697000D01*
X53197500Y-87720000D01*
X53174500Y-87745000D01*
X53152500Y-87771000D01*
X53131500Y-87798000D01*
X53112500Y-87826000D01*
X53094500Y-87855000D01*
X53078500Y-87885000D01*
X53063500Y-87916000D01*
X53050500Y-87947000D01*
X53039500Y-87979000D01*
X53029500Y-88012000D01*
X53021500Y-88045000D01*
X53015500Y-88078000D01*
X53011500Y-88112000D01*
X53008500Y-88146000D01*
X53007500Y-88180000D01*
X53008500Y-88214000D01*
X53011500Y-88248000D01*
X53015500Y-88282000D01*
X53021500Y-88315000D01*
X53029500Y-88348000D01*
X53039500Y-88381000D01*
X53050500Y-88413000D01*
X53063500Y-88444000D01*
X53078500Y-88475000D01*
X53094500Y-88505000D01*
X53112500Y-88534000D01*
X53131500Y-88562000D01*
X53152500Y-88589000D01*
X53174500Y-88615000D01*
X53197500Y-88640000D01*
X53222500Y-88663000D01*
X53248500Y-88685000D01*
X53275500Y-88706000D01*
X53303500Y-88725000D01*
X53332500Y-88743000D01*
X53362500Y-88759000D01*
X53393500Y-88774000D01*
X53424500Y-88787000D01*
X53456500Y-88798000D01*
X53489500Y-88808000D01*
X53522500Y-88816000D01*
X53555500Y-88822000D01*
X53589500Y-88826000D01*
X53623500Y-88829000D01*
X53657500Y-88830000D01*
X54257500Y-88830000D01*
X54291500Y-88829000D01*
X54325500Y-88826000D01*
X54359500Y-88822000D01*
X54392500Y-88816000D01*
X54425500Y-88808000D01*
X54458500Y-88798000D01*
X54490500Y-88787000D01*
X54521500Y-88774000D01*
X54552500Y-88759000D01*
X54582500Y-88743000D01*
X54611500Y-88725000D01*
X54639500Y-88706000D01*
X54666500Y-88685000D01*
X54692500Y-88663000D01*
X54717500Y-88640000D01*
X54740500Y-88615000D01*
X54762500Y-88589000D01*
X54783500Y-88562000D01*
X54802500Y-88534000D01*
X54820500Y-88505000D01*
X54836500Y-88475000D01*
X54851500Y-88444000D01*
X54864500Y-88413000D01*
X54875500Y-88381000D01*
X54885500Y-88348000D01*
X54893500Y-88315000D01*
X54899500Y-88282000D01*
X54903500Y-88248000D01*
X54906500Y-88214000D01*
X54907500Y-88180000D01*
X54906500Y-88146000D01*
X54903500Y-88112000D01*
X54899500Y-88078000D01*
X54893500Y-88045000D01*
X54885500Y-88012000D01*
X54875500Y-87979000D01*
X54864500Y-87947000D01*
X54851500Y-87916000D01*
X54836500Y-87885000D01*
X54820500Y-87855000D01*
X54802500Y-87826000D01*
X54783500Y-87798000D01*
X54762500Y-87771000D01*
X54740500Y-87745000D01*
X54717500Y-87720000D01*
X54692500Y-87697000D01*
X54666500Y-87675000D01*
X54639500Y-87654000D01*
X54611500Y-87635000D01*
X54582500Y-87617000D01*
X54552500Y-87601000D01*
X54521500Y-87586000D01*
X54490500Y-87573000D01*
X54458500Y-87562000D01*
X54425500Y-87552000D01*
X54392500Y-87544000D01*
X54359500Y-87538000D01*
X54325500Y-87534000D01*
X54291500Y-87531000D01*
X54257500Y-87530000D01*
G36*
X54291500Y-87531000D02*
G01*
X54325500Y-87534000D01*
X54359500Y-87538000D01*
X54392500Y-87544000D01*
X54425500Y-87552000D01*
X54458500Y-87562000D01*
X54490500Y-87573000D01*
X54521500Y-87586000D01*
X54552500Y-87601000D01*
X54582500Y-87617000D01*
X54611500Y-87635000D01*
X54639500Y-87654000D01*
X54666500Y-87675000D01*
X54692500Y-87697000D01*
X54717500Y-87720000D01*
X54740500Y-87745000D01*
X54762500Y-87771000D01*
X54783500Y-87798000D01*
X54802500Y-87826000D01*
X54820500Y-87855000D01*
X54836500Y-87885000D01*
X54851500Y-87916000D01*
X54864500Y-87947000D01*
X54875500Y-87979000D01*
X54885500Y-88012000D01*
X54893500Y-88045000D01*
X54899500Y-88078000D01*
X54903500Y-88112000D01*
X54906500Y-88146000D01*
X54907500Y-88180000D01*
X54906500Y-88214000D01*
X54903500Y-88248000D01*
X54899500Y-88282000D01*
X54893500Y-88315000D01*
X54885500Y-88348000D01*
X54875500Y-88381000D01*
X54864500Y-88413000D01*
X54851500Y-88444000D01*
X54836500Y-88475000D01*
X54820500Y-88505000D01*
X54802500Y-88534000D01*
X54783500Y-88562000D01*
X54762500Y-88589000D01*
X54740500Y-88615000D01*
X54717500Y-88640000D01*
X54692500Y-88663000D01*
X54666500Y-88685000D01*
X54639500Y-88706000D01*
X54611500Y-88725000D01*
X54582500Y-88743000D01*
X54552500Y-88759000D01*
X54521500Y-88774000D01*
X54490500Y-88787000D01*
X54458500Y-88798000D01*
X54425500Y-88808000D01*
X54392500Y-88816000D01*
X54359500Y-88822000D01*
X54325500Y-88826000D01*
X54291500Y-88829000D01*
X54257500Y-88830000D01*
X53657500Y-88830000D01*
X53623500Y-88829000D01*
X53589500Y-88826000D01*
X53555500Y-88822000D01*
X53522500Y-88816000D01*
X53489500Y-88808000D01*
X53456500Y-88798000D01*
X53424500Y-88787000D01*
X53393500Y-88774000D01*
X53362500Y-88759000D01*
X53332500Y-88743000D01*
X53303500Y-88725000D01*
X53275500Y-88706000D01*
X53248500Y-88685000D01*
X53222500Y-88663000D01*
X53197500Y-88640000D01*
X53174500Y-88615000D01*
X53152500Y-88589000D01*
X53131500Y-88562000D01*
X53112500Y-88534000D01*
X53094500Y-88505000D01*
X53078500Y-88475000D01*
X53063500Y-88444000D01*
X53050500Y-88413000D01*
X53039500Y-88381000D01*
X53029500Y-88348000D01*
X53021500Y-88315000D01*
X53015500Y-88282000D01*
X53011500Y-88248000D01*
X53008500Y-88214000D01*
X53007500Y-88180000D01*
X53008500Y-88146000D01*
X53011500Y-88112000D01*
X53015500Y-88078000D01*
X53021500Y-88045000D01*
X53029500Y-88012000D01*
X53039500Y-87979000D01*
X53050500Y-87947000D01*
X53063500Y-87916000D01*
X53078500Y-87885000D01*
X53094500Y-87855000D01*
X53112500Y-87826000D01*
X53131500Y-87798000D01*
X53152500Y-87771000D01*
X53174500Y-87745000D01*
X53197500Y-87720000D01*
X53222500Y-87697000D01*
X53248500Y-87675000D01*
X53275500Y-87654000D01*
X53303500Y-87635000D01*
X53332500Y-87617000D01*
X53362500Y-87601000D01*
X53393500Y-87586000D01*
X53424500Y-87573000D01*
X53456500Y-87562000D01*
X53489500Y-87552000D01*
X53522500Y-87544000D01*
X53555500Y-87538000D01*
X53589500Y-87534000D01*
X53623500Y-87531000D01*
X53657500Y-87530000D01*
X54257500Y-87530000D01*
X54291500Y-87531000D01*
G37*
X54257500Y-96170000D02*
X53657500Y-96170000D01*
X53623500Y-96171000D01*
X53589500Y-96174000D01*
X53555500Y-96178000D01*
X53522500Y-96184000D01*
X53489500Y-96192000D01*
X53456500Y-96202000D01*
X53424500Y-96213000D01*
X53393500Y-96226000D01*
X53362500Y-96241000D01*
X53332500Y-96257000D01*
X53303500Y-96275000D01*
X53275500Y-96294000D01*
X53248500Y-96315000D01*
X53222500Y-96337000D01*
X53197500Y-96360000D01*
X53174500Y-96385000D01*
X53152500Y-96411000D01*
X53131500Y-96438000D01*
X53112500Y-96466000D01*
X53094500Y-96495000D01*
X53078500Y-96525000D01*
X53063500Y-96556000D01*
X53050500Y-96587000D01*
X53039500Y-96619000D01*
X53029500Y-96652000D01*
X53021500Y-96685000D01*
X53015500Y-96718000D01*
X53011500Y-96752000D01*
X53008500Y-96786000D01*
X53007500Y-96820000D01*
X53008500Y-96854000D01*
X53011500Y-96888000D01*
X53015500Y-96922000D01*
X53021500Y-96955000D01*
X53029500Y-96988000D01*
X53039500Y-97021000D01*
X53050500Y-97053000D01*
X53063500Y-97084000D01*
X53078500Y-97115000D01*
X53094500Y-97145000D01*
X53112500Y-97174000D01*
X53131500Y-97202000D01*
X53152500Y-97229000D01*
X53174500Y-97255000D01*
X53197500Y-97280000D01*
X53222500Y-97303000D01*
X53248500Y-97325000D01*
X53275500Y-97346000D01*
X53303500Y-97365000D01*
X53332500Y-97383000D01*
X53362500Y-97399000D01*
X53393500Y-97414000D01*
X53424500Y-97427000D01*
X53456500Y-97438000D01*
X53489500Y-97448000D01*
X53522500Y-97456000D01*
X53555500Y-97462000D01*
X53589500Y-97466000D01*
X53623500Y-97469000D01*
X53657500Y-97470000D01*
X54257500Y-97470000D01*
X54291500Y-97469000D01*
X54325500Y-97466000D01*
X54359500Y-97462000D01*
X54392500Y-97456000D01*
X54425500Y-97448000D01*
X54458500Y-97438000D01*
X54490500Y-97427000D01*
X54521500Y-97414000D01*
X54552500Y-97399000D01*
X54582500Y-97383000D01*
X54611500Y-97365000D01*
X54639500Y-97346000D01*
X54666500Y-97325000D01*
X54692500Y-97303000D01*
X54717500Y-97280000D01*
X54740500Y-97255000D01*
X54762500Y-97229000D01*
X54783500Y-97202000D01*
X54802500Y-97174000D01*
X54820500Y-97145000D01*
X54836500Y-97115000D01*
X54851500Y-97084000D01*
X54864500Y-97053000D01*
X54875500Y-97021000D01*
X54885500Y-96988000D01*
X54893500Y-96955000D01*
X54899500Y-96922000D01*
X54903500Y-96888000D01*
X54906500Y-96854000D01*
X54907500Y-96820000D01*
X54906500Y-96786000D01*
X54903500Y-96752000D01*
X54899500Y-96718000D01*
X54893500Y-96685000D01*
X54885500Y-96652000D01*
X54875500Y-96619000D01*
X54864500Y-96587000D01*
X54851500Y-96556000D01*
X54836500Y-96525000D01*
X54820500Y-96495000D01*
X54802500Y-96466000D01*
X54783500Y-96438000D01*
X54762500Y-96411000D01*
X54740500Y-96385000D01*
X54717500Y-96360000D01*
X54692500Y-96337000D01*
X54666500Y-96315000D01*
X54639500Y-96294000D01*
X54611500Y-96275000D01*
X54582500Y-96257000D01*
X54552500Y-96241000D01*
X54521500Y-96226000D01*
X54490500Y-96213000D01*
X54458500Y-96202000D01*
X54425500Y-96192000D01*
X54392500Y-96184000D01*
X54359500Y-96178000D01*
X54325500Y-96174000D01*
X54291500Y-96171000D01*
X54257500Y-96170000D01*
G36*
X54291500Y-96171000D02*
G01*
X54325500Y-96174000D01*
X54359500Y-96178000D01*
X54392500Y-96184000D01*
X54425500Y-96192000D01*
X54458500Y-96202000D01*
X54490500Y-96213000D01*
X54521500Y-96226000D01*
X54552500Y-96241000D01*
X54582500Y-96257000D01*
X54611500Y-96275000D01*
X54639500Y-96294000D01*
X54666500Y-96315000D01*
X54692500Y-96337000D01*
X54717500Y-96360000D01*
X54740500Y-96385000D01*
X54762500Y-96411000D01*
X54783500Y-96438000D01*
X54802500Y-96466000D01*
X54820500Y-96495000D01*
X54836500Y-96525000D01*
X54851500Y-96556000D01*
X54864500Y-96587000D01*
X54875500Y-96619000D01*
X54885500Y-96652000D01*
X54893500Y-96685000D01*
X54899500Y-96718000D01*
X54903500Y-96752000D01*
X54906500Y-96786000D01*
X54907500Y-96820000D01*
X54906500Y-96854000D01*
X54903500Y-96888000D01*
X54899500Y-96922000D01*
X54893500Y-96955000D01*
X54885500Y-96988000D01*
X54875500Y-97021000D01*
X54864500Y-97053000D01*
X54851500Y-97084000D01*
X54836500Y-97115000D01*
X54820500Y-97145000D01*
X54802500Y-97174000D01*
X54783500Y-97202000D01*
X54762500Y-97229000D01*
X54740500Y-97255000D01*
X54717500Y-97280000D01*
X54692500Y-97303000D01*
X54666500Y-97325000D01*
X54639500Y-97346000D01*
X54611500Y-97365000D01*
X54582500Y-97383000D01*
X54552500Y-97399000D01*
X54521500Y-97414000D01*
X54490500Y-97427000D01*
X54458500Y-97438000D01*
X54425500Y-97448000D01*
X54392500Y-97456000D01*
X54359500Y-97462000D01*
X54325500Y-97466000D01*
X54291500Y-97469000D01*
X54257500Y-97470000D01*
X53657500Y-97470000D01*
X53623500Y-97469000D01*
X53589500Y-97466000D01*
X53555500Y-97462000D01*
X53522500Y-97456000D01*
X53489500Y-97448000D01*
X53456500Y-97438000D01*
X53424500Y-97427000D01*
X53393500Y-97414000D01*
X53362500Y-97399000D01*
X53332500Y-97383000D01*
X53303500Y-97365000D01*
X53275500Y-97346000D01*
X53248500Y-97325000D01*
X53222500Y-97303000D01*
X53197500Y-97280000D01*
X53174500Y-97255000D01*
X53152500Y-97229000D01*
X53131500Y-97202000D01*
X53112500Y-97174000D01*
X53094500Y-97145000D01*
X53078500Y-97115000D01*
X53063500Y-97084000D01*
X53050500Y-97053000D01*
X53039500Y-97021000D01*
X53029500Y-96988000D01*
X53021500Y-96955000D01*
X53015500Y-96922000D01*
X53011500Y-96888000D01*
X53008500Y-96854000D01*
X53007500Y-96820000D01*
X53008500Y-96786000D01*
X53011500Y-96752000D01*
X53015500Y-96718000D01*
X53021500Y-96685000D01*
X53029500Y-96652000D01*
X53039500Y-96619000D01*
X53050500Y-96587000D01*
X53063500Y-96556000D01*
X53078500Y-96525000D01*
X53094500Y-96495000D01*
X53112500Y-96466000D01*
X53131500Y-96438000D01*
X53152500Y-96411000D01*
X53174500Y-96385000D01*
X53197500Y-96360000D01*
X53222500Y-96337000D01*
X53248500Y-96315000D01*
X53275500Y-96294000D01*
X53303500Y-96275000D01*
X53332500Y-96257000D01*
X53362500Y-96241000D01*
X53393500Y-96226000D01*
X53424500Y-96213000D01*
X53456500Y-96202000D01*
X53489500Y-96192000D01*
X53522500Y-96184000D01*
X53555500Y-96178000D01*
X53589500Y-96174000D01*
X53623500Y-96171000D01*
X53657500Y-96170000D01*
X54257500Y-96170000D01*
X54291500Y-96171000D01*
G37*
X58057500Y-87530000D02*
X57457500Y-87530000D01*
X57423500Y-87531000D01*
X57389500Y-87534000D01*
X57355500Y-87538000D01*
X57322500Y-87544000D01*
X57289500Y-87552000D01*
X57256500Y-87562000D01*
X57224500Y-87573000D01*
X57193500Y-87586000D01*
X57162500Y-87601000D01*
X57132500Y-87617000D01*
X57103500Y-87635000D01*
X57075500Y-87654000D01*
X57048500Y-87675000D01*
X57022500Y-87697000D01*
X56997500Y-87720000D01*
X56974500Y-87745000D01*
X56952500Y-87771000D01*
X56931500Y-87798000D01*
X56912500Y-87826000D01*
X56894500Y-87855000D01*
X56878500Y-87885000D01*
X56863500Y-87916000D01*
X56850500Y-87947000D01*
X56839500Y-87979000D01*
X56829500Y-88012000D01*
X56821500Y-88045000D01*
X56815500Y-88078000D01*
X56811500Y-88112000D01*
X56808500Y-88146000D01*
X56807500Y-88180000D01*
X56808500Y-88214000D01*
X56811500Y-88248000D01*
X56815500Y-88282000D01*
X56821500Y-88315000D01*
X56829500Y-88348000D01*
X56839500Y-88381000D01*
X56850500Y-88413000D01*
X56863500Y-88444000D01*
X56878500Y-88475000D01*
X56894500Y-88505000D01*
X56912500Y-88534000D01*
X56931500Y-88562000D01*
X56952500Y-88589000D01*
X56974500Y-88615000D01*
X56997500Y-88640000D01*
X57022500Y-88663000D01*
X57048500Y-88685000D01*
X57075500Y-88706000D01*
X57103500Y-88725000D01*
X57132500Y-88743000D01*
X57162500Y-88759000D01*
X57193500Y-88774000D01*
X57224500Y-88787000D01*
X57256500Y-88798000D01*
X57289500Y-88808000D01*
X57322500Y-88816000D01*
X57355500Y-88822000D01*
X57389500Y-88826000D01*
X57423500Y-88829000D01*
X57457500Y-88830000D01*
X58057500Y-88830000D01*
X58091500Y-88829000D01*
X58125500Y-88826000D01*
X58159500Y-88822000D01*
X58192500Y-88816000D01*
X58225500Y-88808000D01*
X58258500Y-88798000D01*
X58290500Y-88787000D01*
X58321500Y-88774000D01*
X58352500Y-88759000D01*
X58382500Y-88743000D01*
X58411500Y-88725000D01*
X58439500Y-88706000D01*
X58466500Y-88685000D01*
X58492500Y-88663000D01*
X58517500Y-88640000D01*
X58540500Y-88615000D01*
X58562500Y-88589000D01*
X58583500Y-88562000D01*
X58602500Y-88534000D01*
X58620500Y-88505000D01*
X58636500Y-88475000D01*
X58651500Y-88444000D01*
X58664500Y-88413000D01*
X58675500Y-88381000D01*
X58685500Y-88348000D01*
X58693500Y-88315000D01*
X58699500Y-88282000D01*
X58703500Y-88248000D01*
X58706500Y-88214000D01*
X58707500Y-88180000D01*
X58706500Y-88146000D01*
X58703500Y-88112000D01*
X58699500Y-88078000D01*
X58693500Y-88045000D01*
X58685500Y-88012000D01*
X58675500Y-87979000D01*
X58664500Y-87947000D01*
X58651500Y-87916000D01*
X58636500Y-87885000D01*
X58620500Y-87855000D01*
X58602500Y-87826000D01*
X58583500Y-87798000D01*
X58562500Y-87771000D01*
X58540500Y-87745000D01*
X58517500Y-87720000D01*
X58492500Y-87697000D01*
X58466500Y-87675000D01*
X58439500Y-87654000D01*
X58411500Y-87635000D01*
X58382500Y-87617000D01*
X58352500Y-87601000D01*
X58321500Y-87586000D01*
X58290500Y-87573000D01*
X58258500Y-87562000D01*
X58225500Y-87552000D01*
X58192500Y-87544000D01*
X58159500Y-87538000D01*
X58125500Y-87534000D01*
X58091500Y-87531000D01*
X58057500Y-87530000D01*
G36*
X58091500Y-87531000D02*
G01*
X58125500Y-87534000D01*
X58159500Y-87538000D01*
X58192500Y-87544000D01*
X58225500Y-87552000D01*
X58258500Y-87562000D01*
X58290500Y-87573000D01*
X58321500Y-87586000D01*
X58352500Y-87601000D01*
X58382500Y-87617000D01*
X58411500Y-87635000D01*
X58439500Y-87654000D01*
X58466500Y-87675000D01*
X58492500Y-87697000D01*
X58517500Y-87720000D01*
X58540500Y-87745000D01*
X58562500Y-87771000D01*
X58583500Y-87798000D01*
X58602500Y-87826000D01*
X58620500Y-87855000D01*
X58636500Y-87885000D01*
X58651500Y-87916000D01*
X58664500Y-87947000D01*
X58675500Y-87979000D01*
X58685500Y-88012000D01*
X58693500Y-88045000D01*
X58699500Y-88078000D01*
X58703500Y-88112000D01*
X58706500Y-88146000D01*
X58707500Y-88180000D01*
X58706500Y-88214000D01*
X58703500Y-88248000D01*
X58699500Y-88282000D01*
X58693500Y-88315000D01*
X58685500Y-88348000D01*
X58675500Y-88381000D01*
X58664500Y-88413000D01*
X58651500Y-88444000D01*
X58636500Y-88475000D01*
X58620500Y-88505000D01*
X58602500Y-88534000D01*
X58583500Y-88562000D01*
X58562500Y-88589000D01*
X58540500Y-88615000D01*
X58517500Y-88640000D01*
X58492500Y-88663000D01*
X58466500Y-88685000D01*
X58439500Y-88706000D01*
X58411500Y-88725000D01*
X58382500Y-88743000D01*
X58352500Y-88759000D01*
X58321500Y-88774000D01*
X58290500Y-88787000D01*
X58258500Y-88798000D01*
X58225500Y-88808000D01*
X58192500Y-88816000D01*
X58159500Y-88822000D01*
X58125500Y-88826000D01*
X58091500Y-88829000D01*
X58057500Y-88830000D01*
X57457500Y-88830000D01*
X57423500Y-88829000D01*
X57389500Y-88826000D01*
X57355500Y-88822000D01*
X57322500Y-88816000D01*
X57289500Y-88808000D01*
X57256500Y-88798000D01*
X57224500Y-88787000D01*
X57193500Y-88774000D01*
X57162500Y-88759000D01*
X57132500Y-88743000D01*
X57103500Y-88725000D01*
X57075500Y-88706000D01*
X57048500Y-88685000D01*
X57022500Y-88663000D01*
X56997500Y-88640000D01*
X56974500Y-88615000D01*
X56952500Y-88589000D01*
X56931500Y-88562000D01*
X56912500Y-88534000D01*
X56894500Y-88505000D01*
X56878500Y-88475000D01*
X56863500Y-88444000D01*
X56850500Y-88413000D01*
X56839500Y-88381000D01*
X56829500Y-88348000D01*
X56821500Y-88315000D01*
X56815500Y-88282000D01*
X56811500Y-88248000D01*
X56808500Y-88214000D01*
X56807500Y-88180000D01*
X56808500Y-88146000D01*
X56811500Y-88112000D01*
X56815500Y-88078000D01*
X56821500Y-88045000D01*
X56829500Y-88012000D01*
X56839500Y-87979000D01*
X56850500Y-87947000D01*
X56863500Y-87916000D01*
X56878500Y-87885000D01*
X56894500Y-87855000D01*
X56912500Y-87826000D01*
X56931500Y-87798000D01*
X56952500Y-87771000D01*
X56974500Y-87745000D01*
X56997500Y-87720000D01*
X57022500Y-87697000D01*
X57048500Y-87675000D01*
X57075500Y-87654000D01*
X57103500Y-87635000D01*
X57132500Y-87617000D01*
X57162500Y-87601000D01*
X57193500Y-87586000D01*
X57224500Y-87573000D01*
X57256500Y-87562000D01*
X57289500Y-87552000D01*
X57322500Y-87544000D01*
X57355500Y-87538000D01*
X57389500Y-87534000D01*
X57423500Y-87531000D01*
X57457500Y-87530000D01*
X58057500Y-87530000D01*
X58091500Y-87531000D01*
G37*
X58057500Y-96170000D02*
X57457500Y-96170000D01*
X57423500Y-96171000D01*
X57389500Y-96174000D01*
X57355500Y-96178000D01*
X57322500Y-96184000D01*
X57289500Y-96192000D01*
X57256500Y-96202000D01*
X57224500Y-96213000D01*
X57193500Y-96226000D01*
X57162500Y-96241000D01*
X57132500Y-96257000D01*
X57103500Y-96275000D01*
X57075500Y-96294000D01*
X57048500Y-96315000D01*
X57022500Y-96337000D01*
X56997500Y-96360000D01*
X56974500Y-96385000D01*
X56952500Y-96411000D01*
X56931500Y-96438000D01*
X56912500Y-96466000D01*
X56894500Y-96495000D01*
X56878500Y-96525000D01*
X56863500Y-96556000D01*
X56850500Y-96587000D01*
X56839500Y-96619000D01*
X56829500Y-96652000D01*
X56821500Y-96685000D01*
X56815500Y-96718000D01*
X56811500Y-96752000D01*
X56808500Y-96786000D01*
X56807500Y-96820000D01*
X56808500Y-96854000D01*
X56811500Y-96888000D01*
X56815500Y-96922000D01*
X56821500Y-96955000D01*
X56829500Y-96988000D01*
X56839500Y-97021000D01*
X56850500Y-97053000D01*
X56863500Y-97084000D01*
X56878500Y-97115000D01*
X56894500Y-97145000D01*
X56912500Y-97174000D01*
X56931500Y-97202000D01*
X56952500Y-97229000D01*
X56974500Y-97255000D01*
X56997500Y-97280000D01*
X57022500Y-97303000D01*
X57048500Y-97325000D01*
X57075500Y-97346000D01*
X57103500Y-97365000D01*
X57132500Y-97383000D01*
X57162500Y-97399000D01*
X57193500Y-97414000D01*
X57224500Y-97427000D01*
X57256500Y-97438000D01*
X57289500Y-97448000D01*
X57322500Y-97456000D01*
X57355500Y-97462000D01*
X57389500Y-97466000D01*
X57423500Y-97469000D01*
X57457500Y-97470000D01*
X58057500Y-97470000D01*
X58091500Y-97469000D01*
X58125500Y-97466000D01*
X58159500Y-97462000D01*
X58192500Y-97456000D01*
X58225500Y-97448000D01*
X58258500Y-97438000D01*
X58290500Y-97427000D01*
X58321500Y-97414000D01*
X58352500Y-97399000D01*
X58382500Y-97383000D01*
X58411500Y-97365000D01*
X58439500Y-97346000D01*
X58466500Y-97325000D01*
X58492500Y-97303000D01*
X58517500Y-97280000D01*
X58540500Y-97255000D01*
X58562500Y-97229000D01*
X58583500Y-97202000D01*
X58602500Y-97174000D01*
X58620500Y-97145000D01*
X58636500Y-97115000D01*
X58651500Y-97084000D01*
X58664500Y-97053000D01*
X58675500Y-97021000D01*
X58685500Y-96988000D01*
X58693500Y-96955000D01*
X58699500Y-96922000D01*
X58703500Y-96888000D01*
X58706500Y-96854000D01*
X58707500Y-96820000D01*
X58706500Y-96786000D01*
X58703500Y-96752000D01*
X58699500Y-96718000D01*
X58693500Y-96685000D01*
X58685500Y-96652000D01*
X58675500Y-96619000D01*
X58664500Y-96587000D01*
X58651500Y-96556000D01*
X58636500Y-96525000D01*
X58620500Y-96495000D01*
X58602500Y-96466000D01*
X58583500Y-96438000D01*
X58562500Y-96411000D01*
X58540500Y-96385000D01*
X58517500Y-96360000D01*
X58492500Y-96337000D01*
X58466500Y-96315000D01*
X58439500Y-96294000D01*
X58411500Y-96275000D01*
X58382500Y-96257000D01*
X58352500Y-96241000D01*
X58321500Y-96226000D01*
X58290500Y-96213000D01*
X58258500Y-96202000D01*
X58225500Y-96192000D01*
X58192500Y-96184000D01*
X58159500Y-96178000D01*
X58125500Y-96174000D01*
X58091500Y-96171000D01*
X58057500Y-96170000D01*
G36*
X58091500Y-96171000D02*
G01*
X58125500Y-96174000D01*
X58159500Y-96178000D01*
X58192500Y-96184000D01*
X58225500Y-96192000D01*
X58258500Y-96202000D01*
X58290500Y-96213000D01*
X58321500Y-96226000D01*
X58352500Y-96241000D01*
X58382500Y-96257000D01*
X58411500Y-96275000D01*
X58439500Y-96294000D01*
X58466500Y-96315000D01*
X58492500Y-96337000D01*
X58517500Y-96360000D01*
X58540500Y-96385000D01*
X58562500Y-96411000D01*
X58583500Y-96438000D01*
X58602500Y-96466000D01*
X58620500Y-96495000D01*
X58636500Y-96525000D01*
X58651500Y-96556000D01*
X58664500Y-96587000D01*
X58675500Y-96619000D01*
X58685500Y-96652000D01*
X58693500Y-96685000D01*
X58699500Y-96718000D01*
X58703500Y-96752000D01*
X58706500Y-96786000D01*
X58707500Y-96820000D01*
X58706500Y-96854000D01*
X58703500Y-96888000D01*
X58699500Y-96922000D01*
X58693500Y-96955000D01*
X58685500Y-96988000D01*
X58675500Y-97021000D01*
X58664500Y-97053000D01*
X58651500Y-97084000D01*
X58636500Y-97115000D01*
X58620500Y-97145000D01*
X58602500Y-97174000D01*
X58583500Y-97202000D01*
X58562500Y-97229000D01*
X58540500Y-97255000D01*
X58517500Y-97280000D01*
X58492500Y-97303000D01*
X58466500Y-97325000D01*
X58439500Y-97346000D01*
X58411500Y-97365000D01*
X58382500Y-97383000D01*
X58352500Y-97399000D01*
X58321500Y-97414000D01*
X58290500Y-97427000D01*
X58258500Y-97438000D01*
X58225500Y-97448000D01*
X58192500Y-97456000D01*
X58159500Y-97462000D01*
X58125500Y-97466000D01*
X58091500Y-97469000D01*
X58057500Y-97470000D01*
X57457500Y-97470000D01*
X57423500Y-97469000D01*
X57389500Y-97466000D01*
X57355500Y-97462000D01*
X57322500Y-97456000D01*
X57289500Y-97448000D01*
X57256500Y-97438000D01*
X57224500Y-97427000D01*
X57193500Y-97414000D01*
X57162500Y-97399000D01*
X57132500Y-97383000D01*
X57103500Y-97365000D01*
X57075500Y-97346000D01*
X57048500Y-97325000D01*
X57022500Y-97303000D01*
X56997500Y-97280000D01*
X56974500Y-97255000D01*
X56952500Y-97229000D01*
X56931500Y-97202000D01*
X56912500Y-97174000D01*
X56894500Y-97145000D01*
X56878500Y-97115000D01*
X56863500Y-97084000D01*
X56850500Y-97053000D01*
X56839500Y-97021000D01*
X56829500Y-96988000D01*
X56821500Y-96955000D01*
X56815500Y-96922000D01*
X56811500Y-96888000D01*
X56808500Y-96854000D01*
X56807500Y-96820000D01*
X56808500Y-96786000D01*
X56811500Y-96752000D01*
X56815500Y-96718000D01*
X56821500Y-96685000D01*
X56829500Y-96652000D01*
X56839500Y-96619000D01*
X56850500Y-96587000D01*
X56863500Y-96556000D01*
X56878500Y-96525000D01*
X56894500Y-96495000D01*
X56912500Y-96466000D01*
X56931500Y-96438000D01*
X56952500Y-96411000D01*
X56974500Y-96385000D01*
X56997500Y-96360000D01*
X57022500Y-96337000D01*
X57048500Y-96315000D01*
X57075500Y-96294000D01*
X57103500Y-96275000D01*
X57132500Y-96257000D01*
X57162500Y-96241000D01*
X57193500Y-96226000D01*
X57224500Y-96213000D01*
X57256500Y-96202000D01*
X57289500Y-96192000D01*
X57322500Y-96184000D01*
X57355500Y-96178000D01*
X57389500Y-96174000D01*
X57423500Y-96171000D01*
X57457500Y-96170000D01*
X58057500Y-96170000D01*
X58091500Y-96171000D01*
G37*
%TD*%
D11*
%TO.C,TP10*%
X67000000Y-83000000D03*
%TD*%
%TO.C,TP3*%
X60000000Y-77500000D03*
%TD*%
%TO.C,TP14*%
X76000000Y-83000000D03*
%TD*%
%TO.C,TP13*%
X145000000Y-70000000D03*
%TD*%
%TO.C,TP12*%
X52750000Y-77500000D03*
%TD*%
%TO.C,TP11*%
X71000000Y-59000000D03*
%TD*%
%TO.C,TP9*%
X129250000Y-58750000D03*
%TD*%
%TO.C,TP8*%
X145000000Y-66250000D03*
%TD*%
%TO.C,TP7*%
X53250000Y-68250000D03*
%TD*%
%TO.C,TP6*%
X79500000Y-69000000D03*
%TD*%
%TO.C,TP5*%
X124500000Y-58750000D03*
%TD*%
%TO.C,TP4*%
X145000000Y-62500000D03*
%TD*%
%TO.C,TP2*%
X87500000Y-77500000D03*
%TD*%
D12*
%TO.C,Q1*%
X73250000Y-78000000D03*
D13*
X70710000Y-78000000D03*
X68170000Y-78000000D03*
%TD*%
D14*
%TO.C,U1*%
X134679250Y-76174350D03*
X129599250Y-76174350D03*
X132139250Y-76174350D03*
X142299250Y-76174350D03*
X134679250Y-53314350D03*
X132139250Y-53314350D03*
X137219250Y-53314350D03*
X139759250Y-53314350D03*
X127059250Y-53314350D03*
X129599250Y-53314350D03*
X139759250Y-76174350D03*
X142299250Y-53314350D03*
X127059250Y-76174350D03*
X137219250Y-76174350D03*
X144839250Y-53314350D03*
X144839250Y-76174350D03*
%TD*%
D15*
%TO.C,J1*%
X100500000Y-77250000D03*
D16*
X101500000Y-77250000D03*
X102500000Y-77250000D03*
X103500000Y-77250000D03*
X104500000Y-77250000D03*
%TD*%
D15*
%TO.C,J3*%
X56634250Y-80494350D03*
D16*
X56634250Y-81494350D03*
X56634250Y-82494350D03*
%TD*%
D17*
%TO.C,D8*%
X108087500Y-94275000D03*
D18*
X108087500Y-91735000D03*
%TD*%
D15*
%TO.C,J2*%
X134587500Y-91960000D03*
D16*
X134587500Y-92960000D03*
%TD*%
D19*
%TO.C,U2*%
X66275450Y-54348150D03*
X63735450Y-54348150D03*
X68815450Y-54348150D03*
X73895450Y-54348150D03*
X61195450Y-54348150D03*
X86595450Y-54348150D03*
X99295450Y-54348150D03*
X61195450Y-72128150D03*
X73895450Y-72128150D03*
X86595450Y-72128150D03*
X99295450Y-72128150D03*
X56115450Y-72128150D03*
X58655450Y-72128150D03*
X63735450Y-72128150D03*
X66275450Y-72128150D03*
X68815450Y-72128150D03*
X71355450Y-72128150D03*
X76435450Y-72128150D03*
X78975450Y-72128150D03*
X81515450Y-72128150D03*
X84055450Y-72128150D03*
X89135450Y-72128150D03*
X91675450Y-72128150D03*
X94215450Y-72128150D03*
X96755450Y-72128150D03*
X101835450Y-72128150D03*
X104375450Y-72128150D03*
X104375450Y-54348150D03*
X101835450Y-54348150D03*
X96755450Y-54348150D03*
X94215450Y-54348150D03*
X91675450Y-54348150D03*
X89135450Y-54348150D03*
X84055450Y-54348150D03*
X78975450Y-54348150D03*
X76435450Y-54348150D03*
X71355450Y-54348150D03*
X81515450Y-54348150D03*
X56115450Y-54348150D03*
X58655450Y-54348150D03*
%TD*%
D15*
%TO.C,L1*%
X61959250Y-81494350D03*
D16*
X60959250Y-81494350D03*
%TD*%
D17*
%TO.C,D7*%
X76132500Y-94025000D03*
D18*
X76132500Y-91485000D03*
%TD*%
D15*
%TO.C,SW2*%
X82209250Y-82994350D03*
D16*
X83209250Y-82994350D03*
%TD*%
D17*
%TO.C,D9*%
X145587500Y-93500000D03*
D18*
X145587500Y-90960000D03*
%TD*%
D11*
%TO.C,TP16*%
X81132500Y-95000000D03*
%TD*%
%TO.C,TP15*%
X81132500Y-90750000D03*
%TD*%
M02*
