%TF.GenerationSoftware,KiCad,Pcbnew,10.0.4*%
%TF.CreationDate,2026-06-26T01:34:49+12:00*%
%TF.ProjectId,MainPCB,4d61696e-5043-4422-9e6b-696361645f70,rev?*%
%TF.SameCoordinates,Original*%
%TF.FileFunction,Copper,L2,Bot*%
%TF.FilePolarity,Positive*%
%FSLAX46Y46*%
G04 Gerber Fmt 4.6, Leading zero omitted, Abs format (unit mm)*
G04 Created by KiCad (PCBNEW 10.0.4) date 2026-06-26 01:34:49*
%MOMM*%
%LPD*%
G01*
G04 APERTURE LIST*
G04 Aperture macros list*
%AMFreePoly0*
4,1,237,0.029172,0.853997,0.029356,0.853987,0.057356,0.851987,0.057683,0.851953,0.086683,0.847953,0.086879,0.847922,0.114879,0.842922,0.115213,0.842851,0.143213,0.835851,0.143374,0.835808,0.171374,0.827808,0.171737,0.827689,0.198737,0.817689,0.198886,0.817630,0.225886,0.806630,0.226095,0.806540,0.252095,0.794540,0.252443,0.794363,0.277443,0.780363,0.277572,0.780287,
0.302572,0.765287,0.302855,0.765105,0.325855,0.749105,0.326082,0.748938,0.349082,0.730938,0.371166,0.712870,0.371448,0.712621,0.392448,0.692621,0.392621,0.692448,0.412621,0.671448,0.412870,0.671166,0.430938,0.649082,0.448938,0.626082,0.449105,0.625855,0.465105,0.602855,0.465287,0.602572,0.480287,0.577572,0.480363,0.577443,0.494363,0.552443,0.494540,0.552095,
0.506540,0.526095,0.506630,0.525886,0.517630,0.498886,0.517689,0.498737,0.527689,0.471737,0.527808,0.471374,0.535808,0.443374,0.535851,0.443213,0.542851,0.415213,0.542922,0.414879,0.547922,0.386879,0.547953,0.386683,0.551953,0.357683,0.551987,0.357356,0.553987,0.329356,0.553997,0.329172,0.554997,0.300172,0.555000,0.300000,0.555000,-0.300000,0.554997,-0.300172,
0.553997,-0.329172,0.553987,-0.329356,0.551987,-0.357356,0.551953,-0.357683,0.547953,-0.386683,0.547922,-0.386879,0.542922,-0.414879,0.542851,-0.415213,0.535851,-0.443213,0.535808,-0.443374,0.527808,-0.471374,0.527689,-0.471737,0.517689,-0.498737,0.517630,-0.498886,0.506630,-0.525886,0.506540,-0.526095,0.494540,-0.552095,0.494363,-0.552443,0.480363,-0.577443,0.480287,-0.577572,
0.465287,-0.602572,0.465105,-0.602855,0.449105,-0.625855,0.448938,-0.626082,0.430938,-0.649082,0.412870,-0.671166,0.412621,-0.671448,0.392621,-0.692448,0.392448,-0.692621,0.371448,-0.712621,0.371166,-0.712870,0.349082,-0.730938,0.326082,-0.748938,0.325855,-0.749105,0.302855,-0.765105,0.302572,-0.765287,0.277572,-0.780287,0.277443,-0.780363,0.252443,-0.794363,0.252095,-0.794540,
0.226095,-0.806540,0.225886,-0.806630,0.198886,-0.817630,0.198737,-0.817689,0.171737,-0.827689,0.171374,-0.827808,0.143374,-0.835808,0.143213,-0.835851,0.115213,-0.842851,0.114879,-0.842922,0.086879,-0.847922,0.086683,-0.847953,0.057683,-0.851953,0.057356,-0.851987,0.029356,-0.853987,0.029172,-0.853997,0.000172,-0.854997,-0.000172,-0.854997,-0.029172,-0.853997,-0.029356,-0.853987,
-0.057356,-0.851987,-0.057683,-0.851953,-0.086683,-0.847953,-0.086879,-0.847922,-0.114879,-0.842922,-0.115213,-0.842851,-0.143213,-0.835851,-0.143374,-0.835808,-0.171374,-0.827808,-0.171737,-0.827689,-0.198737,-0.817689,-0.198886,-0.817630,-0.225886,-0.806630,-0.226095,-0.806540,-0.252095,-0.794540,-0.252443,-0.794363,-0.277443,-0.780363,-0.277572,-0.780287,-0.302572,-0.765287,-0.302855,-0.765105,
-0.325855,-0.749105,-0.326082,-0.748938,-0.349082,-0.730938,-0.371166,-0.712870,-0.371448,-0.712621,-0.392448,-0.692621,-0.392621,-0.692448,-0.412621,-0.671448,-0.412870,-0.671166,-0.430938,-0.649082,-0.448938,-0.626082,-0.449105,-0.625855,-0.465105,-0.602855,-0.465287,-0.602572,-0.480287,-0.577572,-0.480363,-0.577443,-0.494363,-0.552443,-0.494540,-0.552095,-0.506540,-0.526095,-0.506630,-0.525886,
-0.517630,-0.498886,-0.517689,-0.498737,-0.527689,-0.471737,-0.527808,-0.471374,-0.535808,-0.443374,-0.535851,-0.443213,-0.542851,-0.415213,-0.542922,-0.414879,-0.547922,-0.386879,-0.547953,-0.386683,-0.551953,-0.357683,-0.551987,-0.357356,-0.553987,-0.329356,-0.553997,-0.329172,-0.554997,-0.300172,-0.555000,-0.300000,-0.555000,0.300000,-0.554997,0.300172,-0.553997,0.329172,-0.553987,0.329356,
-0.551987,0.357356,-0.551953,0.357683,-0.547953,0.386683,-0.547922,0.386879,-0.542922,0.414879,-0.542851,0.415213,-0.535851,0.443213,-0.535808,0.443374,-0.527808,0.471374,-0.527689,0.471737,-0.517689,0.498737,-0.517630,0.498886,-0.506630,0.525886,-0.506540,0.526095,-0.494540,0.552095,-0.494363,0.552443,-0.480363,0.577443,-0.480287,0.577572,-0.465287,0.602572,-0.465105,0.602855,
-0.449105,0.625855,-0.448938,0.626082,-0.430938,0.649082,-0.412870,0.671166,-0.412621,0.671448,-0.392621,0.692448,-0.392448,0.692621,-0.371448,0.712621,-0.371166,0.712870,-0.349082,0.730938,-0.326082,0.748938,-0.325855,0.749105,-0.302855,0.765105,-0.302572,0.765287,-0.277572,0.780287,-0.277443,0.780363,-0.252443,0.794363,-0.252095,0.794540,-0.226095,0.806540,-0.225886,0.806630,
-0.198886,0.817630,-0.198737,0.817689,-0.171737,0.827689,-0.171374,0.827808,-0.143374,0.835808,-0.143213,0.835851,-0.115213,0.842851,-0.114879,0.842922,-0.086879,0.847922,-0.086683,0.847953,-0.057683,0.851953,-0.057356,0.851987,-0.029356,0.853987,-0.029172,0.853997,-0.000172,0.854997,0.000172,0.854997,0.029172,0.853997,0.029172,0.853997,$1*%
G04 Aperture macros list end*
%TA.AperFunction,SMDPad,CuDef*%
%ADD10R,1.500000X1.500000*%
%TD*%
%TA.AperFunction,ComponentPad*%
%ADD11R,1.651000X1.651000*%
%TD*%
%TA.AperFunction,ComponentPad*%
%ADD12C,1.651000*%
%TD*%
%TA.AperFunction,ComponentPad*%
%ADD13C,1.930400*%
%TD*%
%TA.AperFunction,ComponentPad*%
%ADD14R,0.850000X0.850000*%
%TD*%
%TA.AperFunction,ComponentPad*%
%ADD15C,0.850000*%
%TD*%
%TA.AperFunction,ComponentPad*%
%ADD16R,1.800000X1.800000*%
%TD*%
%TA.AperFunction,ComponentPad*%
%ADD17C,1.800000*%
%TD*%
%TA.AperFunction,ComponentPad*%
%ADD18R,1.508000X1.508000*%
%TD*%
%TA.AperFunction,ComponentPad*%
%ADD19FreePoly0,270.000000*%
%TD*%
%TA.AperFunction,ViaPad*%
%ADD20C,0.600000*%
%TD*%
%TA.AperFunction,Conductor*%
%ADD21C,0.200000*%
%TD*%
%TA.AperFunction,Conductor*%
%ADD22C,0.250000*%
%TD*%
%TA.AperFunction,Conductor*%
%ADD23C,0.500000*%
%TD*%
G04 APERTURE END LIST*
D10*
%TO.P,TP10,1,1_1*%
%TO.N,VUSB*%
X67000000Y-83000000D03*
%TD*%
%TO.P,TP3,1,1_1*%
%TO.N,GND*%
X60000000Y-77500000D03*
%TD*%
%TO.P,TP14,1,1_1*%
%TO.N,/Switch*%
X76000000Y-83000000D03*
%TD*%
%TO.P,TP13,1,1_1*%
%TO.N,/MOSI*%
X145000000Y-70000000D03*
%TD*%
%TO.P,TP12,1,1_1*%
%TO.N,3V3*%
X52750000Y-77500000D03*
%TD*%
%TO.P,TP11,1,1_1*%
%TO.N,GND*%
X71000000Y-59000000D03*
%TD*%
%TO.P,TP9,1,1_1*%
%TO.N,/SCK*%
X129250000Y-58750000D03*
%TD*%
%TO.P,TP8,1,1_1*%
%TO.N,/CS2*%
X145000000Y-66250000D03*
%TD*%
%TO.P,TP7,1,1_1*%
%TO.N,/CS1*%
X53250000Y-68250000D03*
%TD*%
%TO.P,TP6,1,1_1*%
%TO.N,/SCL*%
X79500000Y-69000000D03*
%TD*%
%TO.P,TP5,1,1_1*%
%TO.N,/SDA*%
X124500000Y-58750000D03*
%TD*%
%TO.P,TP4,1,1_1*%
%TO.N,/MISO*%
X145000000Y-62500000D03*
%TD*%
%TO.P,TP2,1,1_1*%
%TO.N,Net-(Q1-Pad1)*%
X87500000Y-77500000D03*
%TD*%
D11*
%TO.P,Q1,1*%
%TO.N,Net-(Q1-Pad1)*%
X73250000Y-78000000D03*
D12*
%TO.P,Q1,2*%
%TO.N,Net-(D1-A)*%
X70710000Y-78000000D03*
%TO.P,Q1,3*%
%TO.N,GND*%
X68170000Y-78000000D03*
%TD*%
D13*
%TO.P,U1,VOUT,VOUT_VOUT*%
%TO.N,unconnected-(U1-PadVOUT)*%
X134679250Y-76174350D03*
%TO.P,U1,U0T,U0T_U0T*%
%TO.N,unconnected-(U1-PadU0T)*%
X129599250Y-76174350D03*
%TO.P,U1,U0R,U0R_U0R*%
%TO.N,unconnected-(U1-PadU0R)*%
X132139250Y-76174350D03*
%TO.P,U1,IO16,IO16_IO16*%
%TO.N,/SCL*%
X142299250Y-76174350D03*
%TO.P,U1,IO15,IO15_IO15*%
%TO.N,/MOSI*%
X134679250Y-53314350D03*
%TO.P,U1,IO14,IO14_IO14*%
%TO.N,/SCK*%
X132139250Y-53314350D03*
%TO.P,U1,IO13,IO13_IO13*%
%TO.N,Net-(R11-Pad1)*%
X137219250Y-53314350D03*
%TO.P,U1,IO12,IO12_IO12*%
%TO.N,Net-(R15-Pad1)*%
X139759250Y-53314350D03*
%TO.P,U1,IO4,IO4_IO4*%
%TO.N,/SDA*%
X127059250Y-53314350D03*
%TO.P,U1,IO2,IO2_IO2*%
%TO.N,/CAM_IO2*%
X129599250Y-53314350D03*
%TO.P,U1,IO0,IO0_IO0*%
%TO.N,unconnected-(U1-PadIO0)*%
X139759250Y-76174350D03*
%TO.P,U1,GND2,GND2_GND2*%
%TO.N,GND*%
X142299250Y-53314350D03*
%TO.P,U1,GND1,GND1_GND1*%
X127059250Y-76174350D03*
%TO.P,U1,GND,GND_GND*%
X137219250Y-76174350D03*
%TO.P,U1,5V,5V_5V*%
%TO.N,VUSB*%
X144839250Y-53314350D03*
%TO.P,U1,3V3,3V3_3V3*%
%TO.N,unconnected-(U1-Pad3V3)*%
X144839250Y-76174350D03*
%TD*%
D14*
%TO.P,J1,1,Pin_1_1*%
%TO.N,/PI_IO12*%
X100500000Y-77250000D03*
D15*
%TO.P,J1,2,Pin_2_2*%
%TO.N,/PI_IO13*%
X101500000Y-77250000D03*
%TO.P,J1,3,Pin_3_3*%
%TO.N,/PI_IO14*%
X102500000Y-77250000D03*
%TO.P,J1,4,Pin_4_4*%
%TO.N,/PI_IO15*%
X103500000Y-77250000D03*
%TO.P,J1,5,Pin_5_5*%
%TO.N,/CAM_IO2*%
X104500000Y-77250000D03*
%TD*%
D14*
%TO.P,J3,1,Pin_1_1*%
%TO.N,3V3*%
X56634250Y-80494350D03*
D15*
%TO.P,J3,2,Pin_2_2*%
%TO.N,VUSB*%
X56634250Y-81494350D03*
%TO.P,J3,3,Pin_3_3*%
%TO.N,GND*%
X56634250Y-82494350D03*
%TD*%
D16*
%TO.P,D8,1,K_1*%
%TO.N,Net-(D8-K)*%
X108087500Y-94275000D03*
D17*
%TO.P,D8,2,A_2*%
%TO.N,VLED*%
X108087500Y-91735000D03*
%TD*%
D14*
%TO.P,J2,1,Pin_1_1*%
%TO.N,VLED*%
X134587500Y-91960000D03*
D15*
%TO.P,J2,2,Pin_2_2*%
%TO.N,GND_LED*%
X134587500Y-92960000D03*
%TD*%
D18*
%TO.P,U2,3V3,3V3_3V3*%
%TO.N,3V3*%
X66275450Y-54348150D03*
%TO.P,U2,3V3_EN,3V3_EN_3V3_EN*%
%TO.N,unconnected-(U2-Pad3V3_EN)*%
X63735450Y-54348150D03*
%TO.P,U2,ADC_VREF,ADC_VREF_ADC_VREF*%
%TO.N,unconnected-(U2-PadADC_VREF)*%
X68815450Y-54348150D03*
%TO.P,U2,AGND,AGND_AGND*%
%TO.N,GND*%
X73895450Y-54348150D03*
%TO.P,U2,GND,GND_GND*%
X61195450Y-54348150D03*
%TO.P,U2,GND2,GND2_GND2*%
X86595450Y-54348150D03*
%TO.P,U2,GND3,GND3_GND3*%
X99295450Y-54348150D03*
%TO.P,U2,GND4,GND4_GND4*%
X61195450Y-72128150D03*
%TO.P,U2,GND5,GND5_GND5*%
X73895450Y-72128150D03*
%TO.P,U2,GND6,GND6_GND6*%
X86595450Y-72128150D03*
%TO.P,U2,GND7,GND7_GND7*%
X99295450Y-72128150D03*
%TO.P,U2,GP0,GP0_GP0*%
%TO.N,unconnected-(U2-PadGP0)*%
X56115450Y-72128150D03*
%TO.P,U2,GP1,GP1_GP1*%
%TO.N,/CS2*%
X58655450Y-72128150D03*
%TO.P,U2,GP2,GP2_GP2*%
%TO.N,/SCK*%
X63735450Y-72128150D03*
%TO.P,U2,GP3,GP3_GP3*%
%TO.N,/MOSI*%
X66275450Y-72128150D03*
%TO.P,U2,GP4,GP4_GP4*%
%TO.N,/MISO*%
X68815450Y-72128150D03*
%TO.P,U2,GP5,GP5_GP5*%
%TO.N,/CS1*%
X71355450Y-72128150D03*
%TO.P,U2,GP6,GP6_GP6*%
%TO.N,/SDA*%
X76435450Y-72128150D03*
%TO.P,U2,GP7,GP7_GP7*%
%TO.N,/SCL*%
X78975450Y-72128150D03*
%TO.P,U2,GP8,GP8_GP8*%
%TO.N,/UART TX*%
X81515450Y-72128150D03*
%TO.P,U2,GP9,GP9_GP9*%
%TO.N,/UART RX*%
X84055450Y-72128150D03*
%TO.P,U2,GP10,GP10_GP10*%
%TO.N,/Solenoid*%
X89135450Y-72128150D03*
%TO.P,U2,GP11,GP11_GP11*%
%TO.N,unconnected-(U2-PadGP11)*%
X91675450Y-72128150D03*
%TO.P,U2,GP12,GP12_GP12*%
%TO.N,/PI_IO12*%
X94215450Y-72128150D03*
%TO.P,U2,GP13,GP13_GP13*%
%TO.N,/PI_IO13*%
X96755450Y-72128150D03*
%TO.P,U2,GP14,GP14_GP14*%
%TO.N,/PI_IO14*%
X101835450Y-72128150D03*
%TO.P,U2,GP15,GP15_GP15*%
%TO.N,/PI_IO15*%
X104375450Y-72128150D03*
%TO.P,U2,GP16,GP16_GP16*%
%TO.N,unconnected-(U2-PadGP16)*%
X104375450Y-54348150D03*
%TO.P,U2,GP17,GP17_GP17*%
%TO.N,unconnected-(U2-PadGP17)*%
X101835450Y-54348150D03*
%TO.P,U2,GP18,GP18_GP18*%
%TO.N,unconnected-(U2-PadGP18)*%
X96755450Y-54348150D03*
%TO.P,U2,GP19,GP19_GP19*%
%TO.N,unconnected-(U2-PadGP19)*%
X94215450Y-54348150D03*
%TO.P,U2,GP20,GP20_GP20*%
%TO.N,unconnected-(U2-PadGP20)*%
X91675450Y-54348150D03*
%TO.P,U2,GP21,GP21_GP21*%
%TO.N,unconnected-(U2-PadGP21)*%
X89135450Y-54348150D03*
%TO.P,U2,GP22,GP22_GP22*%
%TO.N,unconnected-(U2-PadGP22)*%
X84055450Y-54348150D03*
%TO.P,U2,GP26_A0,GP26_A0_GP26_A0*%
%TO.N,unconnected-(U2-PadGP26_A0)*%
X78975450Y-54348150D03*
%TO.P,U2,GP27_A1,GP27_A1_GP27_A1*%
%TO.N,unconnected-(U2-PadGP27_A1)*%
X76435450Y-54348150D03*
%TO.P,U2,GP28_A2,GP28_A2_GP28_A2*%
%TO.N,unconnected-(U2-PadGP28_A2)*%
X71355450Y-54348150D03*
%TO.P,U2,RUN,RUN_RUN*%
%TO.N,unconnected-(U2-PadRUN)*%
X81515450Y-54348150D03*
%TO.P,U2,VBUS,VBUS_VBUS*%
%TO.N,VUSB*%
X56115450Y-54348150D03*
%TO.P,U2,VSYS,VSYS_VSYS*%
%TO.N,unconnected-(U2-PadVSYS)*%
X58655450Y-54348150D03*
%TD*%
D14*
%TO.P,L1,1,1_1*%
%TO.N,Net-(D1-A)*%
X61959250Y-81494350D03*
D15*
%TO.P,L1,2,2_2*%
%TO.N,VUSB*%
X60959250Y-81494350D03*
%TD*%
D16*
%TO.P,D7,1,K_1*%
%TO.N,Net-(D7-K)*%
X76132500Y-94025000D03*
D17*
%TO.P,D7,2,A_2*%
%TO.N,VLED*%
X76132500Y-91485000D03*
%TD*%
D19*
%TO.P,J4,S1,SHIELD_S1*%
%TO.N,GND_LED*%
X57757500Y-88180000D03*
%TO.P,J4,S2,SHIELD_S2*%
X57757500Y-96820000D03*
%TO.P,J4,S3,SHIELD_S3*%
X53957500Y-88180000D03*
%TO.P,J4,S4,SHIELD_S4*%
X53957500Y-96820000D03*
%TD*%
D14*
%TO.P,SW2,1,1_1*%
%TO.N,GND*%
X82209250Y-82994350D03*
D15*
%TO.P,SW2,2,2_2*%
%TO.N,/Switch*%
X83209250Y-82994350D03*
%TD*%
D16*
%TO.P,D9,1,K_1*%
%TO.N,Net-(D9-K)*%
X145587500Y-93500000D03*
D17*
%TO.P,D9,2,A_2*%
%TO.N,VLED*%
X145587500Y-90960000D03*
%TD*%
D10*
%TO.P,TP16,1,1_1*%
%TO.N,GND_LED*%
X81132500Y-95000000D03*
%TD*%
%TO.P,TP15,1,1_1*%
%TO.N,VLED*%
X81132500Y-90750000D03*
%TD*%
D20*
%TO.N,/Switch*%
X76000000Y-84500000D03*
%TO.N,/SDA*%
X127000000Y-58500000D03*
%TO.N,Net-(Q1-Pad1)*%
X82250000Y-77500000D03*
%TO.N,/SCK*%
X73000000Y-61250000D03*
X72500000Y-70000000D03*
X131000000Y-60500000D03*
%TO.N,GND*%
X61959124Y-61982102D03*
%TO.N,/CAM_IO2*%
X108750000Y-57000000D03*
%TO.N,/SDA*%
X127000000Y-62750000D03*
X74500000Y-63250000D03*
%TO.N,/SCK*%
X64750000Y-70500000D03*
%TO.N,/MOSI*%
X132250000Y-66750000D03*
X69000000Y-68000000D03*
%TO.N,/SCL*%
X81250000Y-68750000D03*
X142250000Y-70500000D03*
%TO.N,/MISO*%
X141000000Y-61000000D03*
X68750000Y-69500000D03*
X60000000Y-69500000D03*
X71500000Y-62500000D03*
%TO.N,/CS2*%
X136250000Y-63750000D03*
X62750000Y-64500000D03*
%TO.N,Net-(U3-SCL)*%
X77500000Y-65500000D03*
X57500000Y-61982102D03*
X63750000Y-65500000D03*
%TO.N,/UART TX*%
X138000000Y-65500000D03*
X85917914Y-65979479D03*
%TO.N,Net-(U3-SDA)*%
X74500000Y-66919350D03*
X68500000Y-66919350D03*
X56750000Y-62750000D03*
%TO.N,GND_LED*%
X79632500Y-96000000D03*
%TO.N,VLED*%
X59967500Y-89750000D03*
X59837500Y-94000000D03*
%TO.N,/UART RX*%
X134959250Y-64850000D03*
X90300000Y-65400000D03*
%TO.N,/CS1*%
X55500000Y-68250000D03*
X70750000Y-69500000D03*
%TD*%
%TO.N,/SCK*%
D21*
X129000000Y-58500000D02*
X128750000Y-58500000D01*
%TO.N,/Switch*%
D22*
X76000000Y-84500000D02*
X76000000Y-83000000D01*
%TO.N,/MOSI*%
D21*
X145000000Y-70000000D02*
X144250000Y-70000000D01*
X144250000Y-70000000D02*
X141000000Y-66750000D01*
X141000000Y-66750000D02*
X132250000Y-66750000D01*
%TO.N,/CS2*%
X145000000Y-66250000D02*
X143375000Y-66250000D01*
X143375000Y-66250000D02*
X140875000Y-63750000D01*
X140875000Y-63750000D02*
X136250000Y-63750000D01*
%TO.N,3V3*%
X52750000Y-77500000D02*
X55744350Y-80494350D01*
X55744350Y-80494350D02*
X56634250Y-80494350D01*
%TO.N,GND*%
X71000000Y-59000000D02*
X71000000Y-58750000D01*
X71000000Y-58750000D02*
X73895450Y-55854550D01*
X73895450Y-55854550D02*
X73895450Y-54348150D01*
X71000000Y-59000000D02*
X64941226Y-59000000D01*
X64941226Y-59000000D02*
X61959124Y-61982102D01*
%TO.N,VUSB*%
X60959250Y-81494350D02*
X60959250Y-82244350D01*
X60959250Y-82244350D02*
X61714900Y-83000000D01*
X61714900Y-83000000D02*
X67000000Y-83000000D01*
%TO.N,/SDA*%
X126500000Y-63250000D02*
X127000000Y-62750000D01*
X74500000Y-63250000D02*
X126500000Y-63250000D01*
%TO.N,/CS2*%
X135250000Y-64000000D02*
X134500000Y-64000000D01*
%TO.N,/SCK*%
X129000000Y-58500000D02*
X131000000Y-60500000D01*
%TO.N,/SDA*%
X124500000Y-58500000D02*
X127000000Y-58500000D01*
%TO.N,/CS1*%
X53250000Y-68250000D02*
X55500000Y-68250000D01*
%TO.N,/SCL*%
X79500000Y-69000000D02*
X81000000Y-69000000D01*
X81000000Y-69000000D02*
X81250000Y-68750000D01*
%TO.N,/MOSI*%
X132250000Y-66750000D02*
X78000000Y-66750000D01*
X78000000Y-66750000D02*
X76750000Y-68000000D01*
X76750000Y-68000000D02*
X69000000Y-68000000D01*
%TO.N,/CS2*%
X63998529Y-64900000D02*
X63501471Y-64900000D01*
X64098529Y-65000000D02*
X63998529Y-64900000D01*
X134500000Y-64000000D02*
X133750000Y-64750000D01*
X77151471Y-65000000D02*
X64098529Y-65000000D01*
X77251471Y-64900000D02*
X77151471Y-65000000D01*
X77848529Y-65000000D02*
X77748529Y-64900000D01*
X63501471Y-64900000D02*
X63401471Y-65000000D01*
X63401471Y-65000000D02*
X63250000Y-65000000D01*
X77748529Y-64900000D02*
X77251471Y-64900000D01*
X133750000Y-64750000D02*
X86250000Y-64750000D01*
X86000000Y-65000000D02*
X77848529Y-65000000D01*
X86250000Y-64750000D02*
X86000000Y-65000000D01*
X136000000Y-64000000D02*
X135250000Y-64000000D01*
X136250000Y-63750000D02*
X136000000Y-64000000D01*
X63250000Y-65000000D02*
X62750000Y-64500000D01*
%TO.N,/UART RX*%
X90300000Y-65400000D02*
X90300000Y-65450000D01*
X90300000Y-65450000D02*
X90500000Y-65250000D01*
X90500000Y-65250000D02*
X134559250Y-65250000D01*
X134559250Y-65250000D02*
X134959250Y-64850000D01*
%TO.N,/UART TX*%
X138000000Y-65500000D02*
X137500000Y-66000000D01*
X137500000Y-66000000D02*
X85938435Y-66000000D01*
X85938435Y-66000000D02*
X85917914Y-65979479D01*
%TO.N,Net-(Q1-Pad1)*%
X87500000Y-77500000D02*
X82250000Y-77500000D01*
%TO.N,/MISO*%
X145000000Y-62500000D02*
X142500000Y-62500000D01*
X142500000Y-62500000D02*
X141000000Y-61000000D01*
X141000000Y-61000000D02*
X140500000Y-61500000D01*
X140500000Y-61500000D02*
X126500000Y-61500000D01*
X126500000Y-61500000D02*
X126000000Y-62000000D01*
X126000000Y-62000000D02*
X72000000Y-62000000D01*
X72000000Y-62000000D02*
X71500000Y-62500000D01*
%TO.N,/SCK*%
X73000000Y-61250000D02*
X73250000Y-61000000D01*
X73250000Y-61000000D02*
X130500000Y-61000000D01*
X130500000Y-61000000D02*
X131000000Y-60500000D01*
X72000000Y-70500000D02*
X72500000Y-70000000D01*
X64750000Y-70500000D02*
X72000000Y-70500000D01*
%TO.N,/CAM_IO2*%
X109500000Y-56250000D02*
X126663600Y-56250000D01*
X108750000Y-57000000D02*
X109500000Y-56250000D01*
X126663600Y-56250000D02*
X129599250Y-53314350D01*
%TO.N,/SCL*%
X81250000Y-68750000D02*
X140500000Y-68750000D01*
X140500000Y-68750000D02*
X142250000Y-70500000D01*
%TO.N,/MISO*%
X60000000Y-69500000D02*
X68750000Y-69500000D01*
%TO.N,Net-(U3-SCL)*%
X63750000Y-65500000D02*
X58500000Y-65500000D01*
X58500000Y-65500000D02*
X57500000Y-64500000D01*
X77500000Y-65500000D02*
X63750000Y-65500000D01*
X57500000Y-64500000D02*
X57500000Y-61982102D01*
%TO.N,Net-(U3-SDA)*%
X68500000Y-66919350D02*
X58919350Y-66919350D01*
X74500000Y-66919350D02*
X68500000Y-66919350D01*
X56750000Y-64750000D02*
X56750000Y-62750000D01*
X58919350Y-66919350D02*
X56750000Y-64750000D01*
%TO.N,GND_LED*%
D23*
X81132500Y-95000000D02*
X80632500Y-95000000D01*
X80632500Y-95000000D02*
X79632500Y-96000000D01*
%TO.N,VLED*%
X59967500Y-89750000D02*
X59967500Y-93870000D01*
D22*
X81132500Y-90750000D02*
X76867500Y-90750000D01*
X76867500Y-90750000D02*
X76132500Y-91485000D01*
D23*
X59967500Y-93870000D02*
X59837500Y-94000000D01*
%TO.N,/CS1*%
D21*
X70000000Y-68750000D02*
X56000000Y-68750000D01*
X70750000Y-69500000D02*
X70000000Y-68750000D01*
X56000000Y-68750000D02*
X55500000Y-68250000D01*
%TO.N,GND*%
X67670000Y-77500000D02*
X68170000Y-78000000D01*
X60000000Y-77500000D02*
X67670000Y-77500000D01*
%TD*%
%TA.AperFunction,Conductor*%
%TO.N,GND*%
G36*
X149442539Y-50520185D02*
G01*
X149488294Y-50572989D01*
X149499500Y-50624500D01*
X149499500Y-85876000D01*
X149479815Y-85943039D01*
X149427011Y-85988794D01*
X149375500Y-86000000D01*
X50624500Y-86000000D01*
X50557461Y-85980315D01*
X50511706Y-85927511D01*
X50500500Y-85876000D01*
X50500500Y-83302850D01*
X56179300Y-83302850D01*
X56196099Y-83314075D01*
X56196105Y-83314078D01*
X56364432Y-83383801D01*
X56364444Y-83383804D01*
X56543140Y-83419349D01*
X56543144Y-83419350D01*
X56725356Y-83419350D01*
X56725359Y-83419349D01*
X56904055Y-83383804D01*
X56904063Y-83383802D01*
X57072401Y-83314074D01*
X57072404Y-83314073D01*
X57089197Y-83302850D01*
X57089198Y-83302850D01*
X56634251Y-82847903D01*
X56634250Y-82847903D01*
X56179300Y-83302850D01*
X50500500Y-83302850D01*
X50500500Y-76702135D01*
X51499500Y-76702135D01*
X51499500Y-78297870D01*
X51499501Y-78297876D01*
X51505908Y-78357483D01*
X51556202Y-78492328D01*
X51556206Y-78492335D01*
X51642452Y-78607544D01*
X51642455Y-78607547D01*
X51757664Y-78693793D01*
X51757671Y-78693797D01*
X51892517Y-78744091D01*
X51892516Y-78744091D01*
X51899444Y-78744835D01*
X51952127Y-78750500D01*
X53099902Y-78750499D01*
X53166941Y-78770184D01*
X53187583Y-78786818D01*
X55259489Y-80858724D01*
X55259499Y-80858735D01*
X55263829Y-80863065D01*
X55263830Y-80863066D01*
X55375634Y-80974870D01*
X55375636Y-80974871D01*
X55375640Y-80974874D01*
X55465634Y-81026831D01*
X55512566Y-81053927D01*
X55624369Y-81083884D01*
X55652605Y-81091450D01*
X55712262Y-81127816D01*
X55742790Y-81190663D01*
X55742123Y-81235414D01*
X55708750Y-81403191D01*
X55708750Y-81403196D01*
X55708750Y-81585504D01*
X55708750Y-81585506D01*
X55708749Y-81585506D01*
X55744315Y-81764302D01*
X55744318Y-81764312D01*
X55814083Y-81932740D01*
X55816058Y-81936436D01*
X55830296Y-82004839D01*
X55816061Y-82053322D01*
X55814528Y-82056189D01*
X55744797Y-82224536D01*
X55744795Y-82224544D01*
X55709250Y-82403240D01*
X55709250Y-82585459D01*
X55744795Y-82764155D01*
X55744798Y-82764167D01*
X55814521Y-82932495D01*
X55825748Y-82949297D01*
X56339503Y-82435541D01*
X56346469Y-82431737D01*
X56351114Y-82425296D01*
X56376702Y-82415228D01*
X56400826Y-82402056D01*
X56401885Y-82402046D01*
X56384250Y-82444622D01*
X56384250Y-82544078D01*
X56422310Y-82635964D01*
X56492636Y-82706290D01*
X56584522Y-82744350D01*
X56683978Y-82744350D01*
X56775864Y-82706290D01*
X56846190Y-82635964D01*
X56884250Y-82544078D01*
X56884250Y-82444622D01*
X56868329Y-82406187D01*
X56886713Y-82407832D01*
X56928995Y-82435541D01*
X57442750Y-82949298D01*
X57453974Y-82932502D01*
X57453974Y-82932501D01*
X57523702Y-82764163D01*
X57523704Y-82764155D01*
X57559249Y-82585459D01*
X57559250Y-82585456D01*
X57559250Y-82403244D01*
X57559249Y-82403240D01*
X57523704Y-82224544D01*
X57523701Y-82224532D01*
X57453978Y-82056204D01*
X57452448Y-82053342D01*
X57452099Y-82051668D01*
X57451644Y-82050569D01*
X57451852Y-82050482D01*
X57438201Y-81984940D01*
X57452453Y-81936411D01*
X57454410Y-81932749D01*
X57454417Y-81932739D01*
X57524183Y-81764308D01*
X57559750Y-81585506D01*
X60033749Y-81585506D01*
X60069315Y-81764302D01*
X60069318Y-81764312D01*
X60139081Y-81932737D01*
X60139083Y-81932741D01*
X60240363Y-82084317D01*
X60240364Y-82084319D01*
X60240366Y-82084321D01*
X60240367Y-82084322D01*
X60322431Y-82166386D01*
X60355915Y-82227707D01*
X60358749Y-82254066D01*
X60358749Y-82323404D01*
X60358748Y-82323404D01*
X60399673Y-82476135D01*
X60421615Y-82514138D01*
X60421616Y-82514142D01*
X60478725Y-82613059D01*
X60478731Y-82613067D01*
X60597599Y-82731935D01*
X60597605Y-82731940D01*
X61230039Y-83364374D01*
X61230049Y-83364385D01*
X61234379Y-83368715D01*
X61234380Y-83368716D01*
X61346184Y-83480520D01*
X61346186Y-83480521D01*
X61346190Y-83480524D01*
X61426209Y-83526722D01*
X61483116Y-83559577D01*
X61575466Y-83584322D01*
X61635842Y-83600500D01*
X61635843Y-83600500D01*
X65625501Y-83600500D01*
X65692540Y-83620185D01*
X65738295Y-83672989D01*
X65749501Y-83724500D01*
X65749501Y-83797876D01*
X65755908Y-83857483D01*
X65806202Y-83992328D01*
X65806206Y-83992335D01*
X65892452Y-84107544D01*
X65892455Y-84107547D01*
X66007664Y-84193793D01*
X66007671Y-84193797D01*
X66142517Y-84244091D01*
X66142516Y-84244091D01*
X66149444Y-84244835D01*
X66202127Y-84250500D01*
X67797872Y-84250499D01*
X67857483Y-84244091D01*
X67992331Y-84193796D01*
X68107546Y-84107546D01*
X68193796Y-83992331D01*
X68244091Y-83857483D01*
X68250500Y-83797873D01*
X68250499Y-82202135D01*
X74749500Y-82202135D01*
X74749500Y-83797870D01*
X74749501Y-83797876D01*
X74755908Y-83857483D01*
X74806202Y-83992328D01*
X74806206Y-83992335D01*
X74892452Y-84107544D01*
X74892455Y-84107547D01*
X75007664Y-84193793D01*
X75007671Y-84193797D01*
X75129481Y-84239229D01*
X75185415Y-84281100D01*
X75209832Y-84346564D01*
X75207766Y-84379601D01*
X75199500Y-84421158D01*
X75199500Y-84578846D01*
X75230261Y-84733489D01*
X75230264Y-84733501D01*
X75290602Y-84879172D01*
X75290609Y-84879185D01*
X75378210Y-85010288D01*
X75378213Y-85010292D01*
X75489707Y-85121786D01*
X75489711Y-85121789D01*
X75620814Y-85209390D01*
X75620827Y-85209397D01*
X75766498Y-85269735D01*
X75766503Y-85269737D01*
X75921153Y-85300499D01*
X75921156Y-85300500D01*
X75921158Y-85300500D01*
X76078844Y-85300500D01*
X76078845Y-85300499D01*
X76233497Y-85269737D01*
X76379179Y-85209394D01*
X76510289Y-85121789D01*
X76621789Y-85010289D01*
X76709394Y-84879179D01*
X76769737Y-84733497D01*
X76800500Y-84578842D01*
X76800500Y-84421158D01*
X76792234Y-84379601D01*
X76798461Y-84310012D01*
X76841323Y-84254834D01*
X76870519Y-84239229D01*
X76992326Y-84193798D01*
X76992326Y-84193797D01*
X76992331Y-84193796D01*
X77107546Y-84107546D01*
X77193796Y-83992331D01*
X77244091Y-83857483D01*
X77250500Y-83797873D01*
X77250500Y-83467194D01*
X81284250Y-83467194D01*
X81290651Y-83526722D01*
X81290653Y-83526729D01*
X81340895Y-83661436D01*
X81340899Y-83661443D01*
X81427059Y-83776537D01*
X81427062Y-83776540D01*
X81542156Y-83862700D01*
X81542163Y-83862704D01*
X81676870Y-83912946D01*
X81676877Y-83912948D01*
X81736405Y-83919349D01*
X81736422Y-83919350D01*
X81959250Y-83919350D01*
X81959250Y-83244350D01*
X81284250Y-83244350D01*
X81284250Y-83467194D01*
X77250500Y-83467194D01*
X77250500Y-83044078D01*
X77250500Y-82944622D01*
X81959250Y-82944622D01*
X81959250Y-83044078D01*
X81997310Y-83135964D01*
X82067636Y-83206290D01*
X82159522Y-83244350D01*
X82258978Y-83244350D01*
X82311055Y-83222779D01*
X82319315Y-83264302D01*
X82319318Y-83264312D01*
X82389079Y-83432732D01*
X82389086Y-83432744D01*
X82438352Y-83506475D01*
X82459230Y-83573152D01*
X82459250Y-83575366D01*
X82459250Y-83919350D01*
X82682078Y-83919350D01*
X82682094Y-83919349D01*
X82741622Y-83912948D01*
X82741626Y-83912947D01*
X82836338Y-83877622D01*
X82906030Y-83872638D01*
X82927122Y-83879242D01*
X82939292Y-83884283D01*
X82939296Y-83884283D01*
X82939297Y-83884284D01*
X83118093Y-83919850D01*
X83118096Y-83919850D01*
X83300406Y-83919850D01*
X83420695Y-83895922D01*
X83479208Y-83884283D01*
X83647639Y-83814517D01*
X83647641Y-83814516D01*
X83722922Y-83764214D01*
X83799222Y-83713233D01*
X83928133Y-83584322D01*
X84029417Y-83432739D01*
X84099183Y-83264308D01*
X84134750Y-83085504D01*
X84134750Y-82903196D01*
X84134750Y-82903193D01*
X84099184Y-82724397D01*
X84099183Y-82724396D01*
X84099183Y-82724392D01*
X84053068Y-82613059D01*
X84029418Y-82555962D01*
X84029416Y-82555958D01*
X83928136Y-82404382D01*
X83928130Y-82404374D01*
X83799225Y-82275469D01*
X83799217Y-82275463D01*
X83647641Y-82174183D01*
X83647637Y-82174181D01*
X83479212Y-82104418D01*
X83479202Y-82104415D01*
X83300406Y-82068850D01*
X83300404Y-82068850D01*
X83118096Y-82068850D01*
X83118094Y-82068850D01*
X82939298Y-82104415D01*
X82939287Y-82104418D01*
X82927117Y-82109459D01*
X82857648Y-82116923D01*
X82836339Y-82111077D01*
X82741630Y-82075753D01*
X82741622Y-82075751D01*
X82682094Y-82069350D01*
X82459250Y-82069350D01*
X82459250Y-82413333D01*
X82439565Y-82480372D01*
X82438353Y-82482223D01*
X82389080Y-82555964D01*
X82319318Y-82724387D01*
X82319315Y-82724397D01*
X82311055Y-82765920D01*
X82258978Y-82744350D01*
X82159522Y-82744350D01*
X82067636Y-82782410D01*
X81997310Y-82852736D01*
X81959250Y-82944622D01*
X77250500Y-82944622D01*
X77250500Y-82897104D01*
X77250499Y-82521505D01*
X81284250Y-82521505D01*
X81284250Y-82744350D01*
X81959250Y-82744350D01*
X81959250Y-82069350D01*
X81736405Y-82069350D01*
X81676877Y-82075751D01*
X81676870Y-82075753D01*
X81542163Y-82125995D01*
X81542156Y-82125999D01*
X81427062Y-82212159D01*
X81427059Y-82212162D01*
X81340899Y-82327256D01*
X81340895Y-82327263D01*
X81290653Y-82461970D01*
X81290651Y-82461977D01*
X81284250Y-82521505D01*
X77250499Y-82521505D01*
X77250499Y-82518201D01*
X77250499Y-82202129D01*
X77250498Y-82202123D01*
X77250497Y-82202116D01*
X77244091Y-82142517D01*
X77237930Y-82125999D01*
X77193797Y-82007671D01*
X77193793Y-82007664D01*
X77107547Y-81892455D01*
X77107544Y-81892452D01*
X76992335Y-81806206D01*
X76992328Y-81806202D01*
X76857482Y-81755908D01*
X76857483Y-81755908D01*
X76797883Y-81749501D01*
X76797881Y-81749500D01*
X76797873Y-81749500D01*
X76797864Y-81749500D01*
X75202129Y-81749500D01*
X75202123Y-81749501D01*
X75142516Y-81755908D01*
X75007671Y-81806202D01*
X75007664Y-81806206D01*
X74892455Y-81892452D01*
X74892452Y-81892455D01*
X74806206Y-82007664D01*
X74806202Y-82007671D01*
X74755908Y-82142517D01*
X74752504Y-82174183D01*
X74749501Y-82202123D01*
X74749500Y-82202135D01*
X68250499Y-82202135D01*
X68250499Y-82202128D01*
X68244091Y-82142517D01*
X68237930Y-82125999D01*
X68193797Y-82007671D01*
X68193793Y-82007664D01*
X68107547Y-81892455D01*
X68107544Y-81892452D01*
X67992335Y-81806206D01*
X67992328Y-81806202D01*
X67857482Y-81755908D01*
X67857483Y-81755908D01*
X67797883Y-81749501D01*
X67797881Y-81749500D01*
X67797873Y-81749500D01*
X67797864Y-81749500D01*
X66202129Y-81749500D01*
X66202123Y-81749501D01*
X66142516Y-81755908D01*
X66007671Y-81806202D01*
X66007664Y-81806206D01*
X65892455Y-81892452D01*
X65892452Y-81892455D01*
X65806206Y-82007664D01*
X65806202Y-82007671D01*
X65755908Y-82142517D01*
X65752504Y-82174183D01*
X65749501Y-82202123D01*
X65749500Y-82202135D01*
X65749500Y-82275500D01*
X65729815Y-82342539D01*
X65677011Y-82388294D01*
X65625500Y-82399500D01*
X62897737Y-82399500D01*
X62830698Y-82379815D01*
X62784943Y-82327011D01*
X62774999Y-82257853D01*
X62798471Y-82201189D01*
X62828043Y-82161685D01*
X62828042Y-82161685D01*
X62828046Y-82161681D01*
X62878341Y-82026833D01*
X62884750Y-81967223D01*
X62884749Y-81021478D01*
X62878341Y-80961867D01*
X62839875Y-80858735D01*
X62828047Y-80827021D01*
X62828043Y-80827014D01*
X62741797Y-80711805D01*
X62741794Y-80711802D01*
X62626585Y-80625556D01*
X62626578Y-80625552D01*
X62491732Y-80575258D01*
X62491733Y-80575258D01*
X62432133Y-80568851D01*
X62432131Y-80568850D01*
X62432123Y-80568850D01*
X62432114Y-80568850D01*
X61486379Y-80568850D01*
X61486373Y-80568851D01*
X61426766Y-80575258D01*
X61331483Y-80610797D01*
X61261791Y-80615781D01*
X61240698Y-80609176D01*
X61229212Y-80604418D01*
X61229202Y-80604415D01*
X61050406Y-80568850D01*
X61050404Y-80568850D01*
X60868096Y-80568850D01*
X60868094Y-80568850D01*
X60689297Y-80604415D01*
X60689287Y-80604418D01*
X60520862Y-80674181D01*
X60520858Y-80674183D01*
X60369282Y-80775463D01*
X60369274Y-80775469D01*
X60240369Y-80904374D01*
X60240363Y-80904382D01*
X60139083Y-81055958D01*
X60139081Y-81055962D01*
X60069318Y-81224387D01*
X60069315Y-81224397D01*
X60033750Y-81403193D01*
X60033750Y-81403196D01*
X60033750Y-81585504D01*
X60033750Y-81585506D01*
X60033749Y-81585506D01*
X57559750Y-81585506D01*
X57559750Y-81585504D01*
X57559750Y-81403196D01*
X57524183Y-81224392D01*
X57515114Y-81202499D01*
X57512750Y-81191493D01*
X57514533Y-81167430D01*
X57511953Y-81143438D01*
X57517798Y-81122126D01*
X57553341Y-81026833D01*
X57559750Y-80967223D01*
X57559749Y-80021478D01*
X57553341Y-79961867D01*
X57503046Y-79827019D01*
X57503045Y-79827018D01*
X57503043Y-79827014D01*
X57416797Y-79711805D01*
X57416794Y-79711802D01*
X57301585Y-79625556D01*
X57301578Y-79625552D01*
X57166732Y-79575258D01*
X57166733Y-79575258D01*
X57107133Y-79568851D01*
X57107131Y-79568850D01*
X57107123Y-79568850D01*
X57107114Y-79568850D01*
X56161379Y-79568850D01*
X56161373Y-79568851D01*
X56101766Y-79575258D01*
X55966921Y-79625552D01*
X55966915Y-79625556D01*
X55914462Y-79664822D01*
X55848998Y-79689239D01*
X55780725Y-79674387D01*
X55752471Y-79653236D01*
X54397079Y-78297844D01*
X58750000Y-78297844D01*
X58756401Y-78357372D01*
X58756403Y-78357379D01*
X58806645Y-78492086D01*
X58806649Y-78492093D01*
X58892809Y-78607187D01*
X58892812Y-78607190D01*
X59007906Y-78693350D01*
X59007913Y-78693354D01*
X59142620Y-78743596D01*
X59142627Y-78743598D01*
X59202155Y-78749999D01*
X59202172Y-78750000D01*
X59750000Y-78750000D01*
X60250000Y-78750000D01*
X60797828Y-78750000D01*
X60797844Y-78749999D01*
X60857372Y-78743598D01*
X60857379Y-78743596D01*
X60992086Y-78693354D01*
X60992093Y-78693350D01*
X61107187Y-78607190D01*
X61107190Y-78607187D01*
X61193350Y-78492093D01*
X61193354Y-78492086D01*
X61243596Y-78357379D01*
X61243598Y-78357372D01*
X61249999Y-78297844D01*
X61250000Y-78297827D01*
X61250000Y-77895675D01*
X66844500Y-77895675D01*
X66844500Y-78104324D01*
X66877137Y-78310389D01*
X66941612Y-78508820D01*
X67036330Y-78694714D01*
X67072268Y-78744176D01*
X67628657Y-78187788D01*
X67637447Y-78220591D01*
X67712687Y-78350909D01*
X67819091Y-78457313D01*
X67949409Y-78532553D01*
X67982211Y-78541342D01*
X67425822Y-79097730D01*
X67425822Y-79097731D01*
X67475285Y-79133669D01*
X67661179Y-79228387D01*
X67859610Y-79292862D01*
X68065676Y-79325500D01*
X68274324Y-79325500D01*
X68480389Y-79292862D01*
X68678820Y-79228387D01*
X68864709Y-79133672D01*
X68914176Y-79097730D01*
X68357788Y-78541342D01*
X68390591Y-78532553D01*
X68520909Y-78457313D01*
X68627313Y-78350909D01*
X68702553Y-78220591D01*
X68711342Y-78187788D01*
X69267730Y-78744176D01*
X69303671Y-78694709D01*
X69329233Y-78644541D01*
X69377207Y-78593744D01*
X69445027Y-78576948D01*
X69511163Y-78599484D01*
X69550203Y-78644538D01*
X69575767Y-78694709D01*
X69575903Y-78694975D01*
X69698584Y-78863831D01*
X69846169Y-79011416D01*
X70015025Y-79134097D01*
X70102888Y-79178865D01*
X70200988Y-79228850D01*
X70200990Y-79228850D01*
X70200993Y-79228852D01*
X70307394Y-79263424D01*
X70399493Y-79293349D01*
X70502568Y-79309674D01*
X70605642Y-79326000D01*
X70605643Y-79326000D01*
X70814357Y-79326000D01*
X70814358Y-79326000D01*
X71020506Y-79293349D01*
X71219007Y-79228852D01*
X71404975Y-79134097D01*
X71573831Y-79011416D01*
X71720144Y-78865102D01*
X71781463Y-78831620D01*
X71851155Y-78836604D01*
X71907089Y-78878475D01*
X71925845Y-78926088D01*
X71928624Y-78925432D01*
X71930407Y-78932979D01*
X71980702Y-79067828D01*
X71980706Y-79067835D01*
X72066952Y-79183044D01*
X72066955Y-79183047D01*
X72182164Y-79269293D01*
X72182171Y-79269297D01*
X72317017Y-79319591D01*
X72317016Y-79319591D01*
X72323944Y-79320335D01*
X72376627Y-79326000D01*
X74123372Y-79325999D01*
X74182983Y-79319591D01*
X74317831Y-79269296D01*
X74433046Y-79183046D01*
X74519296Y-79067831D01*
X74569591Y-78932983D01*
X74576000Y-78873373D01*
X74575999Y-77421153D01*
X81449500Y-77421153D01*
X81449500Y-77578846D01*
X81480261Y-77733489D01*
X81480264Y-77733501D01*
X81540602Y-77879172D01*
X81540609Y-77879185D01*
X81628210Y-78010288D01*
X81628213Y-78010292D01*
X81739707Y-78121786D01*
X81739711Y-78121789D01*
X81870814Y-78209390D01*
X81870827Y-78209397D01*
X82016498Y-78269735D01*
X82016503Y-78269737D01*
X82158002Y-78297883D01*
X82171153Y-78300499D01*
X82171156Y-78300500D01*
X82171158Y-78300500D01*
X82328844Y-78300500D01*
X82328845Y-78300499D01*
X82483497Y-78269737D01*
X82629179Y-78209394D01*
X82679905Y-78175500D01*
X82760875Y-78121398D01*
X82827553Y-78100520D01*
X82829766Y-78100500D01*
X86125501Y-78100500D01*
X86192540Y-78120185D01*
X86238295Y-78172989D01*
X86249501Y-78224500D01*
X86249501Y-78297876D01*
X86255908Y-78357483D01*
X86306202Y-78492328D01*
X86306206Y-78492335D01*
X86392452Y-78607544D01*
X86392455Y-78607547D01*
X86507664Y-78693793D01*
X86507671Y-78693797D01*
X86642517Y-78744091D01*
X86642516Y-78744091D01*
X86649444Y-78744835D01*
X86702127Y-78750500D01*
X88297872Y-78750499D01*
X88357483Y-78744091D01*
X88492331Y-78693796D01*
X88607546Y-78607546D01*
X88693796Y-78492331D01*
X88744091Y-78357483D01*
X88750500Y-78297873D01*
X88750499Y-76777135D01*
X99574500Y-76777135D01*
X99574500Y-77722870D01*
X99574501Y-77722876D01*
X99580908Y-77782483D01*
X99631202Y-77917328D01*
X99631206Y-77917335D01*
X99717452Y-78032544D01*
X99717455Y-78032547D01*
X99832664Y-78118793D01*
X99832671Y-78118797D01*
X99967517Y-78169091D01*
X99967516Y-78169091D01*
X99974444Y-78169835D01*
X100027127Y-78175500D01*
X100972872Y-78175499D01*
X101032483Y-78169091D01*
X101127768Y-78133551D01*
X101197457Y-78128568D01*
X101218551Y-78135173D01*
X101230042Y-78139933D01*
X101230044Y-78139933D01*
X101230046Y-78139934D01*
X101408843Y-78175500D01*
X101408846Y-78175500D01*
X101591156Y-78175500D01*
X101711445Y-78151572D01*
X101769958Y-78139933D01*
X101938389Y-78070167D01*
X101938394Y-78070163D01*
X101941541Y-78068482D01*
X101943386Y-78068097D01*
X101944018Y-78067836D01*
X101944067Y-78067955D01*
X102009943Y-78054236D01*
X102058459Y-78068482D01*
X102061615Y-78070169D01*
X102185294Y-78121398D01*
X102230042Y-78139933D01*
X102230046Y-78139933D01*
X102230047Y-78139934D01*
X102408843Y-78175500D01*
X102408846Y-78175500D01*
X102591156Y-78175500D01*
X102711445Y-78151572D01*
X102769958Y-78139933D01*
X102938389Y-78070167D01*
X102938394Y-78070163D01*
X102941541Y-78068482D01*
X102943386Y-78068097D01*
X102944018Y-78067836D01*
X102944067Y-78067955D01*
X103009943Y-78054236D01*
X103058459Y-78068482D01*
X103061615Y-78070169D01*
X103185294Y-78121398D01*
X103230042Y-78139933D01*
X103230046Y-78139933D01*
X103230047Y-78139934D01*
X103408843Y-78175500D01*
X103408846Y-78175500D01*
X103591156Y-78175500D01*
X103711445Y-78151572D01*
X103769958Y-78139933D01*
X103938389Y-78070167D01*
X103938394Y-78070163D01*
X103941541Y-78068482D01*
X103943386Y-78068097D01*
X103944018Y-78067836D01*
X103944067Y-78067955D01*
X104009943Y-78054236D01*
X104058459Y-78068482D01*
X104061615Y-78070169D01*
X104185294Y-78121398D01*
X104230042Y-78139933D01*
X104230046Y-78139933D01*
X104230047Y-78139934D01*
X104408843Y-78175500D01*
X104408846Y-78175500D01*
X104591156Y-78175500D01*
X104711445Y-78151572D01*
X104769958Y-78139933D01*
X104926144Y-78075239D01*
X104938387Y-78070168D01*
X104938391Y-78070166D01*
X105043403Y-77999999D01*
X105089972Y-77968883D01*
X105218883Y-77839972D01*
X105320167Y-77688389D01*
X105389933Y-77519958D01*
X105401572Y-77461445D01*
X105425500Y-77341156D01*
X105425500Y-77158843D01*
X105389934Y-76980047D01*
X105389933Y-76980046D01*
X105389933Y-76980042D01*
X105374294Y-76942285D01*
X105320168Y-76811612D01*
X105320166Y-76811608D01*
X105218886Y-76660032D01*
X105218880Y-76660024D01*
X105089975Y-76531119D01*
X105089967Y-76531113D01*
X104938391Y-76429833D01*
X104938387Y-76429831D01*
X104769962Y-76360068D01*
X104769952Y-76360065D01*
X104591156Y-76324500D01*
X104591154Y-76324500D01*
X104408846Y-76324500D01*
X104408844Y-76324500D01*
X104230047Y-76360065D01*
X104230041Y-76360067D01*
X104061605Y-76429835D01*
X104058444Y-76431525D01*
X104056600Y-76431908D01*
X104055984Y-76432164D01*
X104055935Y-76432047D01*
X103990040Y-76445761D01*
X103941556Y-76431525D01*
X103938394Y-76429835D01*
X103769958Y-76360067D01*
X103769952Y-76360065D01*
X103591156Y-76324500D01*
X103591154Y-76324500D01*
X103408846Y-76324500D01*
X103408844Y-76324500D01*
X103230047Y-76360065D01*
X103230041Y-76360067D01*
X103061605Y-76429835D01*
X103058444Y-76431525D01*
X103056600Y-76431908D01*
X103055984Y-76432164D01*
X103055935Y-76432047D01*
X102990040Y-76445761D01*
X102941556Y-76431525D01*
X102938394Y-76429835D01*
X102769958Y-76360067D01*
X102769952Y-76360065D01*
X102591156Y-76324500D01*
X102591154Y-76324500D01*
X102408846Y-76324500D01*
X102408844Y-76324500D01*
X102230047Y-76360065D01*
X102230041Y-76360067D01*
X102061605Y-76429835D01*
X102058444Y-76431525D01*
X102056600Y-76431908D01*
X102055984Y-76432164D01*
X102055935Y-76432047D01*
X101990040Y-76445761D01*
X101941556Y-76431525D01*
X101938394Y-76429835D01*
X101769958Y-76360067D01*
X101769952Y-76360065D01*
X101591156Y-76324500D01*
X101591154Y-76324500D01*
X101408846Y-76324500D01*
X101408844Y-76324500D01*
X101230047Y-76360065D01*
X101230034Y-76360069D01*
X101218545Y-76364828D01*
X101149076Y-76372294D01*
X101127765Y-76366447D01*
X101123424Y-76364828D01*
X101092604Y-76353332D01*
X101032481Y-76330908D01*
X101032483Y-76330908D01*
X100972883Y-76324501D01*
X100972881Y-76324500D01*
X100972873Y-76324500D01*
X100972864Y-76324500D01*
X100027129Y-76324500D01*
X100027123Y-76324501D01*
X99967516Y-76330908D01*
X99832671Y-76381202D01*
X99832664Y-76381206D01*
X99717455Y-76467452D01*
X99717452Y-76467455D01*
X99631206Y-76582664D01*
X99631202Y-76582671D01*
X99580908Y-76717517D01*
X99574501Y-76777116D01*
X99574500Y-76777135D01*
X88750499Y-76777135D01*
X88750499Y-76702128D01*
X88744091Y-76642517D01*
X88721767Y-76582664D01*
X88693797Y-76507671D01*
X88693793Y-76507664D01*
X88607547Y-76392455D01*
X88607544Y-76392452D01*
X88492335Y-76306206D01*
X88492328Y-76306202D01*
X88357482Y-76255908D01*
X88357483Y-76255908D01*
X88297883Y-76249501D01*
X88297881Y-76249500D01*
X88297873Y-76249500D01*
X88297864Y-76249500D01*
X86702129Y-76249500D01*
X86702123Y-76249501D01*
X86642516Y-76255908D01*
X86507671Y-76306202D01*
X86507664Y-76306206D01*
X86392455Y-76392452D01*
X86392452Y-76392455D01*
X86306206Y-76507664D01*
X86306202Y-76507671D01*
X86255908Y-76642517D01*
X86252470Y-76674500D01*
X86249501Y-76702123D01*
X86249500Y-76702135D01*
X86249500Y-76775500D01*
X86229815Y-76842539D01*
X86177011Y-76888294D01*
X86125500Y-76899500D01*
X82829766Y-76899500D01*
X82762727Y-76879815D01*
X82760875Y-76878602D01*
X82629185Y-76790609D01*
X82629172Y-76790602D01*
X82483501Y-76730264D01*
X82483489Y-76730261D01*
X82328845Y-76699500D01*
X82328842Y-76699500D01*
X82171158Y-76699500D01*
X82171155Y-76699500D01*
X82016510Y-76730261D01*
X82016498Y-76730264D01*
X81870827Y-76790602D01*
X81870814Y-76790609D01*
X81739711Y-76878210D01*
X81739707Y-76878213D01*
X81628213Y-76989707D01*
X81628210Y-76989711D01*
X81540609Y-77120814D01*
X81540602Y-77120827D01*
X81480264Y-77266498D01*
X81480261Y-77266510D01*
X81449500Y-77421153D01*
X74575999Y-77421153D01*
X74575999Y-77126628D01*
X74569591Y-77067017D01*
X74566234Y-77058017D01*
X74519297Y-76932171D01*
X74519293Y-76932164D01*
X74433047Y-76816955D01*
X74433044Y-76816952D01*
X74317835Y-76730706D01*
X74317828Y-76730702D01*
X74182982Y-76680408D01*
X74182983Y-76680408D01*
X74123383Y-76674001D01*
X74123381Y-76674000D01*
X74123373Y-76674000D01*
X74123364Y-76674000D01*
X72376629Y-76674000D01*
X72376623Y-76674001D01*
X72317016Y-76680408D01*
X72182171Y-76730702D01*
X72182164Y-76730706D01*
X72066955Y-76816952D01*
X72066952Y-76816955D01*
X71980706Y-76932164D01*
X71980702Y-76932171D01*
X71930408Y-77067017D01*
X71928626Y-77074562D01*
X71925586Y-77073843D01*
X71904325Y-77125082D01*
X71846907Y-77164893D01*
X71777081Y-77167343D01*
X71720142Y-77134895D01*
X71573833Y-76988586D01*
X71573831Y-76988584D01*
X71404975Y-76865903D01*
X71219011Y-76771149D01*
X71020506Y-76706650D01*
X70842543Y-76678464D01*
X70814358Y-76674000D01*
X70605642Y-76674000D01*
X70580846Y-76677927D01*
X70399493Y-76706650D01*
X70200988Y-76771149D01*
X70015024Y-76865903D01*
X69846166Y-76988586D01*
X69698586Y-77136166D01*
X69575903Y-77305024D01*
X69550203Y-77355462D01*
X69502228Y-77406257D01*
X69434406Y-77423051D01*
X69368272Y-77400512D01*
X69329234Y-77355459D01*
X69303671Y-77305288D01*
X69303671Y-77305287D01*
X69267730Y-77255822D01*
X68711342Y-77812210D01*
X68702553Y-77779409D01*
X68627313Y-77649091D01*
X68520909Y-77542687D01*
X68390591Y-77467447D01*
X68357788Y-77458657D01*
X68914176Y-76902268D01*
X68914176Y-76902267D01*
X68864714Y-76866330D01*
X68678820Y-76771612D01*
X68480389Y-76707137D01*
X68274324Y-76674500D01*
X68065676Y-76674500D01*
X67859610Y-76707137D01*
X67661179Y-76771612D01*
X67475285Y-76866330D01*
X67425822Y-76902268D01*
X67425821Y-76902268D01*
X67982211Y-77458657D01*
X67949409Y-77467447D01*
X67819091Y-77542687D01*
X67712687Y-77649091D01*
X67637447Y-77779409D01*
X67628657Y-77812210D01*
X67072268Y-77255821D01*
X67072268Y-77255822D01*
X67036330Y-77305285D01*
X66941612Y-77491179D01*
X66877137Y-77689610D01*
X66844500Y-77895675D01*
X61250000Y-77895675D01*
X61250000Y-77750000D01*
X60250000Y-77750000D01*
X60250000Y-78750000D01*
X59750000Y-78750000D01*
X59750000Y-77750000D01*
X58750000Y-77750000D01*
X58750000Y-78297844D01*
X54397079Y-78297844D01*
X54036818Y-77937583D01*
X54022114Y-77910655D01*
X54005522Y-77884837D01*
X54004630Y-77878636D01*
X54003333Y-77876260D01*
X54000499Y-77849902D01*
X54000499Y-76702155D01*
X58750000Y-76702155D01*
X58750000Y-77250000D01*
X59750000Y-77250000D01*
X60250000Y-77250000D01*
X61250000Y-77250000D01*
X61250000Y-76702172D01*
X61249999Y-76702155D01*
X61243598Y-76642627D01*
X61243596Y-76642620D01*
X61193354Y-76507913D01*
X61193350Y-76507906D01*
X61107190Y-76392812D01*
X61107187Y-76392809D01*
X60992093Y-76306649D01*
X60992086Y-76306645D01*
X60857379Y-76256403D01*
X60857372Y-76256401D01*
X60797844Y-76250000D01*
X60250000Y-76250000D01*
X60250000Y-77250000D01*
X59750000Y-77250000D01*
X59750000Y-76250000D01*
X59202155Y-76250000D01*
X59142627Y-76256401D01*
X59142620Y-76256403D01*
X59007913Y-76306645D01*
X59007906Y-76306649D01*
X58892812Y-76392809D01*
X58892809Y-76392812D01*
X58806649Y-76507906D01*
X58806645Y-76507913D01*
X58756403Y-76642620D01*
X58756401Y-76642627D01*
X58750000Y-76702155D01*
X54000499Y-76702155D01*
X54000499Y-76702129D01*
X54000498Y-76702123D01*
X54000497Y-76702116D01*
X53994091Y-76642517D01*
X53971767Y-76582664D01*
X53943797Y-76507671D01*
X53943793Y-76507664D01*
X53857547Y-76392455D01*
X53857544Y-76392452D01*
X53742335Y-76306206D01*
X53742328Y-76306202D01*
X53607482Y-76255908D01*
X53607483Y-76255908D01*
X53547883Y-76249501D01*
X53547881Y-76249500D01*
X53547873Y-76249500D01*
X53547864Y-76249500D01*
X51952129Y-76249500D01*
X51952123Y-76249501D01*
X51892516Y-76255908D01*
X51757671Y-76306202D01*
X51757664Y-76306206D01*
X51642455Y-76392452D01*
X51642452Y-76392455D01*
X51556206Y-76507664D01*
X51556202Y-76507671D01*
X51505908Y-76642517D01*
X51502470Y-76674500D01*
X51499501Y-76702123D01*
X51499500Y-76702135D01*
X50500500Y-76702135D01*
X50500500Y-76059030D01*
X125594050Y-76059030D01*
X125594050Y-76289669D01*
X125630127Y-76517452D01*
X125701397Y-76736796D01*
X125806100Y-76942285D01*
X125861503Y-77018541D01*
X125861504Y-77018542D01*
X126659250Y-76220796D01*
X126659250Y-76227011D01*
X126686509Y-76328744D01*
X126739170Y-76419956D01*
X126813644Y-76494430D01*
X126904856Y-76547091D01*
X127006589Y-76574350D01*
X127012803Y-76574350D01*
X126215056Y-77372094D01*
X126291317Y-77427501D01*
X126496803Y-77532202D01*
X126716147Y-77603472D01*
X126943931Y-77639550D01*
X127174569Y-77639550D01*
X127402352Y-77603472D01*
X127621696Y-77532202D01*
X127827174Y-77427505D01*
X127827180Y-77427501D01*
X127903441Y-77372094D01*
X127903442Y-77372094D01*
X127105697Y-76574350D01*
X127111911Y-76574350D01*
X127213644Y-76547091D01*
X127304856Y-76494430D01*
X127379330Y-76419956D01*
X127431991Y-76328744D01*
X127459250Y-76227011D01*
X127459250Y-76220798D01*
X128256994Y-77018542D01*
X128281790Y-77016590D01*
X128283942Y-77014931D01*
X128353555Y-77008946D01*
X128415353Y-77041546D01*
X128429257Y-77057591D01*
X128479416Y-77126628D01*
X128481277Y-77129189D01*
X128644411Y-77292323D01*
X128831056Y-77427929D01*
X129036617Y-77532667D01*
X129214100Y-77590334D01*
X129256030Y-77603959D01*
X129369964Y-77622004D01*
X129483897Y-77640050D01*
X129483898Y-77640050D01*
X129714602Y-77640050D01*
X129714603Y-77640050D01*
X129942469Y-77603959D01*
X130161883Y-77532667D01*
X130367444Y-77427929D01*
X130554089Y-77292323D01*
X130717223Y-77129189D01*
X130768933Y-77058015D01*
X130824262Y-77015352D01*
X130893875Y-77009373D01*
X130955670Y-77041979D01*
X130969563Y-77058012D01*
X131021277Y-77129189D01*
X131184411Y-77292323D01*
X131371056Y-77427929D01*
X131576617Y-77532667D01*
X131754100Y-77590334D01*
X131796030Y-77603959D01*
X131909964Y-77622004D01*
X132023897Y-77640050D01*
X132023898Y-77640050D01*
X132254602Y-77640050D01*
X132254603Y-77640050D01*
X132482469Y-77603959D01*
X132701883Y-77532667D01*
X132907444Y-77427929D01*
X133094089Y-77292323D01*
X133257223Y-77129189D01*
X133308933Y-77058015D01*
X133364262Y-77015352D01*
X133433875Y-77009373D01*
X133495670Y-77041979D01*
X133509563Y-77058012D01*
X133561277Y-77129189D01*
X133724411Y-77292323D01*
X133911056Y-77427929D01*
X134116617Y-77532667D01*
X134294100Y-77590334D01*
X134336030Y-77603959D01*
X134449964Y-77622004D01*
X134563897Y-77640050D01*
X134563898Y-77640050D01*
X134794602Y-77640050D01*
X134794603Y-77640050D01*
X135022469Y-77603959D01*
X135241883Y-77532667D01*
X135447444Y-77427929D01*
X135634089Y-77292323D01*
X135797223Y-77129189D01*
X135849241Y-77057591D01*
X135904570Y-77014928D01*
X135974183Y-77008949D01*
X135987255Y-77015846D01*
X136021504Y-77018542D01*
X136819250Y-76220796D01*
X136819250Y-76227011D01*
X136846509Y-76328744D01*
X136899170Y-76419956D01*
X136973644Y-76494430D01*
X137064856Y-76547091D01*
X137166589Y-76574350D01*
X137172803Y-76574350D01*
X136375056Y-77372094D01*
X136451317Y-77427501D01*
X136656803Y-77532202D01*
X136876147Y-77603472D01*
X137103931Y-77639550D01*
X137334569Y-77639550D01*
X137562352Y-77603472D01*
X137781696Y-77532202D01*
X137987174Y-77427505D01*
X137987180Y-77427501D01*
X138063441Y-77372094D01*
X138063442Y-77372094D01*
X137265697Y-76574350D01*
X137271911Y-76574350D01*
X137373644Y-76547091D01*
X137464856Y-76494430D01*
X137539330Y-76419956D01*
X137591991Y-76328744D01*
X137619250Y-76227011D01*
X137619250Y-76220798D01*
X138416994Y-77018542D01*
X138441790Y-77016590D01*
X138443942Y-77014931D01*
X138513555Y-77008946D01*
X138575353Y-77041546D01*
X138589257Y-77057591D01*
X138639416Y-77126628D01*
X138641277Y-77129189D01*
X138804411Y-77292323D01*
X138991056Y-77427929D01*
X139196617Y-77532667D01*
X139374100Y-77590334D01*
X139416030Y-77603959D01*
X139529964Y-77622004D01*
X139643897Y-77640050D01*
X139643898Y-77640050D01*
X139874602Y-77640050D01*
X139874603Y-77640050D01*
X140102469Y-77603959D01*
X140321883Y-77532667D01*
X140527444Y-77427929D01*
X140714089Y-77292323D01*
X140877223Y-77129189D01*
X140928933Y-77058015D01*
X140984262Y-77015352D01*
X141053875Y-77009373D01*
X141115670Y-77041979D01*
X141129563Y-77058012D01*
X141181277Y-77129189D01*
X141344411Y-77292323D01*
X141531056Y-77427929D01*
X141736617Y-77532667D01*
X141914100Y-77590334D01*
X141956030Y-77603959D01*
X142069964Y-77622004D01*
X142183897Y-77640050D01*
X142183898Y-77640050D01*
X142414602Y-77640050D01*
X142414603Y-77640050D01*
X142642469Y-77603959D01*
X142861883Y-77532667D01*
X143067444Y-77427929D01*
X143254089Y-77292323D01*
X143417223Y-77129189D01*
X143468933Y-77058015D01*
X143524262Y-77015352D01*
X143593875Y-77009373D01*
X143655670Y-77041979D01*
X143669563Y-77058012D01*
X143721277Y-77129189D01*
X143884411Y-77292323D01*
X144071056Y-77427929D01*
X144276617Y-77532667D01*
X144454100Y-77590334D01*
X144496030Y-77603959D01*
X144609964Y-77622004D01*
X144723897Y-77640050D01*
X144723898Y-77640050D01*
X144954602Y-77640050D01*
X144954603Y-77640050D01*
X145182469Y-77603959D01*
X145401883Y-77532667D01*
X145607444Y-77427929D01*
X145794089Y-77292323D01*
X145957223Y-77129189D01*
X146092829Y-76942544D01*
X146197567Y-76736983D01*
X146268859Y-76517569D01*
X146304950Y-76289703D01*
X146304950Y-76058997D01*
X146272524Y-75854270D01*
X146268859Y-75831130D01*
X146250410Y-75774350D01*
X146197567Y-75611717D01*
X146092829Y-75406156D01*
X145957223Y-75219511D01*
X145794089Y-75056377D01*
X145607444Y-74920771D01*
X145401883Y-74816033D01*
X145311514Y-74786670D01*
X145182469Y-74744740D01*
X144985758Y-74713584D01*
X144954603Y-74708650D01*
X144723897Y-74708650D01*
X144696489Y-74712991D01*
X144496030Y-74744740D01*
X144325055Y-74800294D01*
X144276617Y-74816033D01*
X144276614Y-74816034D01*
X144276612Y-74816035D01*
X144071055Y-74920771D01*
X143964567Y-74998139D01*
X143884411Y-75056377D01*
X143884409Y-75056379D01*
X143884408Y-75056379D01*
X143721278Y-75219509D01*
X143669568Y-75290682D01*
X143614237Y-75333348D01*
X143544624Y-75339326D01*
X143482829Y-75306720D01*
X143468932Y-75290682D01*
X143417227Y-75219517D01*
X143417223Y-75219511D01*
X143254089Y-75056377D01*
X143067444Y-74920771D01*
X142861883Y-74816033D01*
X142771514Y-74786670D01*
X142642469Y-74744740D01*
X142445758Y-74713584D01*
X142414603Y-74708650D01*
X142183897Y-74708650D01*
X142156489Y-74712991D01*
X141956030Y-74744740D01*
X141785055Y-74800294D01*
X141736617Y-74816033D01*
X141736614Y-74816034D01*
X141736612Y-74816035D01*
X141531055Y-74920771D01*
X141424567Y-74998139D01*
X141344411Y-75056377D01*
X141344409Y-75056379D01*
X141344408Y-75056379D01*
X141181278Y-75219509D01*
X141129568Y-75290682D01*
X141074237Y-75333348D01*
X141004624Y-75339326D01*
X140942829Y-75306720D01*
X140928932Y-75290682D01*
X140877227Y-75219517D01*
X140877223Y-75219511D01*
X140714089Y-75056377D01*
X140527444Y-74920771D01*
X140321883Y-74816033D01*
X140231514Y-74786670D01*
X140102469Y-74744740D01*
X139905758Y-74713584D01*
X139874603Y-74708650D01*
X139643897Y-74708650D01*
X139616489Y-74712991D01*
X139416030Y-74744740D01*
X139245055Y-74800294D01*
X139196617Y-74816033D01*
X139196614Y-74816034D01*
X139196612Y-74816035D01*
X138991055Y-74920771D01*
X138884567Y-74998139D01*
X138804411Y-75056377D01*
X138804409Y-75056379D01*
X138804408Y-75056379D01*
X138641279Y-75219508D01*
X138641272Y-75219517D01*
X138589258Y-75291107D01*
X138533928Y-75333773D01*
X138464315Y-75339751D01*
X138451240Y-75332852D01*
X138416994Y-75330156D01*
X137619250Y-76127901D01*
X137619250Y-76121689D01*
X137591991Y-76019956D01*
X137539330Y-75928744D01*
X137464856Y-75854270D01*
X137373644Y-75801609D01*
X137271911Y-75774350D01*
X137265696Y-75774350D01*
X138063442Y-74976604D01*
X138063441Y-74976603D01*
X137987185Y-74921200D01*
X137781696Y-74816497D01*
X137562352Y-74745227D01*
X137334569Y-74709150D01*
X137103931Y-74709150D01*
X136876147Y-74745227D01*
X136656803Y-74816497D01*
X136451319Y-74921197D01*
X136375057Y-74976604D01*
X137172804Y-75774350D01*
X137166589Y-75774350D01*
X137064856Y-75801609D01*
X136973644Y-75854270D01*
X136899170Y-75928744D01*
X136846509Y-76019956D01*
X136819250Y-76121689D01*
X136819250Y-76127903D01*
X136021504Y-75330157D01*
X135996697Y-75332110D01*
X135994541Y-75333773D01*
X135924927Y-75339749D01*
X135863133Y-75307140D01*
X135849240Y-75291106D01*
X135797227Y-75219517D01*
X135797223Y-75219511D01*
X135634089Y-75056377D01*
X135447444Y-74920771D01*
X135241883Y-74816033D01*
X135151514Y-74786670D01*
X135022469Y-74744740D01*
X134825758Y-74713584D01*
X134794603Y-74708650D01*
X134563897Y-74708650D01*
X134536489Y-74712991D01*
X134336030Y-74744740D01*
X134165055Y-74800294D01*
X134116617Y-74816033D01*
X134116614Y-74816034D01*
X134116612Y-74816035D01*
X133911055Y-74920771D01*
X133804567Y-74998139D01*
X133724411Y-75056377D01*
X133724409Y-75056379D01*
X133724408Y-75056379D01*
X133561278Y-75219509D01*
X133509568Y-75290682D01*
X133454237Y-75333348D01*
X133384624Y-75339326D01*
X133322829Y-75306720D01*
X133308932Y-75290682D01*
X133257227Y-75219517D01*
X133257223Y-75219511D01*
X133094089Y-75056377D01*
X132907444Y-74920771D01*
X132701883Y-74816033D01*
X132611514Y-74786670D01*
X132482469Y-74744740D01*
X132285758Y-74713584D01*
X132254603Y-74708650D01*
X132023897Y-74708650D01*
X131996489Y-74712991D01*
X131796030Y-74744740D01*
X131625055Y-74800294D01*
X131576617Y-74816033D01*
X131576614Y-74816034D01*
X131576612Y-74816035D01*
X131371055Y-74920771D01*
X131264567Y-74998139D01*
X131184411Y-75056377D01*
X131184409Y-75056379D01*
X131184408Y-75056379D01*
X131021278Y-75219509D01*
X130969568Y-75290682D01*
X130914237Y-75333348D01*
X130844624Y-75339326D01*
X130782829Y-75306720D01*
X130768932Y-75290682D01*
X130717227Y-75219517D01*
X130717223Y-75219511D01*
X130554089Y-75056377D01*
X130367444Y-74920771D01*
X130161883Y-74816033D01*
X130071514Y-74786670D01*
X129942469Y-74744740D01*
X129745758Y-74713584D01*
X129714603Y-74708650D01*
X129483897Y-74708650D01*
X129456489Y-74712991D01*
X129256030Y-74744740D01*
X129085055Y-74800294D01*
X129036617Y-74816033D01*
X129036614Y-74816034D01*
X129036612Y-74816035D01*
X128831055Y-74920771D01*
X128724567Y-74998139D01*
X128644411Y-75056377D01*
X128644409Y-75056379D01*
X128644408Y-75056379D01*
X128481279Y-75219508D01*
X128481272Y-75219517D01*
X128429258Y-75291107D01*
X128373928Y-75333773D01*
X128304315Y-75339751D01*
X128291240Y-75332852D01*
X128256994Y-75330156D01*
X127459250Y-76127901D01*
X127459250Y-76121689D01*
X127431991Y-76019956D01*
X127379330Y-75928744D01*
X127304856Y-75854270D01*
X127213644Y-75801609D01*
X127111911Y-75774350D01*
X127105696Y-75774350D01*
X127903442Y-74976604D01*
X127903441Y-74976603D01*
X127827185Y-74921200D01*
X127621696Y-74816497D01*
X127402352Y-74745227D01*
X127174569Y-74709150D01*
X126943931Y-74709150D01*
X126716147Y-74745227D01*
X126496803Y-74816497D01*
X126291319Y-74921197D01*
X126215057Y-74976604D01*
X127012804Y-75774350D01*
X127006589Y-75774350D01*
X126904856Y-75801609D01*
X126813644Y-75854270D01*
X126739170Y-75928744D01*
X126686509Y-76019956D01*
X126659250Y-76121689D01*
X126659250Y-76127903D01*
X125861504Y-75330157D01*
X125806097Y-75406419D01*
X125701397Y-75611903D01*
X125630127Y-75831247D01*
X125594050Y-76059030D01*
X50500500Y-76059030D01*
X50500500Y-67452135D01*
X51999500Y-67452135D01*
X51999500Y-69047870D01*
X51999501Y-69047876D01*
X52005908Y-69107483D01*
X52056202Y-69242328D01*
X52056206Y-69242335D01*
X52142452Y-69357544D01*
X52142455Y-69357547D01*
X52257664Y-69443793D01*
X52257671Y-69443797D01*
X52392517Y-69494091D01*
X52392516Y-69494091D01*
X52399444Y-69494835D01*
X52452127Y-69500500D01*
X54047872Y-69500499D01*
X54107483Y-69494091D01*
X54242331Y-69443796D01*
X54357546Y-69357546D01*
X54443796Y-69242331D01*
X54494091Y-69107483D01*
X54500500Y-69047873D01*
X54500500Y-68974500D01*
X54520185Y-68907461D01*
X54572989Y-68861706D01*
X54624500Y-68850500D01*
X54920234Y-68850500D01*
X54987273Y-68870185D01*
X54989125Y-68871398D01*
X55120814Y-68959390D01*
X55120827Y-68959397D01*
X55266498Y-69019735D01*
X55266503Y-69019737D01*
X55421158Y-69050500D01*
X55421847Y-69050637D01*
X55483758Y-69083022D01*
X55485337Y-69084573D01*
X55631284Y-69230520D01*
X55631286Y-69230521D01*
X55631290Y-69230524D01*
X55693621Y-69266510D01*
X55768216Y-69309577D01*
X55920943Y-69350501D01*
X55920945Y-69350501D01*
X56086654Y-69350501D01*
X56086670Y-69350500D01*
X59075500Y-69350500D01*
X59142539Y-69370185D01*
X59188294Y-69422989D01*
X59199500Y-69474500D01*
X59199500Y-69578846D01*
X59230261Y-69733489D01*
X59230264Y-69733501D01*
X59290602Y-69879172D01*
X59290609Y-69879185D01*
X59378210Y-70010288D01*
X59378213Y-70010292D01*
X59489707Y-70121786D01*
X59489711Y-70121789D01*
X59620814Y-70209390D01*
X59620827Y-70209397D01*
X59758683Y-70266498D01*
X59766503Y-70269737D01*
X59921153Y-70300499D01*
X59921156Y-70300500D01*
X59921158Y-70300500D01*
X60078844Y-70300500D01*
X60078845Y-70300499D01*
X60233497Y-70269737D01*
X60379179Y-70209394D01*
X60433663Y-70172989D01*
X60510875Y-70121398D01*
X60577553Y-70100520D01*
X60579766Y-70100500D01*
X63863445Y-70100500D01*
X63930484Y-70120185D01*
X63976239Y-70172989D01*
X63986183Y-70242147D01*
X63981159Y-70260411D01*
X63982031Y-70260676D01*
X63980261Y-70266510D01*
X63949500Y-70421153D01*
X63949500Y-70578846D01*
X63978663Y-70725459D01*
X63972436Y-70795051D01*
X63929573Y-70850228D01*
X63863683Y-70873472D01*
X63857046Y-70873650D01*
X62933579Y-70873650D01*
X62933573Y-70873651D01*
X62873966Y-70880058D01*
X62739121Y-70930352D01*
X62739114Y-70930356D01*
X62623905Y-71016602D01*
X62564403Y-71096085D01*
X62508468Y-71137956D01*
X62438776Y-71142939D01*
X62377454Y-71109452D01*
X62365870Y-71096084D01*
X62306636Y-71016959D01*
X62191543Y-70930799D01*
X62191536Y-70930795D01*
X62056829Y-70880553D01*
X62056822Y-70880551D01*
X61997294Y-70874150D01*
X61445450Y-70874150D01*
X61445450Y-71695138D01*
X61388443Y-71662225D01*
X61261276Y-71628150D01*
X61129624Y-71628150D01*
X61002457Y-71662225D01*
X60945450Y-71695138D01*
X60945450Y-70874150D01*
X60393605Y-70874150D01*
X60334077Y-70880551D01*
X60334070Y-70880553D01*
X60199363Y-70930795D01*
X60199356Y-70930799D01*
X60084262Y-71016959D01*
X60025028Y-71096085D01*
X59969094Y-71137955D01*
X59899402Y-71142939D01*
X59838079Y-71109453D01*
X59826496Y-71096085D01*
X59797182Y-71056928D01*
X59766996Y-71016604D01*
X59766994Y-71016603D01*
X59766994Y-71016602D01*
X59651785Y-70930356D01*
X59651778Y-70930352D01*
X59516932Y-70880058D01*
X59516933Y-70880058D01*
X59457333Y-70873651D01*
X59457331Y-70873650D01*
X59457323Y-70873650D01*
X59457314Y-70873650D01*
X57853579Y-70873650D01*
X57853573Y-70873651D01*
X57793966Y-70880058D01*
X57659121Y-70930352D01*
X57659114Y-70930356D01*
X57543905Y-71016602D01*
X57484716Y-71095668D01*
X57428782Y-71137538D01*
X57359090Y-71142522D01*
X57297767Y-71109036D01*
X57286184Y-71095668D01*
X57252707Y-71050949D01*
X57226996Y-71016604D01*
X57226994Y-71016603D01*
X57226994Y-71016602D01*
X57111785Y-70930356D01*
X57111778Y-70930352D01*
X56976932Y-70880058D01*
X56976933Y-70880058D01*
X56917333Y-70873651D01*
X56917331Y-70873650D01*
X56917323Y-70873650D01*
X56917314Y-70873650D01*
X55313579Y-70873650D01*
X55313573Y-70873651D01*
X55253966Y-70880058D01*
X55119121Y-70930352D01*
X55119114Y-70930356D01*
X55003905Y-71016602D01*
X55003902Y-71016605D01*
X54917656Y-71131814D01*
X54917652Y-71131821D01*
X54867358Y-71266667D01*
X54863721Y-71300500D01*
X54860951Y-71326273D01*
X54860950Y-71326285D01*
X54860950Y-72930020D01*
X54860951Y-72930026D01*
X54867358Y-72989633D01*
X54917652Y-73124478D01*
X54917656Y-73124485D01*
X55003902Y-73239694D01*
X55003905Y-73239697D01*
X55119114Y-73325943D01*
X55119121Y-73325947D01*
X55253967Y-73376241D01*
X55253966Y-73376241D01*
X55260894Y-73376985D01*
X55313577Y-73382650D01*
X56917322Y-73382649D01*
X56976933Y-73376241D01*
X57111781Y-73325946D01*
X57226996Y-73239696D01*
X57252546Y-73205565D01*
X57286184Y-73160632D01*
X57342117Y-73118761D01*
X57411809Y-73113777D01*
X57473132Y-73147263D01*
X57484716Y-73160632D01*
X57543902Y-73239694D01*
X57543905Y-73239697D01*
X57659114Y-73325943D01*
X57659121Y-73325947D01*
X57793967Y-73376241D01*
X57793966Y-73376241D01*
X57800894Y-73376985D01*
X57853577Y-73382650D01*
X59457322Y-73382649D01*
X59516933Y-73376241D01*
X59651781Y-73325946D01*
X59766996Y-73239696D01*
X59826496Y-73160214D01*
X59882429Y-73118344D01*
X59952121Y-73113360D01*
X60013444Y-73146845D01*
X60025028Y-73160215D01*
X60084259Y-73239337D01*
X60084262Y-73239340D01*
X60199356Y-73325500D01*
X60199363Y-73325504D01*
X60334070Y-73375746D01*
X60334077Y-73375748D01*
X60393605Y-73382149D01*
X60393622Y-73382150D01*
X60945450Y-73382150D01*
X60945450Y-72561162D01*
X61002457Y-72594075D01*
X61129624Y-72628150D01*
X61261276Y-72628150D01*
X61388443Y-72594075D01*
X61445450Y-72561162D01*
X61445450Y-73382150D01*
X61997278Y-73382150D01*
X61997294Y-73382149D01*
X62056822Y-73375748D01*
X62056829Y-73375746D01*
X62191536Y-73325504D01*
X62191543Y-73325500D01*
X62306636Y-73239341D01*
X62365870Y-73160215D01*
X62421804Y-73118344D01*
X62491495Y-73113360D01*
X62552818Y-73146845D01*
X62564403Y-73160214D01*
X62608810Y-73219533D01*
X62623637Y-73239340D01*
X62623905Y-73239697D01*
X62739114Y-73325943D01*
X62739121Y-73325947D01*
X62873967Y-73376241D01*
X62873966Y-73376241D01*
X62880894Y-73376985D01*
X62933577Y-73382650D01*
X64537322Y-73382649D01*
X64596933Y-73376241D01*
X64731781Y-73325946D01*
X64846996Y-73239696D01*
X64872546Y-73205565D01*
X64906184Y-73160632D01*
X64962117Y-73118761D01*
X65031809Y-73113777D01*
X65093132Y-73147263D01*
X65104716Y-73160632D01*
X65163902Y-73239694D01*
X65163905Y-73239697D01*
X65279114Y-73325943D01*
X65279121Y-73325947D01*
X65413967Y-73376241D01*
X65413966Y-73376241D01*
X65420894Y-73376985D01*
X65473577Y-73382650D01*
X67077322Y-73382649D01*
X67136933Y-73376241D01*
X67271781Y-73325946D01*
X67386996Y-73239696D01*
X67412546Y-73205565D01*
X67446184Y-73160632D01*
X67502117Y-73118761D01*
X67571809Y-73113777D01*
X67633132Y-73147263D01*
X67644716Y-73160632D01*
X67703902Y-73239694D01*
X67703905Y-73239697D01*
X67819114Y-73325943D01*
X67819121Y-73325947D01*
X67953967Y-73376241D01*
X67953966Y-73376241D01*
X67960894Y-73376985D01*
X68013577Y-73382650D01*
X69617322Y-73382649D01*
X69676933Y-73376241D01*
X69811781Y-73325946D01*
X69926996Y-73239696D01*
X69952546Y-73205565D01*
X69986184Y-73160632D01*
X70042117Y-73118761D01*
X70111809Y-73113777D01*
X70173132Y-73147263D01*
X70184716Y-73160632D01*
X70243902Y-73239694D01*
X70243905Y-73239697D01*
X70359114Y-73325943D01*
X70359121Y-73325947D01*
X70493967Y-73376241D01*
X70493966Y-73376241D01*
X70500894Y-73376985D01*
X70553577Y-73382650D01*
X72157322Y-73382649D01*
X72216933Y-73376241D01*
X72351781Y-73325946D01*
X72466996Y-73239696D01*
X72526496Y-73160214D01*
X72582429Y-73118344D01*
X72652121Y-73113360D01*
X72713444Y-73146845D01*
X72725028Y-73160215D01*
X72784259Y-73239337D01*
X72784262Y-73239340D01*
X72899356Y-73325500D01*
X72899363Y-73325504D01*
X73034070Y-73375746D01*
X73034077Y-73375748D01*
X73093605Y-73382149D01*
X73093622Y-73382150D01*
X73645450Y-73382150D01*
X73645450Y-72561162D01*
X73702457Y-72594075D01*
X73829624Y-72628150D01*
X73961276Y-72628150D01*
X74088443Y-72594075D01*
X74145450Y-72561162D01*
X74145450Y-73382150D01*
X74697278Y-73382150D01*
X74697294Y-73382149D01*
X74756822Y-73375748D01*
X74756829Y-73375746D01*
X74891536Y-73325504D01*
X74891543Y-73325500D01*
X75006636Y-73239341D01*
X75065870Y-73160215D01*
X75121804Y-73118344D01*
X75191495Y-73113360D01*
X75252818Y-73146845D01*
X75264403Y-73160214D01*
X75308810Y-73219533D01*
X75323637Y-73239340D01*
X75323905Y-73239697D01*
X75439114Y-73325943D01*
X75439121Y-73325947D01*
X75573967Y-73376241D01*
X75573966Y-73376241D01*
X75580894Y-73376985D01*
X75633577Y-73382650D01*
X77237322Y-73382649D01*
X77296933Y-73376241D01*
X77431781Y-73325946D01*
X77546996Y-73239696D01*
X77572546Y-73205565D01*
X77606184Y-73160632D01*
X77662117Y-73118761D01*
X77731809Y-73113777D01*
X77793132Y-73147263D01*
X77804716Y-73160632D01*
X77863902Y-73239694D01*
X77863905Y-73239697D01*
X77979114Y-73325943D01*
X77979121Y-73325947D01*
X78113967Y-73376241D01*
X78113966Y-73376241D01*
X78120894Y-73376985D01*
X78173577Y-73382650D01*
X79777322Y-73382649D01*
X79836933Y-73376241D01*
X79971781Y-73325946D01*
X80086996Y-73239696D01*
X80112546Y-73205565D01*
X80146184Y-73160632D01*
X80202117Y-73118761D01*
X80271809Y-73113777D01*
X80333132Y-73147263D01*
X80344716Y-73160632D01*
X80403902Y-73239694D01*
X80403905Y-73239697D01*
X80519114Y-73325943D01*
X80519121Y-73325947D01*
X80653967Y-73376241D01*
X80653966Y-73376241D01*
X80660894Y-73376985D01*
X80713577Y-73382650D01*
X82317322Y-73382649D01*
X82376933Y-73376241D01*
X82511781Y-73325946D01*
X82626996Y-73239696D01*
X82652546Y-73205565D01*
X82686184Y-73160632D01*
X82742117Y-73118761D01*
X82811809Y-73113777D01*
X82873132Y-73147263D01*
X82884716Y-73160632D01*
X82943902Y-73239694D01*
X82943905Y-73239697D01*
X83059114Y-73325943D01*
X83059121Y-73325947D01*
X83193967Y-73376241D01*
X83193966Y-73376241D01*
X83200894Y-73376985D01*
X83253577Y-73382650D01*
X84857322Y-73382649D01*
X84916933Y-73376241D01*
X85051781Y-73325946D01*
X85166996Y-73239696D01*
X85226496Y-73160214D01*
X85282429Y-73118344D01*
X85352121Y-73113360D01*
X85413444Y-73146845D01*
X85425028Y-73160215D01*
X85484259Y-73239337D01*
X85484262Y-73239340D01*
X85599356Y-73325500D01*
X85599363Y-73325504D01*
X85734070Y-73375746D01*
X85734077Y-73375748D01*
X85793605Y-73382149D01*
X85793622Y-73382150D01*
X86345450Y-73382150D01*
X86345450Y-72561162D01*
X86402457Y-72594075D01*
X86529624Y-72628150D01*
X86661276Y-72628150D01*
X86788443Y-72594075D01*
X86845450Y-72561162D01*
X86845450Y-73382150D01*
X87397278Y-73382150D01*
X87397294Y-73382149D01*
X87456822Y-73375748D01*
X87456829Y-73375746D01*
X87591536Y-73325504D01*
X87591543Y-73325500D01*
X87706636Y-73239341D01*
X87765870Y-73160215D01*
X87821804Y-73118344D01*
X87891495Y-73113360D01*
X87952818Y-73146845D01*
X87964403Y-73160214D01*
X88008810Y-73219533D01*
X88023637Y-73239340D01*
X88023905Y-73239697D01*
X88139114Y-73325943D01*
X88139121Y-73325947D01*
X88273967Y-73376241D01*
X88273966Y-73376241D01*
X88280894Y-73376985D01*
X88333577Y-73382650D01*
X89937322Y-73382649D01*
X89996933Y-73376241D01*
X90131781Y-73325946D01*
X90246996Y-73239696D01*
X90272546Y-73205565D01*
X90306184Y-73160632D01*
X90362117Y-73118761D01*
X90431809Y-73113777D01*
X90493132Y-73147263D01*
X90504716Y-73160632D01*
X90563902Y-73239694D01*
X90563905Y-73239697D01*
X90679114Y-73325943D01*
X90679121Y-73325947D01*
X90813967Y-73376241D01*
X90813966Y-73376241D01*
X90820894Y-73376985D01*
X90873577Y-73382650D01*
X92477322Y-73382649D01*
X92536933Y-73376241D01*
X92671781Y-73325946D01*
X92786996Y-73239696D01*
X92812546Y-73205565D01*
X92846184Y-73160632D01*
X92902117Y-73118761D01*
X92971809Y-73113777D01*
X93033132Y-73147263D01*
X93044716Y-73160632D01*
X93103902Y-73239694D01*
X93103905Y-73239697D01*
X93219114Y-73325943D01*
X93219121Y-73325947D01*
X93353967Y-73376241D01*
X93353966Y-73376241D01*
X93360894Y-73376985D01*
X93413577Y-73382650D01*
X95017322Y-73382649D01*
X95076933Y-73376241D01*
X95211781Y-73325946D01*
X95326996Y-73239696D01*
X95352546Y-73205565D01*
X95386184Y-73160632D01*
X95442117Y-73118761D01*
X95511809Y-73113777D01*
X95573132Y-73147263D01*
X95584716Y-73160632D01*
X95643902Y-73239694D01*
X95643905Y-73239697D01*
X95759114Y-73325943D01*
X95759121Y-73325947D01*
X95893967Y-73376241D01*
X95893966Y-73376241D01*
X95900894Y-73376985D01*
X95953577Y-73382650D01*
X97557322Y-73382649D01*
X97616933Y-73376241D01*
X97751781Y-73325946D01*
X97866996Y-73239696D01*
X97926496Y-73160214D01*
X97982429Y-73118344D01*
X98052121Y-73113360D01*
X98113444Y-73146845D01*
X98125028Y-73160215D01*
X98184259Y-73239337D01*
X98184262Y-73239340D01*
X98299356Y-73325500D01*
X98299363Y-73325504D01*
X98434070Y-73375746D01*
X98434077Y-73375748D01*
X98493605Y-73382149D01*
X98493622Y-73382150D01*
X99045450Y-73382150D01*
X99045450Y-72561162D01*
X99102457Y-72594075D01*
X99229624Y-72628150D01*
X99361276Y-72628150D01*
X99488443Y-72594075D01*
X99545450Y-72561162D01*
X99545450Y-73382150D01*
X100097278Y-73382150D01*
X100097294Y-73382149D01*
X100156822Y-73375748D01*
X100156829Y-73375746D01*
X100291536Y-73325504D01*
X100291543Y-73325500D01*
X100406636Y-73239341D01*
X100465870Y-73160215D01*
X100521804Y-73118344D01*
X100591495Y-73113360D01*
X100652818Y-73146845D01*
X100664403Y-73160214D01*
X100708810Y-73219533D01*
X100723637Y-73239340D01*
X100723905Y-73239697D01*
X100839114Y-73325943D01*
X100839121Y-73325947D01*
X100973967Y-73376241D01*
X100973966Y-73376241D01*
X100980894Y-73376985D01*
X101033577Y-73382650D01*
X102637322Y-73382649D01*
X102696933Y-73376241D01*
X102831781Y-73325946D01*
X102946996Y-73239696D01*
X102972546Y-73205565D01*
X103006184Y-73160632D01*
X103062117Y-73118761D01*
X103131809Y-73113777D01*
X103193132Y-73147263D01*
X103204716Y-73160632D01*
X103263902Y-73239694D01*
X103263905Y-73239697D01*
X103379114Y-73325943D01*
X103379121Y-73325947D01*
X103513967Y-73376241D01*
X103513966Y-73376241D01*
X103520894Y-73376985D01*
X103573577Y-73382650D01*
X105177322Y-73382649D01*
X105236933Y-73376241D01*
X105371781Y-73325946D01*
X105486996Y-73239696D01*
X105573246Y-73124481D01*
X105623541Y-72989633D01*
X105629950Y-72930023D01*
X105629949Y-71326278D01*
X105623541Y-71266667D01*
X105617510Y-71250498D01*
X105573247Y-71131821D01*
X105573243Y-71131814D01*
X105486997Y-71016605D01*
X105486994Y-71016602D01*
X105371785Y-70930356D01*
X105371778Y-70930352D01*
X105236932Y-70880058D01*
X105236933Y-70880058D01*
X105177333Y-70873651D01*
X105177331Y-70873650D01*
X105177323Y-70873650D01*
X105177314Y-70873650D01*
X103573579Y-70873650D01*
X103573573Y-70873651D01*
X103513966Y-70880058D01*
X103379121Y-70930352D01*
X103379114Y-70930356D01*
X103263905Y-71016602D01*
X103204716Y-71095668D01*
X103148782Y-71137538D01*
X103079090Y-71142522D01*
X103017767Y-71109036D01*
X103006184Y-71095668D01*
X102972707Y-71050949D01*
X102946996Y-71016604D01*
X102946994Y-71016603D01*
X102946994Y-71016602D01*
X102831785Y-70930356D01*
X102831778Y-70930352D01*
X102696932Y-70880058D01*
X102696933Y-70880058D01*
X102637333Y-70873651D01*
X102637331Y-70873650D01*
X102637323Y-70873650D01*
X102637314Y-70873650D01*
X101033579Y-70873650D01*
X101033573Y-70873651D01*
X100973966Y-70880058D01*
X100839121Y-70930352D01*
X100839114Y-70930356D01*
X100723905Y-71016602D01*
X100664403Y-71096085D01*
X100608468Y-71137956D01*
X100538776Y-71142939D01*
X100477454Y-71109452D01*
X100465870Y-71096084D01*
X100406636Y-71016959D01*
X100291543Y-70930799D01*
X100291536Y-70930795D01*
X100156829Y-70880553D01*
X100156822Y-70880551D01*
X100097294Y-70874150D01*
X99545450Y-70874150D01*
X99545450Y-71695138D01*
X99488443Y-71662225D01*
X99361276Y-71628150D01*
X99229624Y-71628150D01*
X99102457Y-71662225D01*
X99045450Y-71695138D01*
X99045450Y-70874150D01*
X98493605Y-70874150D01*
X98434077Y-70880551D01*
X98434070Y-70880553D01*
X98299363Y-70930795D01*
X98299356Y-70930799D01*
X98184262Y-71016959D01*
X98125028Y-71096085D01*
X98069094Y-71137955D01*
X97999402Y-71142939D01*
X97938079Y-71109453D01*
X97926496Y-71096085D01*
X97897182Y-71056928D01*
X97866996Y-71016604D01*
X97866994Y-71016603D01*
X97866994Y-71016602D01*
X97751785Y-70930356D01*
X97751778Y-70930352D01*
X97616932Y-70880058D01*
X97616933Y-70880058D01*
X97557333Y-70873651D01*
X97557331Y-70873650D01*
X97557323Y-70873650D01*
X97557314Y-70873650D01*
X95953579Y-70873650D01*
X95953573Y-70873651D01*
X95893966Y-70880058D01*
X95759121Y-70930352D01*
X95759114Y-70930356D01*
X95643905Y-71016602D01*
X95584716Y-71095668D01*
X95528782Y-71137538D01*
X95459090Y-71142522D01*
X95397767Y-71109036D01*
X95386184Y-71095668D01*
X95352707Y-71050949D01*
X95326996Y-71016604D01*
X95326994Y-71016603D01*
X95326994Y-71016602D01*
X95211785Y-70930356D01*
X95211778Y-70930352D01*
X95076932Y-70880058D01*
X95076933Y-70880058D01*
X95017333Y-70873651D01*
X95017331Y-70873650D01*
X95017323Y-70873650D01*
X95017314Y-70873650D01*
X93413579Y-70873650D01*
X93413573Y-70873651D01*
X93353966Y-70880058D01*
X93219121Y-70930352D01*
X93219114Y-70930356D01*
X93103905Y-71016602D01*
X93044716Y-71095668D01*
X92988782Y-71137538D01*
X92919090Y-71142522D01*
X92857767Y-71109036D01*
X92846184Y-71095668D01*
X92812707Y-71050949D01*
X92786996Y-71016604D01*
X92786994Y-71016603D01*
X92786994Y-71016602D01*
X92671785Y-70930356D01*
X92671778Y-70930352D01*
X92536932Y-70880058D01*
X92536933Y-70880058D01*
X92477333Y-70873651D01*
X92477331Y-70873650D01*
X92477323Y-70873650D01*
X92477314Y-70873650D01*
X90873579Y-70873650D01*
X90873573Y-70873651D01*
X90813966Y-70880058D01*
X90679121Y-70930352D01*
X90679114Y-70930356D01*
X90563905Y-71016602D01*
X90504716Y-71095668D01*
X90448782Y-71137538D01*
X90379090Y-71142522D01*
X90317767Y-71109036D01*
X90306184Y-71095668D01*
X90272707Y-71050949D01*
X90246996Y-71016604D01*
X90246994Y-71016603D01*
X90246994Y-71016602D01*
X90131785Y-70930356D01*
X90131778Y-70930352D01*
X89996932Y-70880058D01*
X89996933Y-70880058D01*
X89937333Y-70873651D01*
X89937331Y-70873650D01*
X89937323Y-70873650D01*
X89937314Y-70873650D01*
X88333579Y-70873650D01*
X88333573Y-70873651D01*
X88273966Y-70880058D01*
X88139121Y-70930352D01*
X88139114Y-70930356D01*
X88023905Y-71016602D01*
X87964403Y-71096085D01*
X87908468Y-71137956D01*
X87838776Y-71142939D01*
X87777454Y-71109452D01*
X87765870Y-71096084D01*
X87706636Y-71016959D01*
X87591543Y-70930799D01*
X87591536Y-70930795D01*
X87456829Y-70880553D01*
X87456822Y-70880551D01*
X87397294Y-70874150D01*
X86845450Y-70874150D01*
X86845450Y-71695138D01*
X86788443Y-71662225D01*
X86661276Y-71628150D01*
X86529624Y-71628150D01*
X86402457Y-71662225D01*
X86345450Y-71695138D01*
X86345450Y-70874150D01*
X85793605Y-70874150D01*
X85734077Y-70880551D01*
X85734070Y-70880553D01*
X85599363Y-70930795D01*
X85599356Y-70930799D01*
X85484262Y-71016959D01*
X85425028Y-71096085D01*
X85369094Y-71137955D01*
X85299402Y-71142939D01*
X85238079Y-71109453D01*
X85226496Y-71096085D01*
X85197182Y-71056928D01*
X85166996Y-71016604D01*
X85166994Y-71016603D01*
X85166994Y-71016602D01*
X85051785Y-70930356D01*
X85051778Y-70930352D01*
X84916932Y-70880058D01*
X84916933Y-70880058D01*
X84857333Y-70873651D01*
X84857331Y-70873650D01*
X84857323Y-70873650D01*
X84857314Y-70873650D01*
X83253579Y-70873650D01*
X83253573Y-70873651D01*
X83193966Y-70880058D01*
X83059121Y-70930352D01*
X83059114Y-70930356D01*
X82943905Y-71016602D01*
X82884716Y-71095668D01*
X82828782Y-71137538D01*
X82759090Y-71142522D01*
X82697767Y-71109036D01*
X82686184Y-71095668D01*
X82652707Y-71050949D01*
X82626996Y-71016604D01*
X82626994Y-71016603D01*
X82626994Y-71016602D01*
X82511785Y-70930356D01*
X82511778Y-70930352D01*
X82376932Y-70880058D01*
X82376933Y-70880058D01*
X82317333Y-70873651D01*
X82317331Y-70873650D01*
X82317323Y-70873650D01*
X82317314Y-70873650D01*
X80713579Y-70873650D01*
X80713573Y-70873651D01*
X80653966Y-70880058D01*
X80519121Y-70930352D01*
X80519114Y-70930356D01*
X80403905Y-71016602D01*
X80344716Y-71095668D01*
X80288782Y-71137538D01*
X80219090Y-71142522D01*
X80157767Y-71109036D01*
X80146184Y-71095668D01*
X80112707Y-71050949D01*
X80086996Y-71016604D01*
X80086994Y-71016603D01*
X80086994Y-71016602D01*
X79971785Y-70930356D01*
X79971778Y-70930352D01*
X79836932Y-70880058D01*
X79836933Y-70880058D01*
X79777333Y-70873651D01*
X79777331Y-70873650D01*
X79777323Y-70873650D01*
X79777314Y-70873650D01*
X78173579Y-70873650D01*
X78173573Y-70873651D01*
X78113966Y-70880058D01*
X77979121Y-70930352D01*
X77979114Y-70930356D01*
X77863905Y-71016602D01*
X77804716Y-71095668D01*
X77748782Y-71137538D01*
X77679090Y-71142522D01*
X77617767Y-71109036D01*
X77606184Y-71095668D01*
X77572707Y-71050949D01*
X77546996Y-71016604D01*
X77546994Y-71016603D01*
X77546994Y-71016602D01*
X77431785Y-70930356D01*
X77431778Y-70930352D01*
X77296932Y-70880058D01*
X77296933Y-70880058D01*
X77237333Y-70873651D01*
X77237331Y-70873650D01*
X77237323Y-70873650D01*
X77237314Y-70873650D01*
X75633579Y-70873650D01*
X75633573Y-70873651D01*
X75573966Y-70880058D01*
X75439121Y-70930352D01*
X75439114Y-70930356D01*
X75323905Y-71016602D01*
X75264403Y-71096085D01*
X75208468Y-71137956D01*
X75138776Y-71142939D01*
X75077454Y-71109452D01*
X75065870Y-71096084D01*
X75006636Y-71016959D01*
X74891543Y-70930799D01*
X74891536Y-70930795D01*
X74756829Y-70880553D01*
X74756822Y-70880551D01*
X74697294Y-70874150D01*
X74145450Y-70874150D01*
X74145450Y-71695138D01*
X74088443Y-71662225D01*
X73961276Y-71628150D01*
X73829624Y-71628150D01*
X73702457Y-71662225D01*
X73645450Y-71695138D01*
X73645450Y-70874150D01*
X73093622Y-70874150D01*
X73093603Y-70874151D01*
X73045889Y-70879281D01*
X72977130Y-70866876D01*
X72925992Y-70819266D01*
X72908713Y-70751567D01*
X72930778Y-70685272D01*
X72963742Y-70652890D01*
X73010289Y-70621789D01*
X73121789Y-70510289D01*
X73209394Y-70379179D01*
X73269737Y-70233497D01*
X73300500Y-70078842D01*
X73300500Y-69921158D01*
X73300500Y-69921155D01*
X73300499Y-69921153D01*
X73275979Y-69797883D01*
X73269737Y-69766503D01*
X73256062Y-69733489D01*
X73209397Y-69620827D01*
X73209390Y-69620814D01*
X73121789Y-69489711D01*
X73121786Y-69489707D01*
X73010292Y-69378213D01*
X73010288Y-69378210D01*
X72879185Y-69290609D01*
X72879172Y-69290602D01*
X72733501Y-69230264D01*
X72733489Y-69230261D01*
X72578845Y-69199500D01*
X72578842Y-69199500D01*
X72421158Y-69199500D01*
X72421155Y-69199500D01*
X72266510Y-69230261D01*
X72266498Y-69230264D01*
X72120827Y-69290602D01*
X72120814Y-69290609D01*
X71989711Y-69378210D01*
X71989707Y-69378213D01*
X71878213Y-69489707D01*
X71878210Y-69489711D01*
X71790609Y-69620814D01*
X71790603Y-69620826D01*
X71789060Y-69624552D01*
X71745218Y-69678954D01*
X71678924Y-69701018D01*
X71611225Y-69683738D01*
X71563615Y-69632599D01*
X71550500Y-69577097D01*
X71550500Y-69421155D01*
X71550499Y-69421153D01*
X71544958Y-69393297D01*
X71519737Y-69266503D01*
X71519735Y-69266498D01*
X71459397Y-69120827D01*
X71459390Y-69120814D01*
X71371789Y-68989711D01*
X71371786Y-68989707D01*
X71260292Y-68878213D01*
X71260288Y-68878210D01*
X71184548Y-68827602D01*
X71139743Y-68773990D01*
X71131036Y-68704665D01*
X71161190Y-68641637D01*
X71220634Y-68604918D01*
X71253439Y-68600500D01*
X76663331Y-68600500D01*
X76663347Y-68600501D01*
X76670943Y-68600501D01*
X76829054Y-68600501D01*
X76829057Y-68600501D01*
X76981785Y-68559577D01*
X77031904Y-68530639D01*
X77118716Y-68480520D01*
X77230520Y-68368716D01*
X77230520Y-68368714D01*
X77240728Y-68358507D01*
X77240729Y-68358504D01*
X77397106Y-68202127D01*
X78249500Y-68202127D01*
X78249500Y-69797870D01*
X78249501Y-69797876D01*
X78255908Y-69857483D01*
X78306202Y-69992328D01*
X78306206Y-69992335D01*
X78392452Y-70107544D01*
X78392455Y-70107547D01*
X78507664Y-70193793D01*
X78507671Y-70193797D01*
X78642517Y-70244091D01*
X78642516Y-70244091D01*
X78649444Y-70244835D01*
X78702127Y-70250500D01*
X80297872Y-70250499D01*
X80357483Y-70244091D01*
X80492331Y-70193796D01*
X80607546Y-70107546D01*
X80693796Y-69992331D01*
X80744091Y-69857483D01*
X80750500Y-69797873D01*
X80750500Y-69724500D01*
X80753050Y-69715814D01*
X80751762Y-69706853D01*
X80762740Y-69682812D01*
X80770185Y-69657461D01*
X80777025Y-69651533D01*
X80780787Y-69643297D01*
X80803021Y-69629007D01*
X80822989Y-69611706D01*
X80833503Y-69609418D01*
X80839565Y-69605523D01*
X80874500Y-69600500D01*
X80913331Y-69600500D01*
X80913347Y-69600501D01*
X80920943Y-69600501D01*
X81079054Y-69600501D01*
X81079057Y-69600501D01*
X81231785Y-69559577D01*
X81231786Y-69559575D01*
X81239635Y-69557473D01*
X81239820Y-69558165D01*
X81278364Y-69550500D01*
X81328844Y-69550500D01*
X81328845Y-69550499D01*
X81483497Y-69519737D01*
X81629179Y-69459394D01*
X81683663Y-69422989D01*
X81760875Y-69371398D01*
X81827553Y-69350520D01*
X81829766Y-69350500D01*
X140199903Y-69350500D01*
X140266942Y-69370185D01*
X140287584Y-69386819D01*
X141415425Y-70514660D01*
X141448910Y-70575983D01*
X141449361Y-70578149D01*
X141480261Y-70733491D01*
X141480264Y-70733501D01*
X141540602Y-70879172D01*
X141540609Y-70879185D01*
X141628210Y-71010288D01*
X141628213Y-71010292D01*
X141739707Y-71121786D01*
X141739711Y-71121789D01*
X141870814Y-71209390D01*
X141870827Y-71209397D01*
X141970060Y-71250500D01*
X142016503Y-71269737D01*
X142171153Y-71300499D01*
X142171156Y-71300500D01*
X142171158Y-71300500D01*
X142328844Y-71300500D01*
X142328845Y-71300499D01*
X142483497Y-71269737D01*
X142629179Y-71209394D01*
X142760289Y-71121789D01*
X142871789Y-71010289D01*
X142959394Y-70879179D01*
X143019737Y-70733497D01*
X143050500Y-70578842D01*
X143050500Y-70421158D01*
X143050500Y-70421155D01*
X143050499Y-70421153D01*
X143036094Y-70348735D01*
X143019737Y-70266503D01*
X143017214Y-70260411D01*
X142959397Y-70120827D01*
X142959390Y-70120814D01*
X142871789Y-69989711D01*
X142871786Y-69989707D01*
X142760292Y-69878213D01*
X142760288Y-69878210D01*
X142629185Y-69790609D01*
X142629172Y-69790602D01*
X142483501Y-69730264D01*
X142483491Y-69730261D01*
X142328151Y-69699362D01*
X142266241Y-69666977D01*
X142264662Y-69665426D01*
X140987590Y-68388355D01*
X140987588Y-68388352D01*
X140868717Y-68269481D01*
X140868709Y-68269475D01*
X140752059Y-68202128D01*
X140752056Y-68202127D01*
X140731785Y-68190423D01*
X140579057Y-68149499D01*
X140420943Y-68149499D01*
X140413347Y-68149499D01*
X140413331Y-68149500D01*
X81829766Y-68149500D01*
X81762727Y-68129815D01*
X81760875Y-68128602D01*
X81629185Y-68040609D01*
X81629172Y-68040602D01*
X81483501Y-67980264D01*
X81483489Y-67980261D01*
X81328845Y-67949500D01*
X81328842Y-67949500D01*
X81171158Y-67949500D01*
X81171155Y-67949500D01*
X81016510Y-67980261D01*
X81016498Y-67980264D01*
X80870827Y-68040602D01*
X80870809Y-68040612D01*
X80866969Y-68043178D01*
X80800289Y-68064050D01*
X80732911Y-68045560D01*
X80698820Y-68014381D01*
X80693796Y-68007670D01*
X80693796Y-68007669D01*
X80607546Y-67892454D01*
X80578639Y-67870814D01*
X80492335Y-67806206D01*
X80492328Y-67806202D01*
X80357482Y-67755908D01*
X80357483Y-67755908D01*
X80297883Y-67749501D01*
X80297881Y-67749500D01*
X80297873Y-67749500D01*
X80297864Y-67749500D01*
X78702129Y-67749500D01*
X78702123Y-67749501D01*
X78642516Y-67755908D01*
X78507671Y-67806202D01*
X78507664Y-67806206D01*
X78392455Y-67892452D01*
X78392452Y-67892455D01*
X78306206Y-68007664D01*
X78306202Y-68007671D01*
X78255908Y-68142517D01*
X78249501Y-68202116D01*
X78249500Y-68202127D01*
X77397106Y-68202127D01*
X78212416Y-67386819D01*
X78273739Y-67353334D01*
X78300097Y-67350500D01*
X131670234Y-67350500D01*
X131737273Y-67370185D01*
X131739125Y-67371398D01*
X131870814Y-67459390D01*
X131870827Y-67459397D01*
X131970060Y-67500500D01*
X132016503Y-67519737D01*
X132171153Y-67550499D01*
X132171156Y-67550500D01*
X132171158Y-67550500D01*
X132328844Y-67550500D01*
X132328845Y-67550499D01*
X132483497Y-67519737D01*
X132629179Y-67459394D01*
X132640071Y-67452116D01*
X132760875Y-67371398D01*
X132827553Y-67350520D01*
X132829766Y-67350500D01*
X140699903Y-67350500D01*
X140766942Y-67370185D01*
X140787584Y-67386819D01*
X143713181Y-70312416D01*
X143746666Y-70373739D01*
X143749500Y-70400097D01*
X143749500Y-70797870D01*
X143749501Y-70797876D01*
X143755908Y-70857483D01*
X143806202Y-70992328D01*
X143806206Y-70992335D01*
X143892452Y-71107544D01*
X143892455Y-71107547D01*
X144007664Y-71193793D01*
X144007671Y-71193797D01*
X144142517Y-71244091D01*
X144142516Y-71244091D01*
X144149444Y-71244835D01*
X144202127Y-71250500D01*
X145797872Y-71250499D01*
X145857483Y-71244091D01*
X145992331Y-71193796D01*
X146107546Y-71107546D01*
X146193796Y-70992331D01*
X146244091Y-70857483D01*
X146250500Y-70797873D01*
X146250499Y-69202128D01*
X146244091Y-69142517D01*
X146236001Y-69120827D01*
X146193797Y-69007671D01*
X146193793Y-69007664D01*
X146107547Y-68892455D01*
X146107544Y-68892452D01*
X145992335Y-68806206D01*
X145992328Y-68806202D01*
X145857482Y-68755908D01*
X145857483Y-68755908D01*
X145797883Y-68749501D01*
X145797881Y-68749500D01*
X145797873Y-68749500D01*
X145797864Y-68749500D01*
X144202129Y-68749500D01*
X144202123Y-68749501D01*
X144142515Y-68755909D01*
X144007873Y-68806126D01*
X143938181Y-68811110D01*
X143876860Y-68777625D01*
X141487590Y-66388355D01*
X141487588Y-66388352D01*
X141368717Y-66269481D01*
X141368716Y-66269480D01*
X141281904Y-66219360D01*
X141281904Y-66219359D01*
X141281900Y-66219358D01*
X141231785Y-66190423D01*
X141079057Y-66149499D01*
X140920943Y-66149499D01*
X140913347Y-66149499D01*
X140913331Y-66149500D01*
X138760759Y-66149500D01*
X138693720Y-66129815D01*
X138647965Y-66077011D01*
X138638021Y-66007853D01*
X138657657Y-65956609D01*
X138695056Y-65900637D01*
X138709394Y-65879179D01*
X138769737Y-65733497D01*
X138800500Y-65578842D01*
X138800500Y-65421158D01*
X138800500Y-65421155D01*
X138800499Y-65421153D01*
X138792276Y-65379815D01*
X138769737Y-65266503D01*
X138754833Y-65230521D01*
X138709397Y-65120827D01*
X138709390Y-65120814D01*
X138621789Y-64989711D01*
X138621786Y-64989707D01*
X138510292Y-64878213D01*
X138510288Y-64878210D01*
X138379185Y-64790609D01*
X138379172Y-64790602D01*
X138233501Y-64730264D01*
X138233489Y-64730261D01*
X138078845Y-64699500D01*
X138078842Y-64699500D01*
X137921158Y-64699500D01*
X137921155Y-64699500D01*
X137766510Y-64730261D01*
X137766498Y-64730264D01*
X137620827Y-64790602D01*
X137620814Y-64790609D01*
X137489711Y-64878210D01*
X137489707Y-64878213D01*
X137378213Y-64989707D01*
X137378210Y-64989711D01*
X137290609Y-65120814D01*
X137290602Y-65120827D01*
X137230264Y-65266498D01*
X137230261Y-65266510D01*
X137223661Y-65299691D01*
X137191276Y-65361602D01*
X137130561Y-65396176D01*
X137102044Y-65399500D01*
X135783674Y-65399500D01*
X135716635Y-65379815D01*
X135670880Y-65327011D01*
X135660936Y-65257853D01*
X135669113Y-65228048D01*
X135705401Y-65140437D01*
X135728987Y-65083497D01*
X135759750Y-64928842D01*
X135759750Y-64771158D01*
X135755281Y-64748690D01*
X135757159Y-64727705D01*
X135754161Y-64706853D01*
X135760211Y-64693603D01*
X135761510Y-64679099D01*
X135774433Y-64662463D01*
X135783186Y-64643297D01*
X135795439Y-64635422D01*
X135804373Y-64623922D01*
X135824239Y-64616913D01*
X135841964Y-64605523D01*
X135866549Y-64601988D01*
X135870263Y-64600678D01*
X135876899Y-64600500D01*
X135913331Y-64600500D01*
X135913347Y-64600501D01*
X135920943Y-64600501D01*
X136079054Y-64600501D01*
X136079057Y-64600501D01*
X136231785Y-64559577D01*
X136231786Y-64559575D01*
X136239635Y-64557473D01*
X136239820Y-64558165D01*
X136278364Y-64550500D01*
X136328844Y-64550500D01*
X136328845Y-64550499D01*
X136483497Y-64519737D01*
X136629179Y-64459394D01*
X136629185Y-64459390D01*
X136760875Y-64371398D01*
X136827553Y-64350520D01*
X136829766Y-64350500D01*
X140574903Y-64350500D01*
X140641942Y-64370185D01*
X140662584Y-64386819D01*
X142890139Y-66614374D01*
X142890149Y-66614385D01*
X142894479Y-66618715D01*
X142894480Y-66618716D01*
X143006284Y-66730520D01*
X143006286Y-66730521D01*
X143006290Y-66730524D01*
X143091949Y-66779979D01*
X143091950Y-66779979D01*
X143143215Y-66809577D01*
X143295943Y-66850501D01*
X143295946Y-66850501D01*
X143461653Y-66850501D01*
X143461669Y-66850500D01*
X143625501Y-66850500D01*
X143692540Y-66870185D01*
X143738295Y-66922989D01*
X143749501Y-66974500D01*
X143749501Y-67047876D01*
X143755908Y-67107483D01*
X143806202Y-67242328D01*
X143806206Y-67242335D01*
X143892452Y-67357544D01*
X143892455Y-67357547D01*
X144007664Y-67443793D01*
X144007671Y-67443797D01*
X144142517Y-67494091D01*
X144142516Y-67494091D01*
X144149444Y-67494835D01*
X144202127Y-67500500D01*
X145797872Y-67500499D01*
X145857483Y-67494091D01*
X145992331Y-67443796D01*
X146107546Y-67357546D01*
X146193796Y-67242331D01*
X146244091Y-67107483D01*
X146250500Y-67047873D01*
X146250499Y-65452128D01*
X146244091Y-65392517D01*
X146239353Y-65379815D01*
X146193797Y-65257671D01*
X146193793Y-65257664D01*
X146107547Y-65142455D01*
X146107544Y-65142452D01*
X145992335Y-65056206D01*
X145992328Y-65056202D01*
X145857482Y-65005908D01*
X145857483Y-65005908D01*
X145797883Y-64999501D01*
X145797881Y-64999500D01*
X145797873Y-64999500D01*
X145797864Y-64999500D01*
X144202129Y-64999500D01*
X144202123Y-64999501D01*
X144142516Y-65005908D01*
X144007671Y-65056202D01*
X144007664Y-65056206D01*
X143892455Y-65142452D01*
X143892452Y-65142455D01*
X143806206Y-65257664D01*
X143806202Y-65257671D01*
X143755908Y-65392517D01*
X143749501Y-65452116D01*
X143749501Y-65452123D01*
X143749500Y-65452135D01*
X143749500Y-65475903D01*
X143729815Y-65542942D01*
X143677011Y-65588697D01*
X143607853Y-65598641D01*
X143544297Y-65569616D01*
X143537819Y-65563584D01*
X141362590Y-63388355D01*
X141362588Y-63388352D01*
X141243717Y-63269481D01*
X141243716Y-63269480D01*
X141139643Y-63209394D01*
X141139642Y-63209393D01*
X141106783Y-63190422D01*
X141034888Y-63171158D01*
X140954057Y-63149499D01*
X140795943Y-63149499D01*
X140788347Y-63149499D01*
X140788331Y-63149500D01*
X136829766Y-63149500D01*
X136762727Y-63129815D01*
X136760875Y-63128602D01*
X136629185Y-63040609D01*
X136629172Y-63040602D01*
X136483501Y-62980264D01*
X136483489Y-62980261D01*
X136328845Y-62949500D01*
X136328842Y-62949500D01*
X136171158Y-62949500D01*
X136171155Y-62949500D01*
X136016510Y-62980261D01*
X136016498Y-62980264D01*
X135870827Y-63040602D01*
X135870814Y-63040609D01*
X135739711Y-63128210D01*
X135739707Y-63128213D01*
X135628210Y-63239710D01*
X135558266Y-63344391D01*
X135504654Y-63389196D01*
X135455164Y-63399500D01*
X135329057Y-63399500D01*
X134579057Y-63399500D01*
X134420943Y-63399500D01*
X134268215Y-63440423D01*
X134242300Y-63455385D01*
X134235355Y-63459395D01*
X134235354Y-63459394D01*
X134131287Y-63519477D01*
X134131282Y-63519481D01*
X134066190Y-63584574D01*
X134019480Y-63631284D01*
X134019478Y-63631286D01*
X133772552Y-63878213D01*
X133537584Y-64113181D01*
X133476261Y-64146666D01*
X133449903Y-64149500D01*
X86170940Y-64149500D01*
X86130019Y-64160464D01*
X86130019Y-64160465D01*
X86092751Y-64170451D01*
X86018214Y-64190423D01*
X86018209Y-64190426D01*
X85881290Y-64269475D01*
X85881282Y-64269481D01*
X85787583Y-64363181D01*
X85726260Y-64396666D01*
X85699902Y-64399500D01*
X78115863Y-64399500D01*
X78100375Y-64395350D01*
X78086629Y-64396005D01*
X78053863Y-64382887D01*
X78029318Y-64368716D01*
X78029317Y-64368715D01*
X77993444Y-64348004D01*
X77980314Y-64340423D01*
X77980313Y-64340422D01*
X77980312Y-64340422D01*
X77924410Y-64325443D01*
X77827586Y-64299499D01*
X77669472Y-64299499D01*
X77661876Y-64299499D01*
X77661860Y-64299500D01*
X77172412Y-64299500D01*
X77134805Y-64309576D01*
X77134806Y-64309577D01*
X77019685Y-64340423D01*
X77019684Y-64340424D01*
X76946137Y-64382887D01*
X76884137Y-64399500D01*
X64365863Y-64399500D01*
X64350375Y-64395350D01*
X64336629Y-64396005D01*
X64303863Y-64382887D01*
X64279318Y-64368716D01*
X64279317Y-64368715D01*
X64243444Y-64348004D01*
X64230314Y-64340423D01*
X64230313Y-64340422D01*
X64230312Y-64340422D01*
X64174410Y-64325443D01*
X64077586Y-64299499D01*
X63919472Y-64299499D01*
X63911876Y-64299499D01*
X63911860Y-64299500D01*
X63616259Y-64299500D01*
X63549220Y-64279815D01*
X63503465Y-64227011D01*
X63501698Y-64222952D01*
X63459397Y-64120827D01*
X63459390Y-64120814D01*
X63371789Y-63989711D01*
X63371786Y-63989707D01*
X63260292Y-63878213D01*
X63260288Y-63878210D01*
X63129185Y-63790609D01*
X63129172Y-63790602D01*
X62983501Y-63730264D01*
X62983489Y-63730261D01*
X62828845Y-63699500D01*
X62828842Y-63699500D01*
X62671158Y-63699500D01*
X62671155Y-63699500D01*
X62516510Y-63730261D01*
X62516498Y-63730264D01*
X62370827Y-63790602D01*
X62370814Y-63790609D01*
X62239711Y-63878210D01*
X62239707Y-63878213D01*
X62128213Y-63989707D01*
X62128210Y-63989711D01*
X62040609Y-64120814D01*
X62040602Y-64120827D01*
X61980264Y-64266498D01*
X61980261Y-64266510D01*
X61949500Y-64421153D01*
X61949500Y-64578846D01*
X61980261Y-64733489D01*
X61982031Y-64739324D01*
X61979279Y-64740158D01*
X61985503Y-64797359D01*
X61954309Y-64859878D01*
X61894266Y-64895608D01*
X61863445Y-64899500D01*
X58800098Y-64899500D01*
X58733059Y-64879815D01*
X58712417Y-64863181D01*
X58136819Y-64287583D01*
X58103334Y-64226260D01*
X58100500Y-64199902D01*
X58100500Y-62561867D01*
X58105719Y-62544090D01*
X58105933Y-62525565D01*
X58119642Y-62496674D01*
X58120185Y-62494828D01*
X58120963Y-62493632D01*
X58121765Y-62492414D01*
X58121789Y-62492391D01*
X58169389Y-62421153D01*
X70699500Y-62421153D01*
X70699500Y-62578846D01*
X70730261Y-62733489D01*
X70730264Y-62733501D01*
X70790602Y-62879172D01*
X70790609Y-62879185D01*
X70878210Y-63010288D01*
X70878213Y-63010292D01*
X70989707Y-63121786D01*
X70989711Y-63121789D01*
X71120814Y-63209390D01*
X71120827Y-63209397D01*
X71265885Y-63269481D01*
X71266503Y-63269737D01*
X71408002Y-63297883D01*
X71421153Y-63300499D01*
X71421156Y-63300500D01*
X71421158Y-63300500D01*
X71578844Y-63300500D01*
X71578845Y-63300499D01*
X71733497Y-63269737D01*
X71879179Y-63209394D01*
X72010289Y-63121789D01*
X72121789Y-63010289D01*
X72209394Y-62879179D01*
X72212854Y-62870827D01*
X72269735Y-62733501D01*
X72269737Y-62733497D01*
X72276339Y-62700309D01*
X72308724Y-62638398D01*
X72369439Y-62603824D01*
X72397956Y-62600500D01*
X73739241Y-62600500D01*
X73806280Y-62620185D01*
X73852035Y-62672989D01*
X73861979Y-62742147D01*
X73842343Y-62793391D01*
X73790609Y-62870815D01*
X73790602Y-62870827D01*
X73730264Y-63016498D01*
X73730261Y-63016510D01*
X73699500Y-63171153D01*
X73699500Y-63328846D01*
X73730261Y-63483489D01*
X73730264Y-63483501D01*
X73790602Y-63629172D01*
X73790609Y-63629185D01*
X73878210Y-63760288D01*
X73878213Y-63760292D01*
X73989707Y-63871786D01*
X73989711Y-63871789D01*
X74120814Y-63959390D01*
X74120827Y-63959397D01*
X74194013Y-63989711D01*
X74266503Y-64019737D01*
X74421153Y-64050499D01*
X74421156Y-64050500D01*
X74421158Y-64050500D01*
X74578844Y-64050500D01*
X74578845Y-64050499D01*
X74733497Y-64019737D01*
X74879179Y-63959394D01*
X74879185Y-63959390D01*
X75010875Y-63871398D01*
X75077553Y-63850520D01*
X75079766Y-63850500D01*
X126413331Y-63850500D01*
X126413347Y-63850501D01*
X126420943Y-63850501D01*
X126579054Y-63850501D01*
X126579057Y-63850501D01*
X126731785Y-63809577D01*
X126803424Y-63768216D01*
X126868716Y-63730520D01*
X126980520Y-63618716D01*
X126980521Y-63618714D01*
X127014662Y-63584572D01*
X127075983Y-63551089D01*
X127078150Y-63550638D01*
X127136085Y-63539113D01*
X127233497Y-63519737D01*
X127379179Y-63459394D01*
X127510289Y-63371789D01*
X127621789Y-63260289D01*
X127709394Y-63129179D01*
X127769737Y-62983497D01*
X127800500Y-62828842D01*
X127800500Y-62671158D01*
X127800500Y-62671155D01*
X127800499Y-62671153D01*
X127796192Y-62649500D01*
X127769737Y-62516503D01*
X127730242Y-62421153D01*
X127709397Y-62370827D01*
X127709395Y-62370823D01*
X127709394Y-62370821D01*
X127657657Y-62293391D01*
X127636779Y-62226714D01*
X127655263Y-62159334D01*
X127707242Y-62112643D01*
X127760759Y-62100500D01*
X140413331Y-62100500D01*
X140413347Y-62100501D01*
X140420943Y-62100501D01*
X140579054Y-62100501D01*
X140579057Y-62100501D01*
X140731785Y-62059577D01*
X140781904Y-62030639D01*
X140868716Y-61980520D01*
X140919223Y-61930012D01*
X140927107Y-61924284D01*
X140951193Y-61915688D01*
X140973639Y-61903431D01*
X140983553Y-61904139D01*
X140992912Y-61900800D01*
X141017819Y-61906589D01*
X141043331Y-61908414D01*
X141053341Y-61914847D01*
X141060967Y-61916620D01*
X141069066Y-61924953D01*
X141087681Y-61936916D01*
X142015139Y-62864374D01*
X142015149Y-62864385D01*
X142019479Y-62868715D01*
X142019480Y-62868716D01*
X142131284Y-62980520D01*
X142131286Y-62980521D01*
X142131290Y-62980524D01*
X142193621Y-63016510D01*
X142268216Y-63059577D01*
X142380019Y-63089534D01*
X142420942Y-63100500D01*
X142420943Y-63100500D01*
X143625501Y-63100500D01*
X143692540Y-63120185D01*
X143738295Y-63172989D01*
X143749501Y-63224500D01*
X143749501Y-63297876D01*
X143755908Y-63357483D01*
X143806202Y-63492328D01*
X143806206Y-63492335D01*
X143892452Y-63607544D01*
X143892455Y-63607547D01*
X144007664Y-63693793D01*
X144007671Y-63693797D01*
X144142517Y-63744091D01*
X144142516Y-63744091D01*
X144149444Y-63744835D01*
X144202127Y-63750500D01*
X145797872Y-63750499D01*
X145857483Y-63744091D01*
X145992331Y-63693796D01*
X146107546Y-63607546D01*
X146193796Y-63492331D01*
X146244091Y-63357483D01*
X146250500Y-63297873D01*
X146250499Y-61702128D01*
X146244091Y-61642517D01*
X146229323Y-61602923D01*
X146193797Y-61507671D01*
X146193793Y-61507664D01*
X146107547Y-61392455D01*
X146107544Y-61392452D01*
X145992335Y-61306206D01*
X145992328Y-61306202D01*
X145857482Y-61255908D01*
X145857483Y-61255908D01*
X145797883Y-61249501D01*
X145797881Y-61249500D01*
X145797873Y-61249500D01*
X145797864Y-61249500D01*
X144202129Y-61249500D01*
X144202123Y-61249501D01*
X144142516Y-61255908D01*
X144007671Y-61306202D01*
X144007664Y-61306206D01*
X143892455Y-61392452D01*
X143892452Y-61392455D01*
X143806206Y-61507664D01*
X143806202Y-61507671D01*
X143755908Y-61642517D01*
X143749846Y-61698911D01*
X143749501Y-61702123D01*
X143749500Y-61702135D01*
X143749500Y-61775500D01*
X143729815Y-61842539D01*
X143677011Y-61888294D01*
X143625500Y-61899500D01*
X142800097Y-61899500D01*
X142733058Y-61879815D01*
X142712416Y-61863181D01*
X141834574Y-60985339D01*
X141801089Y-60924016D01*
X141800638Y-60921849D01*
X141781773Y-60827011D01*
X141769737Y-60766503D01*
X141766154Y-60757853D01*
X141709397Y-60620827D01*
X141709390Y-60620814D01*
X141621789Y-60489711D01*
X141621786Y-60489707D01*
X141510292Y-60378213D01*
X141510288Y-60378210D01*
X141379185Y-60290609D01*
X141379172Y-60290602D01*
X141233501Y-60230264D01*
X141233489Y-60230261D01*
X141078845Y-60199500D01*
X141078842Y-60199500D01*
X140921158Y-60199500D01*
X140921155Y-60199500D01*
X140766510Y-60230261D01*
X140766498Y-60230264D01*
X140620827Y-60290602D01*
X140620814Y-60290609D01*
X140489711Y-60378210D01*
X140489707Y-60378213D01*
X140378213Y-60489707D01*
X140378210Y-60489711D01*
X140290609Y-60620814D01*
X140290602Y-60620827D01*
X140230264Y-60766498D01*
X140230261Y-60766510D01*
X140223661Y-60799691D01*
X140191276Y-60861602D01*
X140130561Y-60896176D01*
X140102044Y-60899500D01*
X131886555Y-60899500D01*
X131819516Y-60879815D01*
X131773761Y-60827011D01*
X131763817Y-60757853D01*
X131768840Y-60739588D01*
X131767969Y-60739324D01*
X131769731Y-60733509D01*
X131769737Y-60733497D01*
X131800500Y-60578842D01*
X131800500Y-60421158D01*
X131800500Y-60421155D01*
X131800499Y-60421153D01*
X131774531Y-60290606D01*
X131769737Y-60266503D01*
X131760249Y-60243596D01*
X131709397Y-60120827D01*
X131709390Y-60120814D01*
X131621789Y-59989711D01*
X131621786Y-59989707D01*
X131510292Y-59878213D01*
X131510288Y-59878210D01*
X131379185Y-59790609D01*
X131379172Y-59790602D01*
X131233501Y-59730264D01*
X131233491Y-59730261D01*
X131078149Y-59699361D01*
X131016238Y-59666976D01*
X131014660Y-59665425D01*
X130536818Y-59187583D01*
X130503333Y-59126260D01*
X130500499Y-59099902D01*
X130500499Y-57952129D01*
X130500498Y-57952123D01*
X130500497Y-57952116D01*
X130494091Y-57892517D01*
X130489353Y-57879815D01*
X130443797Y-57757671D01*
X130443793Y-57757664D01*
X130357547Y-57642455D01*
X130357544Y-57642452D01*
X130242335Y-57556206D01*
X130242328Y-57556202D01*
X130107482Y-57505908D01*
X130107483Y-57505908D01*
X130047883Y-57499501D01*
X130047881Y-57499500D01*
X130047873Y-57499500D01*
X130047864Y-57499500D01*
X128452129Y-57499500D01*
X128452123Y-57499501D01*
X128392516Y-57505908D01*
X128257671Y-57556202D01*
X128257664Y-57556206D01*
X128142455Y-57642452D01*
X128142452Y-57642455D01*
X128056206Y-57757664D01*
X128056202Y-57757671D01*
X128005908Y-57892517D01*
X127999501Y-57952116D01*
X127999501Y-57952123D01*
X127999500Y-57952135D01*
X127999500Y-58197810D01*
X127979815Y-58264849D01*
X127927011Y-58310604D01*
X127857853Y-58320548D01*
X127794297Y-58291523D01*
X127760939Y-58245262D01*
X127709397Y-58120827D01*
X127709390Y-58120814D01*
X127621789Y-57989711D01*
X127621786Y-57989707D01*
X127510292Y-57878213D01*
X127510288Y-57878210D01*
X127379185Y-57790609D01*
X127379172Y-57790602D01*
X127233501Y-57730264D01*
X127233489Y-57730261D01*
X127078845Y-57699500D01*
X127078842Y-57699500D01*
X126921158Y-57699500D01*
X126921155Y-57699500D01*
X126766510Y-57730261D01*
X126766498Y-57730264D01*
X126620827Y-57790602D01*
X126620814Y-57790609D01*
X126489125Y-57878602D01*
X126422447Y-57899480D01*
X126420234Y-57899500D01*
X125832791Y-57899500D01*
X125765752Y-57879815D01*
X125719997Y-57827011D01*
X125716609Y-57818833D01*
X125693797Y-57757671D01*
X125693793Y-57757664D01*
X125607547Y-57642455D01*
X125607544Y-57642452D01*
X125492335Y-57556206D01*
X125492328Y-57556202D01*
X125357482Y-57505908D01*
X125357483Y-57505908D01*
X125297883Y-57499501D01*
X125297881Y-57499500D01*
X125297873Y-57499500D01*
X125297864Y-57499500D01*
X123702129Y-57499500D01*
X123702123Y-57499501D01*
X123642516Y-57505908D01*
X123507671Y-57556202D01*
X123507664Y-57556206D01*
X123392455Y-57642452D01*
X123392452Y-57642455D01*
X123306206Y-57757664D01*
X123306202Y-57757671D01*
X123255908Y-57892517D01*
X123249501Y-57952116D01*
X123249501Y-57952123D01*
X123249500Y-57952135D01*
X123249500Y-59547870D01*
X123249501Y-59547876D01*
X123255908Y-59607483D01*
X123306202Y-59742328D01*
X123306206Y-59742335D01*
X123392452Y-59857544D01*
X123392455Y-59857547D01*
X123507664Y-59943793D01*
X123507671Y-59943797D01*
X123642517Y-59994091D01*
X123642516Y-59994091D01*
X123649444Y-59994835D01*
X123702127Y-60000500D01*
X125297872Y-60000499D01*
X125357483Y-59994091D01*
X125492331Y-59943796D01*
X125607546Y-59857546D01*
X125693796Y-59742331D01*
X125744091Y-59607483D01*
X125750500Y-59547873D01*
X125750500Y-59224500D01*
X125770185Y-59157461D01*
X125822989Y-59111706D01*
X125874500Y-59100500D01*
X126420234Y-59100500D01*
X126487273Y-59120185D01*
X126489125Y-59121398D01*
X126620814Y-59209390D01*
X126620827Y-59209397D01*
X126718853Y-59250000D01*
X126766503Y-59269737D01*
X126921153Y-59300499D01*
X126921156Y-59300500D01*
X126921158Y-59300500D01*
X127078844Y-59300500D01*
X127078845Y-59300499D01*
X127233497Y-59269737D01*
X127379179Y-59209394D01*
X127510289Y-59121789D01*
X127621789Y-59010289D01*
X127709394Y-58879179D01*
X127760941Y-58754731D01*
X127804779Y-58700333D01*
X127871073Y-58678267D01*
X127938772Y-58695546D01*
X127986383Y-58746682D01*
X127999500Y-58802188D01*
X127999500Y-59547870D01*
X127999501Y-59547876D01*
X128005908Y-59607483D01*
X128056202Y-59742328D01*
X128056206Y-59742335D01*
X128142452Y-59857544D01*
X128142455Y-59857547D01*
X128257664Y-59943793D01*
X128257671Y-59943797D01*
X128392517Y-59994091D01*
X128392516Y-59994091D01*
X128399444Y-59994835D01*
X128452127Y-60000500D01*
X129599902Y-60000499D01*
X129629342Y-60009143D01*
X129659329Y-60015667D01*
X129664344Y-60019421D01*
X129666941Y-60020184D01*
X129687583Y-60036818D01*
X129838584Y-60187819D01*
X129872069Y-60249142D01*
X129867085Y-60318834D01*
X129825213Y-60374767D01*
X129759749Y-60399184D01*
X129750903Y-60399500D01*
X73170940Y-60399500D01*
X73130019Y-60410464D01*
X73130019Y-60410465D01*
X73018216Y-60440423D01*
X73018214Y-60440424D01*
X73010366Y-60442527D01*
X73010180Y-60441834D01*
X72971637Y-60449500D01*
X72921155Y-60449500D01*
X72766510Y-60480261D01*
X72766498Y-60480264D01*
X72620827Y-60540602D01*
X72620814Y-60540609D01*
X72489711Y-60628210D01*
X72489707Y-60628213D01*
X72378213Y-60739707D01*
X72378210Y-60739711D01*
X72290609Y-60870814D01*
X72290602Y-60870827D01*
X72230264Y-61016498D01*
X72230261Y-61016510D01*
X72199500Y-61171153D01*
X72199500Y-61275499D01*
X72179815Y-61342538D01*
X72127011Y-61388293D01*
X72075500Y-61399499D01*
X71920943Y-61399499D01*
X71844579Y-61419961D01*
X71768214Y-61440423D01*
X71768209Y-61440426D01*
X71631290Y-61519475D01*
X71631286Y-61519478D01*
X71485337Y-61665427D01*
X71424014Y-61698911D01*
X71421848Y-61699362D01*
X71266508Y-61730261D01*
X71266498Y-61730264D01*
X71120827Y-61790602D01*
X71120814Y-61790609D01*
X70989711Y-61878210D01*
X70989707Y-61878213D01*
X70878213Y-61989707D01*
X70878210Y-61989711D01*
X70790609Y-62120814D01*
X70790602Y-62120827D01*
X70730264Y-62266498D01*
X70730261Y-62266510D01*
X70699500Y-62421153D01*
X58169389Y-62421153D01*
X58209394Y-62361281D01*
X58269737Y-62215599D01*
X58300500Y-62060944D01*
X58300500Y-61903260D01*
X58300500Y-61903257D01*
X58300499Y-61903255D01*
X58278092Y-61790609D01*
X58269737Y-61748605D01*
X58250486Y-61702128D01*
X58209397Y-61602929D01*
X58209390Y-61602916D01*
X58121789Y-61471813D01*
X58121786Y-61471809D01*
X58010292Y-61360315D01*
X58010288Y-61360312D01*
X57879185Y-61272711D01*
X57879172Y-61272704D01*
X57733501Y-61212366D01*
X57733489Y-61212363D01*
X57578845Y-61181602D01*
X57578842Y-61181602D01*
X57421158Y-61181602D01*
X57421155Y-61181602D01*
X57266510Y-61212363D01*
X57266498Y-61212366D01*
X57120827Y-61272704D01*
X57120814Y-61272711D01*
X56989711Y-61360312D01*
X56989707Y-61360315D01*
X56878213Y-61471809D01*
X56878210Y-61471813D01*
X56790609Y-61602916D01*
X56790602Y-61602929D01*
X56730264Y-61748600D01*
X56730261Y-61748610D01*
X56707254Y-61864273D01*
X56674869Y-61926184D01*
X56614153Y-61960758D01*
X56609829Y-61961698D01*
X56516508Y-61980261D01*
X56516498Y-61980264D01*
X56370827Y-62040602D01*
X56370814Y-62040609D01*
X56239711Y-62128210D01*
X56239707Y-62128213D01*
X56128213Y-62239707D01*
X56128210Y-62239711D01*
X56040609Y-62370814D01*
X56040602Y-62370827D01*
X55980264Y-62516498D01*
X55980261Y-62516510D01*
X55949500Y-62671153D01*
X55949500Y-62828846D01*
X55980261Y-62983489D01*
X55980264Y-62983501D01*
X56040602Y-63129172D01*
X56040609Y-63129185D01*
X56128602Y-63260874D01*
X56149480Y-63327551D01*
X56149500Y-63329765D01*
X56149500Y-64663330D01*
X56149499Y-64663348D01*
X56149499Y-64829054D01*
X56149498Y-64829054D01*
X56167332Y-64895608D01*
X56190423Y-64981785D01*
X56212961Y-65020821D01*
X56249142Y-65083489D01*
X56269479Y-65118715D01*
X56388349Y-65237585D01*
X56388355Y-65237590D01*
X58434489Y-67283724D01*
X58434499Y-67283735D01*
X58438829Y-67288065D01*
X58438830Y-67288066D01*
X58550634Y-67399870D01*
X58550636Y-67399871D01*
X58550637Y-67399872D01*
X58620872Y-67440421D01*
X58620874Y-67440423D01*
X58620875Y-67440423D01*
X58641160Y-67452135D01*
X58687565Y-67478927D01*
X58840292Y-67519850D01*
X58840293Y-67519850D01*
X67920234Y-67519850D01*
X67936587Y-67524433D01*
X67952226Y-67524048D01*
X67979904Y-67536574D01*
X67984682Y-67537914D01*
X67989288Y-67540716D01*
X67989711Y-67541139D01*
X68120821Y-67628744D01*
X68162059Y-67645825D01*
X68170225Y-67650793D01*
X68187572Y-67669843D01*
X68207633Y-67686009D01*
X68210708Y-67695249D01*
X68217268Y-67702453D01*
X68221561Y-67727858D01*
X68229698Y-67752303D01*
X68228405Y-67768351D01*
X68228912Y-67771346D01*
X68227991Y-67773501D01*
X68227394Y-67780920D01*
X68199500Y-67921153D01*
X68199500Y-68025500D01*
X68179815Y-68092539D01*
X68127011Y-68138294D01*
X68075500Y-68149500D01*
X56397956Y-68149500D01*
X56330917Y-68129815D01*
X56285162Y-68077011D01*
X56276339Y-68049691D01*
X56272874Y-68032274D01*
X56269737Y-68016503D01*
X56266076Y-68007664D01*
X56209397Y-67870827D01*
X56209390Y-67870814D01*
X56121789Y-67739711D01*
X56121786Y-67739707D01*
X56010292Y-67628213D01*
X56010288Y-67628210D01*
X55879185Y-67540609D01*
X55879172Y-67540602D01*
X55733501Y-67480264D01*
X55733489Y-67480261D01*
X55578845Y-67449500D01*
X55578842Y-67449500D01*
X55421158Y-67449500D01*
X55421155Y-67449500D01*
X55266510Y-67480261D01*
X55266498Y-67480264D01*
X55120827Y-67540602D01*
X55120814Y-67540609D01*
X54989125Y-67628602D01*
X54922447Y-67649480D01*
X54920234Y-67649500D01*
X54624499Y-67649500D01*
X54557460Y-67629815D01*
X54511705Y-67577011D01*
X54500499Y-67525500D01*
X54500499Y-67452129D01*
X54500498Y-67452123D01*
X54500497Y-67452116D01*
X54494091Y-67392517D01*
X54489353Y-67379815D01*
X54443797Y-67257671D01*
X54443793Y-67257664D01*
X54357547Y-67142455D01*
X54357544Y-67142452D01*
X54242335Y-67056206D01*
X54242328Y-67056202D01*
X54107482Y-67005908D01*
X54107483Y-67005908D01*
X54047883Y-66999501D01*
X54047881Y-66999500D01*
X54047873Y-66999500D01*
X54047864Y-66999500D01*
X52452129Y-66999500D01*
X52452123Y-66999501D01*
X52392516Y-67005908D01*
X52257671Y-67056202D01*
X52257664Y-67056206D01*
X52142455Y-67142452D01*
X52142452Y-67142455D01*
X52056206Y-67257664D01*
X52056202Y-67257671D01*
X52005908Y-67392517D01*
X51999782Y-67449500D01*
X51999501Y-67452123D01*
X51999500Y-67452135D01*
X50500500Y-67452135D01*
X50500500Y-59797844D01*
X69750000Y-59797844D01*
X69756401Y-59857372D01*
X69756403Y-59857379D01*
X69806645Y-59992086D01*
X69806649Y-59992093D01*
X69892809Y-60107187D01*
X69892812Y-60107190D01*
X70007906Y-60193350D01*
X70007913Y-60193354D01*
X70142620Y-60243596D01*
X70142627Y-60243598D01*
X70202155Y-60249999D01*
X70202172Y-60250000D01*
X70750000Y-60250000D01*
X71250000Y-60250000D01*
X71797828Y-60250000D01*
X71797844Y-60249999D01*
X71857372Y-60243598D01*
X71857379Y-60243596D01*
X71992086Y-60193354D01*
X71992093Y-60193350D01*
X72107187Y-60107190D01*
X72107190Y-60107187D01*
X72193350Y-59992093D01*
X72193354Y-59992086D01*
X72243596Y-59857379D01*
X72243598Y-59857372D01*
X72249999Y-59797844D01*
X72250000Y-59797827D01*
X72250000Y-59250000D01*
X71250000Y-59250000D01*
X71250000Y-60250000D01*
X70750000Y-60250000D01*
X70750000Y-59250000D01*
X69750000Y-59250000D01*
X69750000Y-59797844D01*
X50500500Y-59797844D01*
X50500500Y-58202155D01*
X69750000Y-58202155D01*
X69750000Y-58750000D01*
X70750000Y-58750000D01*
X71250000Y-58750000D01*
X72250000Y-58750000D01*
X72250000Y-58202172D01*
X72249999Y-58202155D01*
X72243598Y-58142627D01*
X72243596Y-58142620D01*
X72193354Y-58007913D01*
X72193350Y-58007906D01*
X72107190Y-57892812D01*
X72107187Y-57892809D01*
X71992093Y-57806649D01*
X71992086Y-57806645D01*
X71857379Y-57756403D01*
X71857372Y-57756401D01*
X71797844Y-57750000D01*
X71250000Y-57750000D01*
X71250000Y-58750000D01*
X70750000Y-58750000D01*
X70750000Y-57750000D01*
X70202155Y-57750000D01*
X70142627Y-57756401D01*
X70142620Y-57756403D01*
X70007913Y-57806645D01*
X70007906Y-57806649D01*
X69892812Y-57892809D01*
X69892809Y-57892812D01*
X69806649Y-58007906D01*
X69806645Y-58007913D01*
X69756403Y-58142620D01*
X69756401Y-58142627D01*
X69750000Y-58202155D01*
X50500500Y-58202155D01*
X50500500Y-56921153D01*
X107949500Y-56921153D01*
X107949500Y-57078846D01*
X107980261Y-57233489D01*
X107980264Y-57233501D01*
X108040602Y-57379172D01*
X108040609Y-57379185D01*
X108128210Y-57510288D01*
X108128213Y-57510292D01*
X108239707Y-57621786D01*
X108239711Y-57621789D01*
X108370814Y-57709390D01*
X108370827Y-57709397D01*
X108516498Y-57769735D01*
X108516503Y-57769737D01*
X108671153Y-57800499D01*
X108671156Y-57800500D01*
X108671158Y-57800500D01*
X108828844Y-57800500D01*
X108828845Y-57800499D01*
X108983497Y-57769737D01*
X109129179Y-57709394D01*
X109260289Y-57621789D01*
X109371789Y-57510289D01*
X109459394Y-57379179D01*
X109519737Y-57233497D01*
X109539113Y-57136085D01*
X109550638Y-57078150D01*
X109559402Y-57061393D01*
X109563423Y-57042914D01*
X109582168Y-57017872D01*
X109583023Y-57016239D01*
X109584467Y-57014767D01*
X109712418Y-56886816D01*
X109773739Y-56853334D01*
X109800097Y-56850500D01*
X126576931Y-56850500D01*
X126576947Y-56850501D01*
X126584543Y-56850501D01*
X126742654Y-56850501D01*
X126742657Y-56850501D01*
X126895385Y-56809577D01*
X126945504Y-56780639D01*
X127032316Y-56730520D01*
X127144120Y-56618716D01*
X127144120Y-56618714D01*
X127154328Y-56608507D01*
X127154330Y-56608504D01*
X129023305Y-54739528D01*
X129084626Y-54706045D01*
X129149301Y-54709279D01*
X129256031Y-54743959D01*
X129483897Y-54780050D01*
X129483898Y-54780050D01*
X129714602Y-54780050D01*
X129714603Y-54780050D01*
X129942469Y-54743959D01*
X130161883Y-54672667D01*
X130367444Y-54567929D01*
X130554089Y-54432323D01*
X130717223Y-54269189D01*
X130768933Y-54198015D01*
X130824262Y-54155352D01*
X130893875Y-54149373D01*
X130955670Y-54181979D01*
X130969563Y-54198012D01*
X131021277Y-54269189D01*
X131184411Y-54432323D01*
X131371056Y-54567929D01*
X131576617Y-54672667D01*
X131754100Y-54730334D01*
X131796030Y-54743959D01*
X131893533Y-54759402D01*
X132023897Y-54780050D01*
X132023898Y-54780050D01*
X132254602Y-54780050D01*
X132254603Y-54780050D01*
X132482469Y-54743959D01*
X132701883Y-54672667D01*
X132907444Y-54567929D01*
X133094089Y-54432323D01*
X133257223Y-54269189D01*
X133308933Y-54198015D01*
X133364262Y-54155352D01*
X133433875Y-54149373D01*
X133495670Y-54181979D01*
X133509563Y-54198012D01*
X133561277Y-54269189D01*
X133724411Y-54432323D01*
X133911056Y-54567929D01*
X134116617Y-54672667D01*
X134294100Y-54730334D01*
X134336030Y-54743959D01*
X134433533Y-54759402D01*
X134563897Y-54780050D01*
X134563898Y-54780050D01*
X134794602Y-54780050D01*
X134794603Y-54780050D01*
X135022469Y-54743959D01*
X135241883Y-54672667D01*
X135447444Y-54567929D01*
X135634089Y-54432323D01*
X135797223Y-54269189D01*
X135848933Y-54198015D01*
X135904262Y-54155352D01*
X135973875Y-54149373D01*
X136035670Y-54181979D01*
X136049563Y-54198012D01*
X136101277Y-54269189D01*
X136264411Y-54432323D01*
X136451056Y-54567929D01*
X136656617Y-54672667D01*
X136834100Y-54730334D01*
X136876030Y-54743959D01*
X136973533Y-54759402D01*
X137103897Y-54780050D01*
X137103898Y-54780050D01*
X137334602Y-54780050D01*
X137334603Y-54780050D01*
X137562469Y-54743959D01*
X137781883Y-54672667D01*
X137987444Y-54567929D01*
X138174089Y-54432323D01*
X138337223Y-54269189D01*
X138388933Y-54198015D01*
X138444262Y-54155352D01*
X138513875Y-54149373D01*
X138575670Y-54181979D01*
X138589563Y-54198012D01*
X138641277Y-54269189D01*
X138804411Y-54432323D01*
X138991056Y-54567929D01*
X139196617Y-54672667D01*
X139374100Y-54730334D01*
X139416030Y-54743959D01*
X139513533Y-54759402D01*
X139643897Y-54780050D01*
X139643898Y-54780050D01*
X139874602Y-54780050D01*
X139874603Y-54780050D01*
X140102469Y-54743959D01*
X140321883Y-54672667D01*
X140527444Y-54567929D01*
X140714089Y-54432323D01*
X140877223Y-54269189D01*
X140929241Y-54197591D01*
X140984570Y-54154928D01*
X141054183Y-54148949D01*
X141067255Y-54155846D01*
X141101504Y-54158542D01*
X141899250Y-53360796D01*
X141899250Y-53367011D01*
X141926509Y-53468744D01*
X141979170Y-53559956D01*
X142053644Y-53634430D01*
X142144856Y-53687091D01*
X142246589Y-53714350D01*
X142252803Y-53714350D01*
X141455056Y-54512094D01*
X141531317Y-54567501D01*
X141736803Y-54672202D01*
X141956147Y-54743472D01*
X142183931Y-54779550D01*
X142414569Y-54779550D01*
X142642352Y-54743472D01*
X142861696Y-54672202D01*
X143067174Y-54567505D01*
X143067180Y-54567501D01*
X143143441Y-54512094D01*
X143143442Y-54512094D01*
X142345697Y-53714350D01*
X142351911Y-53714350D01*
X142453644Y-53687091D01*
X142544856Y-53634430D01*
X142619330Y-53559956D01*
X142671991Y-53468744D01*
X142699250Y-53367011D01*
X142699250Y-53360798D01*
X143496994Y-54158542D01*
X143521790Y-54156590D01*
X143523942Y-54154931D01*
X143593555Y-54148946D01*
X143655353Y-54181546D01*
X143669257Y-54197591D01*
X143669567Y-54198017D01*
X143721277Y-54269189D01*
X143884411Y-54432323D01*
X144071056Y-54567929D01*
X144276617Y-54672667D01*
X144454100Y-54730334D01*
X144496030Y-54743959D01*
X144593533Y-54759402D01*
X144723897Y-54780050D01*
X144723898Y-54780050D01*
X144954602Y-54780050D01*
X144954603Y-54780050D01*
X145182469Y-54743959D01*
X145401883Y-54672667D01*
X145607444Y-54567929D01*
X145794089Y-54432323D01*
X145957223Y-54269189D01*
X146092829Y-54082544D01*
X146197567Y-53876983D01*
X146268859Y-53657569D01*
X146304950Y-53429703D01*
X146304950Y-53198997D01*
X146289358Y-53100553D01*
X146268859Y-52971130D01*
X146250410Y-52914350D01*
X146197567Y-52751717D01*
X146092829Y-52546156D01*
X145957223Y-52359511D01*
X145794089Y-52196377D01*
X145607444Y-52060771D01*
X145401883Y-51956033D01*
X145311514Y-51926670D01*
X145182469Y-51884740D01*
X144985758Y-51853584D01*
X144954603Y-51848650D01*
X144723897Y-51848650D01*
X144696489Y-51852991D01*
X144496030Y-51884740D01*
X144325055Y-51940294D01*
X144276617Y-51956033D01*
X144276614Y-51956034D01*
X144276612Y-51956035D01*
X144071055Y-52060771D01*
X143964567Y-52138139D01*
X143884411Y-52196377D01*
X143884409Y-52196379D01*
X143884408Y-52196379D01*
X143721279Y-52359508D01*
X143721272Y-52359517D01*
X143669258Y-52431107D01*
X143613928Y-52473773D01*
X143544315Y-52479751D01*
X143531240Y-52472852D01*
X143496994Y-52470156D01*
X142699250Y-53267901D01*
X142699250Y-53261689D01*
X142671991Y-53159956D01*
X142619330Y-53068744D01*
X142544856Y-52994270D01*
X142453644Y-52941609D01*
X142351911Y-52914350D01*
X142345696Y-52914350D01*
X143143442Y-52116604D01*
X143143441Y-52116603D01*
X143067185Y-52061200D01*
X142861696Y-51956497D01*
X142642352Y-51885227D01*
X142414569Y-51849150D01*
X142183931Y-51849150D01*
X141956147Y-51885227D01*
X141736803Y-51956497D01*
X141531319Y-52061197D01*
X141455057Y-52116604D01*
X142252804Y-52914350D01*
X142246589Y-52914350D01*
X142144856Y-52941609D01*
X142053644Y-52994270D01*
X141979170Y-53068744D01*
X141926509Y-53159956D01*
X141899250Y-53261689D01*
X141899250Y-53267903D01*
X141101504Y-52470157D01*
X141076697Y-52472110D01*
X141074541Y-52473773D01*
X141004927Y-52479749D01*
X140943133Y-52447140D01*
X140929240Y-52431106D01*
X140877227Y-52359517D01*
X140877223Y-52359511D01*
X140714089Y-52196377D01*
X140527444Y-52060771D01*
X140321883Y-51956033D01*
X140231514Y-51926670D01*
X140102469Y-51884740D01*
X139905758Y-51853584D01*
X139874603Y-51848650D01*
X139643897Y-51848650D01*
X139616489Y-51852991D01*
X139416030Y-51884740D01*
X139245055Y-51940294D01*
X139196617Y-51956033D01*
X139196614Y-51956034D01*
X139196612Y-51956035D01*
X138991055Y-52060771D01*
X138884567Y-52138139D01*
X138804411Y-52196377D01*
X138804409Y-52196379D01*
X138804408Y-52196379D01*
X138641278Y-52359509D01*
X138589568Y-52430682D01*
X138534237Y-52473348D01*
X138464624Y-52479326D01*
X138402829Y-52446720D01*
X138388932Y-52430682D01*
X138337227Y-52359517D01*
X138337223Y-52359511D01*
X138174089Y-52196377D01*
X137987444Y-52060771D01*
X137781883Y-51956033D01*
X137691514Y-51926670D01*
X137562469Y-51884740D01*
X137365758Y-51853584D01*
X137334603Y-51848650D01*
X137103897Y-51848650D01*
X137076489Y-51852991D01*
X136876030Y-51884740D01*
X136705055Y-51940294D01*
X136656617Y-51956033D01*
X136656614Y-51956034D01*
X136656612Y-51956035D01*
X136451055Y-52060771D01*
X136344567Y-52138139D01*
X136264411Y-52196377D01*
X136264409Y-52196379D01*
X136264408Y-52196379D01*
X136101278Y-52359509D01*
X136049568Y-52430682D01*
X135994237Y-52473348D01*
X135924624Y-52479326D01*
X135862829Y-52446720D01*
X135848932Y-52430682D01*
X135797227Y-52359517D01*
X135797223Y-52359511D01*
X135634089Y-52196377D01*
X135447444Y-52060771D01*
X135241883Y-51956033D01*
X135151514Y-51926670D01*
X135022469Y-51884740D01*
X134825758Y-51853584D01*
X134794603Y-51848650D01*
X134563897Y-51848650D01*
X134536489Y-51852991D01*
X134336030Y-51884740D01*
X134165055Y-51940294D01*
X134116617Y-51956033D01*
X134116614Y-51956034D01*
X134116612Y-51956035D01*
X133911055Y-52060771D01*
X133804567Y-52138139D01*
X133724411Y-52196377D01*
X133724409Y-52196379D01*
X133724408Y-52196379D01*
X133561278Y-52359509D01*
X133509568Y-52430682D01*
X133454237Y-52473348D01*
X133384624Y-52479326D01*
X133322829Y-52446720D01*
X133308932Y-52430682D01*
X133257227Y-52359517D01*
X133257223Y-52359511D01*
X133094089Y-52196377D01*
X132907444Y-52060771D01*
X132701883Y-51956033D01*
X132611514Y-51926670D01*
X132482469Y-51884740D01*
X132285758Y-51853584D01*
X132254603Y-51848650D01*
X132023897Y-51848650D01*
X131996489Y-51852991D01*
X131796030Y-51884740D01*
X131625055Y-51940294D01*
X131576617Y-51956033D01*
X131576614Y-51956034D01*
X131576612Y-51956035D01*
X131371055Y-52060771D01*
X131264567Y-52138139D01*
X131184411Y-52196377D01*
X131184409Y-52196379D01*
X131184408Y-52196379D01*
X131021278Y-52359509D01*
X130969568Y-52430682D01*
X130914237Y-52473348D01*
X130844624Y-52479326D01*
X130782829Y-52446720D01*
X130768932Y-52430682D01*
X130717227Y-52359517D01*
X130717223Y-52359511D01*
X130554089Y-52196377D01*
X130367444Y-52060771D01*
X130161883Y-51956033D01*
X130071514Y-51926670D01*
X129942469Y-51884740D01*
X129745758Y-51853584D01*
X129714603Y-51848650D01*
X129483897Y-51848650D01*
X129456489Y-51852991D01*
X129256030Y-51884740D01*
X129085055Y-51940294D01*
X129036617Y-51956033D01*
X129036614Y-51956034D01*
X129036612Y-51956035D01*
X128831055Y-52060771D01*
X128724567Y-52138139D01*
X128644411Y-52196377D01*
X128644409Y-52196379D01*
X128644408Y-52196379D01*
X128481278Y-52359509D01*
X128429568Y-52430682D01*
X128374237Y-52473348D01*
X128304624Y-52479326D01*
X128242829Y-52446720D01*
X128228932Y-52430682D01*
X128177227Y-52359517D01*
X128177223Y-52359511D01*
X128014089Y-52196377D01*
X127827444Y-52060771D01*
X127621883Y-51956033D01*
X127531514Y-51926670D01*
X127402469Y-51884740D01*
X127205758Y-51853584D01*
X127174603Y-51848650D01*
X126943897Y-51848650D01*
X126916489Y-51852991D01*
X126716030Y-51884740D01*
X126545055Y-51940294D01*
X126496617Y-51956033D01*
X126496614Y-51956034D01*
X126496612Y-51956035D01*
X126291055Y-52060771D01*
X126184567Y-52138139D01*
X126104411Y-52196377D01*
X126104409Y-52196379D01*
X126104408Y-52196379D01*
X125941279Y-52359508D01*
X125941279Y-52359509D01*
X125941277Y-52359511D01*
X125941273Y-52359517D01*
X125805671Y-52546155D01*
X125700935Y-52751712D01*
X125629640Y-52971130D01*
X125593550Y-53198997D01*
X125593550Y-53429702D01*
X125629640Y-53657569D01*
X125639233Y-53687091D01*
X125700933Y-53876983D01*
X125805671Y-54082544D01*
X125941277Y-54269189D01*
X126104411Y-54432323D01*
X126291056Y-54567929D01*
X126496617Y-54672667D01*
X126674100Y-54730334D01*
X126716030Y-54743959D01*
X126813533Y-54759402D01*
X126943897Y-54780050D01*
X126943898Y-54780050D01*
X126984952Y-54780050D01*
X127051991Y-54799735D01*
X127097746Y-54852539D01*
X127107690Y-54921697D01*
X127078665Y-54985253D01*
X127072633Y-54991731D01*
X126451184Y-55613181D01*
X126389861Y-55646666D01*
X126363503Y-55649500D01*
X109579057Y-55649500D01*
X109420943Y-55649500D01*
X109268215Y-55690423D01*
X109268214Y-55690423D01*
X109268212Y-55690424D01*
X109268209Y-55690425D01*
X109218096Y-55719359D01*
X109218095Y-55719360D01*
X109174689Y-55744420D01*
X109131285Y-55769479D01*
X109131282Y-55769481D01*
X108735339Y-56165425D01*
X108674016Y-56198910D01*
X108671850Y-56199361D01*
X108516508Y-56230261D01*
X108516498Y-56230264D01*
X108370827Y-56290602D01*
X108370814Y-56290609D01*
X108239711Y-56378210D01*
X108239707Y-56378213D01*
X108128213Y-56489707D01*
X108128210Y-56489711D01*
X108040609Y-56620814D01*
X108040602Y-56620827D01*
X107980264Y-56766498D01*
X107980261Y-56766510D01*
X107949500Y-56921153D01*
X50500500Y-56921153D01*
X50500500Y-53546285D01*
X54860950Y-53546285D01*
X54860950Y-55150020D01*
X54860951Y-55150026D01*
X54867358Y-55209633D01*
X54917652Y-55344478D01*
X54917656Y-55344485D01*
X55003902Y-55459694D01*
X55003905Y-55459697D01*
X55119114Y-55545943D01*
X55119121Y-55545947D01*
X55253967Y-55596241D01*
X55253966Y-55596241D01*
X55260894Y-55596985D01*
X55313577Y-55602650D01*
X56917322Y-55602649D01*
X56976933Y-55596241D01*
X57111781Y-55545946D01*
X57226996Y-55459696D01*
X57252546Y-55425565D01*
X57286184Y-55380632D01*
X57342117Y-55338761D01*
X57411809Y-55333777D01*
X57473132Y-55367263D01*
X57484716Y-55380632D01*
X57543902Y-55459694D01*
X57543905Y-55459697D01*
X57659114Y-55545943D01*
X57659121Y-55545947D01*
X57793967Y-55596241D01*
X57793966Y-55596241D01*
X57800894Y-55596985D01*
X57853577Y-55602650D01*
X59457322Y-55602649D01*
X59516933Y-55596241D01*
X59651781Y-55545946D01*
X59766996Y-55459696D01*
X59826496Y-55380214D01*
X59882429Y-55338344D01*
X59952121Y-55333360D01*
X60013444Y-55366845D01*
X60025028Y-55380215D01*
X60084259Y-55459337D01*
X60084262Y-55459340D01*
X60199356Y-55545500D01*
X60199363Y-55545504D01*
X60334070Y-55595746D01*
X60334077Y-55595748D01*
X60393605Y-55602149D01*
X60393622Y-55602150D01*
X60945450Y-55602150D01*
X60945450Y-54781162D01*
X61002457Y-54814075D01*
X61129624Y-54848150D01*
X61261276Y-54848150D01*
X61388443Y-54814075D01*
X61445450Y-54781162D01*
X61445450Y-55602150D01*
X61997278Y-55602150D01*
X61997294Y-55602149D01*
X62056822Y-55595748D01*
X62056829Y-55595746D01*
X62191536Y-55545504D01*
X62191543Y-55545500D01*
X62306636Y-55459341D01*
X62365870Y-55380215D01*
X62421804Y-55338344D01*
X62491495Y-55333360D01*
X62552818Y-55366845D01*
X62564403Y-55380214D01*
X62608810Y-55439533D01*
X62623637Y-55459340D01*
X62623905Y-55459697D01*
X62739114Y-55545943D01*
X62739121Y-55545947D01*
X62873967Y-55596241D01*
X62873966Y-55596241D01*
X62880894Y-55596985D01*
X62933577Y-55602650D01*
X64537322Y-55602649D01*
X64596933Y-55596241D01*
X64731781Y-55545946D01*
X64846996Y-55459696D01*
X64872546Y-55425565D01*
X64906184Y-55380632D01*
X64962117Y-55338761D01*
X65031809Y-55333777D01*
X65093132Y-55367263D01*
X65104716Y-55380632D01*
X65163902Y-55459694D01*
X65163905Y-55459697D01*
X65279114Y-55545943D01*
X65279121Y-55545947D01*
X65413967Y-55596241D01*
X65413966Y-55596241D01*
X65420894Y-55596985D01*
X65473577Y-55602650D01*
X67077322Y-55602649D01*
X67136933Y-55596241D01*
X67271781Y-55545946D01*
X67386996Y-55459696D01*
X67412546Y-55425565D01*
X67446184Y-55380632D01*
X67502117Y-55338761D01*
X67571809Y-55333777D01*
X67633132Y-55367263D01*
X67644716Y-55380632D01*
X67703902Y-55459694D01*
X67703905Y-55459697D01*
X67819114Y-55545943D01*
X67819121Y-55545947D01*
X67953967Y-55596241D01*
X67953966Y-55596241D01*
X67960894Y-55596985D01*
X68013577Y-55602650D01*
X69617322Y-55602649D01*
X69676933Y-55596241D01*
X69811781Y-55545946D01*
X69926996Y-55459696D01*
X69952546Y-55425565D01*
X69986184Y-55380632D01*
X70042117Y-55338761D01*
X70111809Y-55333777D01*
X70173132Y-55367263D01*
X70184716Y-55380632D01*
X70243902Y-55459694D01*
X70243905Y-55459697D01*
X70359114Y-55545943D01*
X70359121Y-55545947D01*
X70493967Y-55596241D01*
X70493966Y-55596241D01*
X70500894Y-55596985D01*
X70553577Y-55602650D01*
X72157322Y-55602649D01*
X72216933Y-55596241D01*
X72351781Y-55545946D01*
X72466996Y-55459696D01*
X72526496Y-55380214D01*
X72582429Y-55338344D01*
X72652121Y-55333360D01*
X72713444Y-55366845D01*
X72725028Y-55380215D01*
X72784259Y-55459337D01*
X72784262Y-55459340D01*
X72899356Y-55545500D01*
X72899363Y-55545504D01*
X73034070Y-55595746D01*
X73034077Y-55595748D01*
X73093605Y-55602149D01*
X73093622Y-55602150D01*
X73645450Y-55602150D01*
X73645450Y-54781162D01*
X73702457Y-54814075D01*
X73829624Y-54848150D01*
X73961276Y-54848150D01*
X74088443Y-54814075D01*
X74145450Y-54781162D01*
X74145450Y-55602150D01*
X74697278Y-55602150D01*
X74697294Y-55602149D01*
X74756822Y-55595748D01*
X74756829Y-55595746D01*
X74891536Y-55545504D01*
X74891543Y-55545500D01*
X75006636Y-55459341D01*
X75065870Y-55380215D01*
X75121804Y-55338344D01*
X75191495Y-55333360D01*
X75252818Y-55366845D01*
X75264403Y-55380214D01*
X75308810Y-55439533D01*
X75323637Y-55459340D01*
X75323905Y-55459697D01*
X75439114Y-55545943D01*
X75439121Y-55545947D01*
X75573967Y-55596241D01*
X75573966Y-55596241D01*
X75580894Y-55596985D01*
X75633577Y-55602650D01*
X77237322Y-55602649D01*
X77296933Y-55596241D01*
X77431781Y-55545946D01*
X77546996Y-55459696D01*
X77572546Y-55425565D01*
X77606184Y-55380632D01*
X77662117Y-55338761D01*
X77731809Y-55333777D01*
X77793132Y-55367263D01*
X77804716Y-55380632D01*
X77863902Y-55459694D01*
X77863905Y-55459697D01*
X77979114Y-55545943D01*
X77979121Y-55545947D01*
X78113967Y-55596241D01*
X78113966Y-55596241D01*
X78120894Y-55596985D01*
X78173577Y-55602650D01*
X79777322Y-55602649D01*
X79836933Y-55596241D01*
X79971781Y-55545946D01*
X80086996Y-55459696D01*
X80112546Y-55425565D01*
X80146184Y-55380632D01*
X80202117Y-55338761D01*
X80271809Y-55333777D01*
X80333132Y-55367263D01*
X80344716Y-55380632D01*
X80403902Y-55459694D01*
X80403905Y-55459697D01*
X80519114Y-55545943D01*
X80519121Y-55545947D01*
X80653967Y-55596241D01*
X80653966Y-55596241D01*
X80660894Y-55596985D01*
X80713577Y-55602650D01*
X82317322Y-55602649D01*
X82376933Y-55596241D01*
X82511781Y-55545946D01*
X82626996Y-55459696D01*
X82652546Y-55425565D01*
X82686184Y-55380632D01*
X82742117Y-55338761D01*
X82811809Y-55333777D01*
X82873132Y-55367263D01*
X82884716Y-55380632D01*
X82943902Y-55459694D01*
X82943905Y-55459697D01*
X83059114Y-55545943D01*
X83059121Y-55545947D01*
X83193967Y-55596241D01*
X83193966Y-55596241D01*
X83200894Y-55596985D01*
X83253577Y-55602650D01*
X84857322Y-55602649D01*
X84916933Y-55596241D01*
X85051781Y-55545946D01*
X85166996Y-55459696D01*
X85226496Y-55380214D01*
X85282429Y-55338344D01*
X85352121Y-55333360D01*
X85413444Y-55366845D01*
X85425028Y-55380215D01*
X85484259Y-55459337D01*
X85484262Y-55459340D01*
X85599356Y-55545500D01*
X85599363Y-55545504D01*
X85734070Y-55595746D01*
X85734077Y-55595748D01*
X85793605Y-55602149D01*
X85793622Y-55602150D01*
X86345450Y-55602150D01*
X86345450Y-54781162D01*
X86402457Y-54814075D01*
X86529624Y-54848150D01*
X86661276Y-54848150D01*
X86788443Y-54814075D01*
X86845450Y-54781162D01*
X86845450Y-55602150D01*
X87397278Y-55602150D01*
X87397294Y-55602149D01*
X87456822Y-55595748D01*
X87456829Y-55595746D01*
X87591536Y-55545504D01*
X87591543Y-55545500D01*
X87706636Y-55459341D01*
X87765870Y-55380215D01*
X87821804Y-55338344D01*
X87891495Y-55333360D01*
X87952818Y-55366845D01*
X87964403Y-55380214D01*
X88008810Y-55439533D01*
X88023637Y-55459340D01*
X88023905Y-55459697D01*
X88139114Y-55545943D01*
X88139121Y-55545947D01*
X88273967Y-55596241D01*
X88273966Y-55596241D01*
X88280894Y-55596985D01*
X88333577Y-55602650D01*
X89937322Y-55602649D01*
X89996933Y-55596241D01*
X90131781Y-55545946D01*
X90246996Y-55459696D01*
X90272546Y-55425565D01*
X90306184Y-55380632D01*
X90362117Y-55338761D01*
X90431809Y-55333777D01*
X90493132Y-55367263D01*
X90504716Y-55380632D01*
X90563902Y-55459694D01*
X90563905Y-55459697D01*
X90679114Y-55545943D01*
X90679121Y-55545947D01*
X90813967Y-55596241D01*
X90813966Y-55596241D01*
X90820894Y-55596985D01*
X90873577Y-55602650D01*
X92477322Y-55602649D01*
X92536933Y-55596241D01*
X92671781Y-55545946D01*
X92786996Y-55459696D01*
X92812546Y-55425565D01*
X92846184Y-55380632D01*
X92902117Y-55338761D01*
X92971809Y-55333777D01*
X93033132Y-55367263D01*
X93044716Y-55380632D01*
X93103902Y-55459694D01*
X93103905Y-55459697D01*
X93219114Y-55545943D01*
X93219121Y-55545947D01*
X93353967Y-55596241D01*
X93353966Y-55596241D01*
X93360894Y-55596985D01*
X93413577Y-55602650D01*
X95017322Y-55602649D01*
X95076933Y-55596241D01*
X95211781Y-55545946D01*
X95326996Y-55459696D01*
X95352546Y-55425565D01*
X95386184Y-55380632D01*
X95442117Y-55338761D01*
X95511809Y-55333777D01*
X95573132Y-55367263D01*
X95584716Y-55380632D01*
X95643902Y-55459694D01*
X95643905Y-55459697D01*
X95759114Y-55545943D01*
X95759121Y-55545947D01*
X95893967Y-55596241D01*
X95893966Y-55596241D01*
X95900894Y-55596985D01*
X95953577Y-55602650D01*
X97557322Y-55602649D01*
X97616933Y-55596241D01*
X97751781Y-55545946D01*
X97866996Y-55459696D01*
X97926496Y-55380214D01*
X97982429Y-55338344D01*
X98052121Y-55333360D01*
X98113444Y-55366845D01*
X98125028Y-55380215D01*
X98184259Y-55459337D01*
X98184262Y-55459340D01*
X98299356Y-55545500D01*
X98299363Y-55545504D01*
X98434070Y-55595746D01*
X98434077Y-55595748D01*
X98493605Y-55602149D01*
X98493622Y-55602150D01*
X99045450Y-55602150D01*
X99045450Y-54781162D01*
X99102457Y-54814075D01*
X99229624Y-54848150D01*
X99361276Y-54848150D01*
X99488443Y-54814075D01*
X99545450Y-54781162D01*
X99545450Y-55602150D01*
X100097278Y-55602150D01*
X100097294Y-55602149D01*
X100156822Y-55595748D01*
X100156829Y-55595746D01*
X100291536Y-55545504D01*
X100291543Y-55545500D01*
X100406636Y-55459341D01*
X100465870Y-55380215D01*
X100521804Y-55338344D01*
X100591495Y-55333360D01*
X100652818Y-55366845D01*
X100664403Y-55380214D01*
X100708810Y-55439533D01*
X100723637Y-55459340D01*
X100723905Y-55459697D01*
X100839114Y-55545943D01*
X100839121Y-55545947D01*
X100973967Y-55596241D01*
X100973966Y-55596241D01*
X100980894Y-55596985D01*
X101033577Y-55602650D01*
X102637322Y-55602649D01*
X102696933Y-55596241D01*
X102831781Y-55545946D01*
X102946996Y-55459696D01*
X102972546Y-55425565D01*
X103006184Y-55380632D01*
X103062117Y-55338761D01*
X103131809Y-55333777D01*
X103193132Y-55367263D01*
X103204716Y-55380632D01*
X103263902Y-55459694D01*
X103263905Y-55459697D01*
X103379114Y-55545943D01*
X103379121Y-55545947D01*
X103513967Y-55596241D01*
X103513966Y-55596241D01*
X103520894Y-55596985D01*
X103573577Y-55602650D01*
X105177322Y-55602649D01*
X105236933Y-55596241D01*
X105371781Y-55545946D01*
X105486996Y-55459696D01*
X105573246Y-55344481D01*
X105623541Y-55209633D01*
X105629950Y-55150023D01*
X105629949Y-53546278D01*
X105623541Y-53486667D01*
X105616856Y-53468744D01*
X105573247Y-53351821D01*
X105573243Y-53351814D01*
X105486997Y-53236605D01*
X105486994Y-53236602D01*
X105371785Y-53150356D01*
X105371778Y-53150352D01*
X105236932Y-53100058D01*
X105236933Y-53100058D01*
X105177333Y-53093651D01*
X105177331Y-53093650D01*
X105177323Y-53093650D01*
X105177314Y-53093650D01*
X103573579Y-53093650D01*
X103573573Y-53093651D01*
X103513966Y-53100058D01*
X103379121Y-53150352D01*
X103379114Y-53150356D01*
X103263905Y-53236602D01*
X103204716Y-53315668D01*
X103148782Y-53357538D01*
X103079090Y-53362522D01*
X103017767Y-53329036D01*
X103006184Y-53315668D01*
X102965775Y-53261689D01*
X102946996Y-53236604D01*
X102946994Y-53236603D01*
X102946994Y-53236602D01*
X102831785Y-53150356D01*
X102831778Y-53150352D01*
X102696932Y-53100058D01*
X102696933Y-53100058D01*
X102637333Y-53093651D01*
X102637331Y-53093650D01*
X102637323Y-53093650D01*
X102637314Y-53093650D01*
X101033579Y-53093650D01*
X101033573Y-53093651D01*
X100973966Y-53100058D01*
X100839121Y-53150352D01*
X100839114Y-53150356D01*
X100723905Y-53236602D01*
X100664403Y-53316085D01*
X100608468Y-53357956D01*
X100538776Y-53362939D01*
X100477454Y-53329452D01*
X100465870Y-53316084D01*
X100406636Y-53236959D01*
X100291543Y-53150799D01*
X100291536Y-53150795D01*
X100156829Y-53100553D01*
X100156822Y-53100551D01*
X100097294Y-53094150D01*
X99545450Y-53094150D01*
X99545450Y-53915138D01*
X99488443Y-53882225D01*
X99361276Y-53848150D01*
X99229624Y-53848150D01*
X99102457Y-53882225D01*
X99045450Y-53915138D01*
X99045450Y-53094150D01*
X98493605Y-53094150D01*
X98434077Y-53100551D01*
X98434070Y-53100553D01*
X98299363Y-53150795D01*
X98299356Y-53150799D01*
X98184262Y-53236959D01*
X98125028Y-53316085D01*
X98069094Y-53357955D01*
X97999402Y-53362939D01*
X97938079Y-53329453D01*
X97926496Y-53316085D01*
X97897182Y-53276928D01*
X97866996Y-53236604D01*
X97866994Y-53236603D01*
X97866994Y-53236602D01*
X97751785Y-53150356D01*
X97751778Y-53150352D01*
X97616932Y-53100058D01*
X97616933Y-53100058D01*
X97557333Y-53093651D01*
X97557331Y-53093650D01*
X97557323Y-53093650D01*
X97557314Y-53093650D01*
X95953579Y-53093650D01*
X95953573Y-53093651D01*
X95893966Y-53100058D01*
X95759121Y-53150352D01*
X95759114Y-53150356D01*
X95643905Y-53236602D01*
X95584716Y-53315668D01*
X95528782Y-53357538D01*
X95459090Y-53362522D01*
X95397767Y-53329036D01*
X95386184Y-53315668D01*
X95345775Y-53261689D01*
X95326996Y-53236604D01*
X95326994Y-53236603D01*
X95326994Y-53236602D01*
X95211785Y-53150356D01*
X95211778Y-53150352D01*
X95076932Y-53100058D01*
X95076933Y-53100058D01*
X95017333Y-53093651D01*
X95017331Y-53093650D01*
X95017323Y-53093650D01*
X95017314Y-53093650D01*
X93413579Y-53093650D01*
X93413573Y-53093651D01*
X93353966Y-53100058D01*
X93219121Y-53150352D01*
X93219114Y-53150356D01*
X93103905Y-53236602D01*
X93044716Y-53315668D01*
X92988782Y-53357538D01*
X92919090Y-53362522D01*
X92857767Y-53329036D01*
X92846184Y-53315668D01*
X92805775Y-53261689D01*
X92786996Y-53236604D01*
X92786994Y-53236603D01*
X92786994Y-53236602D01*
X92671785Y-53150356D01*
X92671778Y-53150352D01*
X92536932Y-53100058D01*
X92536933Y-53100058D01*
X92477333Y-53093651D01*
X92477331Y-53093650D01*
X92477323Y-53093650D01*
X92477314Y-53093650D01*
X90873579Y-53093650D01*
X90873573Y-53093651D01*
X90813966Y-53100058D01*
X90679121Y-53150352D01*
X90679114Y-53150356D01*
X90563905Y-53236602D01*
X90504716Y-53315668D01*
X90448782Y-53357538D01*
X90379090Y-53362522D01*
X90317767Y-53329036D01*
X90306184Y-53315668D01*
X90265775Y-53261689D01*
X90246996Y-53236604D01*
X90246994Y-53236603D01*
X90246994Y-53236602D01*
X90131785Y-53150356D01*
X90131778Y-53150352D01*
X89996932Y-53100058D01*
X89996933Y-53100058D01*
X89937333Y-53093651D01*
X89937331Y-53093650D01*
X89937323Y-53093650D01*
X89937314Y-53093650D01*
X88333579Y-53093650D01*
X88333573Y-53093651D01*
X88273966Y-53100058D01*
X88139121Y-53150352D01*
X88139114Y-53150356D01*
X88023905Y-53236602D01*
X87964403Y-53316085D01*
X87908468Y-53357956D01*
X87838776Y-53362939D01*
X87777454Y-53329452D01*
X87765870Y-53316084D01*
X87706636Y-53236959D01*
X87591543Y-53150799D01*
X87591536Y-53150795D01*
X87456829Y-53100553D01*
X87456822Y-53100551D01*
X87397294Y-53094150D01*
X86845450Y-53094150D01*
X86845450Y-53915138D01*
X86788443Y-53882225D01*
X86661276Y-53848150D01*
X86529624Y-53848150D01*
X86402457Y-53882225D01*
X86345450Y-53915138D01*
X86345450Y-53094150D01*
X85793605Y-53094150D01*
X85734077Y-53100551D01*
X85734070Y-53100553D01*
X85599363Y-53150795D01*
X85599356Y-53150799D01*
X85484262Y-53236959D01*
X85425028Y-53316085D01*
X85369094Y-53357955D01*
X85299402Y-53362939D01*
X85238079Y-53329453D01*
X85226496Y-53316085D01*
X85197182Y-53276928D01*
X85166996Y-53236604D01*
X85166994Y-53236603D01*
X85166994Y-53236602D01*
X85051785Y-53150356D01*
X85051778Y-53150352D01*
X84916932Y-53100058D01*
X84916933Y-53100058D01*
X84857333Y-53093651D01*
X84857331Y-53093650D01*
X84857323Y-53093650D01*
X84857314Y-53093650D01*
X83253579Y-53093650D01*
X83253573Y-53093651D01*
X83193966Y-53100058D01*
X83059121Y-53150352D01*
X83059114Y-53150356D01*
X82943905Y-53236602D01*
X82884716Y-53315668D01*
X82828782Y-53357538D01*
X82759090Y-53362522D01*
X82697767Y-53329036D01*
X82686184Y-53315668D01*
X82645775Y-53261689D01*
X82626996Y-53236604D01*
X82626994Y-53236603D01*
X82626994Y-53236602D01*
X82511785Y-53150356D01*
X82511778Y-53150352D01*
X82376932Y-53100058D01*
X82376933Y-53100058D01*
X82317333Y-53093651D01*
X82317331Y-53093650D01*
X82317323Y-53093650D01*
X82317314Y-53093650D01*
X80713579Y-53093650D01*
X80713573Y-53093651D01*
X80653966Y-53100058D01*
X80519121Y-53150352D01*
X80519114Y-53150356D01*
X80403905Y-53236602D01*
X80344716Y-53315668D01*
X80288782Y-53357538D01*
X80219090Y-53362522D01*
X80157767Y-53329036D01*
X80146184Y-53315668D01*
X80105775Y-53261689D01*
X80086996Y-53236604D01*
X80086994Y-53236603D01*
X80086994Y-53236602D01*
X79971785Y-53150356D01*
X79971778Y-53150352D01*
X79836932Y-53100058D01*
X79836933Y-53100058D01*
X79777333Y-53093651D01*
X79777331Y-53093650D01*
X79777323Y-53093650D01*
X79777314Y-53093650D01*
X78173579Y-53093650D01*
X78173573Y-53093651D01*
X78113966Y-53100058D01*
X77979121Y-53150352D01*
X77979114Y-53150356D01*
X77863905Y-53236602D01*
X77804716Y-53315668D01*
X77748782Y-53357538D01*
X77679090Y-53362522D01*
X77617767Y-53329036D01*
X77606184Y-53315668D01*
X77565775Y-53261689D01*
X77546996Y-53236604D01*
X77546994Y-53236603D01*
X77546994Y-53236602D01*
X77431785Y-53150356D01*
X77431778Y-53150352D01*
X77296932Y-53100058D01*
X77296933Y-53100058D01*
X77237333Y-53093651D01*
X77237331Y-53093650D01*
X77237323Y-53093650D01*
X77237314Y-53093650D01*
X75633579Y-53093650D01*
X75633573Y-53093651D01*
X75573966Y-53100058D01*
X75439121Y-53150352D01*
X75439114Y-53150356D01*
X75323905Y-53236602D01*
X75264403Y-53316085D01*
X75208468Y-53357956D01*
X75138776Y-53362939D01*
X75077454Y-53329452D01*
X75065870Y-53316084D01*
X75006636Y-53236959D01*
X74891543Y-53150799D01*
X74891536Y-53150795D01*
X74756829Y-53100553D01*
X74756822Y-53100551D01*
X74697294Y-53094150D01*
X74145450Y-53094150D01*
X74145450Y-53915138D01*
X74088443Y-53882225D01*
X73961276Y-53848150D01*
X73829624Y-53848150D01*
X73702457Y-53882225D01*
X73645450Y-53915138D01*
X73645450Y-53094150D01*
X73093605Y-53094150D01*
X73034077Y-53100551D01*
X73034070Y-53100553D01*
X72899363Y-53150795D01*
X72899356Y-53150799D01*
X72784262Y-53236959D01*
X72725028Y-53316085D01*
X72669094Y-53357955D01*
X72599402Y-53362939D01*
X72538079Y-53329453D01*
X72526496Y-53316085D01*
X72497182Y-53276928D01*
X72466996Y-53236604D01*
X72466994Y-53236603D01*
X72466994Y-53236602D01*
X72351785Y-53150356D01*
X72351778Y-53150352D01*
X72216932Y-53100058D01*
X72216933Y-53100058D01*
X72157333Y-53093651D01*
X72157331Y-53093650D01*
X72157323Y-53093650D01*
X72157314Y-53093650D01*
X70553579Y-53093650D01*
X70553573Y-53093651D01*
X70493966Y-53100058D01*
X70359121Y-53150352D01*
X70359114Y-53150356D01*
X70243905Y-53236602D01*
X70184716Y-53315668D01*
X70128782Y-53357538D01*
X70059090Y-53362522D01*
X69997767Y-53329036D01*
X69986184Y-53315668D01*
X69945775Y-53261689D01*
X69926996Y-53236604D01*
X69926994Y-53236603D01*
X69926994Y-53236602D01*
X69811785Y-53150356D01*
X69811778Y-53150352D01*
X69676932Y-53100058D01*
X69676933Y-53100058D01*
X69617333Y-53093651D01*
X69617331Y-53093650D01*
X69617323Y-53093650D01*
X69617314Y-53093650D01*
X68013579Y-53093650D01*
X68013573Y-53093651D01*
X67953966Y-53100058D01*
X67819121Y-53150352D01*
X67819114Y-53150356D01*
X67703905Y-53236602D01*
X67644716Y-53315668D01*
X67588782Y-53357538D01*
X67519090Y-53362522D01*
X67457767Y-53329036D01*
X67446184Y-53315668D01*
X67405775Y-53261689D01*
X67386996Y-53236604D01*
X67386994Y-53236603D01*
X67386994Y-53236602D01*
X67271785Y-53150356D01*
X67271778Y-53150352D01*
X67136932Y-53100058D01*
X67136933Y-53100058D01*
X67077333Y-53093651D01*
X67077331Y-53093650D01*
X67077323Y-53093650D01*
X67077314Y-53093650D01*
X65473579Y-53093650D01*
X65473573Y-53093651D01*
X65413966Y-53100058D01*
X65279121Y-53150352D01*
X65279114Y-53150356D01*
X65163905Y-53236602D01*
X65104716Y-53315668D01*
X65048782Y-53357538D01*
X64979090Y-53362522D01*
X64917767Y-53329036D01*
X64906184Y-53315668D01*
X64865775Y-53261689D01*
X64846996Y-53236604D01*
X64846994Y-53236603D01*
X64846994Y-53236602D01*
X64731785Y-53150356D01*
X64731778Y-53150352D01*
X64596932Y-53100058D01*
X64596933Y-53100058D01*
X64537333Y-53093651D01*
X64537331Y-53093650D01*
X64537323Y-53093650D01*
X64537314Y-53093650D01*
X62933579Y-53093650D01*
X62933573Y-53093651D01*
X62873966Y-53100058D01*
X62739121Y-53150352D01*
X62739114Y-53150356D01*
X62623905Y-53236602D01*
X62564403Y-53316085D01*
X62508468Y-53357956D01*
X62438776Y-53362939D01*
X62377454Y-53329452D01*
X62365870Y-53316084D01*
X62306636Y-53236959D01*
X62191543Y-53150799D01*
X62191536Y-53150795D01*
X62056829Y-53100553D01*
X62056822Y-53100551D01*
X61997294Y-53094150D01*
X61445450Y-53094150D01*
X61445450Y-53915138D01*
X61388443Y-53882225D01*
X61261276Y-53848150D01*
X61129624Y-53848150D01*
X61002457Y-53882225D01*
X60945450Y-53915138D01*
X60945450Y-53094150D01*
X60393605Y-53094150D01*
X60334077Y-53100551D01*
X60334070Y-53100553D01*
X60199363Y-53150795D01*
X60199356Y-53150799D01*
X60084262Y-53236959D01*
X60025028Y-53316085D01*
X59969094Y-53357955D01*
X59899402Y-53362939D01*
X59838079Y-53329453D01*
X59826496Y-53316085D01*
X59797182Y-53276928D01*
X59766996Y-53236604D01*
X59766994Y-53236603D01*
X59766994Y-53236602D01*
X59651785Y-53150356D01*
X59651778Y-53150352D01*
X59516932Y-53100058D01*
X59516933Y-53100058D01*
X59457333Y-53093651D01*
X59457331Y-53093650D01*
X59457323Y-53093650D01*
X59457314Y-53093650D01*
X57853579Y-53093650D01*
X57853573Y-53093651D01*
X57793966Y-53100058D01*
X57659121Y-53150352D01*
X57659114Y-53150356D01*
X57543905Y-53236602D01*
X57484716Y-53315668D01*
X57428782Y-53357538D01*
X57359090Y-53362522D01*
X57297767Y-53329036D01*
X57286184Y-53315668D01*
X57245775Y-53261689D01*
X57226996Y-53236604D01*
X57226994Y-53236603D01*
X57226994Y-53236602D01*
X57111785Y-53150356D01*
X57111778Y-53150352D01*
X56976932Y-53100058D01*
X56976933Y-53100058D01*
X56917333Y-53093651D01*
X56917331Y-53093650D01*
X56917323Y-53093650D01*
X56917314Y-53093650D01*
X55313579Y-53093650D01*
X55313573Y-53093651D01*
X55253966Y-53100058D01*
X55119121Y-53150352D01*
X55119114Y-53150356D01*
X55003905Y-53236602D01*
X55003902Y-53236605D01*
X54917656Y-53351814D01*
X54917652Y-53351821D01*
X54867358Y-53486667D01*
X54860951Y-53546266D01*
X54860951Y-53546273D01*
X54860950Y-53546285D01*
X50500500Y-53546285D01*
X50500500Y-50624500D01*
X50520185Y-50557461D01*
X50572989Y-50511706D01*
X50624500Y-50500500D01*
X149375500Y-50500500D01*
X149442539Y-50520185D01*
G37*
%TD.AperFunction*%
%TD*%
M02*
