%TF.GenerationSoftware,KiCad,Pcbnew,10.0.4*%
%TF.CreationDate,2026-06-25T22:58:44+12:00*%
%TF.ProjectId,MainPCB,4d61696e-5043-4422-9e6b-696361645f70,rev?*%
%TF.SameCoordinates,Original*%
%TF.FileFunction,Copper,L2,Bot*%
%TF.FilePolarity,Positive*%
%FSLAX46Y46*%
G04 Gerber Fmt 4.6, Leading zero omitted, Abs format (unit mm)*
G04 Created by KiCad (PCBNEW 10.0.4) date 2026-06-25 22:58:44*
%MOMM*%
%LPD*%
G01*
G04 APERTURE LIST*
G04 Aperture macros list*
%AMFreePoly0*
4,1,237,0.029172,0.853997,0.029356,0.853987,0.057356,0.851987,0.057683,0.851953,0.086683,0.847953,0.086879,0.847922,0.114879,0.842922,0.115213,0.842851,0.143213,0.835851,0.143374,0.835808,0.171374,0.827808,0.171737,0.827689,0.198737,0.817689,0.198886,0.817630,0.225886,0.806630,0.226095,0.806540,0.252095,0.794540,0.252443,0.794363,0.277443,0.780363,0.277572,0.780287,
0.302572,0.765287,0.302855,0.765105,0.325855,0.749105,0.326082,0.748938,0.349082,0.730938,0.371166,0.712870,0.371448,0.712621,0.392448,0.692621,0.392621,0.692448,0.412621,0.671448,0.412870,0.671166,0.430938,0.649082,0.448938,0.626082,0.449105,0.625855,0.465105,0.602855,0.465287,0.602572,0.480287,0.577572,0.480363,0.577443,0.494363,0.552443,0.494540,0.552095,
0.506540,0.526095,0.506630,0.525886,0.517630,0.498886,0.517689,0.498737,0.527689,0.471737,0.527808,0.471374,0.535808,0.443374,0.535851,0.443213,0.542851,0.415213,0.542922,0.414879,0.547922,0.386879,0.547953,0.386683,0.551953,0.357683,0.551987,0.357356,0.553987,0.329356,0.553997,0.329172,0.554997,0.300172,0.555000,0.300000,0.555000,-0.300000,0.554997,-0.300172,
0.553997,-0.329172,0.553987,-0.329356,0.551987,-0.357356,0.551953,-0.357683,0.547953,-0.386683,0.547922,-0.386879,0.542922,-0.414879,0.542851,-0.415213,0.535851,-0.443213,0.535808,-0.443374,0.527808,-0.471374,0.527689,-0.471737,0.517689,-0.498737,0.517630,-0.498886,0.506630,-0.525886,0.506540,-0.526095,0.494540,-0.552095,0.494363,-0.552443,0.480363,-0.577443,0.480287,-0.577572,
0.465287,-0.602572,0.465105,-0.602855,0.449105,-0.625855,0.448938,-0.626082,0.430938,-0.649082,0.412870,-0.671166,0.412621,-0.671448,0.392621,-0.692448,0.392448,-0.692621,0.371448,-0.712621,0.371166,-0.712870,0.349082,-0.730938,0.326082,-0.748938,0.325855,-0.749105,0.302855,-0.765105,0.302572,-0.765287,0.277572,-0.780287,0.277443,-0.780363,0.252443,-0.794363,0.252095,-0.794540,
0.226095,-0.806540,0.225886,-0.806630,0.198886,-0.817630,0.198737,-0.817689,0.171737,-0.827689,0.171374,-0.827808,0.143374,-0.835808,0.143213,-0.835851,0.115213,-0.842851,0.114879,-0.842922,0.086879,-0.847922,0.086683,-0.847953,0.057683,-0.851953,0.057356,-0.851987,0.029356,-0.853987,0.029172,-0.853997,0.000172,-0.854997,-0.000172,-0.854997,-0.029172,-0.853997,-0.029356,-0.853987,
-0.057356,-0.851987,-0.057683,-0.851953,-0.086683,-0.847953,-0.086879,-0.847922,-0.114879,-0.842922,-0.115213,-0.842851,-0.143213,-0.835851,-0.143374,-0.835808,-0.171374,-0.827808,-0.171737,-0.827689,-0.198737,-0.817689,-0.198886,-0.817630,-0.225886,-0.806630,-0.226095,-0.806540,-0.252095,-0.794540,-0.252443,-0.794363,-0.277443,-0.780363,-0.277572,-0.780287,-0.302572,-0.765287,-0.302855,-0.765105,
-0.325855,-0.749105,-0.326082,-0.748938,-0.349082,-0.730938,-0.371166,-0.712870,-0.371448,-0.712621,-0.392448,-0.692621,-0.392621,-0.692448,-0.412621,-0.671448,-0.412870,-0.671166,-0.430938,-0.649082,-0.448938,-0.626082,-0.449105,-0.625855,-0.465105,-0.602855,-0.465287,-0.602572,-0.480287,-0.577572,-0.480363,-0.577443,-0.494363,-0.552443,-0.494540,-0.552095,-0.506540,-0.526095,-0.506630,-0.525886,
-0.517630,-0.498886,-0.517689,-0.498737,-0.527689,-0.471737,-0.527808,-0.471374,-0.535808,-0.443374,-0.535851,-0.443213,-0.542851,-0.415213,-0.542922,-0.414879,-0.547922,-0.386879,-0.547953,-0.386683,-0.551953,-0.357683,-0.551987,-0.357356,-0.553987,-0.329356,-0.553997,-0.329172,-0.554997,-0.300172,-0.555000,-0.300000,-0.555000,0.300000,-0.554997,0.300172,-0.553997,0.329172,-0.553987,0.329356,
-0.551987,0.357356,-0.551953,0.357683,-0.547953,0.386683,-0.547922,0.386879,-0.542922,0.414879,-0.542851,0.415213,-0.535851,0.443213,-0.535808,0.443374,-0.527808,0.471374,-0.527689,0.471737,-0.517689,0.498737,-0.517630,0.498886,-0.506630,0.525886,-0.506540,0.526095,-0.494540,0.552095,-0.494363,0.552443,-0.480363,0.577443,-0.480287,0.577572,-0.465287,0.602572,-0.465105,0.602855,
-0.449105,0.625855,-0.448938,0.626082,-0.430938,0.649082,-0.412870,0.671166,-0.412621,0.671448,-0.392621,0.692448,-0.392448,0.692621,-0.371448,0.712621,-0.371166,0.712870,-0.349082,0.730938,-0.326082,0.748938,-0.325855,0.749105,-0.302855,0.765105,-0.302572,0.765287,-0.277572,0.780287,-0.277443,0.780363,-0.252443,0.794363,-0.252095,0.794540,-0.226095,0.806540,-0.225886,0.806630,
-0.198886,0.817630,-0.198737,0.817689,-0.171737,0.827689,-0.171374,0.827808,-0.143374,0.835808,-0.143213,0.835851,-0.115213,0.842851,-0.114879,0.842922,-0.086879,0.847922,-0.086683,0.847953,-0.057683,0.851953,-0.057356,0.851987,-0.029356,0.853987,-0.029172,0.853997,-0.000172,0.854997,0.000172,0.854997,0.029172,0.853997,0.029172,0.853997,$1*%
G04 Aperture macros list end*
%TA.AperFunction,ComponentPad*%
%ADD10R,0.850000X0.850000*%
%TD*%
%TA.AperFunction,ComponentPad*%
%ADD11C,0.850000*%
%TD*%
%TA.AperFunction,ComponentPad*%
%ADD12R,1.651000X1.651000*%
%TD*%
%TA.AperFunction,ComponentPad*%
%ADD13C,1.651000*%
%TD*%
%TA.AperFunction,ComponentPad*%
%ADD14R,1.508000X1.508000*%
%TD*%
%TA.AperFunction,ComponentPad*%
%ADD15R,1.800000X1.800000*%
%TD*%
%TA.AperFunction,ComponentPad*%
%ADD16C,1.800000*%
%TD*%
%TA.AperFunction,ComponentPad*%
%ADD17FreePoly0,270.000000*%
%TD*%
%TA.AperFunction,ComponentPad*%
%ADD18C,1.930400*%
%TD*%
%TA.AperFunction,SMDPad,CuDef*%
%ADD19R,1.500000X1.500000*%
%TD*%
%TA.AperFunction,ViaPad*%
%ADD20C,0.600000*%
%TD*%
%TA.AperFunction,Conductor*%
%ADD21C,0.250000*%
%TD*%
%TA.AperFunction,Conductor*%
%ADD22C,0.500000*%
%TD*%
G04 APERTURE END LIST*
D10*
%TO.P,J3,1,Pin_1_1*%
%TO.N,3V3*%
X54549250Y-57064350D03*
D11*
%TO.P,J3,2,Pin_2_2*%
%TO.N,VUSB*%
X55549250Y-57064350D03*
%TO.P,J3,3,Pin_3_3*%
%TO.N,GND*%
X56549250Y-57064350D03*
%TD*%
D12*
%TO.P,Q1,1*%
%TO.N,Net-(Q1-Pad1)*%
X68612900Y-52818200D03*
D13*
%TO.P,Q1,2*%
%TO.N,Net-(D1-A)*%
X66072900Y-52818200D03*
%TO.P,Q1,3*%
%TO.N,GND*%
X63532900Y-52818200D03*
%TD*%
D10*
%TO.P,J1,1,Pin_1_1*%
%TO.N,/PI_IO12*%
X91500000Y-95250000D03*
D11*
%TO.P,J1,2,Pin_2_2*%
%TO.N,/PI_IO13*%
X92500000Y-95250000D03*
%TO.P,J1,3,Pin_3_3*%
%TO.N,/PI_IO14*%
X93500000Y-95250000D03*
%TO.P,J1,4,Pin_4_4*%
%TO.N,/PI_IO15*%
X94500000Y-95250000D03*
%TO.P,J1,5,Pin_5_5*%
%TO.N,/CAM_IO2*%
X95500000Y-95250000D03*
%TD*%
D14*
%TO.P,U2,3V3,3V3_3V3*%
%TO.N,3V3*%
X63189250Y-62284350D03*
%TO.P,U2,3V3_EN,3V3_EN_3V3_EN*%
%TO.N,unconnected-(U2-Pad3V3_EN)*%
X60649250Y-62284350D03*
%TO.P,U2,ADC_VREF,ADC_VREF_ADC_VREF*%
%TO.N,unconnected-(U2-PadADC_VREF)*%
X65729250Y-62284350D03*
%TO.P,U2,AGND,AGND_AGND*%
%TO.N,GND*%
X70809250Y-62284350D03*
%TO.P,U2,GND,GND_GND*%
X58109250Y-62284350D03*
%TO.P,U2,GND2,GND2_GND2*%
X83509250Y-62284350D03*
%TO.P,U2,GND3,GND3_GND3*%
X96209250Y-62284350D03*
%TO.P,U2,GND4,GND4_GND4*%
X58109250Y-80064350D03*
%TO.P,U2,GND5,GND5_GND5*%
X70809250Y-80064350D03*
%TO.P,U2,GND6,GND6_GND6*%
X83509250Y-80064350D03*
%TO.P,U2,GND7,GND7_GND7*%
X96209250Y-80064350D03*
%TO.P,U2,GP0,GP0_GP0*%
%TO.N,unconnected-(U2-PadGP0)*%
X53029250Y-80064350D03*
%TO.P,U2,GP1,GP1_GP1*%
%TO.N,/CS2*%
X55569250Y-80064350D03*
%TO.P,U2,GP2,GP2_GP2*%
%TO.N,/SCK*%
X60649250Y-80064350D03*
%TO.P,U2,GP3,GP3_GP3*%
%TO.N,/MOSI*%
X63189250Y-80064350D03*
%TO.P,U2,GP4,GP4_GP4*%
%TO.N,/MISO*%
X65729250Y-80064350D03*
%TO.P,U2,GP5,GP5_GP5*%
%TO.N,/CS1*%
X68269250Y-80064350D03*
%TO.P,U2,GP6,GP6_GP6*%
%TO.N,/SDA*%
X73349250Y-80064350D03*
%TO.P,U2,GP7,GP7_GP7*%
%TO.N,/SCL*%
X75889250Y-80064350D03*
%TO.P,U2,GP8,GP8_GP8*%
%TO.N,/UART TX*%
X78429250Y-80064350D03*
%TO.P,U2,GP9,GP9_GP9*%
%TO.N,/UART RX*%
X80969250Y-80064350D03*
%TO.P,U2,GP10,GP10_GP10*%
%TO.N,/Solenoid*%
X86049250Y-80064350D03*
%TO.P,U2,GP11,GP11_GP11*%
%TO.N,unconnected-(U2-PadGP11)*%
X88589250Y-80064350D03*
%TO.P,U2,GP12,GP12_GP12*%
%TO.N,/PI_IO12*%
X91129250Y-80064350D03*
%TO.P,U2,GP13,GP13_GP13*%
%TO.N,/PI_IO13*%
X93669250Y-80064350D03*
%TO.P,U2,GP14,GP14_GP14*%
%TO.N,/PI_IO14*%
X98749250Y-80064350D03*
%TO.P,U2,GP15,GP15_GP15*%
%TO.N,/PI_IO15*%
X101289250Y-80064350D03*
%TO.P,U2,GP16,GP16_GP16*%
%TO.N,unconnected-(U2-PadGP16)*%
X101289250Y-62284350D03*
%TO.P,U2,GP17,GP17_GP17*%
%TO.N,unconnected-(U2-PadGP17)*%
X98749250Y-62284350D03*
%TO.P,U2,GP18,GP18_GP18*%
%TO.N,unconnected-(U2-PadGP18)*%
X93669250Y-62284350D03*
%TO.P,U2,GP19,GP19_GP19*%
%TO.N,unconnected-(U2-PadGP19)*%
X91129250Y-62284350D03*
%TO.P,U2,GP20,GP20_GP20*%
%TO.N,unconnected-(U2-PadGP20)*%
X88589250Y-62284350D03*
%TO.P,U2,GP21,GP21_GP21*%
%TO.N,unconnected-(U2-PadGP21)*%
X86049250Y-62284350D03*
%TO.P,U2,GP22,GP22_GP22*%
%TO.N,unconnected-(U2-PadGP22)*%
X80969250Y-62284350D03*
%TO.P,U2,GP26_A0,GP26_A0_GP26_A0*%
%TO.N,unconnected-(U2-PadGP26_A0)*%
X75889250Y-62284350D03*
%TO.P,U2,GP27_A1,GP27_A1_GP27_A1*%
%TO.N,unconnected-(U2-PadGP27_A1)*%
X73349250Y-62284350D03*
%TO.P,U2,GP28_A2,GP28_A2_GP28_A2*%
%TO.N,unconnected-(U2-PadGP28_A2)*%
X68269250Y-62284350D03*
%TO.P,U2,RUN,RUN_RUN*%
%TO.N,unconnected-(U2-PadRUN)*%
X78429250Y-62284350D03*
%TO.P,U2,VBUS,VBUS_VBUS*%
%TO.N,VUSB*%
X53029250Y-62284350D03*
%TO.P,U2,VSYS,VSYS_VSYS*%
%TO.N,unconnected-(U2-PadVSYS)*%
X55569250Y-62284350D03*
%TD*%
D15*
%TO.P,D8,1,K_1*%
%TO.N,Net-(D8-K)*%
X107250000Y-108525000D03*
D16*
%TO.P,D8,2,A_2*%
%TO.N,VLED*%
X107250000Y-105985000D03*
%TD*%
D10*
%TO.P,SW2,1,1_1*%
%TO.N,GND*%
X99000000Y-56750000D03*
D11*
%TO.P,SW2,2,2_2*%
%TO.N,/Switch*%
X100000000Y-56750000D03*
%TD*%
D10*
%TO.P,J2,1,Pin_1_1*%
%TO.N,VLED*%
X133750000Y-106210000D03*
D11*
%TO.P,J2,2,Pin_2_2*%
%TO.N,GND_LED*%
X133750000Y-107210000D03*
%TD*%
D15*
%TO.P,D7,1,K_1*%
%TO.N,Net-(D7-K)*%
X75295000Y-108275000D03*
D16*
%TO.P,D7,2,A_2*%
%TO.N,VLED*%
X75295000Y-105735000D03*
%TD*%
D17*
%TO.P,J4,S1,SHIELD_S1*%
%TO.N,GND_LED*%
X56920000Y-102430000D03*
%TO.P,J4,S2,SHIELD_S2*%
X56920000Y-111070000D03*
%TO.P,J4,S3,SHIELD_S3*%
X53120000Y-102430000D03*
%TO.P,J4,S4,SHIELD_S4*%
X53120000Y-111070000D03*
%TD*%
D18*
%TO.P,U1,3V3,3V3_3V3*%
%TO.N,unconnected-(U1-Pad3V3)*%
X115460000Y-59140000D03*
%TO.P,U1,5V,5V_5V*%
%TO.N,VUSB*%
X115460000Y-82000000D03*
%TO.P,U1,GND,GND_GND*%
%TO.N,GND*%
X123080000Y-59140000D03*
%TO.P,U1,GND1,GND1_GND1*%
X133240000Y-59140000D03*
%TO.P,U1,GND2,GND2_GND2*%
X118000000Y-82000000D03*
%TO.P,U1,IO0,IO0_IO0*%
%TO.N,unconnected-(U1-PadIO0)*%
X120540000Y-59140000D03*
%TO.P,U1,IO2,IO2_IO2*%
%TO.N,/CAM_IO2*%
X130700000Y-82000000D03*
%TO.P,U1,IO4,IO4_IO4*%
%TO.N,/SDA*%
X133240000Y-82000000D03*
%TO.P,U1,IO12,IO12_IO12*%
%TO.N,Net-(R15-Pad1)*%
X120540000Y-82000000D03*
%TO.P,U1,IO13,IO13_IO13*%
%TO.N,Net-(R11-Pad1)*%
X123080000Y-82000000D03*
%TO.P,U1,IO14,IO14_IO14*%
%TO.N,/SCK*%
X128160000Y-82000000D03*
%TO.P,U1,IO15,IO15_IO15*%
%TO.N,/MOSI*%
X125620000Y-82000000D03*
%TO.P,U1,IO16,IO16_IO16*%
%TO.N,/SCL*%
X118000000Y-59140000D03*
%TO.P,U1,U0R,U0R_U0R*%
%TO.N,unconnected-(U1-PadU0R)*%
X128160000Y-59140000D03*
%TO.P,U1,U0T,U0T_U0T*%
%TO.N,unconnected-(U1-PadU0T)*%
X130700000Y-59140000D03*
%TO.P,U1,VOUT,VOUT_VOUT*%
%TO.N,unconnected-(U1-PadVOUT)*%
X125620000Y-59140000D03*
%TD*%
D10*
%TO.P,L1,1,1_1*%
%TO.N,Net-(D1-A)*%
X92750000Y-56750000D03*
D11*
%TO.P,L1,2,2_2*%
%TO.N,VUSB*%
X93750000Y-56750000D03*
%TD*%
D15*
%TO.P,D9,1,K_1*%
%TO.N,Net-(D9-K)*%
X144750000Y-107750000D03*
D16*
%TO.P,D9,2,A_2*%
%TO.N,VLED*%
X144750000Y-105210000D03*
%TD*%
D19*
%TO.P,TP11,1,1_1*%
%TO.N,GND*%
X75250000Y-95500000D03*
%TD*%
%TO.P,TP6,1,1_1*%
%TO.N,/SCL*%
X75250000Y-92000000D03*
%TD*%
%TO.P,TP16,1,1_1*%
%TO.N,GND_LED*%
X80295000Y-109250000D03*
%TD*%
%TO.P,TP12,1,1_1*%
%TO.N,3V3*%
X58750000Y-94250000D03*
%TD*%
%TO.P,TP15,1,1_1*%
%TO.N,VLED*%
X80295000Y-105000000D03*
%TD*%
%TO.P,TP2,1,1_1*%
%TO.N,Net-(Q1-Pad1)*%
X76000000Y-57500000D03*
%TD*%
%TO.P,TP4,1,1_1*%
%TO.N,/MISO*%
X63500000Y-89000000D03*
%TD*%
%TO.P,TP3,1,1_1*%
%TO.N,GND*%
X103500000Y-55000000D03*
%TD*%
%TO.P,TP5,1,1_1*%
%TO.N,/SDA*%
X60500000Y-89000000D03*
%TD*%
%TO.P,TP13,1,1_1*%
%TO.N,/MOSI*%
X63500000Y-92750000D03*
%TD*%
%TO.P,TP14,1,1_1*%
%TO.N,/Switch*%
X103500000Y-58750000D03*
%TD*%
%TO.P,TP9,1,1_1*%
%TO.N,/SCK*%
X128500000Y-87500000D03*
%TD*%
%TO.P,TP10,1,1_1*%
%TO.N,VUSB*%
X96250000Y-55750000D03*
%TD*%
%TO.P,TP8,1,1_1*%
%TO.N,/CS2*%
X125250000Y-87500000D03*
%TD*%
%TO.P,TP7,1,1_1*%
%TO.N,/CS1*%
X72500000Y-87250000D03*
%TD*%
D20*
%TO.N,Net-(Q1-Pad1)*%
X75750000Y-55750000D03*
%TO.N,/UART RX*%
X81549250Y-86564350D03*
X116049250Y-86564350D03*
%TO.N,/SCK*%
X68750000Y-84500000D03*
X60750000Y-84250000D03*
%TO.N,Net-(U3-SCL)*%
X69000000Y-89750000D03*
X66875126Y-89750000D03*
%TO.N,/SCL*%
X118000000Y-68250000D03*
X74500000Y-89250000D03*
X78250000Y-70750000D03*
%TO.N,VUSB*%
X115500000Y-73000000D03*
X98500000Y-54750000D03*
X92500000Y-72000000D03*
%TO.N,3V3*%
X69000000Y-94750000D03*
X61000000Y-94750000D03*
%TO.N,GND*%
X69250000Y-96250000D03*
%TO.N,GND_LED*%
X78795000Y-110250000D03*
%TO.N,/CAM_IO2*%
X130250000Y-92000000D03*
X95750000Y-93500000D03*
%TO.N,/SDA*%
X61250000Y-86750000D03*
X70000000Y-86500000D03*
X120125000Y-77750000D03*
%TO.N,/MISO*%
X116049250Y-88564350D03*
X66049250Y-88564350D03*
%TO.N,/CS1*%
X67500126Y-87500000D03*
%TO.N,Net-(U3-SDA)*%
X66132322Y-90047062D03*
X64750000Y-91250000D03*
%TO.N,/CS2*%
X55549250Y-85564350D03*
X122049250Y-85564350D03*
%TO.N,/MOSI*%
X122250000Y-76750000D03*
X63189250Y-87500000D03*
%TO.N,/UART TX*%
X78549250Y-89564350D03*
X122049250Y-89564350D03*
%TO.N,/Switch*%
X99500000Y-58250000D03*
X89000000Y-58250000D03*
%TO.N,VLED*%
X59130000Y-104000000D03*
X59000000Y-108250000D03*
%TD*%
%TO.N,Net-(Q1-Pad1)*%
D21*
X75750000Y-57250000D02*
X76000000Y-57500000D01*
X75750000Y-55750000D02*
X75750000Y-57250000D01*
%TO.N,/UART RX*%
X116049250Y-86564350D02*
X81549250Y-86564350D01*
%TO.N,/SCK*%
X128160000Y-83499800D02*
X128160000Y-82000000D01*
X128500000Y-87500000D02*
X128500000Y-85840200D01*
X68500000Y-84250000D02*
X60750000Y-84250000D01*
X68750000Y-84500000D02*
X68500000Y-84250000D01*
X68750000Y-84500000D02*
X127159800Y-84500000D01*
X127159800Y-84500000D02*
X128160000Y-83499800D01*
X128500000Y-85840200D02*
X127159800Y-84500000D01*
%TO.N,Net-(U3-SCL)*%
X66875126Y-89750000D02*
X69000000Y-89750000D01*
%TO.N,/SCL*%
X75250000Y-90000000D02*
X75250000Y-91500000D01*
X115500000Y-70750000D02*
X118000000Y-68250000D01*
X78250000Y-70750000D02*
X115500000Y-70750000D01*
X74500000Y-89250000D02*
X75250000Y-90000000D01*
%TO.N,VUSB*%
X115500000Y-73000000D02*
X115500000Y-72750000D01*
X92500000Y-72000000D02*
X62744900Y-72000000D01*
X62744900Y-72000000D02*
X53029250Y-62284350D01*
X97500000Y-55750000D02*
X98500000Y-54750000D01*
X96250000Y-55750000D02*
X97500000Y-55750000D01*
X114750000Y-72000000D02*
X92500000Y-72000000D01*
X115500000Y-72750000D02*
X114750000Y-72000000D01*
%TO.N,3V3*%
X58750000Y-94250000D02*
X60500000Y-94250000D01*
X60500000Y-94250000D02*
X61000000Y-94750000D01*
X61000000Y-94750000D02*
X69000000Y-94750000D01*
%TO.N,GND_LED*%
D22*
X80295000Y-109250000D02*
X79795000Y-109250000D01*
X79795000Y-109250000D02*
X78795000Y-110250000D01*
%TO.N,/CAM_IO2*%
D21*
X128750000Y-93500000D02*
X130250000Y-92000000D01*
X95750000Y-93500000D02*
X128750000Y-93500000D01*
%TO.N,/SDA*%
X120125000Y-77750000D02*
X75663600Y-77750000D01*
X60500000Y-89000000D02*
X60500000Y-87500000D01*
X61250000Y-86750000D02*
X61500000Y-86500000D01*
X60500000Y-87500000D02*
X61250000Y-86750000D01*
X61500000Y-86500000D02*
X70000000Y-86500000D01*
X75663600Y-77750000D02*
X73349250Y-80064350D01*
%TO.N,/MISO*%
X65613600Y-89000000D02*
X63500000Y-89000000D01*
X116049250Y-88564350D02*
X66049250Y-88564350D01*
X66049250Y-88564350D02*
X65613600Y-89000000D01*
%TO.N,/CS1*%
X67750126Y-87250000D02*
X67500126Y-87500000D01*
X72500000Y-87250000D02*
X67750126Y-87250000D01*
%TO.N,Net-(U3-SDA)*%
X65500000Y-90500000D02*
X64750000Y-91250000D01*
X66132322Y-90047062D02*
X66258433Y-90173173D01*
X65679384Y-90500000D02*
X65500000Y-90500000D01*
X66132322Y-90047062D02*
X65679384Y-90500000D01*
%TO.N,/CS2*%
X123984900Y-87500000D02*
X122049250Y-85564350D01*
X122049250Y-85564350D02*
X55549250Y-85564350D01*
X125250000Y-87500000D02*
X123984900Y-87500000D01*
%TO.N,/MOSI*%
X63500000Y-91750000D02*
X62000000Y-90250000D01*
X66503600Y-76750000D02*
X63189250Y-80064350D01*
X122250000Y-76750000D02*
X66503600Y-76750000D01*
X62750000Y-87500000D02*
X63189250Y-87500000D01*
X63500000Y-91750000D02*
X63500000Y-92750000D01*
X62000000Y-90250000D02*
X62000000Y-88250000D01*
X62000000Y-88250000D02*
X62750000Y-87500000D01*
%TO.N,/UART TX*%
X122049250Y-89564350D02*
X78549250Y-89564350D01*
%TO.N,/Switch*%
X103500000Y-58750000D02*
X100000000Y-58750000D01*
X99500000Y-58250000D02*
X89000000Y-58250000D01*
X100000000Y-58750000D02*
X99500000Y-58250000D01*
%TO.N,VLED*%
D22*
X59130000Y-104000000D02*
X59130000Y-108120000D01*
D21*
X80295000Y-105000000D02*
X76030000Y-105000000D01*
X76030000Y-105000000D02*
X75295000Y-105735000D01*
D22*
X59130000Y-108120000D02*
X59000000Y-108250000D01*
%TD*%
%TA.AperFunction,Conductor*%
%TO.N,GND*%
G36*
X74921187Y-77395185D02*
G01*
X74966942Y-77447989D01*
X74976886Y-77517147D01*
X74947861Y-77580703D01*
X74941829Y-77587181D01*
X73755477Y-78773531D01*
X73694154Y-78807016D01*
X73667796Y-78809850D01*
X72547379Y-78809850D01*
X72547373Y-78809851D01*
X72487766Y-78816258D01*
X72352921Y-78866552D01*
X72352914Y-78866556D01*
X72237705Y-78952802D01*
X72178203Y-79032285D01*
X72122268Y-79074156D01*
X72052576Y-79079139D01*
X71991254Y-79045652D01*
X71979670Y-79032284D01*
X71920436Y-78953159D01*
X71805343Y-78866999D01*
X71805336Y-78866995D01*
X71670629Y-78816753D01*
X71670622Y-78816751D01*
X71611094Y-78810350D01*
X71059250Y-78810350D01*
X71059250Y-79631338D01*
X71002243Y-79598425D01*
X70875076Y-79564350D01*
X70743424Y-79564350D01*
X70616257Y-79598425D01*
X70559250Y-79631338D01*
X70559250Y-78810350D01*
X70007405Y-78810350D01*
X69947877Y-78816751D01*
X69947870Y-78816753D01*
X69813163Y-78866995D01*
X69813156Y-78866999D01*
X69698062Y-78953159D01*
X69638828Y-79032285D01*
X69582894Y-79074155D01*
X69513202Y-79079139D01*
X69451879Y-79045653D01*
X69440296Y-79032285D01*
X69410982Y-78993128D01*
X69380796Y-78952804D01*
X69380794Y-78952803D01*
X69380794Y-78952802D01*
X69265585Y-78866556D01*
X69265578Y-78866552D01*
X69130732Y-78816258D01*
X69130733Y-78816258D01*
X69071133Y-78809851D01*
X69071131Y-78809850D01*
X69071123Y-78809850D01*
X69071114Y-78809850D01*
X67467379Y-78809850D01*
X67467373Y-78809851D01*
X67407766Y-78816258D01*
X67272921Y-78866552D01*
X67272914Y-78866556D01*
X67157705Y-78952802D01*
X67098516Y-79031868D01*
X67042582Y-79073738D01*
X66972890Y-79078722D01*
X66911567Y-79045236D01*
X66899984Y-79031868D01*
X66866507Y-78987149D01*
X66840796Y-78952804D01*
X66840794Y-78952803D01*
X66840794Y-78952802D01*
X66725585Y-78866556D01*
X66725578Y-78866552D01*
X66590732Y-78816258D01*
X66590733Y-78816258D01*
X66531133Y-78809851D01*
X66531131Y-78809850D01*
X66531123Y-78809850D01*
X66531115Y-78809850D01*
X65627701Y-78809850D01*
X65560662Y-78790165D01*
X65514907Y-78737361D01*
X65504963Y-78668203D01*
X65533988Y-78604647D01*
X65540020Y-78598169D01*
X65726371Y-78411819D01*
X66726372Y-77411819D01*
X66787695Y-77378334D01*
X66814053Y-77375500D01*
X74854148Y-77375500D01*
X74921187Y-77395185D01*
G37*
%TD.AperFunction*%
%TA.AperFunction,Conductor*%
G36*
X149442539Y-50520185D02*
G01*
X149488294Y-50572989D01*
X149499500Y-50624500D01*
X149499500Y-97876000D01*
X149479815Y-97943039D01*
X149427011Y-97988794D01*
X149375500Y-98000000D01*
X50624500Y-98000000D01*
X50557461Y-97980315D01*
X50511706Y-97927511D01*
X50500500Y-97876000D01*
X50500500Y-96297844D01*
X74000000Y-96297844D01*
X74006401Y-96357372D01*
X74006403Y-96357379D01*
X74056645Y-96492086D01*
X74056649Y-96492093D01*
X74142809Y-96607187D01*
X74142812Y-96607190D01*
X74257906Y-96693350D01*
X74257913Y-96693354D01*
X74392620Y-96743596D01*
X74392627Y-96743598D01*
X74452155Y-96749999D01*
X74452172Y-96750000D01*
X75000000Y-96750000D01*
X75500000Y-96750000D01*
X76047828Y-96750000D01*
X76047844Y-96749999D01*
X76107372Y-96743598D01*
X76107379Y-96743596D01*
X76242086Y-96693354D01*
X76242093Y-96693350D01*
X76357187Y-96607190D01*
X76357190Y-96607187D01*
X76443350Y-96492093D01*
X76443354Y-96492086D01*
X76493596Y-96357379D01*
X76493598Y-96357372D01*
X76499999Y-96297844D01*
X76500000Y-96297827D01*
X76500000Y-95750000D01*
X75500000Y-95750000D01*
X75500000Y-96750000D01*
X75000000Y-96750000D01*
X75000000Y-95750000D01*
X74000000Y-95750000D01*
X74000000Y-96297844D01*
X50500500Y-96297844D01*
X50500500Y-85485503D01*
X54748750Y-85485503D01*
X54748750Y-85643196D01*
X54779511Y-85797839D01*
X54779514Y-85797851D01*
X54839852Y-85943522D01*
X54839859Y-85943535D01*
X54927460Y-86074638D01*
X54927463Y-86074642D01*
X55038957Y-86186136D01*
X55038961Y-86186139D01*
X55170064Y-86273740D01*
X55170077Y-86273747D01*
X55307945Y-86330853D01*
X55315753Y-86334087D01*
X55470403Y-86364849D01*
X55470406Y-86364850D01*
X55470408Y-86364850D01*
X55628094Y-86364850D01*
X55628095Y-86364849D01*
X55782747Y-86334087D01*
X55928429Y-86273744D01*
X56022709Y-86210748D01*
X56089386Y-86189870D01*
X56091600Y-86189850D01*
X60430455Y-86189850D01*
X60497494Y-86209535D01*
X60543249Y-86262339D01*
X60553193Y-86331497D01*
X60542240Y-86364903D01*
X60542937Y-86365192D01*
X60480264Y-86516498D01*
X60480261Y-86516508D01*
X60458141Y-86627714D01*
X60425756Y-86689625D01*
X60424205Y-86691203D01*
X60171887Y-86943522D01*
X60101270Y-87014139D01*
X60101267Y-87014142D01*
X60057705Y-87057703D01*
X60014144Y-87101264D01*
X60014142Y-87101267D01*
X59995492Y-87129179D01*
X59995491Y-87129181D01*
X59995490Y-87129180D01*
X59945689Y-87203712D01*
X59945685Y-87203719D01*
X59918341Y-87269736D01*
X59898539Y-87317541D01*
X59898535Y-87317555D01*
X59874500Y-87438389D01*
X59874500Y-87625500D01*
X59854815Y-87692539D01*
X59802011Y-87738294D01*
X59750502Y-87749500D01*
X59702131Y-87749500D01*
X59702123Y-87749501D01*
X59642516Y-87755908D01*
X59507671Y-87806202D01*
X59507664Y-87806206D01*
X59392455Y-87892452D01*
X59392452Y-87892455D01*
X59306206Y-88007664D01*
X59306202Y-88007671D01*
X59255908Y-88142517D01*
X59251323Y-88185171D01*
X59249501Y-88202123D01*
X59249500Y-88202135D01*
X59249500Y-89797870D01*
X59249501Y-89797876D01*
X59255908Y-89857483D01*
X59306202Y-89992328D01*
X59306206Y-89992335D01*
X59392452Y-90107544D01*
X59392455Y-90107547D01*
X59507664Y-90193793D01*
X59507671Y-90193797D01*
X59642517Y-90244091D01*
X59642516Y-90244091D01*
X59649444Y-90244835D01*
X59702127Y-90250500D01*
X61260580Y-90250499D01*
X61288609Y-90258729D01*
X61317299Y-90264232D01*
X61321738Y-90268457D01*
X61327619Y-90270184D01*
X61346747Y-90292259D01*
X61367911Y-90312401D01*
X61370766Y-90319977D01*
X61373374Y-90322987D01*
X61381058Y-90345155D01*
X61381687Y-90347739D01*
X61398537Y-90432452D01*
X61404064Y-90445795D01*
X61407718Y-90454617D01*
X61407720Y-90454624D01*
X61445685Y-90546281D01*
X61445687Y-90546284D01*
X61445688Y-90546286D01*
X61462808Y-90571906D01*
X61479914Y-90597507D01*
X61479915Y-90597509D01*
X61514140Y-90648731D01*
X61514141Y-90648732D01*
X61514142Y-90648733D01*
X61601267Y-90735858D01*
X61601268Y-90735858D01*
X61608335Y-90742925D01*
X61608334Y-90742925D01*
X61608338Y-90742928D01*
X62365886Y-91500476D01*
X62399371Y-91561799D01*
X62394387Y-91631491D01*
X62377471Y-91662468D01*
X62306206Y-91757664D01*
X62306202Y-91757671D01*
X62255908Y-91892517D01*
X62249501Y-91952116D01*
X62249500Y-91952135D01*
X62249500Y-93547870D01*
X62249501Y-93547876D01*
X62255908Y-93607483D01*
X62306202Y-93742328D01*
X62306206Y-93742335D01*
X62375358Y-93834709D01*
X62392454Y-93857546D01*
X62450813Y-93901234D01*
X62492684Y-93957167D01*
X62497668Y-94026859D01*
X62464183Y-94088182D01*
X62402859Y-94121666D01*
X62376502Y-94124500D01*
X61542350Y-94124500D01*
X61475311Y-94104815D01*
X61473459Y-94103602D01*
X61379184Y-94040609D01*
X61379172Y-94040602D01*
X61233501Y-93980264D01*
X61233489Y-93980261D01*
X61122285Y-93958141D01*
X61105528Y-93949376D01*
X61087049Y-93945356D01*
X61062010Y-93926611D01*
X61060374Y-93925756D01*
X61058795Y-93924205D01*
X60990198Y-93855608D01*
X60990178Y-93855586D01*
X60898733Y-93764141D01*
X60853325Y-93733801D01*
X60853324Y-93733800D01*
X60847509Y-93729915D01*
X60796286Y-93695688D01*
X60715792Y-93662347D01*
X60700457Y-93655995D01*
X60682453Y-93648537D01*
X60672427Y-93646543D01*
X60622029Y-93636518D01*
X60561610Y-93624500D01*
X60561607Y-93624500D01*
X60561606Y-93624500D01*
X60124499Y-93624500D01*
X60057460Y-93604815D01*
X60011705Y-93552011D01*
X60000499Y-93500500D01*
X60000499Y-93452129D01*
X60000498Y-93452123D01*
X60000497Y-93452116D01*
X59994091Y-93392517D01*
X59947093Y-93266510D01*
X59943797Y-93257671D01*
X59943793Y-93257664D01*
X59857547Y-93142455D01*
X59857544Y-93142452D01*
X59742335Y-93056206D01*
X59742328Y-93056202D01*
X59607482Y-93005908D01*
X59607483Y-93005908D01*
X59547883Y-92999501D01*
X59547881Y-92999500D01*
X59547873Y-92999500D01*
X59547864Y-92999500D01*
X57952129Y-92999500D01*
X57952123Y-92999501D01*
X57892516Y-93005908D01*
X57757671Y-93056202D01*
X57757664Y-93056206D01*
X57642455Y-93142452D01*
X57642452Y-93142455D01*
X57556206Y-93257664D01*
X57556202Y-93257671D01*
X57505908Y-93392517D01*
X57499501Y-93452116D01*
X57499501Y-93452123D01*
X57499500Y-93452135D01*
X57499500Y-95047870D01*
X57499501Y-95047876D01*
X57505908Y-95107483D01*
X57556202Y-95242328D01*
X57556206Y-95242335D01*
X57642452Y-95357544D01*
X57642455Y-95357547D01*
X57757664Y-95443793D01*
X57757671Y-95443797D01*
X57892517Y-95494091D01*
X57892516Y-95494091D01*
X57899444Y-95494835D01*
X57952127Y-95500500D01*
X59547872Y-95500499D01*
X59607483Y-95494091D01*
X59742331Y-95443796D01*
X59857546Y-95357546D01*
X59943796Y-95242331D01*
X59994091Y-95107483D01*
X60000500Y-95047873D01*
X60000500Y-95047837D01*
X60000629Y-95045445D01*
X60000819Y-95044906D01*
X60000855Y-95044572D01*
X60000933Y-95044580D01*
X60023870Y-94979554D01*
X60079045Y-94936688D01*
X60148637Y-94930456D01*
X60210549Y-94962838D01*
X60239013Y-95004623D01*
X60290602Y-95129172D01*
X60290609Y-95129185D01*
X60378210Y-95260288D01*
X60378213Y-95260292D01*
X60489707Y-95371786D01*
X60489711Y-95371789D01*
X60620814Y-95459390D01*
X60620827Y-95459397D01*
X60720060Y-95500500D01*
X60766503Y-95519737D01*
X60921153Y-95550499D01*
X60921156Y-95550500D01*
X60921158Y-95550500D01*
X61078844Y-95550500D01*
X61078845Y-95550499D01*
X61233497Y-95519737D01*
X61379179Y-95459394D01*
X61473459Y-95396398D01*
X61540136Y-95375520D01*
X61542350Y-95375500D01*
X68457650Y-95375500D01*
X68524689Y-95395185D01*
X68526541Y-95396398D01*
X68620821Y-95459394D01*
X68620823Y-95459395D01*
X68620827Y-95459397D01*
X68720060Y-95500500D01*
X68766503Y-95519737D01*
X68921153Y-95550499D01*
X68921156Y-95550500D01*
X68921158Y-95550500D01*
X69078844Y-95550500D01*
X69078845Y-95550499D01*
X69233497Y-95519737D01*
X69379179Y-95459394D01*
X69510289Y-95371789D01*
X69621789Y-95260289D01*
X69709394Y-95129179D01*
X69769737Y-94983497D01*
X69800500Y-94828842D01*
X69800500Y-94702155D01*
X74000000Y-94702155D01*
X74000000Y-95250000D01*
X75000000Y-95250000D01*
X75500000Y-95250000D01*
X76500000Y-95250000D01*
X76500000Y-94777135D01*
X90574500Y-94777135D01*
X90574500Y-95722870D01*
X90574501Y-95722876D01*
X90580908Y-95782483D01*
X90631202Y-95917328D01*
X90631206Y-95917335D01*
X90717452Y-96032544D01*
X90717455Y-96032547D01*
X90832664Y-96118793D01*
X90832671Y-96118797D01*
X90967517Y-96169091D01*
X90967516Y-96169091D01*
X90974444Y-96169835D01*
X91027127Y-96175500D01*
X91972872Y-96175499D01*
X92032483Y-96169091D01*
X92127768Y-96133551D01*
X92197457Y-96128568D01*
X92218551Y-96135173D01*
X92230042Y-96139933D01*
X92230044Y-96139933D01*
X92230046Y-96139934D01*
X92408843Y-96175500D01*
X92408846Y-96175500D01*
X92591156Y-96175500D01*
X92711445Y-96151572D01*
X92769958Y-96139933D01*
X92938389Y-96070167D01*
X92938394Y-96070163D01*
X92941541Y-96068482D01*
X92943386Y-96068097D01*
X92944018Y-96067836D01*
X92944067Y-96067955D01*
X93009943Y-96054236D01*
X93058459Y-96068482D01*
X93061615Y-96070169D01*
X93179005Y-96118793D01*
X93230042Y-96139933D01*
X93230046Y-96139933D01*
X93230047Y-96139934D01*
X93408843Y-96175500D01*
X93408846Y-96175500D01*
X93591156Y-96175500D01*
X93711445Y-96151572D01*
X93769958Y-96139933D01*
X93938389Y-96070167D01*
X93938394Y-96070163D01*
X93941541Y-96068482D01*
X93943386Y-96068097D01*
X93944018Y-96067836D01*
X93944067Y-96067955D01*
X94009943Y-96054236D01*
X94058459Y-96068482D01*
X94061615Y-96070169D01*
X94179005Y-96118793D01*
X94230042Y-96139933D01*
X94230046Y-96139933D01*
X94230047Y-96139934D01*
X94408843Y-96175500D01*
X94408846Y-96175500D01*
X94591156Y-96175500D01*
X94711445Y-96151572D01*
X94769958Y-96139933D01*
X94938389Y-96070167D01*
X94938394Y-96070163D01*
X94941541Y-96068482D01*
X94943386Y-96068097D01*
X94944018Y-96067836D01*
X94944067Y-96067955D01*
X95009943Y-96054236D01*
X95058459Y-96068482D01*
X95061615Y-96070169D01*
X95179005Y-96118793D01*
X95230042Y-96139933D01*
X95230046Y-96139933D01*
X95230047Y-96139934D01*
X95408843Y-96175500D01*
X95408846Y-96175500D01*
X95591156Y-96175500D01*
X95711445Y-96151572D01*
X95769958Y-96139933D01*
X95882245Y-96093422D01*
X95938387Y-96070168D01*
X95938391Y-96070166D01*
X96013672Y-96019864D01*
X96089972Y-95968883D01*
X96218883Y-95839972D01*
X96320167Y-95688389D01*
X96389933Y-95519958D01*
X96405083Y-95443796D01*
X96425500Y-95341156D01*
X96425500Y-95158843D01*
X96389934Y-94980047D01*
X96389933Y-94980046D01*
X96389933Y-94980042D01*
X96327306Y-94828846D01*
X96320168Y-94811612D01*
X96320166Y-94811608D01*
X96218886Y-94660032D01*
X96218880Y-94660024D01*
X96089975Y-94531119D01*
X96089967Y-94531113D01*
X96000633Y-94471422D01*
X95955827Y-94417810D01*
X95947120Y-94348485D01*
X95977274Y-94285458D01*
X96022070Y-94253759D01*
X96065668Y-94235701D01*
X96129173Y-94209397D01*
X96129175Y-94209395D01*
X96129179Y-94209394D01*
X96223459Y-94146398D01*
X96290136Y-94125520D01*
X96292350Y-94125500D01*
X128811607Y-94125500D01*
X128872029Y-94113481D01*
X128932452Y-94101463D01*
X128965792Y-94087652D01*
X129046286Y-94054312D01*
X129112169Y-94010289D01*
X129148733Y-93985858D01*
X129235858Y-93898733D01*
X129235858Y-93898731D01*
X129246066Y-93888524D01*
X129246067Y-93888521D01*
X130308798Y-92825791D01*
X130370119Y-92792308D01*
X130372114Y-92791892D01*
X130483497Y-92769737D01*
X130629179Y-92709394D01*
X130760289Y-92621789D01*
X130871789Y-92510289D01*
X130959394Y-92379179D01*
X131019737Y-92233497D01*
X131050500Y-92078842D01*
X131050500Y-91921158D01*
X131050500Y-91921155D01*
X131050499Y-91921153D01*
X131019737Y-91766503D01*
X130963814Y-91631491D01*
X130959397Y-91620827D01*
X130959390Y-91620814D01*
X130871789Y-91489711D01*
X130871786Y-91489707D01*
X130760292Y-91378213D01*
X130760288Y-91378210D01*
X130629185Y-91290609D01*
X130629172Y-91290602D01*
X130483501Y-91230264D01*
X130483489Y-91230261D01*
X130328845Y-91199500D01*
X130328842Y-91199500D01*
X130171158Y-91199500D01*
X130171155Y-91199500D01*
X130016510Y-91230261D01*
X130016498Y-91230264D01*
X129870827Y-91290602D01*
X129870814Y-91290609D01*
X129739711Y-91378210D01*
X129739707Y-91378213D01*
X129628213Y-91489707D01*
X129628210Y-91489711D01*
X129540609Y-91620814D01*
X129540602Y-91620827D01*
X129480264Y-91766498D01*
X129480261Y-91766508D01*
X129458141Y-91877713D01*
X129425756Y-91939624D01*
X129424205Y-91941202D01*
X128527229Y-92838181D01*
X128465906Y-92871666D01*
X128439548Y-92874500D01*
X96292350Y-92874500D01*
X96225311Y-92854815D01*
X96223459Y-92853602D01*
X96129184Y-92790609D01*
X96129172Y-92790602D01*
X95983501Y-92730264D01*
X95983489Y-92730261D01*
X95828845Y-92699500D01*
X95828842Y-92699500D01*
X95671158Y-92699500D01*
X95671155Y-92699500D01*
X95516510Y-92730261D01*
X95516498Y-92730264D01*
X95370827Y-92790602D01*
X95370814Y-92790609D01*
X95239711Y-92878210D01*
X95239707Y-92878213D01*
X95128213Y-92989707D01*
X95128210Y-92989711D01*
X95040609Y-93120814D01*
X95040602Y-93120827D01*
X94980264Y-93266498D01*
X94980261Y-93266510D01*
X94949500Y-93421153D01*
X94949500Y-93578846D01*
X94980261Y-93733489D01*
X94980264Y-93733501D01*
X95040602Y-93879172D01*
X95040609Y-93879185D01*
X95128210Y-94010288D01*
X95128213Y-94010292D01*
X95239708Y-94121787D01*
X95239711Y-94121789D01*
X95263961Y-94137992D01*
X95270432Y-94145735D01*
X95279461Y-94150242D01*
X95292460Y-94172093D01*
X95308766Y-94191604D01*
X95310023Y-94201616D01*
X95315183Y-94210289D01*
X95314305Y-94235701D01*
X95317474Y-94260929D01*
X95313119Y-94270031D01*
X95312771Y-94280117D01*
X95298293Y-94301020D01*
X95287320Y-94323957D01*
X95277674Y-94330790D01*
X95272989Y-94337556D01*
X95253730Y-94347755D01*
X95242657Y-94355601D01*
X95233625Y-94359354D01*
X95230042Y-94360067D01*
X95061611Y-94429833D01*
X95057626Y-94432495D01*
X95047586Y-94436668D01*
X95018589Y-94439819D01*
X94990040Y-94445761D01*
X94982983Y-94443688D01*
X94978125Y-94444217D01*
X94968613Y-94439469D01*
X94941556Y-94431525D01*
X94938394Y-94429835D01*
X94769958Y-94360067D01*
X94769952Y-94360065D01*
X94591156Y-94324500D01*
X94591154Y-94324500D01*
X94408846Y-94324500D01*
X94408844Y-94324500D01*
X94230047Y-94360065D01*
X94230041Y-94360067D01*
X94061605Y-94429835D01*
X94058444Y-94431525D01*
X94056600Y-94431908D01*
X94055984Y-94432164D01*
X94055935Y-94432047D01*
X93990040Y-94445761D01*
X93941556Y-94431525D01*
X93938394Y-94429835D01*
X93769958Y-94360067D01*
X93769952Y-94360065D01*
X93591156Y-94324500D01*
X93591154Y-94324500D01*
X93408846Y-94324500D01*
X93408844Y-94324500D01*
X93230047Y-94360065D01*
X93230041Y-94360067D01*
X93061605Y-94429835D01*
X93058444Y-94431525D01*
X93056600Y-94431908D01*
X93055984Y-94432164D01*
X93055935Y-94432047D01*
X92990040Y-94445761D01*
X92941556Y-94431525D01*
X92938394Y-94429835D01*
X92769958Y-94360067D01*
X92769952Y-94360065D01*
X92591156Y-94324500D01*
X92591154Y-94324500D01*
X92408846Y-94324500D01*
X92408844Y-94324500D01*
X92230047Y-94360065D01*
X92230034Y-94360069D01*
X92218545Y-94364828D01*
X92149076Y-94372294D01*
X92127765Y-94366447D01*
X92123424Y-94364828D01*
X92050305Y-94337556D01*
X92032481Y-94330908D01*
X92032483Y-94330908D01*
X91972883Y-94324501D01*
X91972881Y-94324500D01*
X91972873Y-94324500D01*
X91972864Y-94324500D01*
X91027129Y-94324500D01*
X91027123Y-94324501D01*
X90967516Y-94330908D01*
X90832671Y-94381202D01*
X90832664Y-94381206D01*
X90717455Y-94467452D01*
X90717452Y-94467455D01*
X90631206Y-94582664D01*
X90631202Y-94582671D01*
X90580908Y-94717517D01*
X90574501Y-94777116D01*
X90574500Y-94777135D01*
X76500000Y-94777135D01*
X76500000Y-94702172D01*
X76499999Y-94702155D01*
X76493598Y-94642627D01*
X76493596Y-94642620D01*
X76443354Y-94507913D01*
X76443350Y-94507906D01*
X76357190Y-94392812D01*
X76357187Y-94392809D01*
X76242093Y-94306649D01*
X76242086Y-94306645D01*
X76107379Y-94256403D01*
X76107372Y-94256401D01*
X76047844Y-94250000D01*
X75500000Y-94250000D01*
X75500000Y-95250000D01*
X75000000Y-95250000D01*
X75000000Y-94250000D01*
X74452155Y-94250000D01*
X74392627Y-94256401D01*
X74392620Y-94256403D01*
X74257913Y-94306645D01*
X74257906Y-94306649D01*
X74142812Y-94392809D01*
X74142809Y-94392812D01*
X74056649Y-94507906D01*
X74056645Y-94507913D01*
X74006403Y-94642620D01*
X74006401Y-94642627D01*
X74000000Y-94702155D01*
X69800500Y-94702155D01*
X69800500Y-94671158D01*
X69800500Y-94671155D01*
X69800499Y-94671153D01*
X69794823Y-94642620D01*
X69769737Y-94516503D01*
X69749421Y-94467455D01*
X69709397Y-94370827D01*
X69709390Y-94370814D01*
X69621789Y-94239711D01*
X69621786Y-94239707D01*
X69510292Y-94128213D01*
X69510288Y-94128210D01*
X69379185Y-94040609D01*
X69379172Y-94040602D01*
X69233501Y-93980264D01*
X69233489Y-93980261D01*
X69078845Y-93949500D01*
X69078842Y-93949500D01*
X68921158Y-93949500D01*
X68921155Y-93949500D01*
X68766510Y-93980261D01*
X68766498Y-93980264D01*
X68620827Y-94040602D01*
X68620815Y-94040609D01*
X68526541Y-94103602D01*
X68459864Y-94124480D01*
X68457650Y-94124500D01*
X64623498Y-94124500D01*
X64556459Y-94104815D01*
X64510704Y-94052011D01*
X64500760Y-93982853D01*
X64529785Y-93919297D01*
X64549183Y-93901235D01*
X64607546Y-93857546D01*
X64693796Y-93742331D01*
X64744091Y-93607483D01*
X64750500Y-93547873D01*
X64750499Y-92167846D01*
X64770184Y-92100808D01*
X64822987Y-92055053D01*
X64850307Y-92046230D01*
X64983497Y-92019737D01*
X65129179Y-91959394D01*
X65260289Y-91871789D01*
X65371789Y-91760289D01*
X65459394Y-91629179D01*
X65462854Y-91620827D01*
X65487303Y-91561799D01*
X65519737Y-91483497D01*
X65541858Y-91372282D01*
X65550622Y-91355527D01*
X65554642Y-91337049D01*
X65573381Y-91312016D01*
X65574240Y-91310375D01*
X65575735Y-91308853D01*
X65736987Y-91147601D01*
X65798308Y-91114118D01*
X65800368Y-91113688D01*
X65801413Y-91113481D01*
X65861836Y-91101463D01*
X65861839Y-91101461D01*
X65861842Y-91101461D01*
X65895171Y-91087654D01*
X65895170Y-91087654D01*
X65895176Y-91087652D01*
X65975670Y-91054312D01*
X66026893Y-91020084D01*
X66032253Y-91016503D01*
X66045481Y-91007664D01*
X66078117Y-90985858D01*
X66165242Y-90898733D01*
X66165243Y-90898731D01*
X66172309Y-90891665D01*
X66172312Y-90891661D01*
X66191119Y-90872853D01*
X66252440Y-90839370D01*
X66254450Y-90838951D01*
X66365819Y-90816799D01*
X66511501Y-90756456D01*
X66642611Y-90668851D01*
X66642898Y-90668563D01*
X66657166Y-90659030D01*
X66730818Y-90585377D01*
X66732277Y-90584011D01*
X66761755Y-90569139D01*
X66790700Y-90553334D01*
X66793728Y-90553008D01*
X66794657Y-90552540D01*
X66796396Y-90552721D01*
X66817058Y-90550500D01*
X66953970Y-90550500D01*
X66953971Y-90550499D01*
X67108623Y-90519737D01*
X67254305Y-90459394D01*
X67348585Y-90396398D01*
X67415262Y-90375520D01*
X67417476Y-90375500D01*
X68457650Y-90375500D01*
X68524689Y-90395185D01*
X68526541Y-90396398D01*
X68620821Y-90459394D01*
X68620823Y-90459395D01*
X68620827Y-90459397D01*
X68766498Y-90519735D01*
X68766503Y-90519737D01*
X68887973Y-90543899D01*
X68921153Y-90550499D01*
X68921156Y-90550500D01*
X68921158Y-90550500D01*
X69078844Y-90550500D01*
X69078845Y-90550499D01*
X69233497Y-90519737D01*
X69379179Y-90459394D01*
X69510289Y-90371789D01*
X69621789Y-90260289D01*
X69709394Y-90129179D01*
X69769737Y-89983497D01*
X69800500Y-89828842D01*
X69800500Y-89671158D01*
X69800500Y-89671155D01*
X69800499Y-89671153D01*
X69793647Y-89636706D01*
X69769737Y-89516503D01*
X69756897Y-89485505D01*
X69707063Y-89365192D01*
X69708574Y-89364565D01*
X69695945Y-89303894D01*
X69720949Y-89238652D01*
X69777256Y-89197284D01*
X69819545Y-89189850D01*
X73575500Y-89189850D01*
X73642539Y-89209535D01*
X73688294Y-89262339D01*
X73699500Y-89313850D01*
X73699500Y-89328846D01*
X73730261Y-89483489D01*
X73730264Y-89483501D01*
X73790602Y-89629172D01*
X73790609Y-89629185D01*
X73878210Y-89760288D01*
X73878213Y-89760292D01*
X73989707Y-89871786D01*
X73989711Y-89871789D01*
X74120814Y-89959390D01*
X74120827Y-89959397D01*
X74200348Y-89992335D01*
X74266503Y-90019737D01*
X74377716Y-90041858D01*
X74394470Y-90050622D01*
X74412949Y-90054642D01*
X74437985Y-90073384D01*
X74439623Y-90074241D01*
X74441203Y-90075793D01*
X74588181Y-90222771D01*
X74621666Y-90284094D01*
X74624500Y-90310452D01*
X74624500Y-90625500D01*
X74604815Y-90692539D01*
X74552011Y-90738294D01*
X74500502Y-90749500D01*
X74452131Y-90749500D01*
X74452123Y-90749501D01*
X74392516Y-90755908D01*
X74257671Y-90806202D01*
X74257664Y-90806206D01*
X74142455Y-90892452D01*
X74142452Y-90892455D01*
X74056206Y-91007664D01*
X74056202Y-91007671D01*
X74005908Y-91142517D01*
X73999782Y-91199500D01*
X73999501Y-91202123D01*
X73999500Y-91202135D01*
X73999500Y-92797870D01*
X73999501Y-92797876D01*
X74005908Y-92857483D01*
X74056202Y-92992328D01*
X74056206Y-92992335D01*
X74142452Y-93107544D01*
X74142455Y-93107547D01*
X74257664Y-93193793D01*
X74257671Y-93193797D01*
X74392517Y-93244091D01*
X74392516Y-93244091D01*
X74399444Y-93244835D01*
X74452127Y-93250500D01*
X76047872Y-93250499D01*
X76107483Y-93244091D01*
X76242331Y-93193796D01*
X76357546Y-93107546D01*
X76443796Y-92992331D01*
X76494091Y-92857483D01*
X76500500Y-92797873D01*
X76500499Y-91202128D01*
X76494091Y-91142517D01*
X76483261Y-91113481D01*
X76443797Y-91007671D01*
X76443793Y-91007664D01*
X76357547Y-90892455D01*
X76357544Y-90892452D01*
X76242335Y-90806206D01*
X76242328Y-90806202D01*
X76107482Y-90755908D01*
X76107483Y-90755908D01*
X76047883Y-90749501D01*
X76047881Y-90749500D01*
X76047873Y-90749500D01*
X76047865Y-90749500D01*
X75999500Y-90749500D01*
X75932461Y-90729815D01*
X75886706Y-90677011D01*
X75875500Y-90625500D01*
X75875500Y-89938393D01*
X75875499Y-89938389D01*
X75866413Y-89892710D01*
X75851463Y-89817548D01*
X75804311Y-89703714D01*
X75804310Y-89703713D01*
X75804307Y-89703707D01*
X75735858Y-89601267D01*
X75735855Y-89601263D01*
X75645637Y-89511045D01*
X75645606Y-89511016D01*
X75536121Y-89401531D01*
X75502636Y-89340208D01*
X75507620Y-89270516D01*
X75549492Y-89214583D01*
X75614956Y-89190166D01*
X75623802Y-89189850D01*
X77656466Y-89189850D01*
X77723505Y-89209535D01*
X77769260Y-89262339D01*
X77779204Y-89331497D01*
X77778083Y-89338042D01*
X77748750Y-89485505D01*
X77748750Y-89643196D01*
X77779511Y-89797839D01*
X77779514Y-89797851D01*
X77839852Y-89943522D01*
X77839859Y-89943535D01*
X77927460Y-90074638D01*
X77927463Y-90074642D01*
X78038957Y-90186136D01*
X78038961Y-90186139D01*
X78170064Y-90273740D01*
X78170077Y-90273747D01*
X78315748Y-90334085D01*
X78315753Y-90334087D01*
X78470403Y-90364849D01*
X78470406Y-90364850D01*
X78470408Y-90364850D01*
X78628094Y-90364850D01*
X78628095Y-90364849D01*
X78782747Y-90334087D01*
X78928429Y-90273744D01*
X79022709Y-90210748D01*
X79089386Y-90189870D01*
X79091600Y-90189850D01*
X121506900Y-90189850D01*
X121573939Y-90209535D01*
X121575791Y-90210748D01*
X121647599Y-90258729D01*
X121670071Y-90273744D01*
X121670073Y-90273745D01*
X121670077Y-90273747D01*
X121815748Y-90334085D01*
X121815753Y-90334087D01*
X121970403Y-90364849D01*
X121970406Y-90364850D01*
X121970408Y-90364850D01*
X122128094Y-90364850D01*
X122128095Y-90364849D01*
X122282747Y-90334087D01*
X122428429Y-90273744D01*
X122559539Y-90186139D01*
X122671039Y-90074639D01*
X122758644Y-89943529D01*
X122818987Y-89797847D01*
X122849750Y-89643192D01*
X122849750Y-89485508D01*
X122849750Y-89485505D01*
X122849749Y-89485503D01*
X122825817Y-89365192D01*
X122818987Y-89330853D01*
X122781235Y-89239711D01*
X122758647Y-89185177D01*
X122758640Y-89185164D01*
X122671039Y-89054061D01*
X122671036Y-89054057D01*
X122559542Y-88942563D01*
X122559538Y-88942560D01*
X122428435Y-88854959D01*
X122428422Y-88854952D01*
X122282751Y-88794614D01*
X122282739Y-88794611D01*
X122128095Y-88763850D01*
X122128092Y-88763850D01*
X121970408Y-88763850D01*
X121970405Y-88763850D01*
X121815760Y-88794611D01*
X121815748Y-88794614D01*
X121670077Y-88854952D01*
X121670065Y-88854959D01*
X121575791Y-88917952D01*
X121509114Y-88938830D01*
X121506900Y-88938850D01*
X116942034Y-88938850D01*
X116874995Y-88919165D01*
X116829240Y-88866361D01*
X116819296Y-88797203D01*
X116820417Y-88790658D01*
X116849750Y-88643194D01*
X116849750Y-88485505D01*
X116849749Y-88485503D01*
X116818988Y-88330860D01*
X116818987Y-88330853D01*
X116818985Y-88330848D01*
X116758647Y-88185177D01*
X116758640Y-88185164D01*
X116671039Y-88054061D01*
X116671036Y-88054057D01*
X116559542Y-87942563D01*
X116559538Y-87942560D01*
X116428435Y-87854959D01*
X116428422Y-87854952D01*
X116282751Y-87794614D01*
X116282739Y-87794611D01*
X116128095Y-87763850D01*
X116128092Y-87763850D01*
X115970408Y-87763850D01*
X115970405Y-87763850D01*
X115815760Y-87794611D01*
X115815748Y-87794614D01*
X115670077Y-87854952D01*
X115670065Y-87854959D01*
X115575791Y-87917952D01*
X115509114Y-87938830D01*
X115506900Y-87938850D01*
X73874500Y-87938850D01*
X73807461Y-87919165D01*
X73761706Y-87866361D01*
X73750500Y-87814850D01*
X73750499Y-86452129D01*
X73750498Y-86452123D01*
X73744091Y-86392517D01*
X73742627Y-86388591D01*
X73730913Y-86357182D01*
X73725929Y-86287490D01*
X73759415Y-86226167D01*
X73820739Y-86192683D01*
X73847095Y-86189850D01*
X80656466Y-86189850D01*
X80723505Y-86209535D01*
X80769260Y-86262339D01*
X80779204Y-86331497D01*
X80778083Y-86338042D01*
X80748750Y-86485505D01*
X80748750Y-86643196D01*
X80779511Y-86797839D01*
X80779514Y-86797851D01*
X80839852Y-86943522D01*
X80839859Y-86943535D01*
X80927460Y-87074638D01*
X80927463Y-87074642D01*
X81038957Y-87186136D01*
X81038961Y-87186139D01*
X81170064Y-87273740D01*
X81170077Y-87273747D01*
X81315748Y-87334085D01*
X81315753Y-87334087D01*
X81470403Y-87364849D01*
X81470406Y-87364850D01*
X81470408Y-87364850D01*
X81628094Y-87364850D01*
X81628095Y-87364849D01*
X81782747Y-87334087D01*
X81928429Y-87273744D01*
X82022709Y-87210748D01*
X82089386Y-87189870D01*
X82091600Y-87189850D01*
X115506900Y-87189850D01*
X115573939Y-87209535D01*
X115575791Y-87210748D01*
X115670071Y-87273744D01*
X115670073Y-87273745D01*
X115670077Y-87273747D01*
X115815748Y-87334085D01*
X115815753Y-87334087D01*
X115970403Y-87364849D01*
X115970406Y-87364850D01*
X115970408Y-87364850D01*
X116128094Y-87364850D01*
X116128095Y-87364849D01*
X116282747Y-87334087D01*
X116428429Y-87273744D01*
X116559539Y-87186139D01*
X116671039Y-87074639D01*
X116758644Y-86943529D01*
X116818987Y-86797847D01*
X116849750Y-86643192D01*
X116849750Y-86485508D01*
X116849750Y-86485505D01*
X116820417Y-86338042D01*
X116826644Y-86268450D01*
X116869507Y-86213273D01*
X116935396Y-86190028D01*
X116942034Y-86189850D01*
X121506900Y-86189850D01*
X121573939Y-86209535D01*
X121575791Y-86210748D01*
X121670071Y-86273744D01*
X121670073Y-86273745D01*
X121670077Y-86273747D01*
X121748432Y-86306202D01*
X121815753Y-86334087D01*
X121926966Y-86356208D01*
X121988873Y-86388591D01*
X121990452Y-86390142D01*
X123499041Y-87898732D01*
X123499042Y-87898733D01*
X123542869Y-87942560D01*
X123586166Y-87985857D01*
X123622732Y-88010290D01*
X123622731Y-88010290D01*
X123688234Y-88054057D01*
X123688614Y-88054311D01*
X123802448Y-88101463D01*
X123833095Y-88107559D01*
X123899692Y-88120806D01*
X123961603Y-88153190D01*
X123996177Y-88213906D01*
X123999501Y-88242423D01*
X123999501Y-88297876D01*
X124005908Y-88357483D01*
X124056202Y-88492328D01*
X124056206Y-88492335D01*
X124142452Y-88607544D01*
X124142455Y-88607547D01*
X124257664Y-88693793D01*
X124257671Y-88693797D01*
X124392517Y-88744091D01*
X124392516Y-88744091D01*
X124399444Y-88744835D01*
X124452127Y-88750500D01*
X126047872Y-88750499D01*
X126107483Y-88744091D01*
X126242331Y-88693796D01*
X126357546Y-88607546D01*
X126443796Y-88492331D01*
X126494091Y-88357483D01*
X126500500Y-88297873D01*
X126500499Y-86702128D01*
X126494091Y-86642517D01*
X126454875Y-86537374D01*
X126443797Y-86507671D01*
X126443793Y-86507664D01*
X126357547Y-86392455D01*
X126357544Y-86392452D01*
X126242335Y-86306206D01*
X126242328Y-86306202D01*
X126107482Y-86255908D01*
X126107483Y-86255908D01*
X126047883Y-86249501D01*
X126047881Y-86249500D01*
X126047873Y-86249500D01*
X126047864Y-86249500D01*
X124452129Y-86249500D01*
X124452123Y-86249501D01*
X124392516Y-86255908D01*
X124257671Y-86306202D01*
X124257664Y-86306206D01*
X124142455Y-86392452D01*
X124065310Y-86495503D01*
X124009376Y-86537374D01*
X123939684Y-86542357D01*
X123878363Y-86508872D01*
X122875043Y-85505553D01*
X122866874Y-85491231D01*
X122856168Y-85481290D01*
X122845791Y-85454265D01*
X122842618Y-85448701D01*
X122841773Y-85445412D01*
X122818987Y-85330853D01*
X122801584Y-85288838D01*
X122799400Y-85280329D01*
X122800309Y-85253844D01*
X122797476Y-85227482D01*
X122801491Y-85219461D01*
X122801799Y-85210501D01*
X122816884Y-85188710D01*
X122828752Y-85165003D01*
X122836464Y-85160426D01*
X122841569Y-85153054D01*
X122866041Y-85142878D01*
X122888841Y-85129351D01*
X122902787Y-85127599D01*
X122906084Y-85126229D01*
X122909224Y-85126791D01*
X122919506Y-85125500D01*
X126849348Y-85125500D01*
X126916387Y-85145185D01*
X126937029Y-85161819D01*
X127813029Y-86037819D01*
X127846514Y-86099142D01*
X127841530Y-86168834D01*
X127799658Y-86224767D01*
X127734194Y-86249184D01*
X127725353Y-86249500D01*
X127702132Y-86249500D01*
X127702123Y-86249501D01*
X127642516Y-86255908D01*
X127507671Y-86306202D01*
X127507664Y-86306206D01*
X127392455Y-86392452D01*
X127392452Y-86392455D01*
X127306206Y-86507664D01*
X127306202Y-86507671D01*
X127255908Y-86642517D01*
X127250844Y-86689625D01*
X127249501Y-86702123D01*
X127249500Y-86702135D01*
X127249500Y-88297870D01*
X127249501Y-88297876D01*
X127255908Y-88357483D01*
X127306202Y-88492328D01*
X127306206Y-88492335D01*
X127392452Y-88607544D01*
X127392455Y-88607547D01*
X127507664Y-88693793D01*
X127507671Y-88693797D01*
X127642517Y-88744091D01*
X127642516Y-88744091D01*
X127649444Y-88744835D01*
X127702127Y-88750500D01*
X129297872Y-88750499D01*
X129357483Y-88744091D01*
X129492331Y-88693796D01*
X129607546Y-88607546D01*
X129693796Y-88492331D01*
X129744091Y-88357483D01*
X129750500Y-88297873D01*
X129750499Y-86702128D01*
X129744091Y-86642517D01*
X129704875Y-86537374D01*
X129693797Y-86507671D01*
X129693793Y-86507664D01*
X129607547Y-86392455D01*
X129607544Y-86392452D01*
X129492335Y-86306206D01*
X129492328Y-86306202D01*
X129357482Y-86255908D01*
X129357483Y-86255908D01*
X129297883Y-86249501D01*
X129297881Y-86249500D01*
X129297873Y-86249500D01*
X129297865Y-86249500D01*
X129249500Y-86249500D01*
X129182461Y-86229815D01*
X129136706Y-86177011D01*
X129125500Y-86125500D01*
X129125500Y-85778596D01*
X129125500Y-85778594D01*
X129101463Y-85657748D01*
X129087652Y-85624407D01*
X129054312Y-85543914D01*
X129015285Y-85485508D01*
X129011580Y-85479963D01*
X129011578Y-85479959D01*
X128985861Y-85441471D01*
X128985855Y-85441463D01*
X128895637Y-85351245D01*
X128895606Y-85351216D01*
X128132071Y-84587681D01*
X128098586Y-84526358D01*
X128103570Y-84456666D01*
X128132071Y-84412319D01*
X128215548Y-84328842D01*
X128645857Y-83898534D01*
X128654943Y-83884935D01*
X128659439Y-83878209D01*
X128714307Y-83796092D01*
X128714307Y-83796091D01*
X128714311Y-83796086D01*
X128761463Y-83682252D01*
X128768169Y-83648537D01*
X128771303Y-83632782D01*
X128771303Y-83632779D01*
X128772950Y-83624500D01*
X128785500Y-83561407D01*
X128785500Y-83438194D01*
X128785500Y-83398515D01*
X128785727Y-83394770D01*
X128796358Y-83365290D01*
X128805185Y-83335232D01*
X128808174Y-83332526D01*
X128809431Y-83329044D01*
X128826308Y-83316121D01*
X128853204Y-83291787D01*
X128928194Y-83253579D01*
X129114839Y-83117973D01*
X129277973Y-82954839D01*
X129329683Y-82883665D01*
X129385012Y-82841002D01*
X129454625Y-82835023D01*
X129516420Y-82867629D01*
X129530313Y-82883662D01*
X129582027Y-82954839D01*
X129745161Y-83117973D01*
X129931806Y-83253579D01*
X130137367Y-83358317D01*
X130314850Y-83415984D01*
X130356780Y-83429609D01*
X130470714Y-83447654D01*
X130584647Y-83465700D01*
X130584648Y-83465700D01*
X130815352Y-83465700D01*
X130815353Y-83465700D01*
X131043219Y-83429609D01*
X131262633Y-83358317D01*
X131468194Y-83253579D01*
X131654839Y-83117973D01*
X131817973Y-82954839D01*
X131869683Y-82883665D01*
X131925012Y-82841002D01*
X131994625Y-82835023D01*
X132056420Y-82867629D01*
X132070313Y-82883662D01*
X132122027Y-82954839D01*
X132285161Y-83117973D01*
X132471806Y-83253579D01*
X132677367Y-83358317D01*
X132854850Y-83415984D01*
X132896780Y-83429609D01*
X133010714Y-83447654D01*
X133124647Y-83465700D01*
X133124648Y-83465700D01*
X133355352Y-83465700D01*
X133355353Y-83465700D01*
X133583219Y-83429609D01*
X133802633Y-83358317D01*
X134008194Y-83253579D01*
X134194839Y-83117973D01*
X134357973Y-82954839D01*
X134493579Y-82768194D01*
X134598317Y-82562633D01*
X134669609Y-82343219D01*
X134705700Y-82115353D01*
X134705700Y-81884647D01*
X134669609Y-81656781D01*
X134598317Y-81437367D01*
X134493579Y-81231806D01*
X134357973Y-81045161D01*
X134194839Y-80882027D01*
X134008194Y-80746421D01*
X133802633Y-80641683D01*
X133712264Y-80612320D01*
X133583219Y-80570390D01*
X133386508Y-80539234D01*
X133355353Y-80534300D01*
X133124647Y-80534300D01*
X133097239Y-80538641D01*
X132896780Y-80570390D01*
X132725805Y-80625944D01*
X132677367Y-80641683D01*
X132677364Y-80641684D01*
X132677362Y-80641685D01*
X132471805Y-80746421D01*
X132365317Y-80823789D01*
X132285161Y-80882027D01*
X132285159Y-80882029D01*
X132285158Y-80882029D01*
X132122028Y-81045159D01*
X132070318Y-81116332D01*
X132014987Y-81158998D01*
X131945374Y-81164976D01*
X131883579Y-81132370D01*
X131869682Y-81116332D01*
X131845497Y-81083045D01*
X131817973Y-81045161D01*
X131654839Y-80882027D01*
X131468194Y-80746421D01*
X131262633Y-80641683D01*
X131172264Y-80612320D01*
X131043219Y-80570390D01*
X130846508Y-80539234D01*
X130815353Y-80534300D01*
X130584647Y-80534300D01*
X130557239Y-80538641D01*
X130356780Y-80570390D01*
X130185805Y-80625944D01*
X130137367Y-80641683D01*
X130137364Y-80641684D01*
X130137362Y-80641685D01*
X129931805Y-80746421D01*
X129825317Y-80823789D01*
X129745161Y-80882027D01*
X129745159Y-80882029D01*
X129745158Y-80882029D01*
X129582028Y-81045159D01*
X129530318Y-81116332D01*
X129474987Y-81158998D01*
X129405374Y-81164976D01*
X129343579Y-81132370D01*
X129329682Y-81116332D01*
X129305497Y-81083045D01*
X129277973Y-81045161D01*
X129114839Y-80882027D01*
X128928194Y-80746421D01*
X128722633Y-80641683D01*
X128632264Y-80612320D01*
X128503219Y-80570390D01*
X128306508Y-80539234D01*
X128275353Y-80534300D01*
X128044647Y-80534300D01*
X128017239Y-80538641D01*
X127816780Y-80570390D01*
X127645805Y-80625944D01*
X127597367Y-80641683D01*
X127597364Y-80641684D01*
X127597362Y-80641685D01*
X127391805Y-80746421D01*
X127285317Y-80823789D01*
X127205161Y-80882027D01*
X127205159Y-80882029D01*
X127205158Y-80882029D01*
X127042028Y-81045159D01*
X126990318Y-81116332D01*
X126934987Y-81158998D01*
X126865374Y-81164976D01*
X126803579Y-81132370D01*
X126789682Y-81116332D01*
X126765497Y-81083045D01*
X126737973Y-81045161D01*
X126574839Y-80882027D01*
X126388194Y-80746421D01*
X126182633Y-80641683D01*
X126092264Y-80612320D01*
X125963219Y-80570390D01*
X125766508Y-80539234D01*
X125735353Y-80534300D01*
X125504647Y-80534300D01*
X125477239Y-80538641D01*
X125276780Y-80570390D01*
X125105805Y-80625944D01*
X125057367Y-80641683D01*
X125057364Y-80641684D01*
X125057362Y-80641685D01*
X124851805Y-80746421D01*
X124745317Y-80823789D01*
X124665161Y-80882027D01*
X124665159Y-80882029D01*
X124665158Y-80882029D01*
X124502028Y-81045159D01*
X124450318Y-81116332D01*
X124394987Y-81158998D01*
X124325374Y-81164976D01*
X124263579Y-81132370D01*
X124249682Y-81116332D01*
X124225497Y-81083045D01*
X124197973Y-81045161D01*
X124034839Y-80882027D01*
X123848194Y-80746421D01*
X123642633Y-80641683D01*
X123552264Y-80612320D01*
X123423219Y-80570390D01*
X123226508Y-80539234D01*
X123195353Y-80534300D01*
X122964647Y-80534300D01*
X122937239Y-80538641D01*
X122736780Y-80570390D01*
X122565805Y-80625944D01*
X122517367Y-80641683D01*
X122517364Y-80641684D01*
X122517362Y-80641685D01*
X122311805Y-80746421D01*
X122205317Y-80823789D01*
X122125161Y-80882027D01*
X122125159Y-80882029D01*
X122125158Y-80882029D01*
X121962028Y-81045159D01*
X121910318Y-81116332D01*
X121854987Y-81158998D01*
X121785374Y-81164976D01*
X121723579Y-81132370D01*
X121709682Y-81116332D01*
X121685497Y-81083045D01*
X121657973Y-81045161D01*
X121494839Y-80882027D01*
X121308194Y-80746421D01*
X121102633Y-80641683D01*
X121012264Y-80612320D01*
X120883219Y-80570390D01*
X120686508Y-80539234D01*
X120655353Y-80534300D01*
X120424647Y-80534300D01*
X120397239Y-80538641D01*
X120196780Y-80570390D01*
X120025805Y-80625944D01*
X119977367Y-80641683D01*
X119977364Y-80641684D01*
X119977362Y-80641685D01*
X119771805Y-80746421D01*
X119665317Y-80823789D01*
X119585161Y-80882027D01*
X119585159Y-80882029D01*
X119585158Y-80882029D01*
X119422029Y-81045158D01*
X119422022Y-81045167D01*
X119370008Y-81116757D01*
X119314678Y-81159423D01*
X119245065Y-81165401D01*
X119231990Y-81158502D01*
X119197744Y-81155806D01*
X118400000Y-81953551D01*
X118400000Y-81947339D01*
X118372741Y-81845606D01*
X118320080Y-81754394D01*
X118245606Y-81679920D01*
X118154394Y-81627259D01*
X118052661Y-81600000D01*
X118046446Y-81600000D01*
X118844192Y-80802254D01*
X118844191Y-80802253D01*
X118767935Y-80746850D01*
X118562446Y-80642147D01*
X118343102Y-80570877D01*
X118115319Y-80534800D01*
X117884681Y-80534800D01*
X117656897Y-80570877D01*
X117437553Y-80642147D01*
X117232069Y-80746847D01*
X117155807Y-80802254D01*
X117953554Y-81600000D01*
X117947339Y-81600000D01*
X117845606Y-81627259D01*
X117754394Y-81679920D01*
X117679920Y-81754394D01*
X117627259Y-81845606D01*
X117600000Y-81947339D01*
X117600000Y-81953553D01*
X116802254Y-81155807D01*
X116777447Y-81157760D01*
X116775291Y-81159423D01*
X116705677Y-81165399D01*
X116643883Y-81132790D01*
X116629990Y-81116756D01*
X116615211Y-81096415D01*
X116577973Y-81045161D01*
X116414839Y-80882027D01*
X116228194Y-80746421D01*
X116022633Y-80641683D01*
X115932264Y-80612320D01*
X115803219Y-80570390D01*
X115606508Y-80539234D01*
X115575353Y-80534300D01*
X115344647Y-80534300D01*
X115317239Y-80538641D01*
X115116780Y-80570390D01*
X114945805Y-80625944D01*
X114897367Y-80641683D01*
X114897364Y-80641684D01*
X114897362Y-80641685D01*
X114691805Y-80746421D01*
X114585317Y-80823789D01*
X114505161Y-80882027D01*
X114505159Y-80882029D01*
X114505158Y-80882029D01*
X114342029Y-81045158D01*
X114342029Y-81045159D01*
X114342027Y-81045161D01*
X114304789Y-81096415D01*
X114206421Y-81231805D01*
X114101685Y-81437362D01*
X114030390Y-81656780D01*
X113994300Y-81884647D01*
X113994300Y-82115352D01*
X114030390Y-82343219D01*
X114039983Y-82372741D01*
X114101683Y-82562633D01*
X114206421Y-82768194D01*
X114342027Y-82954839D01*
X114505161Y-83117973D01*
X114691806Y-83253579D01*
X114897367Y-83358317D01*
X115074850Y-83415984D01*
X115116780Y-83429609D01*
X115230714Y-83447654D01*
X115344647Y-83465700D01*
X115344648Y-83465700D01*
X115575352Y-83465700D01*
X115575353Y-83465700D01*
X115803219Y-83429609D01*
X116022633Y-83358317D01*
X116228194Y-83253579D01*
X116414839Y-83117973D01*
X116577973Y-82954839D01*
X116629991Y-82883241D01*
X116685320Y-82840578D01*
X116754933Y-82834599D01*
X116768005Y-82841496D01*
X116802254Y-82844192D01*
X117600000Y-82046446D01*
X117600000Y-82052661D01*
X117627259Y-82154394D01*
X117679920Y-82245606D01*
X117754394Y-82320080D01*
X117845606Y-82372741D01*
X117947339Y-82400000D01*
X117953553Y-82400000D01*
X117155806Y-83197744D01*
X117232067Y-83253151D01*
X117437553Y-83357852D01*
X117656897Y-83429122D01*
X117884681Y-83465200D01*
X118115319Y-83465200D01*
X118343102Y-83429122D01*
X118562446Y-83357852D01*
X118767924Y-83253155D01*
X118767930Y-83253151D01*
X118844191Y-83197744D01*
X118844192Y-83197744D01*
X118046447Y-82400000D01*
X118052661Y-82400000D01*
X118154394Y-82372741D01*
X118245606Y-82320080D01*
X118320080Y-82245606D01*
X118372741Y-82154394D01*
X118400000Y-82052661D01*
X118400000Y-82046447D01*
X119197744Y-82844192D01*
X119222540Y-82842240D01*
X119224692Y-82840581D01*
X119294305Y-82834596D01*
X119356103Y-82867196D01*
X119370007Y-82883241D01*
X119370317Y-82883667D01*
X119422027Y-82954839D01*
X119585161Y-83117973D01*
X119771806Y-83253579D01*
X119977367Y-83358317D01*
X120154850Y-83415984D01*
X120196780Y-83429609D01*
X120310714Y-83447654D01*
X120424647Y-83465700D01*
X120424648Y-83465700D01*
X120655352Y-83465700D01*
X120655353Y-83465700D01*
X120883219Y-83429609D01*
X121102633Y-83358317D01*
X121308194Y-83253579D01*
X121494839Y-83117973D01*
X121657973Y-82954839D01*
X121709683Y-82883665D01*
X121765012Y-82841002D01*
X121834625Y-82835023D01*
X121896420Y-82867629D01*
X121910313Y-82883662D01*
X121962027Y-82954839D01*
X122125161Y-83117973D01*
X122311806Y-83253579D01*
X122517367Y-83358317D01*
X122694850Y-83415984D01*
X122736780Y-83429609D01*
X122850714Y-83447654D01*
X122964647Y-83465700D01*
X122964648Y-83465700D01*
X123195352Y-83465700D01*
X123195353Y-83465700D01*
X123423219Y-83429609D01*
X123642633Y-83358317D01*
X123848194Y-83253579D01*
X124034839Y-83117973D01*
X124197973Y-82954839D01*
X124249683Y-82883665D01*
X124305012Y-82841002D01*
X124374625Y-82835023D01*
X124436420Y-82867629D01*
X124450313Y-82883662D01*
X124502027Y-82954839D01*
X124665161Y-83117973D01*
X124851806Y-83253579D01*
X125057367Y-83358317D01*
X125234850Y-83415984D01*
X125276780Y-83429609D01*
X125390714Y-83447654D01*
X125504647Y-83465700D01*
X125504648Y-83465700D01*
X125735352Y-83465700D01*
X125735353Y-83465700D01*
X125963219Y-83429609D01*
X126182633Y-83358317D01*
X126388194Y-83253579D01*
X126574839Y-83117973D01*
X126737973Y-82954839D01*
X126789683Y-82883665D01*
X126845012Y-82841002D01*
X126914625Y-82835023D01*
X126976420Y-82867629D01*
X126990313Y-82883662D01*
X127042027Y-82954839D01*
X127205161Y-83117973D01*
X127349542Y-83222872D01*
X127392207Y-83278202D01*
X127398186Y-83347816D01*
X127365580Y-83409611D01*
X127364337Y-83410871D01*
X126937029Y-83838181D01*
X126875706Y-83871666D01*
X126849348Y-83874500D01*
X69292350Y-83874500D01*
X69225311Y-83854815D01*
X69223459Y-83853602D01*
X69129184Y-83790609D01*
X69129172Y-83790602D01*
X68983501Y-83730264D01*
X68983489Y-83730261D01*
X68828846Y-83699500D01*
X68822782Y-83698903D01*
X68822865Y-83698050D01*
X68821977Y-83697873D01*
X68816899Y-83698790D01*
X68782701Y-83690061D01*
X68715792Y-83662347D01*
X68682453Y-83648537D01*
X68672427Y-83646543D01*
X68622029Y-83636518D01*
X68561610Y-83624500D01*
X68561607Y-83624500D01*
X68561606Y-83624500D01*
X61292350Y-83624500D01*
X61225311Y-83604815D01*
X61223459Y-83603602D01*
X61129184Y-83540609D01*
X61129172Y-83540602D01*
X60983501Y-83480264D01*
X60983489Y-83480261D01*
X60828845Y-83449500D01*
X60828842Y-83449500D01*
X60671158Y-83449500D01*
X60671155Y-83449500D01*
X60516510Y-83480261D01*
X60516498Y-83480264D01*
X60370827Y-83540602D01*
X60370814Y-83540609D01*
X60239711Y-83628210D01*
X60239707Y-83628213D01*
X60128213Y-83739707D01*
X60128210Y-83739711D01*
X60040609Y-83870814D01*
X60040602Y-83870827D01*
X59980264Y-84016498D01*
X59980261Y-84016510D01*
X59949500Y-84171153D01*
X59949500Y-84328846D01*
X59980261Y-84483489D01*
X59980264Y-84483501D01*
X60040602Y-84629172D01*
X60040609Y-84629185D01*
X60118636Y-84745959D01*
X60139514Y-84812636D01*
X60121030Y-84880016D01*
X60069051Y-84926707D01*
X60015534Y-84938850D01*
X56091600Y-84938850D01*
X56024561Y-84919165D01*
X56022709Y-84917952D01*
X55928434Y-84854959D01*
X55928422Y-84854952D01*
X55782751Y-84794614D01*
X55782739Y-84794611D01*
X55628095Y-84763850D01*
X55628092Y-84763850D01*
X55470408Y-84763850D01*
X55470405Y-84763850D01*
X55315760Y-84794611D01*
X55315748Y-84794614D01*
X55170077Y-84854952D01*
X55170064Y-84854959D01*
X55038961Y-84942560D01*
X55038957Y-84942563D01*
X54927463Y-85054057D01*
X54927460Y-85054061D01*
X54839859Y-85185164D01*
X54839852Y-85185177D01*
X54779514Y-85330848D01*
X54779511Y-85330860D01*
X54748750Y-85485503D01*
X50500500Y-85485503D01*
X50500500Y-79262485D01*
X51774750Y-79262485D01*
X51774750Y-80866220D01*
X51774751Y-80866226D01*
X51781158Y-80925833D01*
X51831452Y-81060678D01*
X51831456Y-81060685D01*
X51917702Y-81175894D01*
X51917705Y-81175897D01*
X52032914Y-81262143D01*
X52032921Y-81262147D01*
X52167767Y-81312441D01*
X52167766Y-81312441D01*
X52174694Y-81313185D01*
X52227377Y-81318850D01*
X53831122Y-81318849D01*
X53890733Y-81312441D01*
X54025581Y-81262146D01*
X54140796Y-81175896D01*
X54173380Y-81132370D01*
X54199984Y-81096832D01*
X54255917Y-81054961D01*
X54325609Y-81049977D01*
X54386932Y-81083463D01*
X54398516Y-81096832D01*
X54457702Y-81175894D01*
X54457705Y-81175897D01*
X54572914Y-81262143D01*
X54572921Y-81262147D01*
X54707767Y-81312441D01*
X54707766Y-81312441D01*
X54714694Y-81313185D01*
X54767377Y-81318850D01*
X56371122Y-81318849D01*
X56430733Y-81312441D01*
X56565581Y-81262146D01*
X56680796Y-81175896D01*
X56740296Y-81096414D01*
X56796229Y-81054544D01*
X56865921Y-81049560D01*
X56927244Y-81083045D01*
X56938828Y-81096415D01*
X56998059Y-81175537D01*
X56998062Y-81175540D01*
X57113156Y-81261700D01*
X57113163Y-81261704D01*
X57247870Y-81311946D01*
X57247877Y-81311948D01*
X57307405Y-81318349D01*
X57307422Y-81318350D01*
X57859250Y-81318350D01*
X57859250Y-80497362D01*
X57916257Y-80530275D01*
X58043424Y-80564350D01*
X58175076Y-80564350D01*
X58302243Y-80530275D01*
X58359250Y-80497362D01*
X58359250Y-81318350D01*
X58911078Y-81318350D01*
X58911094Y-81318349D01*
X58970622Y-81311948D01*
X58970629Y-81311946D01*
X59105336Y-81261704D01*
X59105343Y-81261700D01*
X59220436Y-81175541D01*
X59279670Y-81096415D01*
X59335604Y-81054544D01*
X59405295Y-81049560D01*
X59466618Y-81083045D01*
X59478203Y-81096414D01*
X59505120Y-81132370D01*
X59537437Y-81175540D01*
X59537705Y-81175897D01*
X59652914Y-81262143D01*
X59652921Y-81262147D01*
X59787767Y-81312441D01*
X59787766Y-81312441D01*
X59794694Y-81313185D01*
X59847377Y-81318850D01*
X61451122Y-81318849D01*
X61510733Y-81312441D01*
X61645581Y-81262146D01*
X61760796Y-81175896D01*
X61793380Y-81132370D01*
X61819984Y-81096832D01*
X61875917Y-81054961D01*
X61945609Y-81049977D01*
X62006932Y-81083463D01*
X62018516Y-81096832D01*
X62077702Y-81175894D01*
X62077705Y-81175897D01*
X62192914Y-81262143D01*
X62192921Y-81262147D01*
X62327767Y-81312441D01*
X62327766Y-81312441D01*
X62334694Y-81313185D01*
X62387377Y-81318850D01*
X63991122Y-81318849D01*
X64050733Y-81312441D01*
X64185581Y-81262146D01*
X64300796Y-81175896D01*
X64333380Y-81132370D01*
X64359984Y-81096832D01*
X64415917Y-81054961D01*
X64485609Y-81049977D01*
X64546932Y-81083463D01*
X64558516Y-81096832D01*
X64617702Y-81175894D01*
X64617705Y-81175897D01*
X64732914Y-81262143D01*
X64732921Y-81262147D01*
X64867767Y-81312441D01*
X64867766Y-81312441D01*
X64874694Y-81313185D01*
X64927377Y-81318850D01*
X66531122Y-81318849D01*
X66590733Y-81312441D01*
X66725581Y-81262146D01*
X66840796Y-81175896D01*
X66873380Y-81132370D01*
X66899984Y-81096832D01*
X66955917Y-81054961D01*
X67025609Y-81049977D01*
X67086932Y-81083463D01*
X67098516Y-81096832D01*
X67157702Y-81175894D01*
X67157705Y-81175897D01*
X67272914Y-81262143D01*
X67272921Y-81262147D01*
X67407767Y-81312441D01*
X67407766Y-81312441D01*
X67414694Y-81313185D01*
X67467377Y-81318850D01*
X69071122Y-81318849D01*
X69130733Y-81312441D01*
X69265581Y-81262146D01*
X69380796Y-81175896D01*
X69440296Y-81096414D01*
X69496229Y-81054544D01*
X69565921Y-81049560D01*
X69627244Y-81083045D01*
X69638828Y-81096415D01*
X69698059Y-81175537D01*
X69698062Y-81175540D01*
X69813156Y-81261700D01*
X69813163Y-81261704D01*
X69947870Y-81311946D01*
X69947877Y-81311948D01*
X70007405Y-81318349D01*
X70007422Y-81318350D01*
X70559250Y-81318350D01*
X70559250Y-80497362D01*
X70616257Y-80530275D01*
X70743424Y-80564350D01*
X70875076Y-80564350D01*
X71002243Y-80530275D01*
X71059250Y-80497362D01*
X71059250Y-81318350D01*
X71611078Y-81318350D01*
X71611094Y-81318349D01*
X71670622Y-81311948D01*
X71670629Y-81311946D01*
X71805336Y-81261704D01*
X71805343Y-81261700D01*
X71920436Y-81175541D01*
X71979670Y-81096415D01*
X72035604Y-81054544D01*
X72105295Y-81049560D01*
X72166618Y-81083045D01*
X72178203Y-81096414D01*
X72205120Y-81132370D01*
X72237437Y-81175540D01*
X72237705Y-81175897D01*
X72352914Y-81262143D01*
X72352921Y-81262147D01*
X72487767Y-81312441D01*
X72487766Y-81312441D01*
X72494694Y-81313185D01*
X72547377Y-81318850D01*
X74151122Y-81318849D01*
X74210733Y-81312441D01*
X74345581Y-81262146D01*
X74460796Y-81175896D01*
X74493380Y-81132370D01*
X74519984Y-81096832D01*
X74575917Y-81054961D01*
X74645609Y-81049977D01*
X74706932Y-81083463D01*
X74718516Y-81096832D01*
X74777702Y-81175894D01*
X74777705Y-81175897D01*
X74892914Y-81262143D01*
X74892921Y-81262147D01*
X75027767Y-81312441D01*
X75027766Y-81312441D01*
X75034694Y-81313185D01*
X75087377Y-81318850D01*
X76691122Y-81318849D01*
X76750733Y-81312441D01*
X76885581Y-81262146D01*
X77000796Y-81175896D01*
X77033380Y-81132370D01*
X77059984Y-81096832D01*
X77115917Y-81054961D01*
X77185609Y-81049977D01*
X77246932Y-81083463D01*
X77258516Y-81096832D01*
X77317702Y-81175894D01*
X77317705Y-81175897D01*
X77432914Y-81262143D01*
X77432921Y-81262147D01*
X77567767Y-81312441D01*
X77567766Y-81312441D01*
X77574694Y-81313185D01*
X77627377Y-81318850D01*
X79231122Y-81318849D01*
X79290733Y-81312441D01*
X79425581Y-81262146D01*
X79540796Y-81175896D01*
X79573380Y-81132370D01*
X79599984Y-81096832D01*
X79655917Y-81054961D01*
X79725609Y-81049977D01*
X79786932Y-81083463D01*
X79798516Y-81096832D01*
X79857702Y-81175894D01*
X79857705Y-81175897D01*
X79972914Y-81262143D01*
X79972921Y-81262147D01*
X80107767Y-81312441D01*
X80107766Y-81312441D01*
X80114694Y-81313185D01*
X80167377Y-81318850D01*
X81771122Y-81318849D01*
X81830733Y-81312441D01*
X81965581Y-81262146D01*
X82080796Y-81175896D01*
X82140296Y-81096414D01*
X82196229Y-81054544D01*
X82265921Y-81049560D01*
X82327244Y-81083045D01*
X82338828Y-81096415D01*
X82398059Y-81175537D01*
X82398062Y-81175540D01*
X82513156Y-81261700D01*
X82513163Y-81261704D01*
X82647870Y-81311946D01*
X82647877Y-81311948D01*
X82707405Y-81318349D01*
X82707422Y-81318350D01*
X83259250Y-81318350D01*
X83259250Y-80497362D01*
X83316257Y-80530275D01*
X83443424Y-80564350D01*
X83575076Y-80564350D01*
X83702243Y-80530275D01*
X83759250Y-80497362D01*
X83759250Y-81318350D01*
X84311078Y-81318350D01*
X84311094Y-81318349D01*
X84370622Y-81311948D01*
X84370629Y-81311946D01*
X84505336Y-81261704D01*
X84505343Y-81261700D01*
X84620436Y-81175541D01*
X84679670Y-81096415D01*
X84735604Y-81054544D01*
X84805295Y-81049560D01*
X84866618Y-81083045D01*
X84878203Y-81096414D01*
X84905120Y-81132370D01*
X84937437Y-81175540D01*
X84937705Y-81175897D01*
X85052914Y-81262143D01*
X85052921Y-81262147D01*
X85187767Y-81312441D01*
X85187766Y-81312441D01*
X85194694Y-81313185D01*
X85247377Y-81318850D01*
X86851122Y-81318849D01*
X86910733Y-81312441D01*
X87045581Y-81262146D01*
X87160796Y-81175896D01*
X87193380Y-81132370D01*
X87219984Y-81096832D01*
X87275917Y-81054961D01*
X87345609Y-81049977D01*
X87406932Y-81083463D01*
X87418516Y-81096832D01*
X87477702Y-81175894D01*
X87477705Y-81175897D01*
X87592914Y-81262143D01*
X87592921Y-81262147D01*
X87727767Y-81312441D01*
X87727766Y-81312441D01*
X87734694Y-81313185D01*
X87787377Y-81318850D01*
X89391122Y-81318849D01*
X89450733Y-81312441D01*
X89585581Y-81262146D01*
X89700796Y-81175896D01*
X89733380Y-81132370D01*
X89759984Y-81096832D01*
X89815917Y-81054961D01*
X89885609Y-81049977D01*
X89946932Y-81083463D01*
X89958516Y-81096832D01*
X90017702Y-81175894D01*
X90017705Y-81175897D01*
X90132914Y-81262143D01*
X90132921Y-81262147D01*
X90267767Y-81312441D01*
X90267766Y-81312441D01*
X90274694Y-81313185D01*
X90327377Y-81318850D01*
X91931122Y-81318849D01*
X91990733Y-81312441D01*
X92125581Y-81262146D01*
X92240796Y-81175896D01*
X92273380Y-81132370D01*
X92299984Y-81096832D01*
X92355917Y-81054961D01*
X92425609Y-81049977D01*
X92486932Y-81083463D01*
X92498516Y-81096832D01*
X92557702Y-81175894D01*
X92557705Y-81175897D01*
X92672914Y-81262143D01*
X92672921Y-81262147D01*
X92807767Y-81312441D01*
X92807766Y-81312441D01*
X92814694Y-81313185D01*
X92867377Y-81318850D01*
X94471122Y-81318849D01*
X94530733Y-81312441D01*
X94665581Y-81262146D01*
X94780796Y-81175896D01*
X94840296Y-81096414D01*
X94896229Y-81054544D01*
X94965921Y-81049560D01*
X95027244Y-81083045D01*
X95038828Y-81096415D01*
X95098059Y-81175537D01*
X95098062Y-81175540D01*
X95213156Y-81261700D01*
X95213163Y-81261704D01*
X95347870Y-81311946D01*
X95347877Y-81311948D01*
X95407405Y-81318349D01*
X95407422Y-81318350D01*
X95959250Y-81318350D01*
X95959250Y-80497362D01*
X96016257Y-80530275D01*
X96143424Y-80564350D01*
X96275076Y-80564350D01*
X96402243Y-80530275D01*
X96459250Y-80497362D01*
X96459250Y-81318350D01*
X97011078Y-81318350D01*
X97011094Y-81318349D01*
X97070622Y-81311948D01*
X97070629Y-81311946D01*
X97205336Y-81261704D01*
X97205343Y-81261700D01*
X97320436Y-81175541D01*
X97379670Y-81096415D01*
X97435604Y-81054544D01*
X97505295Y-81049560D01*
X97566618Y-81083045D01*
X97578203Y-81096414D01*
X97605120Y-81132370D01*
X97637437Y-81175540D01*
X97637705Y-81175897D01*
X97752914Y-81262143D01*
X97752921Y-81262147D01*
X97887767Y-81312441D01*
X97887766Y-81312441D01*
X97894694Y-81313185D01*
X97947377Y-81318850D01*
X99551122Y-81318849D01*
X99610733Y-81312441D01*
X99745581Y-81262146D01*
X99860796Y-81175896D01*
X99893380Y-81132370D01*
X99919984Y-81096832D01*
X99975917Y-81054961D01*
X100045609Y-81049977D01*
X100106932Y-81083463D01*
X100118516Y-81096832D01*
X100177702Y-81175894D01*
X100177705Y-81175897D01*
X100292914Y-81262143D01*
X100292921Y-81262147D01*
X100427767Y-81312441D01*
X100427766Y-81312441D01*
X100434694Y-81313185D01*
X100487377Y-81318850D01*
X102091122Y-81318849D01*
X102150733Y-81312441D01*
X102285581Y-81262146D01*
X102400796Y-81175896D01*
X102487046Y-81060681D01*
X102537341Y-80925833D01*
X102543750Y-80866223D01*
X102543749Y-79262478D01*
X102537341Y-79202867D01*
X102491193Y-79079139D01*
X102487047Y-79068021D01*
X102487043Y-79068014D01*
X102400797Y-78952805D01*
X102400794Y-78952802D01*
X102285585Y-78866556D01*
X102285578Y-78866552D01*
X102150732Y-78816258D01*
X102150733Y-78816258D01*
X102091133Y-78809851D01*
X102091131Y-78809850D01*
X102091123Y-78809850D01*
X102091114Y-78809850D01*
X100487379Y-78809850D01*
X100487373Y-78809851D01*
X100427766Y-78816258D01*
X100292921Y-78866552D01*
X100292914Y-78866556D01*
X100177705Y-78952802D01*
X100118516Y-79031868D01*
X100062582Y-79073738D01*
X99992890Y-79078722D01*
X99931567Y-79045236D01*
X99919984Y-79031868D01*
X99886507Y-78987149D01*
X99860796Y-78952804D01*
X99860794Y-78952803D01*
X99860794Y-78952802D01*
X99745585Y-78866556D01*
X99745578Y-78866552D01*
X99610732Y-78816258D01*
X99610733Y-78816258D01*
X99551133Y-78809851D01*
X99551131Y-78809850D01*
X99551123Y-78809850D01*
X99551114Y-78809850D01*
X97947379Y-78809850D01*
X97947373Y-78809851D01*
X97887766Y-78816258D01*
X97752921Y-78866552D01*
X97752914Y-78866556D01*
X97637705Y-78952802D01*
X97578203Y-79032285D01*
X97522268Y-79074156D01*
X97452576Y-79079139D01*
X97391254Y-79045652D01*
X97379670Y-79032284D01*
X97320436Y-78953159D01*
X97205343Y-78866999D01*
X97205336Y-78866995D01*
X97070629Y-78816753D01*
X97070622Y-78816751D01*
X97011094Y-78810350D01*
X96459250Y-78810350D01*
X96459250Y-79631338D01*
X96402243Y-79598425D01*
X96275076Y-79564350D01*
X96143424Y-79564350D01*
X96016257Y-79598425D01*
X95959250Y-79631338D01*
X95959250Y-78810350D01*
X95407405Y-78810350D01*
X95347877Y-78816751D01*
X95347870Y-78816753D01*
X95213163Y-78866995D01*
X95213156Y-78866999D01*
X95098062Y-78953159D01*
X95038828Y-79032285D01*
X94982894Y-79074155D01*
X94913202Y-79079139D01*
X94851879Y-79045653D01*
X94840296Y-79032285D01*
X94810982Y-78993128D01*
X94780796Y-78952804D01*
X94780794Y-78952803D01*
X94780794Y-78952802D01*
X94665585Y-78866556D01*
X94665578Y-78866552D01*
X94530732Y-78816258D01*
X94530733Y-78816258D01*
X94471133Y-78809851D01*
X94471131Y-78809850D01*
X94471123Y-78809850D01*
X94471114Y-78809850D01*
X92867379Y-78809850D01*
X92867373Y-78809851D01*
X92807766Y-78816258D01*
X92672921Y-78866552D01*
X92672914Y-78866556D01*
X92557705Y-78952802D01*
X92498516Y-79031868D01*
X92442582Y-79073738D01*
X92372890Y-79078722D01*
X92311567Y-79045236D01*
X92299984Y-79031868D01*
X92266507Y-78987149D01*
X92240796Y-78952804D01*
X92240794Y-78952803D01*
X92240794Y-78952802D01*
X92125585Y-78866556D01*
X92125578Y-78866552D01*
X91990732Y-78816258D01*
X91990733Y-78816258D01*
X91931133Y-78809851D01*
X91931131Y-78809850D01*
X91931123Y-78809850D01*
X91931114Y-78809850D01*
X90327379Y-78809850D01*
X90327373Y-78809851D01*
X90267766Y-78816258D01*
X90132921Y-78866552D01*
X90132914Y-78866556D01*
X90017705Y-78952802D01*
X89958516Y-79031868D01*
X89902582Y-79073738D01*
X89832890Y-79078722D01*
X89771567Y-79045236D01*
X89759984Y-79031868D01*
X89726507Y-78987149D01*
X89700796Y-78952804D01*
X89700794Y-78952803D01*
X89700794Y-78952802D01*
X89585585Y-78866556D01*
X89585578Y-78866552D01*
X89450732Y-78816258D01*
X89450733Y-78816258D01*
X89391133Y-78809851D01*
X89391131Y-78809850D01*
X89391123Y-78809850D01*
X89391114Y-78809850D01*
X87787379Y-78809850D01*
X87787373Y-78809851D01*
X87727766Y-78816258D01*
X87592921Y-78866552D01*
X87592914Y-78866556D01*
X87477705Y-78952802D01*
X87418516Y-79031868D01*
X87362582Y-79073738D01*
X87292890Y-79078722D01*
X87231567Y-79045236D01*
X87219984Y-79031868D01*
X87186507Y-78987149D01*
X87160796Y-78952804D01*
X87160794Y-78952803D01*
X87160794Y-78952802D01*
X87045585Y-78866556D01*
X87045578Y-78866552D01*
X86910732Y-78816258D01*
X86910733Y-78816258D01*
X86851133Y-78809851D01*
X86851131Y-78809850D01*
X86851123Y-78809850D01*
X86851114Y-78809850D01*
X85247379Y-78809850D01*
X85247373Y-78809851D01*
X85187766Y-78816258D01*
X85052921Y-78866552D01*
X85052914Y-78866556D01*
X84937705Y-78952802D01*
X84878203Y-79032285D01*
X84822268Y-79074156D01*
X84752576Y-79079139D01*
X84691254Y-79045652D01*
X84679670Y-79032284D01*
X84620436Y-78953159D01*
X84505343Y-78866999D01*
X84505336Y-78866995D01*
X84370629Y-78816753D01*
X84370622Y-78816751D01*
X84311094Y-78810350D01*
X83759250Y-78810350D01*
X83759250Y-79631338D01*
X83702243Y-79598425D01*
X83575076Y-79564350D01*
X83443424Y-79564350D01*
X83316257Y-79598425D01*
X83259250Y-79631338D01*
X83259250Y-78810350D01*
X82707405Y-78810350D01*
X82647877Y-78816751D01*
X82647870Y-78816753D01*
X82513163Y-78866995D01*
X82513156Y-78866999D01*
X82398062Y-78953159D01*
X82338828Y-79032285D01*
X82282894Y-79074155D01*
X82213202Y-79079139D01*
X82151879Y-79045653D01*
X82140296Y-79032285D01*
X82110982Y-78993128D01*
X82080796Y-78952804D01*
X82080794Y-78952803D01*
X82080794Y-78952802D01*
X81965585Y-78866556D01*
X81965578Y-78866552D01*
X81830732Y-78816258D01*
X81830733Y-78816258D01*
X81771133Y-78809851D01*
X81771131Y-78809850D01*
X81771123Y-78809850D01*
X81771114Y-78809850D01*
X80167379Y-78809850D01*
X80167373Y-78809851D01*
X80107766Y-78816258D01*
X79972921Y-78866552D01*
X79972914Y-78866556D01*
X79857705Y-78952802D01*
X79798516Y-79031868D01*
X79742582Y-79073738D01*
X79672890Y-79078722D01*
X79611567Y-79045236D01*
X79599984Y-79031868D01*
X79566507Y-78987149D01*
X79540796Y-78952804D01*
X79540794Y-78952803D01*
X79540794Y-78952802D01*
X79425585Y-78866556D01*
X79425578Y-78866552D01*
X79290732Y-78816258D01*
X79290733Y-78816258D01*
X79231133Y-78809851D01*
X79231131Y-78809850D01*
X79231123Y-78809850D01*
X79231114Y-78809850D01*
X77627379Y-78809850D01*
X77627373Y-78809851D01*
X77567766Y-78816258D01*
X77432921Y-78866552D01*
X77432914Y-78866556D01*
X77317705Y-78952802D01*
X77258516Y-79031868D01*
X77202582Y-79073738D01*
X77132890Y-79078722D01*
X77071567Y-79045236D01*
X77059984Y-79031868D01*
X77026507Y-78987149D01*
X77000796Y-78952804D01*
X77000794Y-78952803D01*
X77000794Y-78952802D01*
X76885585Y-78866556D01*
X76885578Y-78866552D01*
X76750732Y-78816258D01*
X76750733Y-78816258D01*
X76691133Y-78809851D01*
X76691131Y-78809850D01*
X76691123Y-78809850D01*
X76691115Y-78809850D01*
X75787701Y-78809850D01*
X75720662Y-78790165D01*
X75674907Y-78737361D01*
X75664963Y-78668203D01*
X75693988Y-78604647D01*
X75700020Y-78598169D01*
X75747690Y-78550500D01*
X75886371Y-78411819D01*
X75947694Y-78378334D01*
X75974052Y-78375500D01*
X119582650Y-78375500D01*
X119649689Y-78395185D01*
X119651541Y-78396398D01*
X119745821Y-78459394D01*
X119745823Y-78459395D01*
X119745827Y-78459397D01*
X119891498Y-78519735D01*
X119891503Y-78519737D01*
X120046153Y-78550499D01*
X120046156Y-78550500D01*
X120046158Y-78550500D01*
X120203844Y-78550500D01*
X120203845Y-78550499D01*
X120358497Y-78519737D01*
X120504179Y-78459394D01*
X120635289Y-78371789D01*
X120746789Y-78260289D01*
X120834394Y-78129179D01*
X120894737Y-77983497D01*
X120925500Y-77828842D01*
X120925500Y-77671158D01*
X120925500Y-77671155D01*
X120896167Y-77523692D01*
X120902394Y-77454100D01*
X120945257Y-77398923D01*
X121011146Y-77375678D01*
X121017784Y-77375500D01*
X121707650Y-77375500D01*
X121774689Y-77395185D01*
X121776541Y-77396398D01*
X121870821Y-77459394D01*
X121870823Y-77459395D01*
X121870827Y-77459397D01*
X122008695Y-77516503D01*
X122016503Y-77519737D01*
X122171153Y-77550499D01*
X122171156Y-77550500D01*
X122171158Y-77550500D01*
X122328844Y-77550500D01*
X122328845Y-77550499D01*
X122483497Y-77519737D01*
X122629179Y-77459394D01*
X122760289Y-77371789D01*
X122871789Y-77260289D01*
X122959394Y-77129179D01*
X123019737Y-76983497D01*
X123050500Y-76828842D01*
X123050500Y-76671158D01*
X123050500Y-76671155D01*
X123050499Y-76671153D01*
X123019738Y-76516510D01*
X123019737Y-76516503D01*
X123019735Y-76516498D01*
X122959397Y-76370827D01*
X122959390Y-76370814D01*
X122871789Y-76239711D01*
X122871786Y-76239707D01*
X122760292Y-76128213D01*
X122760288Y-76128210D01*
X122629185Y-76040609D01*
X122629172Y-76040602D01*
X122483501Y-75980264D01*
X122483489Y-75980261D01*
X122328845Y-75949500D01*
X122328842Y-75949500D01*
X122171158Y-75949500D01*
X122171155Y-75949500D01*
X122016510Y-75980261D01*
X122016498Y-75980264D01*
X121870827Y-76040602D01*
X121870815Y-76040609D01*
X121776541Y-76103602D01*
X121709864Y-76124480D01*
X121707650Y-76124500D01*
X66441989Y-76124500D01*
X66321153Y-76148535D01*
X66321141Y-76148539D01*
X66288862Y-76161909D01*
X66273997Y-76168067D01*
X66207319Y-76195685D01*
X66207317Y-76195686D01*
X66104866Y-76264141D01*
X66104863Y-76264144D01*
X63595477Y-78773531D01*
X63534154Y-78807016D01*
X63507796Y-78809850D01*
X62387379Y-78809850D01*
X62387373Y-78809851D01*
X62327766Y-78816258D01*
X62192921Y-78866552D01*
X62192914Y-78866556D01*
X62077705Y-78952802D01*
X62018516Y-79031868D01*
X61962582Y-79073738D01*
X61892890Y-79078722D01*
X61831567Y-79045236D01*
X61819984Y-79031868D01*
X61786507Y-78987149D01*
X61760796Y-78952804D01*
X61760794Y-78952803D01*
X61760794Y-78952802D01*
X61645585Y-78866556D01*
X61645578Y-78866552D01*
X61510732Y-78816258D01*
X61510733Y-78816258D01*
X61451133Y-78809851D01*
X61451131Y-78809850D01*
X61451123Y-78809850D01*
X61451114Y-78809850D01*
X59847379Y-78809850D01*
X59847373Y-78809851D01*
X59787766Y-78816258D01*
X59652921Y-78866552D01*
X59652914Y-78866556D01*
X59537705Y-78952802D01*
X59478203Y-79032285D01*
X59422268Y-79074156D01*
X59352576Y-79079139D01*
X59291254Y-79045652D01*
X59279670Y-79032284D01*
X59220436Y-78953159D01*
X59105343Y-78866999D01*
X59105336Y-78866995D01*
X58970629Y-78816753D01*
X58970622Y-78816751D01*
X58911094Y-78810350D01*
X58359250Y-78810350D01*
X58359250Y-79631338D01*
X58302243Y-79598425D01*
X58175076Y-79564350D01*
X58043424Y-79564350D01*
X57916257Y-79598425D01*
X57859250Y-79631338D01*
X57859250Y-78810350D01*
X57307405Y-78810350D01*
X57247877Y-78816751D01*
X57247870Y-78816753D01*
X57113163Y-78866995D01*
X57113156Y-78866999D01*
X56998062Y-78953159D01*
X56938828Y-79032285D01*
X56882894Y-79074155D01*
X56813202Y-79079139D01*
X56751879Y-79045653D01*
X56740296Y-79032285D01*
X56710982Y-78993128D01*
X56680796Y-78952804D01*
X56680794Y-78952803D01*
X56680794Y-78952802D01*
X56565585Y-78866556D01*
X56565578Y-78866552D01*
X56430732Y-78816258D01*
X56430733Y-78816258D01*
X56371133Y-78809851D01*
X56371131Y-78809850D01*
X56371123Y-78809850D01*
X56371114Y-78809850D01*
X54767379Y-78809850D01*
X54767373Y-78809851D01*
X54707766Y-78816258D01*
X54572921Y-78866552D01*
X54572914Y-78866556D01*
X54457705Y-78952802D01*
X54398516Y-79031868D01*
X54342582Y-79073738D01*
X54272890Y-79078722D01*
X54211567Y-79045236D01*
X54199984Y-79031868D01*
X54166507Y-78987149D01*
X54140796Y-78952804D01*
X54140794Y-78952803D01*
X54140794Y-78952802D01*
X54025585Y-78866556D01*
X54025578Y-78866552D01*
X53890732Y-78816258D01*
X53890733Y-78816258D01*
X53831133Y-78809851D01*
X53831131Y-78809850D01*
X53831123Y-78809850D01*
X53831114Y-78809850D01*
X52227379Y-78809850D01*
X52227373Y-78809851D01*
X52167766Y-78816258D01*
X52032921Y-78866552D01*
X52032914Y-78866556D01*
X51917705Y-78952802D01*
X51917702Y-78952805D01*
X51831456Y-79068014D01*
X51831452Y-79068021D01*
X51781158Y-79202867D01*
X51774751Y-79262466D01*
X51774751Y-79262473D01*
X51774750Y-79262485D01*
X50500500Y-79262485D01*
X50500500Y-61482485D01*
X51774750Y-61482485D01*
X51774750Y-63086220D01*
X51774751Y-63086226D01*
X51781158Y-63145833D01*
X51831452Y-63280678D01*
X51831456Y-63280685D01*
X51917702Y-63395894D01*
X51917705Y-63395897D01*
X52032914Y-63482143D01*
X52032921Y-63482147D01*
X52167767Y-63532441D01*
X52167766Y-63532441D01*
X52174694Y-63533185D01*
X52227377Y-63538850D01*
X53347797Y-63538849D01*
X53414836Y-63558534D01*
X53435478Y-63575168D01*
X62259039Y-72398729D01*
X62259042Y-72398733D01*
X62346167Y-72485858D01*
X62382731Y-72510289D01*
X62448614Y-72554312D01*
X62523502Y-72585331D01*
X62562448Y-72601463D01*
X62622871Y-72613481D01*
X62683293Y-72625500D01*
X62683294Y-72625500D01*
X91957650Y-72625500D01*
X92024689Y-72645185D01*
X92026541Y-72646398D01*
X92120821Y-72709394D01*
X92120823Y-72709395D01*
X92120827Y-72709397D01*
X92258683Y-72766498D01*
X92266503Y-72769737D01*
X92421153Y-72800499D01*
X92421156Y-72800500D01*
X92421158Y-72800500D01*
X92578844Y-72800500D01*
X92578845Y-72800499D01*
X92733497Y-72769737D01*
X92879179Y-72709394D01*
X92973459Y-72646398D01*
X93040136Y-72625520D01*
X93042350Y-72625500D01*
X114439548Y-72625500D01*
X114468988Y-72634144D01*
X114498975Y-72640668D01*
X114503990Y-72644422D01*
X114506587Y-72645185D01*
X114527229Y-72661819D01*
X114667078Y-72801668D01*
X114700563Y-72862991D01*
X114701016Y-72913533D01*
X114699500Y-72921156D01*
X114699500Y-73078846D01*
X114730261Y-73233489D01*
X114730264Y-73233501D01*
X114790602Y-73379172D01*
X114790609Y-73379185D01*
X114878210Y-73510288D01*
X114878213Y-73510292D01*
X114989707Y-73621786D01*
X114989711Y-73621789D01*
X115120814Y-73709390D01*
X115120827Y-73709397D01*
X115266498Y-73769735D01*
X115266503Y-73769737D01*
X115421153Y-73800499D01*
X115421156Y-73800500D01*
X115421158Y-73800500D01*
X115578844Y-73800500D01*
X115578845Y-73800499D01*
X115733497Y-73769737D01*
X115879179Y-73709394D01*
X116010289Y-73621789D01*
X116121789Y-73510289D01*
X116209394Y-73379179D01*
X116269737Y-73233497D01*
X116300500Y-73078842D01*
X116300500Y-72921158D01*
X116300500Y-72921156D01*
X116300500Y-72921155D01*
X116300499Y-72921153D01*
X116286054Y-72848535D01*
X116269737Y-72766503D01*
X116226376Y-72661819D01*
X116209397Y-72620827D01*
X116209390Y-72620814D01*
X116121789Y-72489711D01*
X116121786Y-72489707D01*
X116010295Y-72378216D01*
X116010279Y-72378203D01*
X115999899Y-72368646D01*
X115992079Y-72360577D01*
X115985858Y-72351267D01*
X115898733Y-72264142D01*
X115898729Y-72264139D01*
X115240198Y-71605608D01*
X115240178Y-71605586D01*
X115221773Y-71587181D01*
X115188288Y-71525858D01*
X115193272Y-71456166D01*
X115235144Y-71400233D01*
X115300608Y-71375816D01*
X115309454Y-71375500D01*
X115561607Y-71375500D01*
X115622029Y-71363481D01*
X115682452Y-71351463D01*
X115715792Y-71337652D01*
X115796286Y-71304312D01*
X115862169Y-71260289D01*
X115898733Y-71235858D01*
X115985858Y-71148733D01*
X115985859Y-71148731D01*
X115992925Y-71141665D01*
X115992928Y-71141661D01*
X118058797Y-69075791D01*
X118120118Y-69042308D01*
X118122128Y-69041889D01*
X118233497Y-69019737D01*
X118379179Y-68959394D01*
X118510289Y-68871789D01*
X118621789Y-68760289D01*
X118709394Y-68629179D01*
X118769737Y-68483497D01*
X118800500Y-68328842D01*
X118800500Y-68171158D01*
X118800500Y-68171155D01*
X118800499Y-68171153D01*
X118769738Y-68016510D01*
X118769738Y-68016508D01*
X118769737Y-68016503D01*
X118769735Y-68016498D01*
X118709397Y-67870827D01*
X118709390Y-67870814D01*
X118621789Y-67739711D01*
X118621786Y-67739707D01*
X118510292Y-67628213D01*
X118510288Y-67628210D01*
X118379185Y-67540609D01*
X118379172Y-67540602D01*
X118233501Y-67480264D01*
X118233489Y-67480261D01*
X118078845Y-67449500D01*
X118078842Y-67449500D01*
X117921158Y-67449500D01*
X117921155Y-67449500D01*
X117766510Y-67480261D01*
X117766498Y-67480264D01*
X117620827Y-67540602D01*
X117620814Y-67540609D01*
X117489711Y-67628210D01*
X117489707Y-67628213D01*
X117378213Y-67739707D01*
X117378210Y-67739711D01*
X117290609Y-67870814D01*
X117290602Y-67870827D01*
X117230264Y-68016498D01*
X117230261Y-68016508D01*
X117208141Y-68127714D01*
X117175756Y-68189625D01*
X117174205Y-68191203D01*
X115277229Y-70088181D01*
X115215906Y-70121666D01*
X115189548Y-70124500D01*
X78792350Y-70124500D01*
X78725311Y-70104815D01*
X78723459Y-70103602D01*
X78629184Y-70040609D01*
X78629172Y-70040602D01*
X78483501Y-69980264D01*
X78483489Y-69980261D01*
X78328845Y-69949500D01*
X78328842Y-69949500D01*
X78171158Y-69949500D01*
X78171155Y-69949500D01*
X78016510Y-69980261D01*
X78016498Y-69980264D01*
X77870827Y-70040602D01*
X77870814Y-70040609D01*
X77739711Y-70128210D01*
X77739707Y-70128213D01*
X77628213Y-70239707D01*
X77628210Y-70239711D01*
X77540609Y-70370814D01*
X77540602Y-70370827D01*
X77480264Y-70516498D01*
X77480261Y-70516510D01*
X77449500Y-70671153D01*
X77449500Y-70828846D01*
X77480261Y-70983489D01*
X77480264Y-70983501D01*
X77540602Y-71129172D01*
X77540609Y-71129185D01*
X77575638Y-71181609D01*
X77596516Y-71248287D01*
X77578031Y-71315667D01*
X77526053Y-71362357D01*
X77472536Y-71374500D01*
X63055352Y-71374500D01*
X62988313Y-71354815D01*
X62967671Y-71338181D01*
X55380020Y-63750530D01*
X55346535Y-63689207D01*
X55351519Y-63619515D01*
X55393391Y-63563582D01*
X55458855Y-63539165D01*
X55467701Y-63538849D01*
X56371121Y-63538849D01*
X56371122Y-63538849D01*
X56430733Y-63532441D01*
X56565581Y-63482146D01*
X56680796Y-63395896D01*
X56740296Y-63316414D01*
X56796229Y-63274544D01*
X56865921Y-63269560D01*
X56927244Y-63303045D01*
X56938828Y-63316415D01*
X56998059Y-63395537D01*
X56998062Y-63395540D01*
X57113156Y-63481700D01*
X57113163Y-63481704D01*
X57247870Y-63531946D01*
X57247877Y-63531948D01*
X57307405Y-63538349D01*
X57307422Y-63538350D01*
X57859250Y-63538350D01*
X57859250Y-62717362D01*
X57916257Y-62750275D01*
X58043424Y-62784350D01*
X58175076Y-62784350D01*
X58302243Y-62750275D01*
X58359250Y-62717362D01*
X58359250Y-63538350D01*
X58911078Y-63538350D01*
X58911094Y-63538349D01*
X58970622Y-63531948D01*
X58970629Y-63531946D01*
X59105336Y-63481704D01*
X59105343Y-63481700D01*
X59220436Y-63395541D01*
X59279670Y-63316415D01*
X59335604Y-63274544D01*
X59405295Y-63269560D01*
X59466618Y-63303045D01*
X59478203Y-63316414D01*
X59522610Y-63375733D01*
X59537437Y-63395540D01*
X59537705Y-63395897D01*
X59652914Y-63482143D01*
X59652921Y-63482147D01*
X59787767Y-63532441D01*
X59787766Y-63532441D01*
X59794694Y-63533185D01*
X59847377Y-63538850D01*
X61451122Y-63538849D01*
X61510733Y-63532441D01*
X61645581Y-63482146D01*
X61760796Y-63395896D01*
X61786346Y-63361765D01*
X61819984Y-63316832D01*
X61875917Y-63274961D01*
X61945609Y-63269977D01*
X62006932Y-63303463D01*
X62018516Y-63316832D01*
X62077702Y-63395894D01*
X62077705Y-63395897D01*
X62192914Y-63482143D01*
X62192921Y-63482147D01*
X62327767Y-63532441D01*
X62327766Y-63532441D01*
X62334694Y-63533185D01*
X62387377Y-63538850D01*
X63991122Y-63538849D01*
X64050733Y-63532441D01*
X64185581Y-63482146D01*
X64300796Y-63395896D01*
X64326346Y-63361765D01*
X64359984Y-63316832D01*
X64415917Y-63274961D01*
X64485609Y-63269977D01*
X64546932Y-63303463D01*
X64558516Y-63316832D01*
X64617702Y-63395894D01*
X64617705Y-63395897D01*
X64732914Y-63482143D01*
X64732921Y-63482147D01*
X64867767Y-63532441D01*
X64867766Y-63532441D01*
X64874694Y-63533185D01*
X64927377Y-63538850D01*
X66531122Y-63538849D01*
X66590733Y-63532441D01*
X66725581Y-63482146D01*
X66840796Y-63395896D01*
X66866346Y-63361765D01*
X66899984Y-63316832D01*
X66955917Y-63274961D01*
X67025609Y-63269977D01*
X67086932Y-63303463D01*
X67098516Y-63316832D01*
X67157702Y-63395894D01*
X67157705Y-63395897D01*
X67272914Y-63482143D01*
X67272921Y-63482147D01*
X67407767Y-63532441D01*
X67407766Y-63532441D01*
X67414694Y-63533185D01*
X67467377Y-63538850D01*
X69071122Y-63538849D01*
X69130733Y-63532441D01*
X69265581Y-63482146D01*
X69380796Y-63395896D01*
X69440296Y-63316414D01*
X69496229Y-63274544D01*
X69565921Y-63269560D01*
X69627244Y-63303045D01*
X69638828Y-63316415D01*
X69698059Y-63395537D01*
X69698062Y-63395540D01*
X69813156Y-63481700D01*
X69813163Y-63481704D01*
X69947870Y-63531946D01*
X69947877Y-63531948D01*
X70007405Y-63538349D01*
X70007422Y-63538350D01*
X70559250Y-63538350D01*
X70559250Y-62717362D01*
X70616257Y-62750275D01*
X70743424Y-62784350D01*
X70875076Y-62784350D01*
X71002243Y-62750275D01*
X71059250Y-62717362D01*
X71059250Y-63538350D01*
X71611078Y-63538350D01*
X71611094Y-63538349D01*
X71670622Y-63531948D01*
X71670629Y-63531946D01*
X71805336Y-63481704D01*
X71805343Y-63481700D01*
X71920436Y-63395541D01*
X71979670Y-63316415D01*
X72035604Y-63274544D01*
X72105295Y-63269560D01*
X72166618Y-63303045D01*
X72178203Y-63316414D01*
X72222610Y-63375733D01*
X72237437Y-63395540D01*
X72237705Y-63395897D01*
X72352914Y-63482143D01*
X72352921Y-63482147D01*
X72487767Y-63532441D01*
X72487766Y-63532441D01*
X72494694Y-63533185D01*
X72547377Y-63538850D01*
X74151122Y-63538849D01*
X74210733Y-63532441D01*
X74345581Y-63482146D01*
X74460796Y-63395896D01*
X74486346Y-63361765D01*
X74519984Y-63316832D01*
X74575917Y-63274961D01*
X74645609Y-63269977D01*
X74706932Y-63303463D01*
X74718516Y-63316832D01*
X74777702Y-63395894D01*
X74777705Y-63395897D01*
X74892914Y-63482143D01*
X74892921Y-63482147D01*
X75027767Y-63532441D01*
X75027766Y-63532441D01*
X75034694Y-63533185D01*
X75087377Y-63538850D01*
X76691122Y-63538849D01*
X76750733Y-63532441D01*
X76885581Y-63482146D01*
X77000796Y-63395896D01*
X77026346Y-63361765D01*
X77059984Y-63316832D01*
X77115917Y-63274961D01*
X77185609Y-63269977D01*
X77246932Y-63303463D01*
X77258516Y-63316832D01*
X77317702Y-63395894D01*
X77317705Y-63395897D01*
X77432914Y-63482143D01*
X77432921Y-63482147D01*
X77567767Y-63532441D01*
X77567766Y-63532441D01*
X77574694Y-63533185D01*
X77627377Y-63538850D01*
X79231122Y-63538849D01*
X79290733Y-63532441D01*
X79425581Y-63482146D01*
X79540796Y-63395896D01*
X79566346Y-63361765D01*
X79599984Y-63316832D01*
X79655917Y-63274961D01*
X79725609Y-63269977D01*
X79786932Y-63303463D01*
X79798516Y-63316832D01*
X79857702Y-63395894D01*
X79857705Y-63395897D01*
X79972914Y-63482143D01*
X79972921Y-63482147D01*
X80107767Y-63532441D01*
X80107766Y-63532441D01*
X80114694Y-63533185D01*
X80167377Y-63538850D01*
X81771122Y-63538849D01*
X81830733Y-63532441D01*
X81965581Y-63482146D01*
X82080796Y-63395896D01*
X82140296Y-63316414D01*
X82196229Y-63274544D01*
X82265921Y-63269560D01*
X82327244Y-63303045D01*
X82338828Y-63316415D01*
X82398059Y-63395537D01*
X82398062Y-63395540D01*
X82513156Y-63481700D01*
X82513163Y-63481704D01*
X82647870Y-63531946D01*
X82647877Y-63531948D01*
X82707405Y-63538349D01*
X82707422Y-63538350D01*
X83259250Y-63538350D01*
X83259250Y-62717362D01*
X83316257Y-62750275D01*
X83443424Y-62784350D01*
X83575076Y-62784350D01*
X83702243Y-62750275D01*
X83759250Y-62717362D01*
X83759250Y-63538350D01*
X84311078Y-63538350D01*
X84311094Y-63538349D01*
X84370622Y-63531948D01*
X84370629Y-63531946D01*
X84505336Y-63481704D01*
X84505343Y-63481700D01*
X84620436Y-63395541D01*
X84679670Y-63316415D01*
X84735604Y-63274544D01*
X84805295Y-63269560D01*
X84866618Y-63303045D01*
X84878203Y-63316414D01*
X84922610Y-63375733D01*
X84937437Y-63395540D01*
X84937705Y-63395897D01*
X85052914Y-63482143D01*
X85052921Y-63482147D01*
X85187767Y-63532441D01*
X85187766Y-63532441D01*
X85194694Y-63533185D01*
X85247377Y-63538850D01*
X86851122Y-63538849D01*
X86910733Y-63532441D01*
X87045581Y-63482146D01*
X87160796Y-63395896D01*
X87186346Y-63361765D01*
X87219984Y-63316832D01*
X87275917Y-63274961D01*
X87345609Y-63269977D01*
X87406932Y-63303463D01*
X87418516Y-63316832D01*
X87477702Y-63395894D01*
X87477705Y-63395897D01*
X87592914Y-63482143D01*
X87592921Y-63482147D01*
X87727767Y-63532441D01*
X87727766Y-63532441D01*
X87734694Y-63533185D01*
X87787377Y-63538850D01*
X89391122Y-63538849D01*
X89450733Y-63532441D01*
X89585581Y-63482146D01*
X89700796Y-63395896D01*
X89726346Y-63361765D01*
X89759984Y-63316832D01*
X89815917Y-63274961D01*
X89885609Y-63269977D01*
X89946932Y-63303463D01*
X89958516Y-63316832D01*
X90017702Y-63395894D01*
X90017705Y-63395897D01*
X90132914Y-63482143D01*
X90132921Y-63482147D01*
X90267767Y-63532441D01*
X90267766Y-63532441D01*
X90274694Y-63533185D01*
X90327377Y-63538850D01*
X91931122Y-63538849D01*
X91990733Y-63532441D01*
X92125581Y-63482146D01*
X92240796Y-63395896D01*
X92266346Y-63361765D01*
X92299984Y-63316832D01*
X92355917Y-63274961D01*
X92425609Y-63269977D01*
X92486932Y-63303463D01*
X92498516Y-63316832D01*
X92557702Y-63395894D01*
X92557705Y-63395897D01*
X92672914Y-63482143D01*
X92672921Y-63482147D01*
X92807767Y-63532441D01*
X92807766Y-63532441D01*
X92814694Y-63533185D01*
X92867377Y-63538850D01*
X94471122Y-63538849D01*
X94530733Y-63532441D01*
X94665581Y-63482146D01*
X94780796Y-63395896D01*
X94840296Y-63316414D01*
X94896229Y-63274544D01*
X94965921Y-63269560D01*
X95027244Y-63303045D01*
X95038828Y-63316415D01*
X95098059Y-63395537D01*
X95098062Y-63395540D01*
X95213156Y-63481700D01*
X95213163Y-63481704D01*
X95347870Y-63531946D01*
X95347877Y-63531948D01*
X95407405Y-63538349D01*
X95407422Y-63538350D01*
X95959250Y-63538350D01*
X95959250Y-62717362D01*
X96016257Y-62750275D01*
X96143424Y-62784350D01*
X96275076Y-62784350D01*
X96402243Y-62750275D01*
X96459250Y-62717362D01*
X96459250Y-63538350D01*
X97011078Y-63538350D01*
X97011094Y-63538349D01*
X97070622Y-63531948D01*
X97070629Y-63531946D01*
X97205336Y-63481704D01*
X97205343Y-63481700D01*
X97320436Y-63395541D01*
X97379670Y-63316415D01*
X97435604Y-63274544D01*
X97505295Y-63269560D01*
X97566618Y-63303045D01*
X97578203Y-63316414D01*
X97622610Y-63375733D01*
X97637437Y-63395540D01*
X97637705Y-63395897D01*
X97752914Y-63482143D01*
X97752921Y-63482147D01*
X97887767Y-63532441D01*
X97887766Y-63532441D01*
X97894694Y-63533185D01*
X97947377Y-63538850D01*
X99551122Y-63538849D01*
X99610733Y-63532441D01*
X99745581Y-63482146D01*
X99860796Y-63395896D01*
X99886346Y-63361765D01*
X99919984Y-63316832D01*
X99975917Y-63274961D01*
X100045609Y-63269977D01*
X100106932Y-63303463D01*
X100118516Y-63316832D01*
X100177702Y-63395894D01*
X100177705Y-63395897D01*
X100292914Y-63482143D01*
X100292921Y-63482147D01*
X100427767Y-63532441D01*
X100427766Y-63532441D01*
X100434694Y-63533185D01*
X100487377Y-63538850D01*
X102091122Y-63538849D01*
X102150733Y-63532441D01*
X102285581Y-63482146D01*
X102400796Y-63395896D01*
X102487046Y-63280681D01*
X102537341Y-63145833D01*
X102543750Y-63086223D01*
X102543749Y-61482478D01*
X102537341Y-61422867D01*
X102491193Y-61299139D01*
X102487047Y-61288021D01*
X102487043Y-61288014D01*
X102400797Y-61172805D01*
X102400794Y-61172802D01*
X102285585Y-61086556D01*
X102285578Y-61086552D01*
X102150732Y-61036258D01*
X102150733Y-61036258D01*
X102091133Y-61029851D01*
X102091131Y-61029850D01*
X102091123Y-61029850D01*
X102091114Y-61029850D01*
X100487379Y-61029850D01*
X100487373Y-61029851D01*
X100427766Y-61036258D01*
X100292921Y-61086552D01*
X100292914Y-61086556D01*
X100177705Y-61172802D01*
X100118516Y-61251868D01*
X100062582Y-61293738D01*
X99992890Y-61298722D01*
X99931567Y-61265236D01*
X99919984Y-61251868D01*
X99886507Y-61207149D01*
X99860796Y-61172804D01*
X99860794Y-61172803D01*
X99860794Y-61172802D01*
X99745585Y-61086556D01*
X99745578Y-61086552D01*
X99610732Y-61036258D01*
X99610733Y-61036258D01*
X99551133Y-61029851D01*
X99551131Y-61029850D01*
X99551123Y-61029850D01*
X99551114Y-61029850D01*
X97947379Y-61029850D01*
X97947373Y-61029851D01*
X97887766Y-61036258D01*
X97752921Y-61086552D01*
X97752914Y-61086556D01*
X97637705Y-61172802D01*
X97578203Y-61252285D01*
X97522268Y-61294156D01*
X97452576Y-61299139D01*
X97391254Y-61265652D01*
X97379670Y-61252284D01*
X97320436Y-61173159D01*
X97205343Y-61086999D01*
X97205336Y-61086995D01*
X97070629Y-61036753D01*
X97070622Y-61036751D01*
X97011094Y-61030350D01*
X96459250Y-61030350D01*
X96459250Y-61851338D01*
X96402243Y-61818425D01*
X96275076Y-61784350D01*
X96143424Y-61784350D01*
X96016257Y-61818425D01*
X95959250Y-61851338D01*
X95959250Y-61030350D01*
X95407405Y-61030350D01*
X95347877Y-61036751D01*
X95347870Y-61036753D01*
X95213163Y-61086995D01*
X95213156Y-61086999D01*
X95098062Y-61173159D01*
X95038828Y-61252285D01*
X94982894Y-61294155D01*
X94913202Y-61299139D01*
X94851879Y-61265653D01*
X94840296Y-61252285D01*
X94810982Y-61213128D01*
X94780796Y-61172804D01*
X94780794Y-61172803D01*
X94780794Y-61172802D01*
X94665585Y-61086556D01*
X94665578Y-61086552D01*
X94530732Y-61036258D01*
X94530733Y-61036258D01*
X94471133Y-61029851D01*
X94471131Y-61029850D01*
X94471123Y-61029850D01*
X94471114Y-61029850D01*
X92867379Y-61029850D01*
X92867373Y-61029851D01*
X92807766Y-61036258D01*
X92672921Y-61086552D01*
X92672914Y-61086556D01*
X92557705Y-61172802D01*
X92498516Y-61251868D01*
X92442582Y-61293738D01*
X92372890Y-61298722D01*
X92311567Y-61265236D01*
X92299984Y-61251868D01*
X92266507Y-61207149D01*
X92240796Y-61172804D01*
X92240794Y-61172803D01*
X92240794Y-61172802D01*
X92125585Y-61086556D01*
X92125578Y-61086552D01*
X91990732Y-61036258D01*
X91990733Y-61036258D01*
X91931133Y-61029851D01*
X91931131Y-61029850D01*
X91931123Y-61029850D01*
X91931114Y-61029850D01*
X90327379Y-61029850D01*
X90327373Y-61029851D01*
X90267766Y-61036258D01*
X90132921Y-61086552D01*
X90132914Y-61086556D01*
X90017705Y-61172802D01*
X89958516Y-61251868D01*
X89902582Y-61293738D01*
X89832890Y-61298722D01*
X89771567Y-61265236D01*
X89759984Y-61251868D01*
X89726507Y-61207149D01*
X89700796Y-61172804D01*
X89700794Y-61172803D01*
X89700794Y-61172802D01*
X89585585Y-61086556D01*
X89585578Y-61086552D01*
X89450732Y-61036258D01*
X89450733Y-61036258D01*
X89391133Y-61029851D01*
X89391131Y-61029850D01*
X89391123Y-61029850D01*
X89391114Y-61029850D01*
X87787379Y-61029850D01*
X87787373Y-61029851D01*
X87727766Y-61036258D01*
X87592921Y-61086552D01*
X87592914Y-61086556D01*
X87477705Y-61172802D01*
X87418516Y-61251868D01*
X87362582Y-61293738D01*
X87292890Y-61298722D01*
X87231567Y-61265236D01*
X87219984Y-61251868D01*
X87186507Y-61207149D01*
X87160796Y-61172804D01*
X87160794Y-61172803D01*
X87160794Y-61172802D01*
X87045585Y-61086556D01*
X87045578Y-61086552D01*
X86910732Y-61036258D01*
X86910733Y-61036258D01*
X86851133Y-61029851D01*
X86851131Y-61029850D01*
X86851123Y-61029850D01*
X86851114Y-61029850D01*
X85247379Y-61029850D01*
X85247373Y-61029851D01*
X85187766Y-61036258D01*
X85052921Y-61086552D01*
X85052914Y-61086556D01*
X84937705Y-61172802D01*
X84878203Y-61252285D01*
X84822268Y-61294156D01*
X84752576Y-61299139D01*
X84691254Y-61265652D01*
X84679670Y-61252284D01*
X84620436Y-61173159D01*
X84505343Y-61086999D01*
X84505336Y-61086995D01*
X84370629Y-61036753D01*
X84370622Y-61036751D01*
X84311094Y-61030350D01*
X83759250Y-61030350D01*
X83759250Y-61851338D01*
X83702243Y-61818425D01*
X83575076Y-61784350D01*
X83443424Y-61784350D01*
X83316257Y-61818425D01*
X83259250Y-61851338D01*
X83259250Y-61030350D01*
X82707405Y-61030350D01*
X82647877Y-61036751D01*
X82647870Y-61036753D01*
X82513163Y-61086995D01*
X82513156Y-61086999D01*
X82398062Y-61173159D01*
X82338828Y-61252285D01*
X82282894Y-61294155D01*
X82213202Y-61299139D01*
X82151879Y-61265653D01*
X82140296Y-61252285D01*
X82110982Y-61213128D01*
X82080796Y-61172804D01*
X82080794Y-61172803D01*
X82080794Y-61172802D01*
X81965585Y-61086556D01*
X81965578Y-61086552D01*
X81830732Y-61036258D01*
X81830733Y-61036258D01*
X81771133Y-61029851D01*
X81771131Y-61029850D01*
X81771123Y-61029850D01*
X81771114Y-61029850D01*
X80167379Y-61029850D01*
X80167373Y-61029851D01*
X80107766Y-61036258D01*
X79972921Y-61086552D01*
X79972914Y-61086556D01*
X79857705Y-61172802D01*
X79798516Y-61251868D01*
X79742582Y-61293738D01*
X79672890Y-61298722D01*
X79611567Y-61265236D01*
X79599984Y-61251868D01*
X79566507Y-61207149D01*
X79540796Y-61172804D01*
X79540794Y-61172803D01*
X79540794Y-61172802D01*
X79425585Y-61086556D01*
X79425578Y-61086552D01*
X79290732Y-61036258D01*
X79290733Y-61036258D01*
X79231133Y-61029851D01*
X79231131Y-61029850D01*
X79231123Y-61029850D01*
X79231114Y-61029850D01*
X77627379Y-61029850D01*
X77627373Y-61029851D01*
X77567766Y-61036258D01*
X77432921Y-61086552D01*
X77432914Y-61086556D01*
X77317705Y-61172802D01*
X77258516Y-61251868D01*
X77202582Y-61293738D01*
X77132890Y-61298722D01*
X77071567Y-61265236D01*
X77059984Y-61251868D01*
X77026507Y-61207149D01*
X77000796Y-61172804D01*
X77000794Y-61172803D01*
X77000794Y-61172802D01*
X76885585Y-61086556D01*
X76885578Y-61086552D01*
X76750732Y-61036258D01*
X76750733Y-61036258D01*
X76691133Y-61029851D01*
X76691131Y-61029850D01*
X76691123Y-61029850D01*
X76691114Y-61029850D01*
X75087379Y-61029850D01*
X75087373Y-61029851D01*
X75027766Y-61036258D01*
X74892921Y-61086552D01*
X74892914Y-61086556D01*
X74777705Y-61172802D01*
X74718516Y-61251868D01*
X74662582Y-61293738D01*
X74592890Y-61298722D01*
X74531567Y-61265236D01*
X74519984Y-61251868D01*
X74486507Y-61207149D01*
X74460796Y-61172804D01*
X74460794Y-61172803D01*
X74460794Y-61172802D01*
X74345585Y-61086556D01*
X74345578Y-61086552D01*
X74210732Y-61036258D01*
X74210733Y-61036258D01*
X74151133Y-61029851D01*
X74151131Y-61029850D01*
X74151123Y-61029850D01*
X74151114Y-61029850D01*
X72547379Y-61029850D01*
X72547373Y-61029851D01*
X72487766Y-61036258D01*
X72352921Y-61086552D01*
X72352914Y-61086556D01*
X72237705Y-61172802D01*
X72178203Y-61252285D01*
X72122268Y-61294156D01*
X72052576Y-61299139D01*
X71991254Y-61265652D01*
X71979670Y-61252284D01*
X71920436Y-61173159D01*
X71805343Y-61086999D01*
X71805336Y-61086995D01*
X71670629Y-61036753D01*
X71670622Y-61036751D01*
X71611094Y-61030350D01*
X71059250Y-61030350D01*
X71059250Y-61851338D01*
X71002243Y-61818425D01*
X70875076Y-61784350D01*
X70743424Y-61784350D01*
X70616257Y-61818425D01*
X70559250Y-61851338D01*
X70559250Y-61030350D01*
X70007405Y-61030350D01*
X69947877Y-61036751D01*
X69947870Y-61036753D01*
X69813163Y-61086995D01*
X69813156Y-61086999D01*
X69698062Y-61173159D01*
X69638828Y-61252285D01*
X69582894Y-61294155D01*
X69513202Y-61299139D01*
X69451879Y-61265653D01*
X69440296Y-61252285D01*
X69410982Y-61213128D01*
X69380796Y-61172804D01*
X69380794Y-61172803D01*
X69380794Y-61172802D01*
X69265585Y-61086556D01*
X69265578Y-61086552D01*
X69130732Y-61036258D01*
X69130733Y-61036258D01*
X69071133Y-61029851D01*
X69071131Y-61029850D01*
X69071123Y-61029850D01*
X69071114Y-61029850D01*
X67467379Y-61029850D01*
X67467373Y-61029851D01*
X67407766Y-61036258D01*
X67272921Y-61086552D01*
X67272914Y-61086556D01*
X67157705Y-61172802D01*
X67098516Y-61251868D01*
X67042582Y-61293738D01*
X66972890Y-61298722D01*
X66911567Y-61265236D01*
X66899984Y-61251868D01*
X66866507Y-61207149D01*
X66840796Y-61172804D01*
X66840794Y-61172803D01*
X66840794Y-61172802D01*
X66725585Y-61086556D01*
X66725578Y-61086552D01*
X66590732Y-61036258D01*
X66590733Y-61036258D01*
X66531133Y-61029851D01*
X66531131Y-61029850D01*
X66531123Y-61029850D01*
X66531114Y-61029850D01*
X64927379Y-61029850D01*
X64927373Y-61029851D01*
X64867766Y-61036258D01*
X64732921Y-61086552D01*
X64732914Y-61086556D01*
X64617705Y-61172802D01*
X64558516Y-61251868D01*
X64502582Y-61293738D01*
X64432890Y-61298722D01*
X64371567Y-61265236D01*
X64359984Y-61251868D01*
X64326507Y-61207149D01*
X64300796Y-61172804D01*
X64300794Y-61172803D01*
X64300794Y-61172802D01*
X64185585Y-61086556D01*
X64185578Y-61086552D01*
X64050732Y-61036258D01*
X64050733Y-61036258D01*
X63991133Y-61029851D01*
X63991131Y-61029850D01*
X63991123Y-61029850D01*
X63991114Y-61029850D01*
X62387379Y-61029850D01*
X62387373Y-61029851D01*
X62327766Y-61036258D01*
X62192921Y-61086552D01*
X62192914Y-61086556D01*
X62077705Y-61172802D01*
X62018516Y-61251868D01*
X61962582Y-61293738D01*
X61892890Y-61298722D01*
X61831567Y-61265236D01*
X61819984Y-61251868D01*
X61786507Y-61207149D01*
X61760796Y-61172804D01*
X61760794Y-61172803D01*
X61760794Y-61172802D01*
X61645585Y-61086556D01*
X61645578Y-61086552D01*
X61510732Y-61036258D01*
X61510733Y-61036258D01*
X61451133Y-61029851D01*
X61451131Y-61029850D01*
X61451123Y-61029850D01*
X61451114Y-61029850D01*
X59847379Y-61029850D01*
X59847373Y-61029851D01*
X59787766Y-61036258D01*
X59652921Y-61086552D01*
X59652914Y-61086556D01*
X59537705Y-61172802D01*
X59478203Y-61252285D01*
X59422268Y-61294156D01*
X59352576Y-61299139D01*
X59291254Y-61265652D01*
X59279670Y-61252284D01*
X59220436Y-61173159D01*
X59105343Y-61086999D01*
X59105336Y-61086995D01*
X58970629Y-61036753D01*
X58970622Y-61036751D01*
X58911094Y-61030350D01*
X58359250Y-61030350D01*
X58359250Y-61851338D01*
X58302243Y-61818425D01*
X58175076Y-61784350D01*
X58043424Y-61784350D01*
X57916257Y-61818425D01*
X57859250Y-61851338D01*
X57859250Y-61030350D01*
X57307405Y-61030350D01*
X57247877Y-61036751D01*
X57247870Y-61036753D01*
X57113163Y-61086995D01*
X57113156Y-61086999D01*
X56998062Y-61173159D01*
X56938828Y-61252285D01*
X56882894Y-61294155D01*
X56813202Y-61299139D01*
X56751879Y-61265653D01*
X56740296Y-61252285D01*
X56710982Y-61213128D01*
X56680796Y-61172804D01*
X56680794Y-61172803D01*
X56680794Y-61172802D01*
X56565585Y-61086556D01*
X56565578Y-61086552D01*
X56430732Y-61036258D01*
X56430733Y-61036258D01*
X56371133Y-61029851D01*
X56371131Y-61029850D01*
X56371123Y-61029850D01*
X56371114Y-61029850D01*
X54767379Y-61029850D01*
X54767373Y-61029851D01*
X54707766Y-61036258D01*
X54572921Y-61086552D01*
X54572914Y-61086556D01*
X54457705Y-61172802D01*
X54398516Y-61251868D01*
X54342582Y-61293738D01*
X54272890Y-61298722D01*
X54211567Y-61265236D01*
X54199984Y-61251868D01*
X54166507Y-61207149D01*
X54140796Y-61172804D01*
X54140794Y-61172803D01*
X54140794Y-61172802D01*
X54025585Y-61086556D01*
X54025578Y-61086552D01*
X53890732Y-61036258D01*
X53890733Y-61036258D01*
X53831133Y-61029851D01*
X53831131Y-61029850D01*
X53831123Y-61029850D01*
X53831114Y-61029850D01*
X52227379Y-61029850D01*
X52227373Y-61029851D01*
X52167766Y-61036258D01*
X52032921Y-61086552D01*
X52032914Y-61086556D01*
X51917705Y-61172802D01*
X51917702Y-61172805D01*
X51831456Y-61288014D01*
X51831452Y-61288021D01*
X51781158Y-61422867D01*
X51774751Y-61482466D01*
X51774751Y-61482473D01*
X51774750Y-61482485D01*
X50500500Y-61482485D01*
X50500500Y-56591485D01*
X53623750Y-56591485D01*
X53623750Y-57537220D01*
X53623751Y-57537221D01*
X53630158Y-57596833D01*
X53680452Y-57731678D01*
X53680456Y-57731685D01*
X53766702Y-57846894D01*
X53766705Y-57846897D01*
X53881914Y-57933143D01*
X53881921Y-57933147D01*
X54016767Y-57983441D01*
X54016766Y-57983441D01*
X54023694Y-57984185D01*
X54076377Y-57989850D01*
X55022122Y-57989849D01*
X55081733Y-57983441D01*
X55177018Y-57947901D01*
X55246707Y-57942918D01*
X55267801Y-57949523D01*
X55279292Y-57954283D01*
X55279294Y-57954283D01*
X55279296Y-57954284D01*
X55458093Y-57989850D01*
X55458096Y-57989850D01*
X55640406Y-57989850D01*
X55760695Y-57965922D01*
X55819208Y-57954283D01*
X55987639Y-57884517D01*
X55987649Y-57884510D01*
X55991311Y-57882553D01*
X56059712Y-57868300D01*
X56108242Y-57882548D01*
X56111104Y-57884078D01*
X56279432Y-57953801D01*
X56279444Y-57953804D01*
X56458140Y-57989349D01*
X56458144Y-57989350D01*
X56640356Y-57989350D01*
X56640359Y-57989349D01*
X56819055Y-57953804D01*
X56819063Y-57953802D01*
X56987401Y-57884074D01*
X56987402Y-57884074D01*
X57004198Y-57872850D01*
X56490441Y-57359095D01*
X56486636Y-57352127D01*
X56480196Y-57347483D01*
X56470129Y-57321897D01*
X56456956Y-57297772D01*
X56456946Y-57296714D01*
X56499522Y-57314350D01*
X56598978Y-57314350D01*
X56690864Y-57276290D01*
X56761190Y-57205964D01*
X56799250Y-57114078D01*
X56799250Y-57064349D01*
X56902803Y-57064349D01*
X56902803Y-57064351D01*
X57357750Y-57519298D01*
X57357750Y-57519297D01*
X57368973Y-57502504D01*
X57368974Y-57502501D01*
X57438702Y-57334163D01*
X57438704Y-57334155D01*
X57474249Y-57155459D01*
X57474250Y-57155456D01*
X57474250Y-56973244D01*
X57474249Y-56973240D01*
X57438704Y-56794544D01*
X57438703Y-56794541D01*
X57418705Y-56746258D01*
X57418704Y-56746256D01*
X57400429Y-56702135D01*
X74749500Y-56702135D01*
X74749500Y-58297870D01*
X74749501Y-58297876D01*
X74755908Y-58357483D01*
X74806202Y-58492328D01*
X74806206Y-58492335D01*
X74892452Y-58607544D01*
X74892455Y-58607547D01*
X75007664Y-58693793D01*
X75007671Y-58693797D01*
X75142517Y-58744091D01*
X75142516Y-58744091D01*
X75149444Y-58744835D01*
X75202127Y-58750500D01*
X76797872Y-58750499D01*
X76857483Y-58744091D01*
X76992331Y-58693796D01*
X77107546Y-58607546D01*
X77193796Y-58492331D01*
X77244091Y-58357483D01*
X77250500Y-58297873D01*
X77250500Y-58171153D01*
X88199500Y-58171153D01*
X88199500Y-58328846D01*
X88230261Y-58483489D01*
X88230264Y-58483501D01*
X88290602Y-58629172D01*
X88290609Y-58629185D01*
X88378210Y-58760288D01*
X88378213Y-58760292D01*
X88489707Y-58871786D01*
X88489711Y-58871789D01*
X88620814Y-58959390D01*
X88620827Y-58959397D01*
X88766498Y-59019735D01*
X88766503Y-59019737D01*
X88921153Y-59050499D01*
X88921156Y-59050500D01*
X88921158Y-59050500D01*
X89078844Y-59050500D01*
X89078845Y-59050499D01*
X89233497Y-59019737D01*
X89379179Y-58959394D01*
X89473459Y-58896398D01*
X89540136Y-58875520D01*
X89542350Y-58875500D01*
X98957650Y-58875500D01*
X99024689Y-58895185D01*
X99026541Y-58896398D01*
X99120821Y-58959394D01*
X99120823Y-58959395D01*
X99120827Y-58959397D01*
X99184103Y-58985606D01*
X99266503Y-59019737D01*
X99377716Y-59041858D01*
X99394470Y-59050622D01*
X99412949Y-59054642D01*
X99437985Y-59073384D01*
X99439623Y-59074241D01*
X99441203Y-59075793D01*
X99511016Y-59145606D01*
X99511045Y-59145637D01*
X99601264Y-59235856D01*
X99601267Y-59235858D01*
X99678190Y-59287256D01*
X99703715Y-59304312D01*
X99770397Y-59331932D01*
X99774185Y-59333501D01*
X99774193Y-59333505D01*
X99811427Y-59348927D01*
X99817548Y-59351463D01*
X99877971Y-59363481D01*
X99938393Y-59375500D01*
X99938394Y-59375500D01*
X102125501Y-59375500D01*
X102192540Y-59395185D01*
X102238295Y-59447989D01*
X102249501Y-59499500D01*
X102249501Y-59547876D01*
X102255908Y-59607483D01*
X102306202Y-59742328D01*
X102306206Y-59742335D01*
X102392452Y-59857544D01*
X102392455Y-59857547D01*
X102507664Y-59943793D01*
X102507671Y-59943797D01*
X102642517Y-59994091D01*
X102642516Y-59994091D01*
X102649444Y-59994835D01*
X102702127Y-60000500D01*
X104297872Y-60000499D01*
X104357483Y-59994091D01*
X104492331Y-59943796D01*
X104607546Y-59857546D01*
X104693796Y-59742331D01*
X104744091Y-59607483D01*
X104750500Y-59547873D01*
X104750499Y-59024647D01*
X113994300Y-59024647D01*
X113994300Y-59255352D01*
X114030390Y-59483219D01*
X114070767Y-59607483D01*
X114101683Y-59702633D01*
X114101684Y-59702636D01*
X114101685Y-59702637D01*
X114121910Y-59742331D01*
X114206421Y-59908194D01*
X114342027Y-60094839D01*
X114505161Y-60257973D01*
X114691806Y-60393579D01*
X114897367Y-60498317D01*
X115074850Y-60555984D01*
X115116780Y-60569609D01*
X115230714Y-60587654D01*
X115344647Y-60605700D01*
X115344648Y-60605700D01*
X115575352Y-60605700D01*
X115575353Y-60605700D01*
X115803219Y-60569609D01*
X116022633Y-60498317D01*
X116228194Y-60393579D01*
X116414839Y-60257973D01*
X116577973Y-60094839D01*
X116629683Y-60023665D01*
X116685012Y-59981002D01*
X116754625Y-59975023D01*
X116816420Y-60007629D01*
X116830313Y-60023662D01*
X116882027Y-60094839D01*
X117045161Y-60257973D01*
X117231806Y-60393579D01*
X117437367Y-60498317D01*
X117614850Y-60555984D01*
X117656780Y-60569609D01*
X117770714Y-60587654D01*
X117884647Y-60605700D01*
X117884648Y-60605700D01*
X118115352Y-60605700D01*
X118115353Y-60605700D01*
X118343219Y-60569609D01*
X118562633Y-60498317D01*
X118768194Y-60393579D01*
X118954839Y-60257973D01*
X119117973Y-60094839D01*
X119169683Y-60023665D01*
X119225012Y-59981002D01*
X119294625Y-59975023D01*
X119356420Y-60007629D01*
X119370313Y-60023662D01*
X119422027Y-60094839D01*
X119585161Y-60257973D01*
X119771806Y-60393579D01*
X119977367Y-60498317D01*
X120154850Y-60555984D01*
X120196780Y-60569609D01*
X120310714Y-60587654D01*
X120424647Y-60605700D01*
X120424648Y-60605700D01*
X120655352Y-60605700D01*
X120655353Y-60605700D01*
X120883219Y-60569609D01*
X121102633Y-60498317D01*
X121308194Y-60393579D01*
X121494839Y-60257973D01*
X121657973Y-60094839D01*
X121709991Y-60023241D01*
X121765320Y-59980578D01*
X121834933Y-59974599D01*
X121848005Y-59981496D01*
X121882254Y-59984192D01*
X122680000Y-59186446D01*
X122680000Y-59192661D01*
X122707259Y-59294394D01*
X122759920Y-59385606D01*
X122834394Y-59460080D01*
X122925606Y-59512741D01*
X123027339Y-59540000D01*
X123033553Y-59540000D01*
X122235806Y-60337744D01*
X122312067Y-60393151D01*
X122517553Y-60497852D01*
X122736897Y-60569122D01*
X122964681Y-60605200D01*
X123195319Y-60605200D01*
X123423102Y-60569122D01*
X123642446Y-60497852D01*
X123847924Y-60393155D01*
X123847930Y-60393151D01*
X123924191Y-60337744D01*
X123924192Y-60337744D01*
X123126447Y-59540000D01*
X123132661Y-59540000D01*
X123234394Y-59512741D01*
X123325606Y-59460080D01*
X123400080Y-59385606D01*
X123452741Y-59294394D01*
X123480000Y-59192661D01*
X123480000Y-59186448D01*
X124277744Y-59984192D01*
X124302540Y-59982240D01*
X124304692Y-59980581D01*
X124374305Y-59974596D01*
X124436103Y-60007196D01*
X124450007Y-60023241D01*
X124450317Y-60023667D01*
X124502027Y-60094839D01*
X124665161Y-60257973D01*
X124851806Y-60393579D01*
X125057367Y-60498317D01*
X125234850Y-60555984D01*
X125276780Y-60569609D01*
X125390714Y-60587654D01*
X125504647Y-60605700D01*
X125504648Y-60605700D01*
X125735352Y-60605700D01*
X125735353Y-60605700D01*
X125963219Y-60569609D01*
X126182633Y-60498317D01*
X126388194Y-60393579D01*
X126574839Y-60257973D01*
X126737973Y-60094839D01*
X126789683Y-60023665D01*
X126845012Y-59981002D01*
X126914625Y-59975023D01*
X126976420Y-60007629D01*
X126990313Y-60023662D01*
X127042027Y-60094839D01*
X127205161Y-60257973D01*
X127391806Y-60393579D01*
X127597367Y-60498317D01*
X127774850Y-60555984D01*
X127816780Y-60569609D01*
X127930714Y-60587654D01*
X128044647Y-60605700D01*
X128044648Y-60605700D01*
X128275352Y-60605700D01*
X128275353Y-60605700D01*
X128503219Y-60569609D01*
X128722633Y-60498317D01*
X128928194Y-60393579D01*
X129114839Y-60257973D01*
X129277973Y-60094839D01*
X129329683Y-60023665D01*
X129385012Y-59981002D01*
X129454625Y-59975023D01*
X129516420Y-60007629D01*
X129530313Y-60023662D01*
X129582027Y-60094839D01*
X129745161Y-60257973D01*
X129931806Y-60393579D01*
X130137367Y-60498317D01*
X130314850Y-60555984D01*
X130356780Y-60569609D01*
X130470714Y-60587654D01*
X130584647Y-60605700D01*
X130584648Y-60605700D01*
X130815352Y-60605700D01*
X130815353Y-60605700D01*
X131043219Y-60569609D01*
X131262633Y-60498317D01*
X131468194Y-60393579D01*
X131654839Y-60257973D01*
X131817973Y-60094839D01*
X131869991Y-60023241D01*
X131925320Y-59980578D01*
X131994933Y-59974599D01*
X132008005Y-59981496D01*
X132042254Y-59984192D01*
X132840000Y-59186446D01*
X132840000Y-59192661D01*
X132867259Y-59294394D01*
X132919920Y-59385606D01*
X132994394Y-59460080D01*
X133085606Y-59512741D01*
X133187339Y-59540000D01*
X133193553Y-59540000D01*
X132395806Y-60337744D01*
X132472067Y-60393151D01*
X132677553Y-60497852D01*
X132896897Y-60569122D01*
X133124681Y-60605200D01*
X133355319Y-60605200D01*
X133583102Y-60569122D01*
X133802446Y-60497852D01*
X134007924Y-60393155D01*
X134007930Y-60393151D01*
X134084191Y-60337744D01*
X134084192Y-60337744D01*
X133286447Y-59540000D01*
X133292661Y-59540000D01*
X133394394Y-59512741D01*
X133485606Y-59460080D01*
X133560080Y-59385606D01*
X133612741Y-59294394D01*
X133640000Y-59192661D01*
X133640000Y-59186447D01*
X134437744Y-59984192D01*
X134437744Y-59984191D01*
X134493151Y-59907930D01*
X134493155Y-59907924D01*
X134597852Y-59702446D01*
X134669122Y-59483102D01*
X134705200Y-59255319D01*
X134705200Y-59024680D01*
X134669122Y-58796897D01*
X134597852Y-58577553D01*
X134493151Y-58372067D01*
X134437744Y-58295807D01*
X134437744Y-58295806D01*
X133640000Y-59093551D01*
X133640000Y-59087339D01*
X133612741Y-58985606D01*
X133560080Y-58894394D01*
X133485606Y-58819920D01*
X133394394Y-58767259D01*
X133292661Y-58740000D01*
X133286446Y-58740000D01*
X134084192Y-57942254D01*
X134084191Y-57942253D01*
X134007935Y-57886850D01*
X133802446Y-57782147D01*
X133583102Y-57710877D01*
X133355319Y-57674800D01*
X133124681Y-57674800D01*
X132896897Y-57710877D01*
X132677553Y-57782147D01*
X132472069Y-57886847D01*
X132395807Y-57942254D01*
X133193554Y-58740000D01*
X133187339Y-58740000D01*
X133085606Y-58767259D01*
X132994394Y-58819920D01*
X132919920Y-58894394D01*
X132867259Y-58985606D01*
X132840000Y-59087339D01*
X132840000Y-59093553D01*
X132042254Y-58295807D01*
X132017447Y-58297760D01*
X132015291Y-58299423D01*
X131945677Y-58305399D01*
X131883883Y-58272790D01*
X131869990Y-58256756D01*
X131817977Y-58185167D01*
X131817973Y-58185161D01*
X131654839Y-58022027D01*
X131468194Y-57886421D01*
X131390621Y-57846896D01*
X131262637Y-57781685D01*
X131262636Y-57781684D01*
X131262633Y-57781683D01*
X131172264Y-57752320D01*
X131043219Y-57710390D01*
X130822929Y-57675500D01*
X130815353Y-57674300D01*
X130584647Y-57674300D01*
X130577071Y-57675500D01*
X130356780Y-57710390D01*
X130211274Y-57757669D01*
X130137367Y-57781683D01*
X130137364Y-57781684D01*
X130137362Y-57781685D01*
X129931805Y-57886421D01*
X129838405Y-57954281D01*
X129745161Y-58022027D01*
X129745159Y-58022029D01*
X129745158Y-58022029D01*
X129582028Y-58185159D01*
X129530318Y-58256332D01*
X129474987Y-58298998D01*
X129405374Y-58304976D01*
X129343579Y-58272370D01*
X129329682Y-58256332D01*
X129277977Y-58185167D01*
X129277973Y-58185161D01*
X129114839Y-58022027D01*
X128928194Y-57886421D01*
X128850621Y-57846896D01*
X128722637Y-57781685D01*
X128722636Y-57781684D01*
X128722633Y-57781683D01*
X128632264Y-57752320D01*
X128503219Y-57710390D01*
X128282929Y-57675500D01*
X128275353Y-57674300D01*
X128044647Y-57674300D01*
X128037071Y-57675500D01*
X127816780Y-57710390D01*
X127671274Y-57757669D01*
X127597367Y-57781683D01*
X127597364Y-57781684D01*
X127597362Y-57781685D01*
X127391805Y-57886421D01*
X127298405Y-57954281D01*
X127205161Y-58022027D01*
X127205159Y-58022029D01*
X127205158Y-58022029D01*
X127042028Y-58185159D01*
X126990318Y-58256332D01*
X126934987Y-58298998D01*
X126865374Y-58304976D01*
X126803579Y-58272370D01*
X126789682Y-58256332D01*
X126737977Y-58185167D01*
X126737973Y-58185161D01*
X126574839Y-58022027D01*
X126388194Y-57886421D01*
X126310621Y-57846896D01*
X126182637Y-57781685D01*
X126182636Y-57781684D01*
X126182633Y-57781683D01*
X126092264Y-57752320D01*
X125963219Y-57710390D01*
X125742929Y-57675500D01*
X125735353Y-57674300D01*
X125504647Y-57674300D01*
X125497071Y-57675500D01*
X125276780Y-57710390D01*
X125131274Y-57757669D01*
X125057367Y-57781683D01*
X125057364Y-57781684D01*
X125057362Y-57781685D01*
X124851805Y-57886421D01*
X124758405Y-57954281D01*
X124665161Y-58022027D01*
X124665159Y-58022029D01*
X124665158Y-58022029D01*
X124502029Y-58185158D01*
X124502022Y-58185167D01*
X124450008Y-58256757D01*
X124394678Y-58299423D01*
X124325065Y-58305401D01*
X124311990Y-58298502D01*
X124277744Y-58295806D01*
X123480000Y-59093551D01*
X123480000Y-59087339D01*
X123452741Y-58985606D01*
X123400080Y-58894394D01*
X123325606Y-58819920D01*
X123234394Y-58767259D01*
X123132661Y-58740000D01*
X123126446Y-58740000D01*
X123924192Y-57942254D01*
X123924191Y-57942253D01*
X123847935Y-57886850D01*
X123642446Y-57782147D01*
X123423102Y-57710877D01*
X123195319Y-57674800D01*
X122964681Y-57674800D01*
X122736897Y-57710877D01*
X122517553Y-57782147D01*
X122312069Y-57886847D01*
X122235807Y-57942254D01*
X123033554Y-58740000D01*
X123027339Y-58740000D01*
X122925606Y-58767259D01*
X122834394Y-58819920D01*
X122759920Y-58894394D01*
X122707259Y-58985606D01*
X122680000Y-59087339D01*
X122680000Y-59093553D01*
X121882254Y-58295807D01*
X121857447Y-58297760D01*
X121855291Y-58299423D01*
X121785677Y-58305399D01*
X121723883Y-58272790D01*
X121709990Y-58256756D01*
X121657977Y-58185167D01*
X121657973Y-58185161D01*
X121494839Y-58022027D01*
X121308194Y-57886421D01*
X121230621Y-57846896D01*
X121102637Y-57781685D01*
X121102636Y-57781684D01*
X121102633Y-57781683D01*
X121012264Y-57752320D01*
X120883219Y-57710390D01*
X120662929Y-57675500D01*
X120655353Y-57674300D01*
X120424647Y-57674300D01*
X120417071Y-57675500D01*
X120196780Y-57710390D01*
X120051274Y-57757669D01*
X119977367Y-57781683D01*
X119977364Y-57781684D01*
X119977362Y-57781685D01*
X119771805Y-57886421D01*
X119678405Y-57954281D01*
X119585161Y-58022027D01*
X119585159Y-58022029D01*
X119585158Y-58022029D01*
X119422028Y-58185159D01*
X119370318Y-58256332D01*
X119314987Y-58298998D01*
X119245374Y-58304976D01*
X119183579Y-58272370D01*
X119169682Y-58256332D01*
X119117977Y-58185167D01*
X119117973Y-58185161D01*
X118954839Y-58022027D01*
X118768194Y-57886421D01*
X118690621Y-57846896D01*
X118562637Y-57781685D01*
X118562636Y-57781684D01*
X118562633Y-57781683D01*
X118472264Y-57752320D01*
X118343219Y-57710390D01*
X118122929Y-57675500D01*
X118115353Y-57674300D01*
X117884647Y-57674300D01*
X117877071Y-57675500D01*
X117656780Y-57710390D01*
X117511274Y-57757669D01*
X117437367Y-57781683D01*
X117437364Y-57781684D01*
X117437362Y-57781685D01*
X117231805Y-57886421D01*
X117138405Y-57954281D01*
X117045161Y-58022027D01*
X117045159Y-58022029D01*
X117045158Y-58022029D01*
X116882028Y-58185159D01*
X116830318Y-58256332D01*
X116774987Y-58298998D01*
X116705374Y-58304976D01*
X116643579Y-58272370D01*
X116629682Y-58256332D01*
X116577977Y-58185167D01*
X116577973Y-58185161D01*
X116414839Y-58022027D01*
X116228194Y-57886421D01*
X116150621Y-57846896D01*
X116022637Y-57781685D01*
X116022636Y-57781684D01*
X116022633Y-57781683D01*
X115932264Y-57752320D01*
X115803219Y-57710390D01*
X115582929Y-57675500D01*
X115575353Y-57674300D01*
X115344647Y-57674300D01*
X115337071Y-57675500D01*
X115116780Y-57710390D01*
X114971274Y-57757669D01*
X114897367Y-57781683D01*
X114897364Y-57781684D01*
X114897362Y-57781685D01*
X114691805Y-57886421D01*
X114598405Y-57954281D01*
X114505161Y-58022027D01*
X114505159Y-58022029D01*
X114505158Y-58022029D01*
X114342029Y-58185158D01*
X114342029Y-58185159D01*
X114342027Y-58185161D01*
X114342023Y-58185167D01*
X114206421Y-58371805D01*
X114101685Y-58577362D01*
X114030390Y-58796780D01*
X113994300Y-59024647D01*
X104750499Y-59024647D01*
X104750499Y-58744091D01*
X104750499Y-57952129D01*
X104750498Y-57952123D01*
X104750497Y-57952116D01*
X104744091Y-57892517D01*
X104741977Y-57886850D01*
X104693797Y-57757671D01*
X104693793Y-57757664D01*
X104607547Y-57642455D01*
X104607544Y-57642452D01*
X104492335Y-57556206D01*
X104492328Y-57556202D01*
X104357482Y-57505908D01*
X104357483Y-57505908D01*
X104297883Y-57499501D01*
X104297881Y-57499500D01*
X104297873Y-57499500D01*
X104297864Y-57499500D01*
X102702129Y-57499500D01*
X102702123Y-57499501D01*
X102642516Y-57505908D01*
X102507671Y-57556202D01*
X102507664Y-57556206D01*
X102392455Y-57642452D01*
X102392452Y-57642455D01*
X102306206Y-57757664D01*
X102306202Y-57757671D01*
X102255908Y-57892517D01*
X102250490Y-57942918D01*
X102249501Y-57952123D01*
X102249500Y-57952135D01*
X102249500Y-58000500D01*
X102229815Y-58067539D01*
X102177011Y-58113294D01*
X102125500Y-58124500D01*
X100392983Y-58124500D01*
X100325944Y-58104815D01*
X100280189Y-58052011D01*
X100271366Y-58024694D01*
X100269737Y-58016503D01*
X100243964Y-57954281D01*
X100209397Y-57870827D01*
X100209393Y-57870820D01*
X100209389Y-57870814D01*
X100183425Y-57831956D01*
X100162548Y-57765280D01*
X100181032Y-57697900D01*
X100233010Y-57651210D01*
X100262337Y-57641448D01*
X100269958Y-57639933D01*
X100438389Y-57570167D01*
X100438391Y-57570166D01*
X100534560Y-57505908D01*
X100589972Y-57468883D01*
X100718883Y-57339972D01*
X100820167Y-57188389D01*
X100889933Y-57019958D01*
X100905083Y-56943796D01*
X100925500Y-56841156D01*
X100925500Y-56658843D01*
X100889934Y-56480047D01*
X100889933Y-56480046D01*
X100889933Y-56480042D01*
X100887587Y-56474378D01*
X100820168Y-56311612D01*
X100820166Y-56311608D01*
X100718886Y-56160032D01*
X100718880Y-56160024D01*
X100589975Y-56031119D01*
X100589967Y-56031113D01*
X100438391Y-55929833D01*
X100438387Y-55929831D01*
X100269962Y-55860068D01*
X100269952Y-55860065D01*
X100091156Y-55824500D01*
X100091154Y-55824500D01*
X99908846Y-55824500D01*
X99908844Y-55824500D01*
X99730048Y-55860065D01*
X99730037Y-55860068D01*
X99717867Y-55865109D01*
X99648398Y-55872573D01*
X99627089Y-55866727D01*
X99532380Y-55831403D01*
X99532372Y-55831401D01*
X99472844Y-55825000D01*
X99250000Y-55825000D01*
X99250000Y-56168983D01*
X99230315Y-56236022D01*
X99229103Y-56237873D01*
X99179830Y-56311614D01*
X99110068Y-56480037D01*
X99110065Y-56480047D01*
X99101805Y-56521570D01*
X99049728Y-56500000D01*
X98950272Y-56500000D01*
X98858386Y-56538060D01*
X98788060Y-56608386D01*
X98750000Y-56700272D01*
X98750000Y-56799728D01*
X98788060Y-56891614D01*
X98858386Y-56961940D01*
X98924696Y-56989406D01*
X98876000Y-57000000D01*
X98075000Y-57000000D01*
X98075000Y-57222844D01*
X98081401Y-57282372D01*
X98081403Y-57282379D01*
X98131645Y-57417086D01*
X98131646Y-57417088D01*
X98138460Y-57426190D01*
X98162876Y-57491655D01*
X98148024Y-57559928D01*
X98098618Y-57609333D01*
X98039192Y-57624500D01*
X94483718Y-57624500D01*
X94416679Y-57604815D01*
X94370924Y-57552011D01*
X94360980Y-57482853D01*
X94390005Y-57419297D01*
X94396037Y-57412819D01*
X94468880Y-57339975D01*
X94468883Y-57339972D01*
X94570167Y-57188389D01*
X94639933Y-57019958D01*
X94655083Y-56943796D01*
X94675500Y-56841156D01*
X94675500Y-56658843D01*
X94639934Y-56480047D01*
X94639933Y-56480046D01*
X94639933Y-56480042D01*
X94637587Y-56474378D01*
X94570168Y-56311612D01*
X94570166Y-56311608D01*
X94468886Y-56160032D01*
X94468880Y-56160024D01*
X94339975Y-56031119D01*
X94339967Y-56031113D01*
X94188391Y-55929833D01*
X94188387Y-55929831D01*
X94019962Y-55860068D01*
X94019952Y-55860065D01*
X93841156Y-55824500D01*
X93841154Y-55824500D01*
X93658846Y-55824500D01*
X93658844Y-55824500D01*
X93480047Y-55860065D01*
X93480034Y-55860069D01*
X93468545Y-55864828D01*
X93399076Y-55872294D01*
X93377765Y-55866447D01*
X93373424Y-55864828D01*
X93342604Y-55853332D01*
X93282481Y-55830908D01*
X93282483Y-55830908D01*
X93222883Y-55824501D01*
X93222881Y-55824500D01*
X93222873Y-55824500D01*
X93222864Y-55824500D01*
X92277129Y-55824500D01*
X92277123Y-55824501D01*
X92217516Y-55830908D01*
X92082671Y-55881202D01*
X92082664Y-55881206D01*
X91967455Y-55967452D01*
X91967452Y-55967455D01*
X91881206Y-56082664D01*
X91881202Y-56082671D01*
X91830908Y-56217517D01*
X91824501Y-56277116D01*
X91824500Y-56277135D01*
X91824500Y-57222870D01*
X91824501Y-57222876D01*
X91830908Y-57282483D01*
X91881202Y-57417328D01*
X91881206Y-57417334D01*
X91887835Y-57426190D01*
X91912252Y-57491654D01*
X91897400Y-57559927D01*
X91847995Y-57609332D01*
X91788568Y-57624500D01*
X89542350Y-57624500D01*
X89475311Y-57604815D01*
X89473459Y-57603602D01*
X89379184Y-57540609D01*
X89379172Y-57540602D01*
X89233501Y-57480264D01*
X89233489Y-57480261D01*
X89078845Y-57449500D01*
X89078842Y-57449500D01*
X88921158Y-57449500D01*
X88921155Y-57449500D01*
X88766510Y-57480261D01*
X88766498Y-57480264D01*
X88620827Y-57540602D01*
X88620814Y-57540609D01*
X88489711Y-57628210D01*
X88489707Y-57628213D01*
X88378213Y-57739707D01*
X88378210Y-57739711D01*
X88290609Y-57870814D01*
X88290602Y-57870827D01*
X88230264Y-58016498D01*
X88230261Y-58016510D01*
X88199500Y-58171153D01*
X77250500Y-58171153D01*
X77250499Y-57499501D01*
X77250499Y-56702129D01*
X77250498Y-56702123D01*
X77250497Y-56702116D01*
X77244091Y-56642517D01*
X77231739Y-56609400D01*
X77193797Y-56507671D01*
X77193793Y-56507664D01*
X77107547Y-56392455D01*
X77107544Y-56392452D01*
X76992335Y-56306206D01*
X76992328Y-56306202D01*
X76857482Y-56255908D01*
X76857483Y-56255908D01*
X76797883Y-56249501D01*
X76797881Y-56249500D01*
X76797873Y-56249500D01*
X76797865Y-56249500D01*
X76595134Y-56249500D01*
X76528095Y-56229815D01*
X76482340Y-56177011D01*
X76472396Y-56107853D01*
X76480573Y-56078047D01*
X76500012Y-56031117D01*
X76519737Y-55983497D01*
X76550500Y-55828842D01*
X76550500Y-55671158D01*
X76550500Y-55671155D01*
X76550499Y-55671153D01*
X76548919Y-55663210D01*
X76519737Y-55516503D01*
X76459794Y-55371786D01*
X76459397Y-55370827D01*
X76459390Y-55370814D01*
X76371789Y-55239711D01*
X76371786Y-55239707D01*
X76260292Y-55128213D01*
X76260288Y-55128210D01*
X76146095Y-55051908D01*
X76129183Y-55040608D01*
X76129172Y-55040602D01*
X75983501Y-54980264D01*
X75983489Y-54980261D01*
X75842092Y-54952135D01*
X94999500Y-54952135D01*
X94999500Y-56547870D01*
X94999501Y-56547876D01*
X95005908Y-56607483D01*
X95056202Y-56742328D01*
X95056206Y-56742335D01*
X95142452Y-56857544D01*
X95142455Y-56857547D01*
X95257664Y-56943793D01*
X95257671Y-56943797D01*
X95392517Y-56994091D01*
X95392516Y-56994091D01*
X95399444Y-56994835D01*
X95452127Y-57000500D01*
X97047872Y-57000499D01*
X97107483Y-56994091D01*
X97242331Y-56943796D01*
X97357546Y-56857546D01*
X97443796Y-56742331D01*
X97494091Y-56607483D01*
X97500500Y-56547873D01*
X97500500Y-56489418D01*
X97509442Y-56458962D01*
X97516745Y-56428059D01*
X97519217Y-56425672D01*
X97520185Y-56422379D01*
X97544167Y-56401597D01*
X97567024Y-56379543D01*
X97571403Y-56377998D01*
X97572989Y-56376624D01*
X97600302Y-56367802D01*
X97622029Y-56363481D01*
X97682452Y-56351463D01*
X97682455Y-56351461D01*
X97682458Y-56351461D01*
X97715787Y-56337654D01*
X97715786Y-56337654D01*
X97715792Y-56337652D01*
X97796286Y-56304312D01*
X97862169Y-56260289D01*
X97882113Y-56246962D01*
X97914902Y-56236696D01*
X97948783Y-56226087D01*
X97948786Y-56226088D01*
X97948790Y-56226087D01*
X97985002Y-56236022D01*
X98016164Y-56244570D01*
X98016165Y-56244571D01*
X98016170Y-56244573D01*
X98039574Y-56270630D01*
X98062855Y-56296547D01*
X98062856Y-56296551D01*
X98062858Y-56296554D01*
X98062861Y-56296575D01*
X98075000Y-56350067D01*
X98075000Y-56500000D01*
X98750000Y-56500000D01*
X98750000Y-55825000D01*
X98608951Y-55825000D01*
X98587705Y-55818761D01*
X98565619Y-55817182D01*
X98554835Y-55809109D01*
X98541912Y-55805315D01*
X98535438Y-55797844D01*
X102250000Y-55797844D01*
X102256401Y-55857372D01*
X102256403Y-55857379D01*
X102306645Y-55992086D01*
X102306649Y-55992093D01*
X102392809Y-56107187D01*
X102392812Y-56107190D01*
X102507906Y-56193350D01*
X102507913Y-56193354D01*
X102642620Y-56243596D01*
X102642627Y-56243598D01*
X102702155Y-56249999D01*
X102702172Y-56250000D01*
X103250000Y-56250000D01*
X103750000Y-56250000D01*
X104297828Y-56250000D01*
X104297844Y-56249999D01*
X104357372Y-56243598D01*
X104357379Y-56243596D01*
X104492086Y-56193354D01*
X104492093Y-56193350D01*
X104607187Y-56107190D01*
X104607190Y-56107187D01*
X104693350Y-55992093D01*
X104693354Y-55992086D01*
X104743596Y-55857379D01*
X104743598Y-55857372D01*
X104749999Y-55797844D01*
X104750000Y-55797827D01*
X104750000Y-55250000D01*
X103750000Y-55250000D01*
X103750000Y-56250000D01*
X103250000Y-56250000D01*
X103250000Y-55250000D01*
X102250000Y-55250000D01*
X102250000Y-55797844D01*
X98535438Y-55797844D01*
X98527413Y-55788582D01*
X98509685Y-55775312D01*
X98504976Y-55762689D01*
X98496157Y-55752511D01*
X98493005Y-55730595D01*
X98485267Y-55709848D01*
X98488130Y-55696685D01*
X98486213Y-55683353D01*
X98495411Y-55663210D01*
X98500118Y-55641575D01*
X98513387Y-55623848D01*
X98515238Y-55619797D01*
X98521269Y-55613320D01*
X98558796Y-55575792D01*
X98620116Y-55542308D01*
X98622124Y-55541889D01*
X98733497Y-55519737D01*
X98879179Y-55459394D01*
X99010289Y-55371789D01*
X99121789Y-55260289D01*
X99170598Y-55187239D01*
X99209015Y-55129747D01*
X99209015Y-55129746D01*
X99209016Y-55129745D01*
X99209099Y-55129619D01*
X99209394Y-55129179D01*
X99269737Y-54983497D01*
X99300500Y-54828842D01*
X99300500Y-54671158D01*
X99300500Y-54671155D01*
X99300499Y-54671153D01*
X99277634Y-54556204D01*
X99269737Y-54516503D01*
X99265349Y-54505909D01*
X99209397Y-54370827D01*
X99209390Y-54370814D01*
X99140519Y-54267742D01*
X99121789Y-54239710D01*
X99084234Y-54202155D01*
X102250000Y-54202155D01*
X102250000Y-54750000D01*
X103250000Y-54750000D01*
X103750000Y-54750000D01*
X104750000Y-54750000D01*
X104750000Y-54202172D01*
X104749999Y-54202155D01*
X104743598Y-54142627D01*
X104743596Y-54142620D01*
X104693354Y-54007913D01*
X104693350Y-54007906D01*
X104607190Y-53892812D01*
X104607187Y-53892809D01*
X104492093Y-53806649D01*
X104492086Y-53806645D01*
X104357379Y-53756403D01*
X104357372Y-53756401D01*
X104297844Y-53750000D01*
X103750000Y-53750000D01*
X103750000Y-54750000D01*
X103250000Y-54750000D01*
X103250000Y-53750000D01*
X102702155Y-53750000D01*
X102642627Y-53756401D01*
X102642620Y-53756403D01*
X102507913Y-53806645D01*
X102507906Y-53806649D01*
X102392812Y-53892809D01*
X102392809Y-53892812D01*
X102306649Y-54007906D01*
X102306645Y-54007913D01*
X102256403Y-54142620D01*
X102256401Y-54142627D01*
X102250000Y-54202155D01*
X99084234Y-54202155D01*
X99010292Y-54128213D01*
X99010288Y-54128210D01*
X98879185Y-54040609D01*
X98879172Y-54040602D01*
X98733501Y-53980264D01*
X98733489Y-53980261D01*
X98578845Y-53949500D01*
X98578842Y-53949500D01*
X98421158Y-53949500D01*
X98421155Y-53949500D01*
X98266510Y-53980261D01*
X98266498Y-53980264D01*
X98120827Y-54040602D01*
X98120814Y-54040609D01*
X97989711Y-54128210D01*
X97989707Y-54128213D01*
X97878213Y-54239707D01*
X97878210Y-54239711D01*
X97790609Y-54370814D01*
X97790602Y-54370827D01*
X97730264Y-54516498D01*
X97730261Y-54516508D01*
X97708141Y-54627714D01*
X97699375Y-54644470D01*
X97695356Y-54662949D01*
X97676613Y-54687985D01*
X97675756Y-54689625D01*
X97674205Y-54691203D01*
X97615171Y-54750237D01*
X97553848Y-54783722D01*
X97484156Y-54778738D01*
X97428224Y-54736868D01*
X97357546Y-54642454D01*
X97334709Y-54625358D01*
X97242335Y-54556206D01*
X97242328Y-54556202D01*
X97107482Y-54505908D01*
X97107483Y-54505908D01*
X97047883Y-54499501D01*
X97047881Y-54499500D01*
X97047873Y-54499500D01*
X97047864Y-54499500D01*
X95452129Y-54499500D01*
X95452123Y-54499501D01*
X95392516Y-54505908D01*
X95257671Y-54556202D01*
X95257664Y-54556206D01*
X95142455Y-54642452D01*
X95142452Y-54642455D01*
X95056206Y-54757664D01*
X95056202Y-54757671D01*
X95005908Y-54892517D01*
X94999501Y-54952116D01*
X94999500Y-54952135D01*
X75842092Y-54952135D01*
X75828845Y-54949500D01*
X75828842Y-54949500D01*
X75671158Y-54949500D01*
X75671155Y-54949500D01*
X75516510Y-54980261D01*
X75516498Y-54980264D01*
X75370827Y-55040602D01*
X75370814Y-55040609D01*
X75239711Y-55128210D01*
X75239707Y-55128213D01*
X75128213Y-55239707D01*
X75128210Y-55239711D01*
X75040609Y-55370814D01*
X75040602Y-55370827D01*
X74980264Y-55516498D01*
X74980261Y-55516510D01*
X74949500Y-55671153D01*
X74949500Y-55828846D01*
X74980261Y-55983489D01*
X74980264Y-55983501D01*
X75040602Y-56129172D01*
X75040609Y-56129184D01*
X75043175Y-56133025D01*
X75064050Y-56199703D01*
X75045563Y-56267083D01*
X75014382Y-56301178D01*
X74892452Y-56392455D01*
X74806206Y-56507664D01*
X74806202Y-56507671D01*
X74755908Y-56642517D01*
X74754153Y-56658846D01*
X74749501Y-56702123D01*
X74749500Y-56702135D01*
X57400429Y-56702135D01*
X57368977Y-56626202D01*
X57368975Y-56626199D01*
X57357750Y-56609400D01*
X56902803Y-57064349D01*
X56799250Y-57064349D01*
X56799250Y-57014622D01*
X56761190Y-56922736D01*
X56690864Y-56852410D01*
X56598978Y-56814350D01*
X56499522Y-56814350D01*
X56461086Y-56830270D01*
X56462732Y-56811885D01*
X56490441Y-56769603D01*
X57004197Y-56255848D01*
X56987395Y-56244621D01*
X56819067Y-56174898D01*
X56819055Y-56174895D01*
X56640359Y-56139350D01*
X56458140Y-56139350D01*
X56279444Y-56174895D01*
X56279436Y-56174897D01*
X56111089Y-56244628D01*
X56108222Y-56246161D01*
X56106550Y-56246508D01*
X56105471Y-56246956D01*
X56105386Y-56246751D01*
X56039818Y-56260395D01*
X55991336Y-56246158D01*
X55987640Y-56244183D01*
X55819212Y-56174418D01*
X55819202Y-56174415D01*
X55640406Y-56138850D01*
X55640404Y-56138850D01*
X55458096Y-56138850D01*
X55458094Y-56138850D01*
X55279297Y-56174415D01*
X55279284Y-56174419D01*
X55267795Y-56179178D01*
X55198326Y-56186644D01*
X55177015Y-56180797D01*
X55172674Y-56179178D01*
X55141854Y-56167682D01*
X55081731Y-56145258D01*
X55081733Y-56145258D01*
X55022133Y-56138851D01*
X55022131Y-56138850D01*
X55022123Y-56138850D01*
X55022114Y-56138850D01*
X54076379Y-56138850D01*
X54076373Y-56138851D01*
X54016766Y-56145258D01*
X53881921Y-56195552D01*
X53881914Y-56195556D01*
X53766705Y-56281802D01*
X53766702Y-56281805D01*
X53680456Y-56397014D01*
X53680452Y-56397021D01*
X53630158Y-56531867D01*
X53623751Y-56591466D01*
X53623750Y-56591485D01*
X50500500Y-56591485D01*
X50500500Y-52713875D01*
X62207400Y-52713875D01*
X62207400Y-52922524D01*
X62240037Y-53128589D01*
X62304512Y-53327020D01*
X62399230Y-53512914D01*
X62435168Y-53562376D01*
X62991557Y-53005988D01*
X63000347Y-53038791D01*
X63075587Y-53169109D01*
X63181991Y-53275513D01*
X63312309Y-53350753D01*
X63345111Y-53359542D01*
X62788722Y-53915930D01*
X62788722Y-53915931D01*
X62838185Y-53951869D01*
X63024079Y-54046587D01*
X63222510Y-54111062D01*
X63428576Y-54143700D01*
X63637224Y-54143700D01*
X63843289Y-54111062D01*
X64041720Y-54046587D01*
X64227609Y-53951872D01*
X64277076Y-53915930D01*
X63720688Y-53359542D01*
X63753491Y-53350753D01*
X63883809Y-53275513D01*
X63990213Y-53169109D01*
X64065453Y-53038791D01*
X64074242Y-53005988D01*
X64630630Y-53562376D01*
X64666571Y-53512909D01*
X64692133Y-53462741D01*
X64740107Y-53411944D01*
X64807927Y-53395148D01*
X64874063Y-53417684D01*
X64913103Y-53462738D01*
X64938667Y-53512909D01*
X64938803Y-53513175D01*
X65061484Y-53682031D01*
X65209069Y-53829616D01*
X65377925Y-53952297D01*
X65432808Y-53980261D01*
X65563888Y-54047050D01*
X65563890Y-54047050D01*
X65563893Y-54047052D01*
X65670294Y-54081624D01*
X65762393Y-54111549D01*
X65865468Y-54127874D01*
X65968542Y-54144200D01*
X65968543Y-54144200D01*
X66177257Y-54144200D01*
X66177258Y-54144200D01*
X66383406Y-54111549D01*
X66581907Y-54047052D01*
X66767875Y-53952297D01*
X66936731Y-53829616D01*
X67083044Y-53683302D01*
X67144363Y-53649820D01*
X67214055Y-53654804D01*
X67269989Y-53696675D01*
X67288745Y-53744288D01*
X67291524Y-53743632D01*
X67293307Y-53751179D01*
X67343602Y-53886028D01*
X67343606Y-53886035D01*
X67429852Y-54001244D01*
X67429855Y-54001247D01*
X67545064Y-54087493D01*
X67545071Y-54087497D01*
X67679917Y-54137791D01*
X67679916Y-54137791D01*
X67686844Y-54138535D01*
X67739527Y-54144200D01*
X69486272Y-54144199D01*
X69545883Y-54137791D01*
X69680731Y-54087496D01*
X69795946Y-54001246D01*
X69882196Y-53886031D01*
X69932491Y-53751183D01*
X69938900Y-53691573D01*
X69938899Y-51944828D01*
X69932491Y-51885217D01*
X69903237Y-51806784D01*
X69882197Y-51750371D01*
X69882193Y-51750364D01*
X69795947Y-51635155D01*
X69795944Y-51635152D01*
X69680735Y-51548906D01*
X69680728Y-51548902D01*
X69545882Y-51498608D01*
X69545883Y-51498608D01*
X69486283Y-51492201D01*
X69486281Y-51492200D01*
X69486273Y-51492200D01*
X69486264Y-51492200D01*
X67739529Y-51492200D01*
X67739523Y-51492201D01*
X67679916Y-51498608D01*
X67545071Y-51548902D01*
X67545064Y-51548906D01*
X67429855Y-51635152D01*
X67429852Y-51635155D01*
X67343606Y-51750364D01*
X67343602Y-51750371D01*
X67293308Y-51885217D01*
X67291526Y-51892762D01*
X67288486Y-51892043D01*
X67267225Y-51943282D01*
X67209807Y-51983093D01*
X67139981Y-51985543D01*
X67083042Y-51953095D01*
X66936733Y-51806786D01*
X66936731Y-51806784D01*
X66767875Y-51684103D01*
X66581911Y-51589349D01*
X66383406Y-51524850D01*
X66205443Y-51496664D01*
X66177258Y-51492200D01*
X65968542Y-51492200D01*
X65943746Y-51496127D01*
X65762393Y-51524850D01*
X65563888Y-51589349D01*
X65377924Y-51684103D01*
X65209066Y-51806786D01*
X65061486Y-51954366D01*
X64938803Y-52123224D01*
X64913103Y-52173662D01*
X64865128Y-52224457D01*
X64797306Y-52241251D01*
X64731172Y-52218712D01*
X64692134Y-52173659D01*
X64666571Y-52123488D01*
X64666571Y-52123487D01*
X64630630Y-52074022D01*
X64074242Y-52630410D01*
X64065453Y-52597609D01*
X63990213Y-52467291D01*
X63883809Y-52360887D01*
X63753491Y-52285647D01*
X63720688Y-52276857D01*
X64277076Y-51720468D01*
X64277076Y-51720467D01*
X64227614Y-51684530D01*
X64041720Y-51589812D01*
X63843289Y-51525337D01*
X63637224Y-51492700D01*
X63428576Y-51492700D01*
X63222510Y-51525337D01*
X63024079Y-51589812D01*
X62838185Y-51684530D01*
X62788722Y-51720468D01*
X62788721Y-51720468D01*
X63345111Y-52276857D01*
X63312309Y-52285647D01*
X63181991Y-52360887D01*
X63075587Y-52467291D01*
X63000347Y-52597609D01*
X62991557Y-52630410D01*
X62435168Y-52074021D01*
X62435168Y-52074022D01*
X62399230Y-52123485D01*
X62304512Y-52309379D01*
X62240037Y-52507810D01*
X62207400Y-52713875D01*
X50500500Y-52713875D01*
X50500500Y-50624500D01*
X50520185Y-50557461D01*
X50572989Y-50511706D01*
X50624500Y-50500500D01*
X149375500Y-50500500D01*
X149442539Y-50520185D01*
G37*
%TD.AperFunction*%
%TD*%
M02*
